<svg width="243" height="243" viewBox="0 0 243 243" fill="none" xmlns="http://www.w3.org/2000/svg">
<g clip-path="url(#clip0_1703_19303)">
<path d="M20.2446 201.776C4.69596 168.462 37.9818 119.968 94.5906 93.4608C151.199 66.9539 209.695 72.4719 225.243 105.786C240.792 139.099 207.506 187.594 150.897 214.1C94.2883 240.607 35.7932 235.089 20.2446 201.776Z" fill="#1B1B1C" stroke="#2D9FFF" stroke-width="0.605708" stroke-linecap="round" stroke-linejoin="round"/>
<path d="M89.8808 230.558C103.125 216.703 120.793 203.979 141.622 194.229C162.452 184.479 183.53 179.058 202.635 177.773" stroke="#2D9FFF" stroke-width="0.605708" stroke-linecap="round" stroke-linejoin="round"/>
<path d="M227.674 135.324C201.778 122.175 159.441 124.453 118.098 143.807C76.7639 163.168 47.8578 194.238 41.3304 222.57" stroke="#2D9FFF" stroke-width="0.605708" stroke-linecap="round" stroke-linejoin="round"/>
<path d="M94.5982 93.4466L150.907 214.092" stroke="#0500FF" stroke-width="0.605708" stroke-linecap="round" stroke-linejoin="round"/>
<path d="M141.132 78.7041L192.048 187.791" stroke="#2D9FFF" stroke-width="0.605708" stroke-linecap="round" stroke-linejoin="round"/>
<path d="M183.147 78.234L219.357 155.811" stroke="#2D9FFF" stroke-width="0.605708" stroke-linecap="round" stroke-linejoin="round"/>
<path d="M54.1063 119.195L105.214 228.698" stroke="#2D9FFF" stroke-width="0.605708" stroke-linecap="round" stroke-linejoin="round"/>
<path d="M26.6424 150.873L63.3324 229.483" stroke="#2D9FFF" stroke-width="0.605708" stroke-linecap="round" stroke-linejoin="round"/>
<path d="M17.3288 174.594L39.1912 221.436" stroke="#2D9FFF" stroke-width="0.605708" stroke-linecap="round" stroke-linejoin="round"/>
<path d="M47.5704 164.168L40.6383 156.717C40.8999 156.049 41.1718 155.381 41.4541 154.71L75.3884 156.596C77.4708 156.713 79.4258 155.584 80.3689 153.722L91.4934 131.535L94.4431 135.287L89.2458 128.678C87.4009 126.334 86.234 123.529 85.8692 120.569L82.4616 92.9473C82.0623 89.7256 82.5821 86.4557 83.9589 83.5163L88.6056 73.5931L87.69 62.72L99.1345 38.9119L126.712 30.6719L171.588 54.707V102.437L166.724 141.964L158.849 147.578L150.134 178.459C147.825 186.644 150.286 195.435 156.509 201.232L163.365 207.616C157.056 211.285 150.695 214.504 144.355 217.264L47.5739 181.87V164.168H47.5704Z" fill="url(#paint0_linear_1703_19303)"/>
<path d="M96.4611 61.3368C98.3818 60.6346 100.536 61.2369 101.817 62.8305L103.941 65.4809C104.918 66.6994 105.08 68.3824 104.347 69.7661L102.911 72.4818L97.4937 69.2224C95.6901 68.1381 93.4735 67.9935 91.5426 68.8368L89.6392 69.6698L92.8195 62.6722L96.4611 61.3437V61.3368Z" fill="#1B1B1C"/>
<path d="M76.4956 170.973L80.9082 189.199L69.6151 184.328C66.8615 183.141 63.7672 182.989 60.9104 183.908L56.7766 185.237L47.5797 181.878V169.063L69.264 166.055C72.5821 165.594 75.7074 167.724 76.4956 170.98V170.973Z" fill="white"/>
<path d="M76.1218 53.7949L77.5778 52.9138C78.2455 52.5076 78.483 51.654 78.1182 50.9622L76.7483 48.3738C75.1133 45.2829 75.5126 41.5106 77.7602 38.8328L83.9316 31.4737C84.3343 30.9919 84.9952 30.8199 85.5838 31.0401L87.8486 31.8904C88.2788 32.0521 88.7573 32.0039 89.1462 31.763C89.5352 31.522 89.7899 31.1125 89.8381 30.6581L90.3062 26.1318C90.3922 25.2989 90.7915 24.528 91.4179 23.9739L102.618 14.1125C104.656 12.3192 107.275 11.3314 109.987 11.3314H111.044C111.825 8.98738 114.063 7.44538 116.531 7.55208L126.079 7.95493C128.632 8.06164 130.97 9.42106 132.329 11.5895L134.856 15.6202C135.279 16.2948 136.033 16.6838 136.824 16.639L145.157 16.1674C146.648 16.0814 148.014 16.9934 148.506 18.4012C148.923 19.5852 149.818 20.5387 150.974 21.024L161.403 25.416C163.207 26.1767 164.381 27.9423 164.381 29.9008V32.8505C164.381 32.8505 171.086 32.1038 175.216 35.828L189.445 48.6526C191.724 50.7041 193.114 53.5643 193.331 56.6208L193.469 58.5759L200.215 64.2138C201.829 65.563 202.328 67.8313 201.43 69.7347L198.033 76.9215L200.707 97.6524C200.883 99.0017 200.315 100.341 199.227 101.153L198.212 101.914C197.369 102.547 196.825 103.504 196.718 104.55L196.456 107.135C196.298 108.694 195.314 110.047 193.878 110.677L190.474 112.174C190.474 113.661 189.679 115.034 188.392 115.781L183.222 118.766L180.4 131.518L181.656 136.767C182.086 138.567 181.604 140.464 180.362 141.837L178.407 144.002C176.373 146.256 173.478 147.54 170.442 147.54L159.139 160.43C158.178 161.525 156.216 162.224 154.781 161.986L159.779 144.277L163.458 141.513L161.551 132.203L166.893 124.803L168.8 107.404L163.073 108.223C161.658 108.426 160.24 107.865 159.345 106.753C158.485 105.686 158.226 104.254 158.653 102.95L164.684 84.5867L161.025 77.2657C159.872 74.9595 159.311 72.4023 159.393 69.8243L159.572 64.1381L151.563 62.2553C148.703 61.5841 146.462 59.3675 145.756 56.5176L143.013 45.4448L140.366 46.3397C138.759 46.8836 136.99 46.6736 135.554 45.7683L123.556 38.196L96.4569 44.4947L87.6903 62.7269L88.6058 73.6L86.3204 78.4841L80.1971 71.8963L81.0507 69.6693L77.5193 69.0154L76.3765 67.7865C74.8758 66.1688 74.0394 64.0451 74.0394 61.8388V57.4848C74.0394 55.9772 74.8276 54.5798 76.1149 53.7985L76.1218 53.7949Z" fill="url(#paint1_linear_1703_19303)"/>
<path d="M88.6113 73.5982L86.6907 77.6941L83.8029 72.4831L88.3325 70.3008L88.6113 73.5982Z" fill="#1B1B1C"/>
<path d="M79.5799 54.8551L81.5178 53.6847C82.158 53.2957 82.3885 52.4766 82.0375 51.8123L80.6607 49.1963C79.7692 47.4994 79.8174 45.4619 80.7915 43.8132L82.7706 40.4642C84.1715 38.0927 87.0421 37.0257 89.6511 37.9103L100.091 41.4383C100.934 41.724 101.595 42.3848 101.877 43.2315L99.8634 43.6996C97.7087 44.1987 95.9017 45.6512 94.9414 47.6441L87.6892 62.7267L88.1814 68.5816L85.1697 66.327L81.0496 69.6693L77.7316 65.2428V58.1249C77.7316 56.7894 78.4303 55.5503 79.573 54.8584L79.5799 54.8551Z" fill="#FFAEFE"/>
<path d="M94.0872 43.1837L95.5259 40.0755C96.4725 38.0345 95.6017 35.6114 93.5709 34.6373L87.8366 31.8906" stroke="url(#paint2_linear_1703_19303)" stroke-width="0.605708" stroke-linecap="round" stroke-linejoin="round"/>
<path d="M101.972 31.1117L104.006 31.6658C104.997 31.9342 105.848 32.571 106.384 33.4452L108.828 37.4242L109.885 35.3074C110.604 33.8686 110.233 32.1201 108.987 31.1012L108.03 30.3165C106.567 29.1187 105.651 27.3771 105.49 25.4909C105.328 23.6047 105.937 21.7357 107.176 20.3073L111.492 15.3302C114.318 12.0741 118.844 10.8693 122.913 12.2943L132.819 15.7604C134.478 16.3421 135.669 17.8119 135.886 19.5604L135.906 19.7256C136.14 21.6187 137.49 23.1882 139.328 23.7045L155.55 28.2651C156.974 28.6644 158.241 29.4904 159.188 30.6263L164.45 36.9664L175.155 40.2671C177.289 40.9246 179.258 42.0192 180.944 43.4821L184.593 46.6486C185.636 47.5538 186.235 48.8653 186.235 50.2455V54.0832C186.235 56.2895 187.233 58.3788 188.954 59.7625L201.396 69.782L198.023 76.9172L200.656 97.3108C200.856 98.8666 200.206 100.412 198.949 101.352L198.426 101.744C197.442 102.481 196.815 103.599 196.702 104.821L196.464 107.365C196.271 109.416 195.136 111.261 193.394 112.359L183.223 118.761L180.4 131.514L181.657 136.766C182.087 138.566 181.605 140.463 180.363 141.836L178.408 144.001C176.373 146.256 173.479 147.54 170.443 147.54L159.139 160.43C158.055 161.669 156.407 162.254 154.782 161.986L159.78 144.277L163.459 141.513L161.552 132.202L166.894 124.802L168.801 107.403L160.788 108.549L157.966 105.038L164.681 84.5894L159.263 73.7541L159.57 64.1407L146.903 61.1633L143.01 45.4439L137.82 47.1993L123.55 38.1951L106.45 42.1706L105.159 40.7903L99.6623 34.8323C98.9636 34.075 98.8707 32.9358 99.4351 32.0753C99.9824 31.2424 101.001 30.857 101.962 31.1185L101.972 31.1117Z" fill="#FFAEFE"/>
<path d="M144.651 205.819L142.414 193.315L136.462 204.226C134.982 206.938 132.59 209.034 129.709 210.142C129.709 210.142 130.084 198.973 136.098 189.339L148.998 168.67C153.751 161.056 150.643 152.94 150.643 152.94L125.723 188.042C123.903 190.609 121.025 192.227 117.886 192.447C117.359 192.485 116.854 192.237 116.561 191.8C116.265 191.363 116.227 190.802 116.461 190.327L138.104 146.239C138.462 145.513 138.359 144.642 137.839 144.019C137.319 143.396 136.483 143.138 135.705 143.355L119.907 147.795C115.174 149.127 110.097 147.633 106.834 143.953L97.1965 133.077C95.9711 131.693 95.417 129.841 95.6786 128.01L96.0744 125.25C96.2878 123.753 97.5579 122.634 99.0689 122.606L103.299 122.534C104.538 122.513 105.757 122.875 106.782 123.567L109.801 125.608C111.601 126.826 113.955 126.854 115.787 125.68L123.145 120.964C126.377 118.892 128.838 115.812 130.143 112.201L135.444 97.5282C136.875 93.563 139.099 89.9317 141.98 86.8581L147.862 80.5731C149.397 78.9347 149.704 76.4944 148.626 74.5221L145.58 68.9667L138.645 63.3426L132.435 61.4667C129.716 60.644 127.971 61.1534 127.971 61.1534L129.875 64.0655L125.995 64.3201L121.042 72.271C120.464 73.1969 119.583 73.8921 118.544 74.2329L115.814 75.1347L114.551 86.6895C114.503 87.1404 114.248 87.543 113.862 87.7839C113.477 88.0249 113.002 88.073 112.579 87.9147L111.536 87.5327C110.345 87.0955 109.009 87.3433 108.052 88.1797L105.881 90.0763L111.973 92.224C114.661 93.1706 116.334 98.4438 110.744 100.092L104.7 101.875C101.909 102.598 100.532 100.839 100.983 99.4419L101.251 98.609C101.716 97.1737 100.463 96.0309 99.2307 96.1135L96.4461 96.2959L95.6992 95.2875C95.1485 94.544 95.0384 93.5596 95.4101 92.7094L96.0434 91.2741C95.596 90.5307 95.3344 89.7046 95.2862 88.82L99.241 88.7167C100.552 88.6823 101.778 88.0628 102.583 87.0268L103.888 85.347L110.775 67.5005L111.439 63.8865C111.911 61.3222 113.973 59.35 116.558 58.9954L123.982 57.98C125.964 57.7081 127.978 57.7115 129.961 57.9903L135.203 58.7235C137.474 59.0402 139.736 58.0763 141.078 56.2177L141.787 55.2333C142.352 54.452 142.513 53.4539 142.224 52.5349C141.935 51.6159 141.23 50.8895 140.324 50.5729L110.303 40.092L110.448 35.5383L126.739 30.668L171.615 54.7032V102.433L167.557 128.268L163.2 141.799C162.793 143.059 161.988 144.153 160.904 144.914L159.31 146.032L150.158 178.456C147.848 186.641 150.309 195.432 156.533 201.228L163.389 207.613C159.035 210.146 154.657 212.466 150.278 214.565C147.329 212.517 145.301 209.375 144.665 205.816L144.651 205.819Z" fill="url(#paint3_linear_1703_19303)"/>
<path d="M141.328 146.885C142.367 144.912 142.071 141.884 140.667 140.152L138.254 137.175C144.952 137.461 152.187 134.012 155.674 128.439L157.243 125.934C157.908 127.544 157.767 130.109 156.927 131.633L145.104 153.135C144.46 154.302 142.87 155.49 141.569 155.772L138.891 156.35C137.304 156.694 136.626 155.799 137.383 154.364L141.331 146.885H141.328Z" fill="#FFAEFE"/>
<path d="M91.498 131.538L89.2539 128.681C87.409 126.337 86.2421 123.532 85.8773 120.568L82.4697 92.9462C82.0705 89.7245 82.5902 86.4547 83.967 83.5152L88.6137 73.592L87.6981 62.7188" stroke="url(#paint4_linear_1703_19303)" stroke-width="0.605708" stroke-linecap="round" stroke-linejoin="round"/>
<path d="M94.4512 135.291L91.498 131.539" stroke="#0500FF" stroke-width="0.605708" stroke-linecap="round" stroke-linejoin="round"/>
<path d="M88.6152 73.5943L86.6946 77.6902L83.8068 72.4792L88.3364 70.2969L88.6152 73.5943Z" fill="#1B1B1C"/>
<path d="M98.0681 103.048C98.9837 102.769 99.975 102.873 100.811 103.337C103.455 104.804 104.26 101.805 108.363 103.864L116.658 108.029C116.028 109.498 115.006 109.485 113.402 109.047L108.136 107.612C107.348 107.423 106.522 107.437 105.74 107.66L103.968 108.163C102.797 108.493 101.548 108.362 100.474 107.794C99.5964 107.333 98.55 107.33 97.6689 107.788C96.9082 108.184 95.9754 107.956 95.4798 107.258L95.256 106.944L95.8791 105.161C96.2301 104.149 97.0459 103.365 98.0716 103.052L98.0681 103.048Z" fill="#FFAEFE"/>
<path d="M171.652 80.4697C172.237 78.7797 173.827 77.6439 175.617 77.6439H179.534C181.919 77.6439 184.091 76.5769 185.551 74.8594L193.14 85.5433C194.035 86.8065 193.922 88.5239 192.868 89.6563L191.457 91.1709C190.693 91.9901 190.404 93.1465 190.69 94.2307L193.746 105.765C194.149 107.283 193.574 108.894 192.3 109.816L186.373 114.105C185.792 114.525 185.024 114.576 184.394 114.232C183.764 113.891 183.702 113.162 183.42 112.504L177.882 99.552L171.37 92.2551L169.859 90.9988C168.998 90.2863 168.671 89.1125 169.036 88.0558L171.652 80.4732V80.4697Z" stroke="#0500FF" stroke-width="0.605708" stroke-linecap="round" stroke-linejoin="round"/>
<path d="M171.366 92.2521L169.855 90.9958C168.995 90.2798 168.668 89.1096 169.032 88.053L171.648 80.4702C172.233 78.7802 173.824 77.6444 175.613 77.6444H179.53C181.916 77.6444 184.088 76.5774 185.547 74.8599C186.421 73.8273 187.041 72.564 187.295 71.1562L187.74 68.685C188.672 63.5014 185.657 58.421 180.663 56.7551L175.307 54.9688" stroke="#0500FF" stroke-width="0.605708" stroke-linecap="round" stroke-linejoin="round"/>
<path d="M126.987 134.337L134.205 136.509C135.506 136.901 136.866 137.118 138.249 137.177C144.948 137.462 152.183 134.013 155.669 128.441L157.239 125.935L160.877 120.125" stroke="#0500FF" stroke-width="0.605708" stroke-linecap="round" stroke-linejoin="round"/>
<path d="M123.412 133.257L120.992 132.527" stroke="#0500FF" stroke-width="0.605708" stroke-linecap="round" stroke-linejoin="round"/>
<path d="M177.188 113.5L177.629 115.403C177.921 116.677 177.398 117.995 176.314 118.721L168.218 124.136C166.401 125.351 165.059 127.154 164.415 129.243L161.114 139.958" stroke="#0500FF" stroke-width="0.605708" stroke-linecap="round" stroke-linejoin="round"/>
<path d="M96.4312 96.2943L95.6842 95.286C95.1335 94.5425 95.0234 93.558 95.3951 92.7078L96.0284 91.2726C95.0337 89.6135 94.9477 87.5483 96.1179 85.3317L100.562 76.923L104.344 69.7637C105.074 68.3834 104.916 66.7004 103.938 65.4785L101.814 62.8281" stroke="#0500FF" stroke-width="0.605708" stroke-linecap="round" stroke-linejoin="round"/>
<path d="M95.2599 88.5149C95.2599 87.5132 95.5318 86.4427 96.117 85.3344L100.561 76.9258" stroke="#0500FF" stroke-width="0.605708" stroke-linecap="round" stroke-linejoin="round"/>
<path d="M115.421 95.1086L115.748 92.8955C115.982 91.3088 115.459 89.7048 114.333 88.5586" stroke="#0500FF" stroke-width="0.605708" stroke-linecap="round" stroke-linejoin="round"/>
<path d="M106.396 92.3652C105.678 92.2425 104.957 92.4844 104.458 92.9922L111.651 95.7148C112.057 95.5007 112.272 95.2611 112.372 95.0381C112.479 94.7986 112.472 94.54 112.367 94.2803C112.15 93.7421 111.53 93.2494 110.856 93.1328L110.857 93.1318L106.396 92.3652Z" fill="#FFAEFE" stroke="#0500FF" stroke-width="0.605708"/>
<path d="M123.975 73.7123C123.975 73.7123 124.766 69.6714 128.972 69.668C132.941 69.6645 137.309 72.9896 139.828 75.2647C140.207 75.6054 140.338 76.1388 140.166 76.6173C139.993 77.0957 139.546 77.4192 139.037 77.4364L132.986 77.6396C129.117 77.7704 125.272 76.9959 121.755 75.385L121.737 75.3781" stroke="#0500FF" stroke-width="0.605708" stroke-linecap="round" stroke-linejoin="round"/>
<path d="M101.39 75.3749L102.471 73.3271C102.471 73.3271 97.3422 68.849 93.6248 71.2515C89.9041 73.654 91.2258 77.7843 91.2258 77.7843L95.6177 77.4299" stroke="#0500FF" stroke-width="0.605708" stroke-linecap="round" stroke-linejoin="round"/>
<path d="M123.976 73.707C123.869 74.3507 123.934 74.9737 124.186 75.5038" stroke="#0500FF" stroke-width="0.605708" stroke-linecap="round" stroke-linejoin="round"/>
<path d="M126.246 76.8783C126.828 76.9816 127.475 76.9231 128.115 76.7062C128.756 76.4894 129.396 76.1143 129.96 75.5911C131.53 74.1352 131.988 72.0354 131.076 70.7344" stroke="#0500FF" stroke-width="0.605708" stroke-linecap="round" stroke-linejoin="round"/>
<path d="M92.9005 77.6407C93.7575 77.3 94.6697 76.5393 95.3821 75.4757C96.4251 73.9234 96.7177 72.2128 96.191 71.2422" stroke="#0500FF" stroke-width="0.605708" stroke-linecap="round" stroke-linejoin="round"/>
<path d="M106.919 111.612L113.255 111.571C113.682 111.571 114.092 111.747 114.377 112.067C114.663 112.384 114.804 112.807 114.759 113.234L114.518 115.498C114.35 117.075 112.67 117.953 110.409 117.299L103.363 115.258C102.251 114.934 101.064 114.975 99.9796 115.375L97.6219 116.235L95.6049 110.793L100.183 110.645C102.805 110.563 104.561 111.626 106.919 111.612Z" fill="#FFAEFE"/>
<path d="M159.205 30.6266C159.205 30.6266 148.979 25.7046 146.081 39.6687" stroke="#0500FF" stroke-width="0.605708" stroke-linecap="round" stroke-linejoin="round"/>
<path d="M109.604 182.187L110.059 194.833C110.103 196.058 109.319 197.156 108.148 197.518L98.8379 176.074L105.061 177.059C107.608 177.461 109.511 179.609 109.601 182.187H109.604Z" fill="white"/>
<path d="M97.0371 93.499L97.0361 93.5C96.6664 93.8509 96.5695 94.4049 96.7969 94.8604L98.0254 94.1416L97.291 93.2559L97.0371 93.499Z" fill="#FFAEFE" stroke="#0500FF" stroke-width="0.605708"/>
<path d="M76.1218 53.7949L77.5778 52.9138C78.2455 52.5076 78.483 51.654 78.1182 50.9622L76.7482 48.3738C75.1133 45.2829 75.5126 41.5106 77.7602 38.8328L83.1159 32.4478C84.0074 31.3843 85.4736 30.9988 86.7747 31.4875L87.8486 31.8904C88.2788 32.0522 88.7573 32.0039 89.1462 31.763C89.5352 31.522 89.7899 31.1125 89.8381 30.6581L90.3062 26.1318C90.3922 25.2989 90.7915 24.528 91.4179 23.9739L102.618 14.1125C104.656 12.3192 107.275 11.3314 109.987 11.3314H111.044C111.825 8.98738 114.063 7.44538 116.531 7.55208L126.079 7.95493C128.632 8.06164 130.97 9.42106 132.329 11.5895L134.856 15.6202C135.279 16.2948 136.033 16.6838 136.824 16.639L145.157 16.1674C146.648 16.0814 148.014 16.9934 148.506 18.4012C148.923 19.5852 149.818 20.5387 150.974 21.024L161.403 25.416C163.207 26.1767 164.381 27.9423 164.381 29.9008V32.8505C164.381 32.8505 171.086 32.1038 175.216 35.828L189.445 48.6527C191.724 50.7041 193.114 53.5643 193.331 56.6208L193.469 58.5759L200.215 64.2138C201.829 65.563 202.328 67.8313 201.43 69.7347L198.033 76.9215L200.707 97.6524C200.883 99.0017 200.315 100.341 199.227 101.153L198.212 101.914C197.369 102.547 196.825 103.504 196.718 104.55L196.46 107.359C196.271 109.417 195.135 111.265 193.386 112.367L183.222 118.766L180.4 131.518L181.656 136.767C182.086 138.567 181.604 140.464 180.362 141.837L178.407 144.002C176.373 146.256 173.478 147.54 170.442 147.54L159.139 160.43C158.054 161.67 156.406 162.258 154.781 161.986L159.779 144.277L165.403 126.025L168.8 107.407L163.073 108.226C161.658 108.429 160.24 107.868 159.345 106.756C158.485 105.689 158.226 104.258 158.653 102.953L164.684 84.5903L161.025 77.2692C159.872 74.9631 160.202 69.6728 162.55 67.3082L158.543 63.3017L151.566 62.2588C148.661 61.8252 146.465 59.3709 145.76 56.5209L143.495 47.3723C143.371 46.8767 143.047 46.4567 142.6 46.2124C142.153 45.968 141.622 45.9197 141.141 46.085L140.373 46.3431C138.766 46.8869 136.996 46.6769 135.561 45.7717L126.137 39.824C124.488 38.7846 122.492 38.4472 120.595 38.8878L99.8679 43.7065C97.7133 44.2056 95.9062 45.6581 94.9459 47.651L87.6972 62.7338L88.6127 73.6069L86.3273 78.491L80.204 71.9032L81.0576 69.6762L77.5261 69.0223L76.3834 67.7934C74.8827 66.1757 74.0463 64.052 74.0463 61.8457V57.4917C74.0463 55.9841 74.8345 54.5867 76.1218 53.8054V53.7949Z" stroke="#0500FF" stroke-width="0.605708" stroke-linecap="round" stroke-linejoin="round"/>
<path d="M111.049 11.3281L110.209 14.6462" stroke="#0500FF" stroke-width="0.605708" stroke-linecap="round" stroke-linejoin="round"/>
<path d="M188.459 54.3828L193.471 58.5717" stroke="#0500FF" stroke-width="0.605708" stroke-linecap="round" stroke-linejoin="round"/>
<path d="M155.473 62.83L157.425 63.1226C159.624 63.4496 161.865 62.8608 163.62 61.4944L168.35 57.8047" stroke="#0500FF" stroke-width="0.605708" stroke-linecap="round" stroke-linejoin="round"/>
<path d="M167.588 63.1445L162.552 67.3025" stroke="#0500FF" stroke-width="0.605708" stroke-linecap="round" stroke-linejoin="round"/>
<path d="M179.275 86.7275C176.548 86.01 173.661 86.9794 171.914 89.1816L171.852 89.2637L169.762 91.9746L161.225 116.226L163.503 118.174C164.448 118.982 165.811 119.083 166.866 118.42L170.917 115.876H170.916C171.722 115.367 172.656 115.1 173.611 115.1H175.587C176.729 115.1 177.824 114.664 178.649 113.887L178.811 113.727L180.914 111.537C183.806 108.523 185.338 104.456 185.152 100.285L184.86 93.6494C184.715 90.3674 182.451 87.5612 179.275 86.7275Z" fill="url(#paint5_linear_1703_19303)" stroke="#0500FF" stroke-width="0.605708"/>
<path d="M170.503 98.5463L176.151 91.7106C177.428 90.1651 179.666 89.8381 181.332 90.9533C183.084 92.127 184.051 94.1715 183.841 96.2745L183.242 102.301C182.997 104.752 181.824 107.014 179.962 108.624L177.656 110.617" stroke="#0500FF" stroke-width="0.605708" stroke-linecap="round" stroke-linejoin="round"/>
<path d="M176.16 91.7104C177.437 90.165 179.675 89.8381 181.341 90.9533C182.218 91.5419 182.896 92.3438 183.33 93.2662L180.608 92.7052C179.262 92.4299 177.878 92.9599 177.069 94.0682L172.398 100.45L170.509 98.5428L174.608 93.583L176.157 91.7071L176.16 91.7104Z" fill="#FFAEFE" stroke="#0500FF" stroke-width="0.605708" stroke-linecap="round" stroke-linejoin="round"/>
<path d="M172.51 96.1094L177.879 99.5513C179.184 100.388 179.81 101.968 179.432 103.472L179.191 104.429C178.853 105.768 177.776 106.797 176.423 107.079C175.288 107.313 174.107 107.027 173.205 106.301L172.396 105.65L170.328 106.194C168.011 106.803 166.731 105.306 166.731 105.306L170.507 98.5532L172.507 96.1127L172.51 96.1094Z" fill="#FFAEFE" stroke="#0500FF" stroke-width="0.605708" stroke-linecap="round" stroke-linejoin="round"/>
<path d="M126.424 71.5983C125.605 72.2523 125.347 73.2917 125.85 73.925C126.352 74.5583 127.426 74.5411 128.249 73.8906C129.068 73.2366 129.326 72.1972 128.823 71.5639C128.706 71.4159 128.558 71.3057 128.39 71.2266" stroke="#0500FF" stroke-width="0.605708" stroke-linecap="round" stroke-linejoin="round"/>
<path d="M92.1651 73.6542C91.7108 74.4011 91.6489 75.1791 92.055 75.4923C92.5162 75.8502 93.4146 75.4716 94.0548 74.642C94.695 73.8125 94.843 72.8522 94.3818 72.4908C94.0996 72.2705 93.6555 72.3291 93.2081 72.5942" stroke="#0500FF" stroke-width="0.605708" stroke-linecap="round" stroke-linejoin="round"/>
<path d="M160.871 60.0108L161.501 59.6183C162.664 58.8955 163.094 57.4087 162.495 56.173L161.91 54.9648L160.034 51.103C159.439 49.8776 159.818 48.4045 160.926 47.6163L165.7 44.2224C167.338 43.0556 169.472 42.8457 171.31 43.6683C173.148 44.4909 174.377 46.1741 174.628 48.1395L174.986 50.9516" stroke="#0500FF" stroke-width="0.605708" stroke-linecap="round" stroke-linejoin="round"/>
<path d="M157.858 33.4776L164.381 32.8477" stroke="#0500FF" stroke-width="0.605708" stroke-linecap="round" stroke-linejoin="round"/>
<path d="M186.896 116.434L180.247 120.64C179.396 121.177 178.901 122.13 178.949 123.135L179.052 125.345C179.166 127.727 177.779 129.926 175.583 130.852L172.726 132.057C171.483 132.58 170.072 132.539 168.861 131.943L167.16 131.107" stroke="#0500FF" stroke-width="0.605708" stroke-linecap="round" stroke-linejoin="round"/>
<path d="M47.5801 181.877L39.4777 196.453L35.5676 190.678C34.1116 180.269 35.9427 168.659 40.6479 156.723L47.5801 164.174V181.877Z" fill="#1B1B1C" stroke="#2D9FFF" stroke-width="0.605708" stroke-linecap="round" stroke-linejoin="round"/>
<path d="M39.917 196.28L122.043 224.836C129.098 222.922 136.303 220.402 143.543 217.287L47.7197 182.243L39.917 196.28Z" fill="#1B1B1C" stroke="#2D9FFF" stroke-width="0.605708"/>
<path d="M93.5107 214.915L122.045 224.836C129.099 222.922 136.303 220.402 143.542 217.287L108.823 204.591L93.5107 214.915Z" fill="#1B1B1C" stroke="#2D9FFF" stroke-width="0.605708"/>
<path d="M163.369 207.613C157.06 211.282 150.699 214.501 144.359 217.261" stroke="#2D9FFF" stroke-width="0.605708" stroke-linecap="round" stroke-linejoin="round"/>
<path d="M41.459 154.711L40.6466 156.721" stroke="#0500FF" stroke-width="0.605708" stroke-linecap="round" stroke-linejoin="round"/>
<path d="M47.5801 181.871L144.361 217.265C136.844 220.538 129.358 223.171 122.033 225.154L39.4777 196.448L47.5801 181.871Z" stroke="#2D9FFF" stroke-width="0.605708" stroke-linecap="round" stroke-linejoin="round"/>
<path d="M96.0294 91.2734L99.0996 94.9633" stroke="#0500FF" stroke-width="0.605708" stroke-linecap="round" stroke-linejoin="round"/>
<path d="M132.76 56.2266H126.337V64.9073H135.018V58.4845C135.018 57.2385 134.006 56.2266 132.76 56.2266Z" fill="#0500FF"/>
<path d="M117.657 56.2266H126.338V64.9073H117.657V56.2266Z" fill="#0500FF"/>
<path d="M100.29 56.2266H108.971V64.9073H100.29V56.2266Z" fill="#0500FF"/>
<path d="M108.974 56.2266H117.654V64.9073H108.974V56.2266Z" fill="#0500FF"/>
<path d="M91.6182 56.2266H100.299V64.9073H91.6182V56.2266Z" fill="#0500FF"/>
<path d="M91.6113 56.2266H85.1886C83.9426 56.2266 82.9307 57.2385 82.9307 58.4845V64.9073H91.6113V56.2266Z" fill="#0500FF"/>
<path d="M135.013 64.9062H143.693V73.5868H135.013V64.9062Z" fill="#0500FF"/>
<path d="M150.116 56.2266H145.954C144.708 56.2266 143.696 57.2385 143.696 58.4845V64.9073H150.119C151.365 64.9073 152.377 63.8953 152.377 62.6493V58.4879C152.377 57.2419 151.365 56.2301 150.119 56.2301L150.116 56.2266Z" fill="#0500FF"/>
<path d="M126.337 64.9062H135.018V73.5868H126.337V64.9062Z" fill="#0500FF"/>
<path d="M117.657 64.9062H126.338V73.5868H117.657V64.9062Z" fill="#0500FF"/>
<path d="M108.974 64.9062H117.654V73.5868H108.974V64.9062Z" fill="#0500FF"/>
<path d="M100.29 64.9062H108.971V73.5868H100.29V64.9062Z" fill="#0500FF"/>
<path d="M91.6182 64.9062H100.299V73.5868H91.6182V64.9062Z" fill="#0500FF"/>
<path d="M82.9307 64.9062H91.6113V73.5868H82.9307V64.9062Z" fill="#0500FF"/>
<path d="M143.693 73.5898H135.013V82.2706H141.435C142.681 82.2706 143.693 81.2586 143.693 80.0126V73.5898Z" fill="#0500FF"/>
<path d="M126.337 73.5898H135.018V82.2706H126.337V73.5898Z" fill="#0500FF"/>
<path d="M117.657 73.5898H126.338V82.2706H117.657V73.5898Z" fill="#0500FF"/>
<path d="M117.654 73.5898H108.974V80.0126C108.974 81.2586 109.986 82.2706 111.232 82.2706H117.654V73.5898Z" fill="#0500FF"/>
<path d="M82.9307 73.5898H91.6113V82.2706H82.9307V73.5898Z" fill="#0500FF"/>
<path d="M100.299 73.5898H91.6182V82.2706H98.0409C99.2869 82.2706 100.299 81.2586 100.299 80.0126V73.5898Z" fill="#0500FF"/>
<path d="M82.9395 73.5898H74.2588V80.0126C74.2588 81.2586 75.2707 82.2706 76.5167 82.2706H82.9395V73.5898Z" fill="#0500FF"/>
<path d="M71.9945 64.9098H67.8332C66.5872 64.9098 65.5752 65.9217 65.5752 67.1677V71.329C65.5752 72.575 66.5872 73.587 67.8332 73.587H74.2559V67.1642C74.2559 65.9182 73.2439 64.9062 71.998 64.9062L71.9945 64.9098Z" fill="#0500FF"/>
<path d="M102.69 64.9078C101.369 64.9078 100.295 65.9817 100.295 67.3034C100.295 65.9817 99.2208 64.9078 97.8991 64.9078C99.2208 64.9078 100.295 63.8339 100.295 62.5122C100.295 63.8339 101.369 64.9078 102.69 64.9078Z" fill="#48FF91"/>
<path d="M105.998 64.9078H102.69M102.69 64.9078C101.369 64.9078 100.295 65.9817 100.295 67.3034M102.69 64.9078C101.369 64.9078 100.295 63.8339 100.295 62.5122M100.295 67.3034V73.5883M100.295 67.3034C100.295 65.9817 99.2208 64.9078 97.8991 64.9078M97.8991 64.9078H85.0021M97.8991 64.9078C99.2208 64.9078 100.295 63.8339 100.295 62.5122M100.295 62.5122V60.1406" stroke="#48FF91" stroke-width="0.605708" stroke-linecap="round" stroke-linejoin="round"/>
<path d="M128.147 64.9073C127.142 64.9073 126.329 65.7195 126.329 66.7246C126.329 65.7195 125.517 64.9073 124.512 64.9073C125.517 64.9073 126.329 64.0949 126.329 63.0898C126.329 64.0949 127.142 64.9073 128.147 64.9073Z" fill="#48FF91"/>
<path d="M128.611 64.9073H128.147M128.147 64.9073C127.142 64.9073 126.329 65.7195 126.329 66.7246M128.147 64.9073C127.142 64.9073 126.329 64.0949 126.329 63.0898M126.329 66.7246V68.3973M126.329 66.7246C126.329 65.7195 125.517 64.9073 124.512 64.9073M124.512 64.9073H117.649M124.512 64.9073C125.517 64.9073 126.329 64.0949 126.329 63.0898M126.329 63.0898V56.2266" stroke="#48FF91" stroke-width="0.605708" stroke-linecap="round" stroke-linejoin="round"/>
<path d="M93.4471 73.5825C92.4351 73.5825 91.6125 74.4051 91.6125 75.4171C91.6125 74.4051 90.7899 73.5825 89.7779 73.5825C90.7899 73.5825 91.6125 72.7598 91.6125 71.7479C91.6125 72.7598 92.4351 73.5825 93.4471 73.5825Z" fill="#48FF91"/>
<path d="M98.166 73.5825H93.4471M93.4471 73.5825C92.4351 73.5825 91.6125 74.4051 91.6125 75.4171M93.4471 73.5825C92.4351 73.5825 91.6125 72.7598 91.6125 71.7479M91.6125 75.4171V82.2632M91.6125 75.4171C91.6125 74.4051 90.7899 73.5825 89.7779 73.5825M89.7779 73.5825H88.6077M89.7779 73.5825C90.7899 73.5825 91.6125 72.7598 91.6125 71.7479M91.6125 71.7479V69.2422" stroke="#48FF91" stroke-width="0.605708" stroke-linecap="round" stroke-linejoin="round"/>
<path d="M136.982 73.5849C135.894 73.5849 135.013 74.4661 135.013 75.5538C135.013 74.4661 134.132 73.5849 133.044 73.5849C134.132 73.5849 135.013 72.7038 135.013 71.6162C135.013 72.7038 135.894 73.5849 136.982 73.5849Z" fill="#48FF91"/>
<path d="M143.693 73.5849H136.982M136.982 73.5849C135.894 73.5849 135.013 74.4661 135.013 75.5538M136.982 73.5849C135.894 73.5849 135.013 72.7038 135.013 71.6162M135.013 75.5538V82.2656M135.013 75.5538C135.013 74.4661 134.132 73.5849 133.044 73.5849M133.044 73.5849H130.228M133.044 73.5849C134.132 73.5849 135.013 72.7038 135.013 71.6162M135.013 71.6162V69.668" stroke="#48FF91" stroke-width="0.605708" stroke-linecap="round" stroke-linejoin="round"/>
</g>
<defs>
<linearGradient id="paint0_linear_1703_19303" x1="55.8046" y1="56.883" x2="127.668" y2="282.316" gradientUnits="userSpaceOnUse">
<stop offset="0.0598417" stop-color="#FFF8A3"/>
<stop offset="1" stop-color="#FFAEFE"/>
</linearGradient>
<linearGradient id="paint1_linear_1703_19303" x1="137.956" y1="7.54687" x2="137.956" y2="162.033" gradientUnits="userSpaceOnUse">
<stop offset="0.0598417" stop-color="#FFF8A3"/>
<stop offset="0.777316" stop-color="#FFAEFE"/>
</linearGradient>
<linearGradient id="paint2_linear_1703_19303" x1="91.8724" y1="31.8906" x2="91.8724" y2="43.1837" gradientUnits="userSpaceOnUse">
<stop offset="0.0598417" stop-color="#FFF8A3"/>
<stop offset="0.777316" stop-color="#FFAEFE"/>
</linearGradient>
<linearGradient id="paint3_linear_1703_19303" x1="133.404" y1="30.668" x2="133.404" y2="214.565" gradientUnits="userSpaceOnUse">
<stop offset="0.265625" stop-color="#FFAEFE"/>
<stop offset="1" stop-color="#FFAEFE" stop-opacity="0"/>
</linearGradient>
<linearGradient id="paint4_linear_1703_19303" x1="86.9185" y1="62.7187" x2="86.9185" y2="131.538" gradientUnits="userSpaceOnUse">
<stop offset="0.0598417" stop-color="#FFF8A3"/>
<stop offset="0.777316" stop-color="#FFAEFE"/>
</linearGradient>
<linearGradient id="paint5_linear_1703_19303" x1="173.17" y1="86.1914" x2="169.916" y2="189.507" gradientUnits="userSpaceOnUse">
<stop stop-color="#FFAEFE"/>
<stop offset="1" stop-color="#FFF465"/>
</linearGradient>
<clipPath id="clip0_1703_19303">
<rect width="242.283" height="242.283" fill="white" transform="matrix(-1 0 0 1 242.283 0)"/>
</clipPath>
</defs>
</svg>
