<svg width="204" height="203" viewBox="0 0 204 203" fill="none" xmlns="http://www.w3.org/2000/svg">
<mask id="mask0_3273_16207" style="mask-type:alpha" maskUnits="userSpaceOnUse" x="91" y="133" width="61" height="53">
<path fill-rule="evenodd" clip-rule="evenodd" d="M106.746 133.983C120.173 132.483 138.121 142.143 146.837 155.56C155.552 168.974 151.725 181.064 138.298 182.564C124.866 184.065 106.918 174.405 98.2072 160.991C98.0264 160.712 97.8509 160.434 97.6808 160.157C97.8515 160.436 98.0276 160.715 98.2092 160.994C106.92 174.409 124.868 184.069 138.3 182.567C143.424 181.993 147.15 179.882 149.311 176.74L147.063 180.01C144.898 183.153 141.171 185.27 136.047 185.844C122.616 187.345 104.668 177.685 95.9569 164.271C90.5687 155.976 89.9746 148.186 93.4781 143.092L95.5903 140.02C97.732 136.764 101.508 134.569 106.746 133.983Z" fill="#0500FF"/>
</mask>
<g mask="url(#mask0_3273_16207)">
<circle cx="119.935" cy="158.839" r="36.7063" transform="rotate(-14.1438 119.935 158.839)" fill="#0500FF"/>
</g>
<path fill-rule="evenodd" clip-rule="evenodd" d="M122.018 150.919C119.568 149.462 117.977 150.169 116.742 151.586L113.467 149.373L112.685 150.589L115.873 152.744C115.668 153.063 115.468 153.396 115.27 153.728L112.061 151.558L111.279 152.773L114.552 154.986C114.392 155.256 114.233 155.519 114.072 155.772L114.061 155.765L112.982 157.441L115.111 158.879C115.111 158.879 115.66 157.963 115.678 157.996C115.995 157.504 116.567 157.66 117.001 157.887L120.732 160.408C120.754 160.375 120.785 160.332 120.828 160.289L120.746 160.418L125.972 163.951C126.212 164.144 126.558 164.509 126.338 164.853C126.37 164.853 125.769 165.737 125.769 165.737L127.995 167.587L129.012 166.005C129.128 165.827 129.244 165.652 129.36 165.48L129.36 165.479L129.36 165.479C129.435 165.367 129.51 165.256 129.583 165.145L132.895 167.384L133.677 166.17L130.4 163.955C130.626 163.629 130.838 163.31 131.04 162.994L134.302 165.199L135.083 163.984L131.778 161.749C132.9 159.576 132.977 157.574 129.944 155.271C127.503 153.415 125.905 153.377 124.701 154.228C124.565 153.125 123.811 151.984 122.018 150.919L122.018 150.919ZM128.005 157.406C130.276 158.941 128.826 161.083 128.163 162.063L128.163 162.063C128.103 162.151 128.05 162.229 128.007 162.297L123.619 159.33C123.672 159.248 123.733 159.144 123.802 159.027C124.419 157.981 125.682 155.837 128.005 157.405L128.005 157.406ZM121.743 157.776C122.3 156.96 123.514 155.183 121.45 153.787C119.339 152.36 118.294 154.153 117.784 155.029C117.726 155.127 117.676 155.214 117.631 155.284L121.611 157.974C121.647 157.916 121.693 157.85 121.743 157.776Z" fill="white"/>
<g clip-path="url(#clip0_3273_16207)">
<path d="M146.363 173.783C151.747 166.032 145.645 152.478 132.734 143.509C119.822 134.54 104.99 133.552 99.6061 141.303C94.2218 149.054 100.324 162.609 113.235 171.578C126.147 180.547 140.979 181.534 146.363 173.783Z" fill="#0500FF"/>
</g>
<path d="M108.506 147.347L118.844 150.053L124.976 145.857L129.574 154.741L139.508 160.891L132.011 163.675L132.019 171.672L122.788 164.51L112.858 163.302L114.65 156.091L108.506 147.347Z" fill="#F4F4F7"/>
<path fill-rule="evenodd" clip-rule="evenodd" d="M144.359 155.143C136.721 143.387 120.985 134.916 109.221 136.234L109.222 136.234C115.366 135.547 125.292 138.022 132.959 143.762L113.483 171.656C120.911 176.731 129.643 179.619 136.874 178.811C148.64 177.497 151.995 166.895 144.359 155.143ZM109.51 168.622C110.379 169.336 111.234 170.01 112.024 170.619C111.163 169.982 110.324 169.316 109.51 168.622ZM98.1546 151.957C98.0092 151.325 97.8871 150.68 97.79 150.02C97.7794 149.948 97.7691 149.877 97.759 149.806C97.8435 150.507 97.9751 151.225 98.1546 151.957ZM106.911 136.638C106.19 136.823 105.333 137.084 104.439 137.455C105.202 137.125 106.027 136.851 106.911 136.638Z" fill="url(#paint0_linear_3273_16207)"/>
<path d="M118.816 178.541L116.564 181.818C123.143 184.947 130.049 186.508 136.053 185.837C141.18 185.263 144.908 183.15 147.069 180.004L149.321 176.728C147.155 179.87 143.429 181.988 138.305 182.561C132.301 183.232 125.394 181.666 118.816 178.541Z" fill="#1B1B1C"/>
<path d="M111.024 173.988C109.598 172.987 108.224 171.914 106.905 170.778L104.653 174.055C105.972 175.191 107.349 176.262 108.772 177.264L111.024 173.988Z" fill="#1B1B1C"/>
<path fill-rule="evenodd" clip-rule="evenodd" d="M143.02 181.47C152.518 177.918 154.439 167.238 146.848 155.551C138.137 142.137 120.188 132.477 106.757 133.978C93.3301 135.479 89.5031 147.568 98.2179 160.982C106.614 173.907 123.578 183.346 136.814 182.679C135.38 182.749 133.902 182.699 132.399 182.544L131.874 178.819C120.972 177.754 108.336 170.055 101.744 159.904C94.106 148.148 97.4577 137.547 109.228 136.236L109.223 136.233C120.987 134.915 136.723 143.386 144.361 155.142C148.5 161.513 149.41 167.545 147.501 171.944L150.298 175.005C148.95 177.914 146.492 180.169 143.02 181.47Z" fill="url(#paint1_linear_3273_16207)"/>
<path d="M128.414 178.271C126.976 177.962 125.524 177.552 124.073 177.046L123.574 180.512C125.212 181.086 126.856 181.555 128.481 181.913L128.414 178.271Z" fill="white"/>
<path d="M149.323 176.732L147.07 180.008C144.905 183.151 141.178 185.268 136.054 185.841C122.623 187.343 104.675 177.683 95.964 164.268C90.5759 155.973 89.9818 148.183 93.4853 143.09L95.7376 139.814C92.2341 144.907 92.8272 152.693 98.2164 160.992C106.927 174.407 124.876 184.066 138.307 182.565C143.434 181.991 147.162 179.877 149.323 176.732Z" stroke="#0500FF" stroke-width="0.398981" stroke-linecap="round" stroke-linejoin="round"/>
<path fill-rule="evenodd" clip-rule="evenodd" d="M149.497 176.826L149.487 176.845L147.235 180.121L147.234 180.121C145.097 183.221 141.479 185.326 136.557 185.981L136.076 186.04C129.308 186.796 121.422 184.74 114.144 180.824C107.092 177.029 100.592 171.476 96.2137 165.006L95.7963 164.377C90.3868 156.049 89.7522 148.165 93.3211 142.977L95.4347 139.903C97.6135 136.593 101.448 134.373 106.732 133.782L107.37 133.719C113.99 133.156 121.61 135.204 128.661 138.999C135.941 142.917 142.634 148.708 147.013 155.448L147.414 156.08C151.464 162.586 152.59 168.778 151.069 173.586C150.699 174.756 150.173 175.841 149.497 176.826Z" fill="#0500FF"/>
<path d="M146.846 155.557C138.13 142.14 120.181 132.48 106.754 133.98C93.3233 135.482 89.5002 147.57 98.2159 160.988C106.927 174.403 124.875 184.062 138.306 182.561C151.733 181.061 155.56 168.971 146.846 155.557Z" stroke="#0500FF" stroke-width="0.398981" stroke-linecap="round" stroke-linejoin="round"/>
<path fill-rule="evenodd" clip-rule="evenodd" d="M171.649 83.5207L160.049 78.5479C162.126 79.4402 163.84 81.1855 165.181 83.7841C167.347 87.9757 168.298 94.5587 168.051 103.305C167.804 112.051 166.463 118.661 164.055 123.134L164.063 123.137C161.656 127.617 158.392 129.978 154.3 130.229C152.739 130.324 151.319 130.095 150.04 129.55L161.64 134.523C162.919 135.068 164.339 135.297 165.9 135.202C169.993 134.951 173.257 132.579 175.665 128.107L175.657 128.103C178.064 123.631 179.398 117.095 179.651 108.278C179.904 99.4585 178.948 92.9576 176.781 88.757C175.44 86.1583 173.735 84.4126 171.649 83.5207Z" fill="url(#paint2_linear_3273_16207)"/>
<path d="M160.049 78.5479L160.138 78.339C160.023 78.2895 159.889 78.3429 159.84 78.4583C159.79 78.5736 159.844 78.7072 159.959 78.7567L160.049 78.5479ZM171.649 83.5207L171.559 83.7296L171.559 83.7297L171.649 83.5207ZM165.181 83.7841L164.979 83.8884L164.979 83.8885L165.181 83.7841ZM168.051 103.305L167.824 103.299L168.051 103.305ZM164.055 123.134L163.855 123.026C163.825 123.082 163.82 123.149 163.841 123.209C163.862 123.269 163.907 123.318 163.966 123.343L164.055 123.134ZM164.063 123.137L164.263 123.245C164.293 123.189 164.298 123.122 164.277 123.062C164.256 123.002 164.211 122.953 164.152 122.928L164.063 123.137ZM154.3 130.229L154.314 130.456L154.314 130.456L154.3 130.229ZM150.04 129.55L150.129 129.341C150.013 129.292 149.88 129.345 149.831 129.461C149.781 129.576 149.835 129.709 149.95 129.759L150.04 129.55ZM161.64 134.523L161.55 134.732L161.55 134.732L161.64 134.523ZM165.9 135.202L165.914 135.429L165.914 135.429L165.9 135.202ZM175.665 128.107L175.865 128.214C175.895 128.158 175.9 128.092 175.879 128.032C175.858 127.971 175.813 127.923 175.754 127.898L175.665 128.107ZM175.657 128.103L175.457 127.996C175.427 128.052 175.422 128.118 175.443 128.178C175.464 128.239 175.509 128.287 175.568 128.312L175.657 128.103ZM179.651 108.278L179.878 108.284L179.651 108.278ZM176.781 88.757L176.983 88.6528L176.983 88.6527L176.781 88.757ZM160.049 78.5479L159.959 78.7568L171.559 83.7296L171.649 83.5207L171.738 83.3118L160.138 78.339L160.049 78.5479ZM165.181 83.7841L165.383 83.6799C164.025 81.0481 162.276 79.2575 160.138 78.3391L160.049 78.5479L159.959 78.7567C161.975 79.6228 163.655 81.3228 164.979 83.8884L165.181 83.7841ZM168.051 103.305L168.278 103.311C168.526 94.5552 167.577 87.9241 165.383 83.6798L165.181 83.7841L164.979 83.8885C167.118 88.0272 168.071 94.5623 167.824 103.299L168.051 103.305ZM164.055 123.134L164.256 123.242C166.688 118.723 168.031 112.071 168.278 103.311L168.051 103.305L167.824 103.299C167.577 112.031 166.238 118.6 163.855 123.026L164.055 123.134ZM164.063 123.137L164.152 122.928L164.145 122.925L164.055 123.134L163.966 123.343L163.973 123.346L164.063 123.137ZM154.3 130.229L154.314 130.456C158.504 130.199 161.829 127.775 164.263 123.245L164.063 123.137L163.863 123.03C161.483 127.458 158.281 129.757 154.286 130.002L154.3 130.229ZM150.04 129.55L149.95 129.759C151.266 130.319 152.722 130.553 154.314 130.456L154.3 130.229L154.287 130.002C152.757 130.095 151.372 129.87 150.129 129.341L150.04 129.55ZM161.64 134.523L161.729 134.314L150.129 129.341L150.04 129.55L149.95 129.759L161.55 134.732L161.64 134.523ZM165.9 135.202L165.887 134.975C164.357 135.068 162.972 134.843 161.729 134.314L161.64 134.523L161.55 134.732C162.866 135.292 164.322 135.526 165.914 135.429L165.9 135.202ZM175.665 128.107L175.465 127.999C173.084 132.421 169.881 134.73 165.886 134.975L165.9 135.202L165.914 135.429C170.105 135.172 173.43 132.737 175.865 128.214L175.665 128.107ZM175.657 128.103L175.568 128.312L175.575 128.315L175.665 128.107L175.754 127.898L175.747 127.895L175.657 128.103ZM179.651 108.278L179.424 108.271C179.172 117.075 177.839 123.569 175.457 127.996L175.657 128.103L175.857 128.211C178.289 123.693 179.625 117.115 179.878 108.284L179.651 108.278ZM176.781 88.757L176.579 88.8612C178.719 93.0093 179.677 99.4625 179.424 108.271L179.651 108.278L179.878 108.284C180.132 99.4546 179.177 92.906 176.983 88.6528L176.781 88.757ZM171.649 83.5207L171.559 83.7297C173.584 84.5953 175.255 86.2953 176.579 88.8612L176.781 88.757L176.983 88.6527C175.625 86.0214 173.886 84.23 171.738 83.3118L171.649 83.5207Z" fill="#0500FF"/>
<path d="M152.496 148.561L140.896 143.588C139.69 143.067 138.544 142.453 137.449 141.745C132.935 138.803 129.537 134.319 127.253 128.276C124.971 122.242 123.955 114.807 124.208 105.987C124.592 92.649 127.605 82.2172 133.283 74.6903C138.952 67.1639 146.601 63.1182 156.23 62.5261C161.103 62.232 165.418 62.8813 169.173 64.4922L180.773 69.4651C177.018 67.8542 172.703 67.1958 167.83 67.499C158.201 68.0911 150.552 72.1367 144.883 79.6632C139.205 87.19 136.192 97.6128 135.808 110.96C135.555 119.78 136.571 127.215 138.853 133.249C141.137 139.292 144.535 143.784 149.049 146.718C150.144 147.426 151.29 148.04 152.496 148.561Z" fill="url(#paint3_linear_3273_16207)" stroke="#0500FF" stroke-width="0.454545" stroke-linejoin="round"/>
<path d="M190.169 76.8998C195.427 83.7594 197.859 93.8541 197.485 107.192C197.232 116.011 195.788 123.6 193.151 129.929C190.506 136.269 186.845 141.196 182.138 144.695C177.431 148.194 171.874 150.147 165.458 150.544C159.042 150.942 153.563 149.661 149.049 146.718C144.535 143.775 141.137 139.292 138.853 133.249C136.571 127.215 135.555 119.78 135.808 110.96C136.192 97.6219 139.205 87.19 144.883 79.6632C150.552 72.1368 158.201 68.0911 167.83 67.499C177.459 66.9068 184.902 70.0406 190.16 76.9002L190.169 76.8998ZM175.656 128.107C178.063 123.634 179.404 117.024 179.651 108.278C179.898 99.5316 178.948 92.9486 176.781 88.757C174.615 84.5654 171.481 82.5908 167.388 82.8418C163.295 83.0928 160.031 85.4552 157.623 89.9278C155.206 94.4008 153.876 101.056 153.623 109.875C153.37 118.695 154.322 125.086 156.498 129.287C158.664 133.487 161.79 135.462 165.892 135.211C169.994 134.96 173.249 132.598 175.656 128.116" fill="url(#paint4_linear_3273_16207)"/>
<path d="M175.656 128.107C178.063 123.634 179.404 117.024 179.651 108.278C179.898 99.5316 178.948 92.9486 176.781 88.757C174.615 84.5654 171.481 82.5908 167.388 82.8418C163.295 83.0928 160.031 85.4552 157.623 89.9278C155.206 94.4008 153.876 101.056 153.623 109.875C153.37 118.695 154.322 125.086 156.498 129.287C158.664 133.487 161.79 135.462 165.892 135.211C169.994 134.96 173.249 132.598 175.656 128.116M190.169 76.8998C195.427 83.7594 197.859 93.8541 197.485 107.192C197.232 116.011 195.788 123.6 193.151 129.929C190.506 136.269 186.845 141.196 182.138 144.695C177.431 148.194 171.874 150.147 165.458 150.544C159.042 150.942 153.563 149.661 149.049 146.718C144.535 143.775 141.137 139.292 138.853 133.249C136.571 127.215 135.555 119.78 135.808 110.96C136.192 97.6219 139.205 87.19 144.883 79.6632C150.552 72.1368 158.201 68.0911 167.83 67.499C177.459 66.9068 184.902 70.0406 190.16 76.9002L190.169 76.8998Z" stroke="#0500FF" stroke-width="0.454545" stroke-linejoin="round"/>
<path fill-rule="evenodd" clip-rule="evenodd" d="M106.194 79.8843L94.5939 74.9114C96.671 75.8037 98.3849 77.549 99.7265 80.1476C101.893 84.3392 102.844 90.9223 102.597 99.6685C102.349 108.415 101.008 115.025 98.6007 119.497L98.6081 119.501C96.2009 123.98 92.9376 126.341 88.8456 126.592C87.2847 126.688 85.8643 126.458 84.5848 125.913L96.1848 130.886C97.4643 131.431 98.8847 131.66 100.446 131.565C104.539 131.314 107.802 128.943 110.21 124.47L110.203 124.467C112.609 119.994 113.944 113.459 114.197 104.641C114.45 95.8221 113.493 89.3211 111.327 85.1205C109.985 82.5219 108.28 80.7762 106.194 79.8843Z" fill="url(#paint5_linear_3273_16207)"/>
<path d="M94.5939 74.9114L94.6834 74.7025C94.5681 74.6531 94.4345 74.7065 94.385 74.8218C94.3355 74.9371 94.3889 75.0707 94.5042 75.1202L94.5939 74.9114ZM106.194 79.8843L106.104 80.0931L106.105 80.0932L106.194 79.8843ZM99.7265 80.1476L99.5246 80.2519L99.5246 80.252L99.7265 80.1476ZM102.597 99.6685L102.824 99.675L102.597 99.6685ZM98.6007 119.497L98.4006 119.39C98.3704 119.446 98.3651 119.512 98.3862 119.572C98.4072 119.633 98.4525 119.681 98.5111 119.706L98.6007 119.497ZM98.6081 119.501L98.8083 119.608C98.8385 119.552 98.8437 119.486 98.8226 119.426C98.8016 119.365 98.7563 119.317 98.6977 119.292L98.6081 119.501ZM88.8456 126.592L88.8595 126.819L88.8595 126.819L88.8456 126.592ZM84.5848 125.913L84.6738 125.704C84.5585 125.655 84.4251 125.709 84.3758 125.824C84.3265 125.939 84.38 126.073 84.4952 126.122L84.5848 125.913ZM96.1848 130.886L96.0953 131.095L96.0958 131.095L96.1848 130.886ZM100.446 131.565L100.459 131.792L100.46 131.792L100.446 131.565ZM110.21 124.47L110.41 124.578C110.44 124.522 110.445 124.455 110.424 124.395C110.403 124.335 110.358 124.286 110.299 124.261L110.21 124.47ZM110.203 124.467L110.002 124.359C109.972 124.415 109.967 124.482 109.988 124.542C110.009 124.602 110.054 124.651 110.113 124.676L110.203 124.467ZM114.197 104.641L114.424 104.648L114.197 104.641ZM111.327 85.1205L111.529 85.0163L111.528 85.0162L111.327 85.1205ZM94.5939 74.9114L94.5043 75.1203L106.104 80.0931L106.194 79.8843L106.283 79.6754L94.6834 74.7025L94.5939 74.9114ZM99.7265 80.1476L99.9285 80.0434C98.5698 77.4117 96.8217 75.6211 94.6836 74.7026L94.5939 74.9114L94.5042 75.1202C96.5204 75.9864 98.2001 77.6863 99.5246 80.2519L99.7265 80.1476ZM102.597 99.6685L102.824 99.675C103.071 90.9187 102.122 84.2876 99.9284 80.0433L99.7265 80.1476L99.5246 80.252C101.664 84.3908 102.616 90.9258 102.369 99.6621L102.597 99.6685ZM98.6007 119.497L98.8009 119.605C101.233 115.087 102.576 108.435 102.824 99.675L102.597 99.6685L102.369 99.6621C102.123 108.395 100.784 114.963 98.4006 119.39L98.6007 119.497ZM98.6081 119.501L98.6977 119.292L98.6903 119.289L98.6007 119.497L98.5111 119.706L98.5185 119.71L98.6081 119.501ZM88.8456 126.592L88.8595 126.819C93.0492 126.562 96.3739 124.138 98.8083 119.608L98.6081 119.501L98.4079 119.393C96.0279 123.822 92.826 126.121 88.8317 126.366L88.8456 126.592ZM84.5848 125.913L84.4957 126.123C85.8111 126.683 87.2672 126.916 88.8595 126.819L88.8456 126.592L88.8318 126.366C87.3021 126.459 85.9174 126.234 84.6738 125.704L84.5848 125.913ZM96.1848 130.886L96.2744 130.677L84.6743 125.705L84.5848 125.913L84.4952 126.122L96.0953 131.095L96.1848 130.886ZM100.446 131.565L100.432 131.338C98.9021 131.432 97.5174 131.207 96.2739 130.677L96.1848 130.886L96.0958 131.095C97.4111 131.656 98.8672 131.889 100.459 131.792L100.446 131.565ZM110.21 124.47L110.01 124.362C107.629 128.785 104.427 131.093 100.432 131.338L100.446 131.565L100.46 131.792C104.65 131.535 107.975 129.101 110.41 124.578L110.21 124.47ZM110.203 124.467L110.113 124.676L110.12 124.679L110.21 124.47L110.299 124.261L110.292 124.258L110.203 124.467ZM114.197 104.641L113.969 104.635C113.717 113.438 112.384 119.933 110.002 124.359L110.203 124.467L110.403 124.575C112.834 120.056 114.17 113.479 114.424 104.648L114.197 104.641ZM111.327 85.1205L111.125 85.2247C113.264 89.3728 114.222 95.826 113.969 104.635L114.197 104.641L114.424 104.648C114.677 95.8181 113.722 89.2695 111.529 85.0163L111.327 85.1205ZM106.194 79.8843L106.105 80.0932C108.129 80.9589 109.8 82.6588 111.125 85.2248L111.327 85.1205L111.528 85.0162C110.17 82.3849 108.431 80.5935 106.283 79.6753L106.194 79.8843Z" fill="#0500FF"/>
<path d="M87.0414 144.924L75.4413 139.952C74.2357 139.431 73.0897 138.816 71.9943 138.109C67.4802 135.166 64.0819 130.682 61.7988 124.64C59.516 118.606 58.5006 111.17 58.7536 102.351C59.1374 89.0125 62.1501 78.5807 67.8281 71.0539C73.497 63.5274 81.1464 59.4817 90.7753 58.8896C95.6489 58.5955 99.963 59.2449 103.718 60.8557L115.318 65.8286C111.563 64.2177 107.249 63.5593 102.375 63.8625C92.7465 64.4546 85.097 68.5003 79.4281 76.0267C73.7502 83.5535 70.737 93.9763 70.3536 107.324C70.1007 116.143 71.116 123.579 73.3988 129.612C75.682 135.655 79.0806 140.148 83.5943 143.082C84.6898 143.789 85.8357 144.404 87.0414 144.924Z" fill="url(#paint6_linear_3273_16207)" stroke="#0500FF" stroke-width="0.454545" stroke-linejoin="round"/>
<path d="M124.714 73.2633C129.972 80.1229 132.405 90.2176 132.03 103.556C131.777 112.375 130.333 119.963 127.697 126.293C125.052 132.632 121.39 137.56 116.683 141.059C111.976 144.558 106.42 146.51 100.004 146.908C93.5875 147.306 88.1084 146.024 83.5943 143.082C79.0802 140.139 75.6819 135.655 73.3988 129.612C71.116 123.579 70.1007 116.143 70.3536 107.324C70.7374 93.9854 73.7502 83.5536 79.4281 76.0267C85.097 68.5003 92.7464 64.4546 102.375 63.8625C112.004 63.2704 119.447 66.4041 124.705 73.2637L124.714 73.2633ZM110.201 124.47C112.609 119.998 113.95 113.388 114.197 104.641C114.444 95.8951 113.493 89.3121 111.327 85.1205C109.16 80.929 106.026 78.9543 101.933 79.2053C97.8402 79.4563 94.5762 81.8187 92.1685 86.2913C89.7517 90.7643 88.4217 97.4194 88.1687 106.239C87.9158 115.058 88.8674 121.45 91.0431 125.65C93.2097 129.851 96.3349 131.826 100.437 131.575C104.539 131.323 107.794 128.961 110.201 124.479" fill="url(#paint7_linear_3273_16207)"/>
<path d="M110.201 124.47C112.609 119.998 113.95 113.388 114.197 104.641C114.444 95.8951 113.493 89.3121 111.327 85.1205C109.16 80.929 106.026 78.9543 101.933 79.2053C97.8402 79.4563 94.5762 81.8187 92.1685 86.2913C89.7517 90.7643 88.4217 97.4194 88.1687 106.239C87.9158 115.058 88.8674 121.45 91.0431 125.65C93.2097 129.851 96.3349 131.826 100.437 131.575C104.539 131.323 107.794 128.961 110.201 124.479M124.714 73.2633C129.972 80.1229 132.405 90.2176 132.03 103.556C131.777 112.375 130.333 119.963 127.697 126.293C125.052 132.632 121.39 137.56 116.683 141.059C111.976 144.558 106.42 146.51 100.004 146.908C93.5875 147.306 88.1084 146.024 83.5943 143.082C79.0802 140.139 75.6819 135.655 73.3988 129.612C71.116 123.579 70.1007 116.143 70.3536 107.324C70.7374 93.9854 73.7502 83.5536 79.4281 76.0267C85.097 68.5003 92.7464 64.4546 102.375 63.8625C112.004 63.2704 119.447 66.4041 124.705 73.2637L124.714 73.2633Z" stroke="#0500FF" stroke-width="0.454545" stroke-linejoin="round"/>
<path d="M43.2072 157.107L31.5383 152.298L32.4082 92.6948L44.0772 97.5037L43.2072 157.107Z" fill="url(#paint8_linear_3273_16207)" stroke="#0500FF" stroke-width="0.454545" stroke-linejoin="round"/>
<path d="M47.7407 77.3413L36.0718 72.5324L50.2971 71.4571L61.966 76.266L47.7407 77.3413Z" fill="url(#paint9_linear_3273_16207)" stroke="#0500FF" stroke-width="0.454545" stroke-linejoin="round"/>
<path d="M61.966 76.2661L60.8057 155.783L43.2073 157.107L44.0772 97.5039L25.683 110.767L25.9533 92.0838L47.7407 77.3414L61.966 76.2661Z" fill="url(#paint10_linear_3273_16207)" stroke="#0500FF" stroke-width="0.454545" stroke-linejoin="round"/>
<path d="M25.6829 110.766L14.0145 105.967L14.2843 87.2746L25.9532 92.0835L25.6829 110.766Z" fill="url(#paint11_linear_3273_16207)" stroke="#0500FF" stroke-width="0.454545" stroke-linejoin="round"/>
<path d="M25.9532 92.0837L14.2843 87.2748L36.0717 72.5324L47.7406 77.3413L25.9532 92.0837Z" fill="url(#paint12_linear_3273_16207)" stroke="#0500FF" stroke-width="0.454545" stroke-linejoin="round"/>
<mask id="mask1_3273_16207" style="mask-type:alpha" maskUnits="userSpaceOnUse" x="154" y="37" width="45" height="49">
<path fill-rule="evenodd" clip-rule="evenodd" d="M154.957 71.03C157.831 59.9359 168.981 46.2356 179.851 40.4293C185.738 37.2848 190.338 37.1009 192.861 39.3556L195.685 41.7628C197.894 43.6478 198.58 47.3346 197.242 52.492C194.364 63.5863 183.219 77.2899 172.348 83.0927C166.534 86.1984 161.973 86.4151 159.431 84.2459L156.612 81.8429C154.325 79.9842 153.599 76.2647 154.957 71.03ZM167.566 81.5234C168.172 81.2519 168.794 80.9463 169.431 80.6061C180.301 74.7998 191.45 61.0996 194.325 50.0054C194.503 49.319 194.645 48.6585 194.753 48.0248C194.645 48.6584 194.503 49.3189 194.325 50.0054C191.45 61.0996 180.301 74.7998 169.431 80.6061C168.794 80.9463 168.172 81.2518 167.566 81.5234Z" fill="#44E841"/>
<path d="M179.851 40.4293L179.928 40.5745L179.851 40.4293ZM154.957 71.03L155.116 71.0714L155.116 71.0713L154.957 71.03ZM192.861 39.3556L192.751 39.4784L192.754 39.4809L192.861 39.3556ZM195.685 41.7628L195.792 41.6375L195.792 41.6375L195.685 41.7628ZM197.242 52.492L197.402 52.5333L197.242 52.492ZM172.348 83.0927L172.271 82.9475L172.271 82.9475L172.348 83.0927ZM159.431 84.2459L159.538 84.1207L159.538 84.1206L159.431 84.2459ZM156.612 81.8429L156.719 81.7176L156.716 81.7151L156.612 81.8429ZM167.566 81.5234L167.499 81.3732C167.416 81.4104 167.379 81.5078 167.416 81.5907C167.453 81.6737 167.55 81.7108 167.633 81.6736L167.566 81.5234ZM169.431 80.6061L169.508 80.7513L169.508 80.7513L169.431 80.6061ZM194.325 50.0054L194.166 49.9641L194.165 49.9641L194.325 50.0054ZM194.753 48.0248L194.915 48.0524C194.93 47.9628 194.87 47.8778 194.78 47.8625C194.691 47.8473 194.606 47.9076 194.59 47.9973L194.753 48.0248ZM194.325 50.0054L194.165 49.964L194.165 49.9641L194.325 50.0054ZM169.431 80.6061L169.508 80.7513L169.431 80.6061ZM179.851 40.4293L179.773 40.2841C174.314 43.2001 168.793 48.093 164.278 53.6428C159.763 59.192 156.243 65.4116 154.797 70.9888L154.957 71.03L155.116 71.0713C156.546 65.5543 160.037 59.3767 164.533 53.8506C169.029 48.3252 174.517 43.4648 179.928 40.5745L179.851 40.4293ZM192.861 39.3556L192.971 39.2328C191.667 38.0683 189.839 37.5441 187.606 37.7036C185.374 37.8629 182.73 38.7049 179.773 40.2841L179.851 40.4293L179.928 40.5745C182.859 39.0092 185.458 38.187 187.629 38.032C189.799 37.877 191.531 38.3883 192.751 39.4783L192.861 39.3556ZM192.861 39.3556L192.754 39.4809L195.578 41.8881L195.685 41.7628L195.792 41.6375L192.968 39.2303L192.861 39.3556ZM195.685 41.7628L195.578 41.888C197.714 43.7099 198.416 47.312 197.083 52.4507L197.242 52.492L197.402 52.5333C198.744 47.3572 198.075 43.5857 195.792 41.6375L195.685 41.7628ZM197.242 52.492L197.083 52.4507C195.652 57.9678 192.16 64.1463 187.665 69.6728C183.169 75.1986 177.682 80.0589 172.271 82.9475L172.348 83.0927L172.426 83.2379C177.885 80.3236 183.405 75.4307 187.92 69.8805C192.434 64.3309 195.955 58.1105 197.402 52.5333L197.242 52.492ZM172.348 83.0927L172.271 82.9475C169.376 84.4935 166.805 85.3143 164.65 85.4833C162.496 85.6521 160.767 85.1696 159.538 84.1207L159.431 84.2459L159.324 84.3711C160.637 85.4914 162.46 85.9851 164.675 85.8115C166.89 85.6379 169.506 84.7976 172.426 83.2379L172.348 83.0927ZM159.431 84.2459L159.538 84.1206L156.719 81.7176L156.612 81.8429L156.505 81.9682L159.324 84.3712L159.431 84.2459ZM154.957 71.03L154.797 70.9887C153.435 76.2421 154.143 80.049 156.508 81.9707L156.612 81.8429L156.716 81.7151C154.506 79.9194 153.763 76.2874 155.116 71.0714L154.957 71.03ZM167.566 81.5234L167.633 81.6736C168.243 81.4004 168.868 81.0932 169.508 80.7513L169.431 80.6061L169.353 80.4609C168.719 80.7995 168.101 81.1033 167.499 81.3732L167.566 81.5234ZM169.431 80.6061L169.508 80.7513C174.968 77.8353 180.489 72.9424 185.004 67.3926C189.519 61.8434 193.039 55.6239 194.484 50.0467L194.325 50.0054L194.165 49.9641C192.736 55.4812 189.244 61.6588 184.748 67.1848C180.253 72.7103 174.764 77.5706 169.353 80.4609L169.431 80.6061ZM194.325 50.0054L194.484 50.0468C194.663 49.3561 194.807 48.691 194.915 48.0524L194.753 48.0248L194.59 47.9973C194.484 48.626 194.342 49.2818 194.166 49.9641L194.325 50.0054ZM194.325 50.0054L194.484 50.0467C194.663 49.356 194.807 48.691 194.915 48.0524L194.753 48.0248L194.59 47.9973C194.484 48.6259 194.342 49.2817 194.165 49.964L194.325 50.0054ZM169.431 80.6061L169.508 80.7513C174.967 77.8353 180.488 72.9424 185.004 67.3926C189.519 61.8434 193.039 55.6238 194.484 50.0466L194.325 50.0054L194.165 49.9641C192.736 55.4811 189.244 61.6588 184.748 67.1848C180.253 72.7102 174.764 77.5706 169.353 80.4609L169.431 80.6061ZM167.566 81.5234L167.633 81.6736C168.243 81.4004 168.868 81.0932 169.508 80.7513L169.431 80.6061L169.353 80.4609C168.719 80.7994 168.101 81.1033 167.499 81.3732L167.566 81.5234Z" fill="#44E841"/>
</mask>
<g mask="url(#mask1_3273_16207)">
<circle cx="176.014" cy="61.9256" r="33.4773" transform="rotate(-1.63676 176.014 61.9256)" fill="#0500FF"/>
</g>
<path fill-rule="evenodd" clip-rule="evenodd" d="M177.366 53.3176C176.354 52.8255 174.698 54.2169 172.889 56.1942L171.696 55.2612L170.358 56.8432L171.519 57.7515C171.168 58.1669 170.812 58.5948 170.459 59.02L169.29 58.1053L167.953 59.686L169.145 60.6193C168.858 60.9643 168.577 61.3028 168.3 61.6307L168.296 61.6281L166.45 63.8091L167.226 64.4152C167.226 64.4152 168.204 63.2394 168.197 63.2665C168.739 62.626 169.086 62.5506 169.285 62.6056L170.644 63.6684C170.681 63.6243 170.731 63.5673 170.79 63.5052L170.649 63.6719L172.552 65.1619C172.621 65.2624 172.668 65.4963 172.29 65.9441C172.315 65.9303 171.317 67.0937 171.317 67.0937L171.919 68.0862L173.66 66.0276C173.857 65.7953 174.053 65.5659 174.246 65.3392L174.247 65.3388C174.372 65.1921 174.497 65.0464 174.62 64.9016L175.827 65.8447L177.163 64.265L175.97 63.3309C176.341 62.9008 176.698 62.4822 177.044 62.0723L178.232 63.0024L179.569 61.4208L178.366 60.4783C180.545 57.7647 181.812 55.6627 180.861 54.536C180.096 53.6274 178.884 54.2505 177.441 55.6296C178.001 54.5449 178.109 53.6762 177.366 53.3181L177.366 53.3176ZM178.074 57.5481C178.901 58.195 176.488 61.0127 175.384 62.3008C175.285 62.4161 175.197 62.5192 175.122 62.6074L173.524 61.3567C173.616 61.2489 173.725 61.117 173.849 60.9675L173.849 60.9674C174.957 59.6294 177.227 56.8872 178.074 57.5477L178.074 57.5481ZM173.014 60.5256C173.937 59.4511 175.948 57.109 175.196 56.5205C174.427 55.9186 172.538 58.2069 171.615 59.3244C171.511 59.45 171.419 59.5609 171.343 59.6511L172.793 60.7852C172.856 60.7107 172.931 60.6234 173.014 60.5256Z" fill="white"/>
<g clip-path="url(#clip1_3273_16207)">
<path d="M182.365 66.885C191.203 56.6351 194.673 45.1405 190.116 41.2113C185.559 37.2821 174.701 42.4061 165.863 52.6561C157.024 62.9061 153.554 74.4006 158.111 78.3298C162.668 82.259 173.527 77.135 182.365 66.885Z" fill="#0500FF"/>
</g>
<path d="M169.087 55.2213L175.438 53.7372L182.707 46.8554L180.895 54.141L184.854 56.3877L177.383 62.3745L172.561 70.6449L169.756 67.0594L162.816 69.924L168.553 61.7212L169.087 55.2213Z" fill="#F4F4F7"/>
<path fill-rule="evenodd" clip-rule="evenodd" d="M194.49 49.9089C194.497 49.8828 194.504 49.8567 194.511 49.8306C195.833 44.7357 195.205 41.0575 193.097 39.1073C193.054 39.0671 193.01 39.0276 192.965 38.9888L192.937 38.9647C192.991 39.0112 193.045 39.0587 193.097 39.1073C195.205 41.0545 195.833 44.7359 194.511 49.8308C194.504 49.8568 194.497 49.8829 194.49 49.9089ZM192.662 55.0342C192.364 55.7069 192.042 56.383 191.699 57.0604L194.649 59.5751C193.97 60.9172 193.211 62.2615 192.378 63.5975L189.425 61.0807C184.4 69.1315 176.782 76.8293 169.293 80.8291C163.407 83.9733 158.789 84.1943 156.213 82.0011L159.164 84.5161C161.739 86.7135 166.359 86.494 172.249 83.348C183.222 77.4904 194.471 63.6856 197.435 52.4683C196.998 54.1166 196.381 55.8226 195.613 57.5496L192.662 55.0342Z" fill="#1B1B1C"/>
<path d="M179.849 40.1304C168.838 46.0121 157.544 59.8904 154.632 71.1287C151.716 82.3672 158.282 86.7109 169.294 80.8291C180.305 74.9474 191.599 61.0692 194.511 49.8308C197.427 38.5924 190.861 34.2487 179.849 40.1304ZM191.369 50.5715C188.816 60.4174 178.915 72.5868 169.268 77.7402C159.621 82.8936 153.862 79.0867 156.418 69.2371C158.971 59.3912 168.872 47.2218 178.519 42.0684C188.166 36.915 193.925 40.7219 191.369 50.5715Z" fill="url(#paint13_linear_3273_16207)"/>
<path d="M165.258 79.4397C158.101 81.6247 154.24 77.6236 156.418 69.2335C157.105 66.5791 158.329 63.7588 159.936 60.9486L158.674 61.618C156.824 64.841 155.416 68.0795 154.628 71.1252C152.147 80.6856 156.533 85.2526 164.674 82.7841L165.258 79.4362L165.258 79.4397Z" fill="url(#paint14_linear_3273_16207)"/>
<path d="M176.976 72.222C175.843 73.2342 174.684 74.1805 173.512 75.0398L174.108 77.7731C175.448 76.79 176.771 75.713 178.068 74.5562L176.976 72.222Z" fill="white"/>
<path d="M192.934 38.962L195.889 41.4809C198.127 43.3904 198.821 47.1251 197.466 52.3495C194.55 63.588 183.26 77.4696 172.248 83.3478C166.358 86.4939 161.739 86.7133 159.164 84.516L156.209 81.9971C158.784 84.1945 163.403 83.975 169.293 80.8289C180.305 74.9472 191.599 61.069 194.511 49.8306C195.866 44.6062 195.171 40.868 192.934 38.962Z" stroke="#0500FF" stroke-width="0.329245" stroke-linecap="round" stroke-linejoin="round"/>
<path d="M179.849 40.1304C168.838 46.0121 157.544 59.8904 154.632 71.1287C151.716 82.3672 158.282 86.7109 169.294 80.8291C180.305 74.9474 191.599 61.0692 194.511 49.8308C197.427 38.5924 190.861 34.2487 179.849 40.1304Z" stroke="#0500FF" stroke-width="0.329245" stroke-linecap="round" stroke-linejoin="round"/>
<path fill-rule="evenodd" clip-rule="evenodd" d="M178.519 42.0681C168.872 47.2215 158.971 59.3909 156.418 69.2368C153.862 79.0864 159.622 82.8933 169.268 77.7398C176.967 73.6269 184.829 65.0449 188.987 56.7419C188.062 58.588 186.954 60.4478 185.706 62.2695L184.117 39.9696C189.185 39.0172 192.207 41.5932 191.962 46.8987C192.289 39.8526 186.855 37.6148 178.519 42.0681Z" fill="url(#paint15_linear_3273_16207)"/>
<mask id="mask2_3273_16207" style="mask-type:alpha" maskUnits="userSpaceOnUse" x="107" y="31" width="30" height="33">
<path d="M135.037 52.6192C134.619 52.2211 134.197 51.8219 133.779 51.4239C133.849 51.4912 133.916 51.5572 133.981 51.6204C133.316 50.9572 132.293 50.1157 130.92 49.1232C125.994 45.5659 118.423 41.4132 114.016 39.8522C113.625 39.7147 113.275 39.6011 112.959 39.5123C112.98 39.519 113 39.5221 113.021 39.5288C112.463 39.3674 111.908 39.2072 111.35 39.0458C107.568 37.9521 108.395 39.8129 113.552 43.5377C119.173 47.5983 127.808 52.3343 132.842 54.1179C136.607 55.4513 137.287 54.7544 135.039 52.6185L135.037 52.6192Z" fill="#44E841" stroke="#44E841" stroke-width="0.207028" stroke-miterlimit="10"/>
<path d="M136.28 54.5744L135.095 56.6303C134.866 57.0278 133.728 56.9093 131.656 56.175C126.623 54.3907 117.987 49.6554 112.366 45.5948C109.061 43.2054 107.534 41.5837 107.862 41.0157L109.045 38.9605C108.717 39.5285 110.244 41.152 113.55 43.5389C119.171 47.5995 127.806 52.3355 132.84 54.1191C134.913 54.8534 136.051 54.9719 136.28 54.5744Z" fill="#44E841" stroke="#44E841" stroke-width="0.207028" stroke-miterlimit="10"/>
</mask>
<g mask="url(#mask2_3273_16207)">
<circle cx="121.547" cy="46.3599" r="21.882" transform="rotate(-20.0915 121.547 46.3599)" fill="#0500FF"/>
</g>
<path fill-rule="evenodd" clip-rule="evenodd" d="M119.855 44.8396C119.897 45.0532 120.792 45.6403 121.94 46.3311L121.857 46.5444L122.752 47.0684L122.833 46.8606C123.068 46.9982 123.309 47.1383 123.548 47.2774L123.465 47.4864L124.36 48.01L124.444 47.7969C124.638 47.9097 124.828 48.0206 125.013 48.1291L125.013 48.1299L126.247 48.8524L126.301 48.7136C126.301 48.7136 125.64 48.3286 125.652 48.3332C125.289 48.1211 125.183 48.0213 125.159 47.975L125.255 47.732C125.23 47.7173 125.197 47.698 125.161 47.6757L125.255 47.7309L125.389 47.3907C125.411 47.3834 125.489 47.3963 125.742 47.5444C125.731 47.5363 126.392 47.9252 126.392 47.9252L126.631 47.8742L125.466 47.1924C125.335 47.1154 125.205 47.0389 125.076 46.9633L124.828 46.8175L124.912 46.6015L124.019 46.0782L123.935 46.2916C123.69 46.1473 123.452 46.008 123.221 45.8723L123.304 45.66L122.41 45.1362L122.325 45.3514C120.816 44.4833 119.742 43.9219 119.531 44.0505C119.361 44.1538 119.866 44.5406 120.708 45.0703C120.175 44.8051 119.824 44.6828 119.856 44.8397L119.855 44.8396ZM121.288 45.1111C121.346 44.963 122.947 45.9042 123.678 46.3345L123.852 46.4366L123.74 46.7224C123.679 46.6867 123.605 46.6436 123.521 46.5948L123.521 46.5948C122.769 46.1579 121.229 45.2626 121.288 45.111L121.288 45.1111ZM123.542 46.7668C122.931 46.4074 121.599 45.6239 121.546 45.7582C121.492 45.8957 122.776 46.6415 123.403 47.0057C123.474 47.0466 123.536 47.0828 123.587 47.1127L123.689 46.8534C123.647 46.8287 123.597 46.7995 123.542 46.7668Z" fill="white"/>
<g clip-path="url(#clip2_3273_16207)">
<path d="M123.839 44.9913C118.004 41.5523 112.903 39.3932 112.446 40.1688C111.989 40.9445 116.349 44.3611 122.184 47.8C128.019 51.239 133.12 53.3981 133.577 52.6225C134.034 51.8469 129.674 48.4303 123.839 44.9913Z" fill="#0500FF"/>
</g>
<path d="M122.426 47.2279L120.445 45.3934L116.229 42.7326L119.375 43.999L119.333 43.1987L123.258 45.8158L127.449 47.9821L126.729 48.3332L129.361 50.4723L124.991 48.0721L122.426 47.2279Z" fill="#F4F4F7"/>
<path d="M114.045 39.8149C118.479 41.3857 126.099 45.5638 131.055 49.1441C136.011 52.7237 136.432 54.3522 131.995 52.7802C127.558 51.2082 119.938 47.0301 114.985 43.4491C110.027 39.872 109.605 38.2417 114.045 39.8149Z" fill="url(#paint16_linear_3273_16207)"/>
<path fill-rule="evenodd" clip-rule="evenodd" d="M134.565 52.0609C134.353 51.8603 134.142 51.6597 133.932 51.4595C133.958 51.4849 133.985 51.5102 134.011 51.5351C134.195 51.7104 134.38 51.8859 134.565 52.0614C134.776 52.2618 134.987 52.4622 135.197 52.6622L135.198 52.6621C134.987 52.4619 134.776 52.2614 134.565 52.0609ZM136.306 54.7615C135.894 54.986 134.793 54.8106 132.987 54.171C127.923 52.3756 119.233 47.6106 113.576 43.5244C108.389 39.7757 107.556 37.9032 111.363 39.0037C111.643 39.0849 111.923 39.1658 112.203 39.2467C112.483 39.3276 112.763 39.4086 113.044 39.4898C109.71 38.526 110.439 40.1681 114.986 43.4512C119.94 47.0297 127.561 51.2096 131.996 52.7823C132.472 52.9511 132.893 53.083 133.258 53.1795C132.893 53.083 132.472 52.9511 131.996 52.7823C130.503 52.2523 128.648 51.4287 126.657 50.4307L126.962 51.5199C129.209 52.6425 131.3 53.5727 132.988 54.1703C134.793 54.8093 135.893 54.985 136.306 54.7615Z" fill="url(#paint17_linear_3273_16207)"/>
<path fill-rule="evenodd" clip-rule="evenodd" d="M109.041 38.9213C109.041 38.9204 109.042 38.9195 109.042 38.9186L109.042 38.9196C109.041 38.9201 109.041 38.9207 109.041 38.9213ZM109.348 43.1808C110.093 43.8603 111.107 44.6699 112.386 45.5929C113.042 46.0674 113.739 46.5499 114.467 47.0358L115.657 44.9692C115.884 45.121 116.114 45.2732 116.347 45.4255L115.156 47.4919C115.903 47.9809 116.676 48.4711 117.468 48.9582L118.659 46.8922C123.637 49.9558 129.281 52.8585 132.987 54.1714C135.073 54.9104 136.218 55.0296 136.448 54.6295L135.256 56.6983C135.026 57.0984 133.881 56.9792 131.795 56.2402C126.731 54.4448 118.04 49.6798 112.384 45.5936C111.106 44.6699 110.093 43.8602 109.348 43.1808Z" fill="url(#paint18_linear_3273_16207)"/>
<path d="M135.198 52.6623C134.776 52.2618 134.353 51.8601 133.931 51.4595C134.002 51.5272 134.07 51.5937 134.135 51.6572C133.466 50.9899 132.436 50.1432 131.055 49.1444C126.098 45.5648 118.48 41.386 114.045 39.8152C113.651 39.6769 113.299 39.5626 112.981 39.4732C113.002 39.48 113.022 39.4831 113.043 39.4899C112.482 39.3274 111.924 39.1662 111.362 39.0038C107.556 37.9033 108.389 39.7757 113.578 43.5238C119.234 47.61 127.923 52.3756 132.989 54.1704C136.777 55.5122 137.462 54.811 135.2 52.6616L135.198 52.6623Z" stroke="#0500FF" stroke-width="0.207028" stroke-miterlimit="10"/>
<path d="M115.157 47.4921C115.904 47.9812 116.676 48.4713 117.469 48.9584L118.661 46.8896C117.871 46.4037 117.096 45.9124 116.348 45.4233L115.157 47.4921Z" fill="#1B1B1C"/>
<path d="M115.659 44.9673C114.932 44.4813 114.235 43.9988 113.578 43.5244C110.251 41.1207 108.715 39.4888 109.043 38.918L107.853 40.9861C107.523 41.5576 109.059 43.1913 112.386 45.5932C113.043 46.0676 113.74 46.5501 114.467 47.0361L115.659 44.9673Z" fill="#1B1B1C"/>
<path d="M136.448 54.6293L135.256 56.6981C135.026 57.0981 133.881 56.9789 131.795 56.2399C126.731 54.4445 118.041 49.6795 112.384 45.5933C109.058 43.189 107.522 41.5571 107.853 40.9856L109.043 38.9175C108.713 39.489 110.249 41.1227 113.576 43.5246C119.232 47.6107 127.921 52.3764 132.987 54.1711C135.073 54.9101 136.218 55.0293 136.448 54.6293Z" stroke="#0500FF" stroke-width="0.207028" stroke-miterlimit="10"/>
<mask id="mask3_3273_16207" style="mask-type:alpha" maskUnits="userSpaceOnUse" x="12" y="30" width="32" height="28">
<path fill-rule="evenodd" clip-rule="evenodd" d="M37.9411 31.0283C39.5195 30.7462 40.6939 30.9513 41.3034 31.6826L42.988 33.7011L42.902 33.7726C43.5538 34.5551 43.4819 35.9533 42.5386 37.9272C39.9531 43.3425 31.7872 51.036 24.3057 55.1148L24.3035 55.1125C19.5517 57.7024 16.2174 58.2106 15.0787 56.8508L15.0778 56.8515L14.9909 56.9238L13.3063 54.9043C12.9559 54.4838 12.8072 53.9067 12.863 53.1933C12.9187 52.4806 13.1787 51.6233 13.654 50.6289L13.9147 50.1113C15.2967 47.4927 17.8624 44.4201 20.9596 41.5009C24.2652 38.3854 28.1854 35.4364 31.9372 33.3916L32.8141 32.9287C34.8216 31.9057 36.5527 31.2764 37.9411 31.0283Z" fill="#44E841"/>
<path d="M41.3034 31.6826L41.2168 31.7547L41.2169 31.7548L41.3034 31.6826ZM37.9411 31.0283L37.9213 30.9174L37.9213 30.9174L37.9411 31.0283ZM42.988 33.7011L43.06 33.7878L43.1468 33.7156L43.0745 33.6289L42.988 33.7011ZM42.902 33.7726L42.83 33.686L42.7432 33.7581L42.8154 33.8447L42.902 33.7726ZM42.5386 37.9272L42.4369 37.8786L42.4369 37.8786L42.5386 37.9272ZM24.3057 55.1148L24.2261 55.1945L24.2857 55.254L24.3596 55.2137L24.3057 55.1148ZM24.3035 55.1125L24.3831 55.0328L24.3235 54.9733L24.2495 55.0136L24.3035 55.1125ZM15.0787 56.8508L15.1651 56.7785L15.0926 56.6919L15.0062 56.7645L15.0787 56.8508ZM15.0778 56.8515L15.1499 56.9382L15.1503 56.9378L15.0778 56.8515ZM14.9909 56.9238L14.9044 56.996L14.9764 57.0824L15.0629 57.0104L14.9909 56.9238ZM13.3063 54.9043L13.2198 54.9764L13.2198 54.9764L13.3063 54.9043ZM12.863 53.1933L12.7506 53.1845L12.7506 53.1846L12.863 53.1933ZM13.654 50.6289L13.5533 50.5782L13.5523 50.5803L13.654 50.6289ZM13.9147 50.1113L13.815 50.0587L13.8141 50.0606L13.9147 50.1113ZM20.9596 41.5009L20.8824 41.4189L20.9596 41.5009ZM31.9372 33.3916L31.8846 33.2919L31.8833 33.2926L31.9372 33.3916ZM32.8141 32.9287L32.763 32.8283L32.7615 32.829L32.8141 32.9287ZM41.3034 31.6826L41.39 31.6104C40.7391 30.8295 39.508 30.6338 37.9213 30.9174L37.9411 31.0283L37.9609 31.1392C39.531 30.8587 40.6487 31.0731 41.2168 31.7547L41.3034 31.6826ZM42.988 33.7011L43.0745 33.6289L41.3899 31.6104L41.3034 31.6826L41.2169 31.7548L42.9014 33.7733L42.988 33.7011ZM42.902 33.7726L42.9741 33.8592L43.06 33.7878L42.988 33.7011L42.9159 33.6145L42.83 33.686L42.902 33.7726ZM42.5386 37.9272L42.6403 37.9758C43.1153 36.9818 43.3749 36.1248 43.4308 35.4119C43.4868 34.6981 43.3387 34.1208 42.9886 33.7005L42.902 33.7726L42.8154 33.8447C43.1171 34.2069 43.259 34.7199 43.2061 35.3943C43.1532 36.0697 42.9052 36.8987 42.4369 37.8786L42.5386 37.9272ZM24.3057 55.1148L24.3596 55.2137C28.1103 53.1689 32.0298 50.2197 35.3354 47.1042C38.6394 43.9902 41.3388 40.7017 42.6403 37.9758L42.5386 37.9272L42.4369 37.8786C41.1529 40.568 38.4766 43.8339 35.1808 46.9402C31.8867 50.0449 27.9826 52.9818 24.2518 55.0158L24.3057 55.1148ZM24.3035 55.1125L24.2238 55.1922L24.2261 55.1945L24.3057 55.1148L24.3854 55.035L24.3831 55.0328L24.3035 55.1125ZM15.0787 56.8508L14.9923 56.9231C15.603 57.6525 16.7778 57.856 18.356 57.5737C19.9425 57.2899 21.976 56.5094 24.3574 55.2115L24.3035 55.1125L24.2495 55.0136C21.8791 56.3055 19.8696 57.074 18.3163 57.3518C16.7548 57.6312 15.693 57.4089 15.1651 56.7785L15.0787 56.8508ZM15.0778 56.8515L15.1503 56.9378L15.1512 56.9371L15.0787 56.8508L15.0062 56.7645L15.0053 56.7653L15.0778 56.8515ZM14.9909 56.9238L15.0629 57.0104L15.1499 56.9382L15.0778 56.8515L15.0058 56.7649L14.9188 56.8372L14.9909 56.9238ZM13.3063 54.9043L13.2198 54.9764L14.9044 56.996L14.9909 56.9238L15.0774 56.8516L13.3929 54.8321L13.3063 54.9043ZM12.863 53.1933L12.7506 53.1846C12.6934 53.9177 12.8452 54.5269 13.2198 54.9764L13.3063 54.9043L13.3929 54.8321C13.0666 54.4406 12.9211 53.8957 12.9753 53.2021L12.863 53.1933ZM13.654 50.6289L13.5523 50.5803C13.0736 51.5817 12.8078 52.4531 12.7506 53.1845L12.863 53.1933L12.9753 53.2021C13.0295 52.5082 13.2837 51.6648 13.7556 50.6775L13.654 50.6289ZM13.9147 50.1113L13.8141 50.0606L13.5533 50.5782L13.654 50.6289L13.7546 50.6796L14.0154 50.162L13.9147 50.1113ZM20.9596 41.5009L20.8824 41.4189C17.7808 44.3422 15.2053 47.4245 13.8151 50.0587L13.9147 50.1113L14.0144 50.1639C15.3882 47.5608 17.9441 44.498 21.0369 41.583L20.9596 41.5009ZM31.9372 33.3916L31.8833 33.2926C28.1216 35.3428 24.1937 38.298 20.8824 41.4189L20.9596 41.5009L21.0369 41.583C24.3368 38.4728 28.2492 35.5299 31.9911 33.4905L31.9372 33.3916ZM32.8141 32.9287L32.7615 32.829L31.8846 33.2919L31.9372 33.3916L31.9898 33.4912L32.8667 33.0283L32.8141 32.9287ZM37.9411 31.0283L37.9213 30.9174C36.5181 31.1681 34.776 31.8025 32.763 32.8283L32.8141 32.9287L32.8653 33.0291C34.8673 32.0089 36.5874 31.3847 37.9609 31.1392L37.9411 31.0283Z" fill="#44E841"/>
</mask>
<g mask="url(#mask3_3273_16207)">
<circle cx="27.0306" cy="44.2452" r="22.9972" fill="#0500FF"/>
</g>
<path fill-rule="evenodd" clip-rule="evenodd" d="M32.4539 44.7616C33.6248 43.7439 33.7497 43.1151 33.5133 42.6439L35.1807 41.2783L34.9084 40.9862L33.285 42.3157C33.2136 42.239 33.1353 42.1647 33.0572 42.0911L34.6914 40.7529L34.4196 40.4608L32.7526 41.8258C32.6893 41.7662 32.6273 41.7074 32.5708 41.6469L32.576 41.6427L32.2013 41.2392L31.1174 42.127C31.1174 42.127 31.3325 42.3311 31.3154 42.3388C31.4255 42.4573 31.2228 42.6913 31.0271 42.8711L29.1277 44.4268C29.1352 44.4351 29.1439 44.4467 29.1494 44.4635L29.1206 44.4327L26.4595 46.6119C26.3253 46.7127 26.0986 46.8597 26.0211 46.7774C26.0131 46.7906 25.8236 46.5648 25.8236 46.5648L24.5572 47.4996L24.9114 47.8799C24.9512 47.923 24.9892 47.9669 25.0268 48.0102C25.0511 48.0383 25.0753 48.0662 25.0996 48.0935L23.4131 49.475L23.6847 49.767L25.3533 48.4006C25.422 48.4854 25.492 48.5648 25.5628 48.6403L23.9018 50.0004L24.1739 50.2925L25.8573 48.914C26.4125 49.3251 27.1626 49.3169 28.8041 48.0476C30.1264 47.0254 30.5396 46.3792 30.5128 45.9096C30.9707 45.8332 31.5972 45.5067 32.4537 44.7616L32.4539 44.7616ZM28.4676 47.3057C27.311 48.253 26.8494 47.7089 26.6384 47.4601L26.6384 47.4601C26.6195 47.4378 26.6026 47.4179 26.5875 47.4017L28.8218 45.5719C28.8403 45.5918 28.8648 45.6144 28.8926 45.6399L28.8926 45.6399C29.1409 45.8686 29.6497 46.3373 28.4678 47.3057L28.4676 47.3057ZM29.887 44.7842C30.0615 44.9932 30.442 45.4488 31.493 44.5883C32.5681 43.7079 32.1396 43.3207 31.9303 43.1316C31.9068 43.1103 31.886 43.0916 31.8705 43.0749L29.8441 44.7345C29.8569 44.7482 29.8711 44.7652 29.887 44.7842Z" fill="white"/>
<g clip-path="url(#clip3_3273_16207)">
<path d="M17.5947 55.0384C19.2304 57.0622 25.9613 54.3342 32.6286 48.9453C39.2959 43.5564 43.3747 37.5473 41.739 35.5235C40.1032 33.4997 33.3723 36.2277 26.7051 41.6166C20.0378 47.0055 15.9589 53.0147 17.5947 55.0384Z" fill="#0500FF"/>
</g>
<path d="M37.1966 39.2351L33.5781 43.463L33.661 45.8579L29.1003 47.8875L24.2588 52.0192L25.0588 49.0457L21.9836 49.2043L27.0387 45.3369L29.9796 41.3033L32.3039 41.8866L37.1966 39.2351Z" fill="#F4F4F7"/>
<path d="M25.102 37.8352C24.4675 38.3307 23.8444 38.842 23.2349 39.36L24.9349 41.3983C25.5467 40.878 26.1698 40.369 26.802 39.8735L25.102 37.8352Z" fill="#1B1B1C"/>
<path d="M30.4051 37.268C31.5091 36.536 32.6154 35.8626 33.7103 35.2657C38.5101 32.6508 41.8763 32.1373 43.0232 33.5134L41.3232 31.4751C40.1763 30.099 36.8078 30.6125 32.0103 33.2274C30.9176 33.8242 29.8091 34.4977 28.7051 35.2297L30.4051 37.268Z" fill="#1B1B1C"/>
<path fill-rule="evenodd" clip-rule="evenodd" d="M38.7163 43.087C38.7162 43.087 38.7162 43.0871 38.7161 43.0872H38.7184L38.7163 43.087ZM30.2582 38.9503C24.6757 42.7267 19.3022 48.1517 17.3879 52.1596C15.0987 56.948 18.6093 57.9075 25.2288 54.2993C31.8438 50.6956 39.0706 43.8847 41.3576 39.0964L41.3599 39.0941C42.3817 36.9568 42.2475 35.5823 41.1972 35.0364C42.2454 35.5829 42.3787 36.957 41.3576 39.0939C40.7706 40.3213 39.8586 41.6816 38.7163 43.087L26.4141 41.8349C27.6567 40.8093 28.9518 39.8347 30.2582 38.9503Z" fill="url(#paint19_linear_3273_16207)"/>
<path fill-rule="evenodd" clip-rule="evenodd" d="M14.9284 56.7951C14.2795 56.0035 14.3558 54.5958 15.304 52.6124C17.9161 47.1461 26.1566 39.3802 33.7107 35.2631C41.2626 31.1481 45.27 32.2405 42.6579 37.7068C40.6123 41.9912 35.1063 47.6883 29.1848 51.9339L29.5272 51.5812C28.1026 52.6015 26.6532 53.525 25.2286 54.2997H25.2263C18.6068 57.9079 15.0962 56.9484 17.3854 52.1601C17.3855 52.1599 17.3856 52.1597 17.3857 52.1595L17.3878 52.1574C15.0985 56.9458 18.6092 57.9052 25.2287 54.2971C31.8436 50.6934 39.0704 43.8825 41.3575 39.0942C43.2709 35.0919 41.1308 33.7661 36.5126 35.5443L37.1356 33.6528C36.3251 33.9636 35.4513 34.3577 34.5144 34.8397L34.2141 36.5852L34.245 36.5695C34.0066 36.6915 33.7638 36.8198 33.5166 36.9545C28.7711 39.5396 23.7147 43.7718 20.3894 47.7251L18.731 47.5563C18.0017 48.4257 17.347 49.2815 16.7781 50.1104L18.6771 49.9619C18.2203 50.6294 17.8298 51.2766 17.517 51.8928L15.4574 52.3132L15.4573 52.3134C15.4054 52.4147 15.3535 52.516 15.3061 52.615C14.359 54.5962 14.2819 56.003 14.9284 56.7951Z" fill="url(#paint20_linear_3273_16207)"/>
<path fill-rule="evenodd" clip-rule="evenodd" d="M33.7113 35.263C32.6163 35.8599 31.51 36.5333 30.406 37.2653L28.7064 35.2274C22.1893 39.5454 15.839 45.902 13.6051 50.5768C12.6523 52.5701 12.5801 53.98 13.2393 54.7705L14.9394 56.8089C14.2801 56.0183 14.3524 54.6084 15.3051 52.6151C16.8986 49.2806 20.5864 45.0903 24.9353 41.3946L23.2362 39.3573C23.8458 38.8393 24.4689 38.328 25.1033 37.8325L26.8029 39.8704C29.0508 38.1094 31.4131 36.5186 33.7119 35.2658C38.5083 32.6515 41.8763 32.1376 43.024 33.5126L42.9808 33.4608C41.7942 32.1476 38.452 32.6803 33.7113 35.263Z" fill="url(#paint21_linear_3273_16207)"/>
<path d="M14.9383 56.8088L13.2382 54.7705C12.579 53.9799 12.6512 52.57 13.604 50.5767C16.2161 45.1104 24.4566 37.3446 32.0108 33.2274C36.8106 30.6125 40.1767 30.099 41.3236 31.4751L43.0237 33.5134C41.8768 32.1373 38.5083 32.6508 33.7108 35.2657C26.1566 39.3829 17.9161 47.1487 15.304 52.615C14.3513 54.6083 14.279 56.0182 14.9383 56.8088Z" stroke="#0500FF" stroke-width="0.225375" stroke-miterlimit="10"/>
<path d="M24.2534 55.0561C31.8053 50.9389 40.048 43.1731 42.6579 37.7068C45.27 32.2405 41.2626 31.1481 33.7107 35.2631C26.1566 39.3802 17.9161 47.1461 15.304 52.6124C12.6918 58.0764 16.697 59.171 24.2511 55.0539L24.2534 55.0561Z" stroke="#0500FF" stroke-width="0.225375" stroke-miterlimit="10"/>
<mask id="mask4_3273_16207" style="mask-type:alpha" maskUnits="userSpaceOnUse" x="2" y="119" width="54" height="28">
<path fill-rule="evenodd" clip-rule="evenodd" d="M52.9765 134.753C54.5682 136.511 55.233 138.144 54.7938 139.482L53.5827 143.178L53.4263 143.127C52.9561 144.558 51.1461 145.564 47.9308 145.93C39.1112 146.934 23.0579 142.727 12.0748 136.542L12.0758 136.538C5.10071 132.609 1.84828 128.826 2.66088 126.332L2.49951 126.279L3.71148 122.582C3.96391 121.813 4.57162 121.174 5.51021 120.685C6.4477 120.196 7.72608 119.849 9.34592 119.665L9.76774 119.621C14.177 119.212 20.2313 120.021 26.5249 121.669C33.0248 123.371 39.7974 125.974 45.3043 129.076L45.9493 129.444C49.1196 131.287 51.4764 133.095 52.9765 134.753Z" fill="#44E841"/>
<path d="M54.7938 139.482L54.6354 139.43L54.6354 139.43L54.7938 139.482ZM52.9765 134.753L53.1 134.641L53.1 134.641L52.9765 134.753ZM53.5827 143.178L53.5313 143.336L53.6893 143.388L53.7411 143.23L53.5827 143.178ZM53.4263 143.127L53.4777 142.969L53.3198 142.917L53.268 143.075L53.4263 143.127ZM47.9308 145.93L47.912 145.764L47.9119 145.764L47.9308 145.93ZM12.0748 136.542L11.9123 136.505L11.8844 136.627L11.993 136.688L12.0748 136.542ZM12.0758 136.538L12.2382 136.575L12.2662 136.454L12.1576 136.393L12.0758 136.538ZM2.66088 126.332L2.81937 126.383L2.87086 126.225L2.71293 126.173L2.66088 126.332ZM2.49951 126.279L2.34112 126.227L2.28922 126.385L2.44745 126.437L2.49951 126.279ZM3.71148 122.582L3.55309 122.53L3.55309 122.53L3.71148 122.582ZM5.51021 120.685L5.43311 120.537L5.4331 120.537L5.51021 120.685ZM9.34592 119.665L9.32871 119.499L9.32713 119.499L9.34592 119.665ZM9.76774 119.621L9.75232 119.455L9.75053 119.455L9.76774 119.621ZM26.5249 121.669L26.5671 121.508L26.5249 121.669ZM45.3043 129.076L45.387 128.931L45.3861 128.931L45.3043 129.076ZM45.9493 129.444L46.0331 129.3L46.032 129.3L45.9493 129.444ZM54.7938 139.482L54.9522 139.534C55.4212 138.105 54.7001 136.408 53.1 134.641L52.9765 134.753L52.8529 134.864C54.4363 136.614 55.0448 138.183 54.6354 139.43L54.7938 139.482ZM53.5827 143.178L53.7411 143.23L54.9522 139.534L54.7938 139.482L54.6354 139.43L53.4243 143.126L53.5827 143.178ZM53.4263 143.127L53.3749 143.286L53.5313 143.336L53.5827 143.178L53.6341 143.019L53.4777 142.969L53.4263 143.127ZM47.9308 145.93L47.9496 146.095C49.5688 145.911 50.8472 145.565 51.785 145.076C52.7242 144.586 53.3321 143.948 53.5847 143.179L53.4263 143.127L53.268 143.075C53.0503 143.737 52.5182 144.318 51.6309 144.78C50.7424 145.244 49.5081 145.583 47.912 145.764L47.9308 145.93ZM12.0748 136.542L11.993 136.688C17.4991 139.788 24.2719 142.391 30.7719 144.093C37.2686 145.794 43.51 146.601 47.9496 146.095L47.9308 145.93L47.9119 145.764C43.532 146.263 37.3369 145.468 30.8563 143.771C24.379 142.074 17.6336 139.481 12.1565 136.397L12.0748 136.542ZM12.0758 136.538L11.9134 136.501L11.9123 136.505L12.0748 136.542L12.2372 136.58L12.2382 136.575L12.0758 136.538ZM2.66088 126.332L2.50239 126.28C2.06654 127.618 2.73257 129.251 4.32439 131.009C5.92455 132.776 8.4984 134.714 11.994 136.683L12.0758 136.538L12.1576 136.393C8.67812 134.433 6.1382 132.515 4.57152 130.785C2.9965 129.046 2.44262 127.54 2.81937 126.383L2.66088 126.332ZM2.49951 126.279L2.44745 126.437L2.60882 126.49L2.66088 126.332L2.71293 126.173L2.55156 126.12L2.49951 126.279ZM3.71148 122.582L3.55309 122.53L2.34112 126.227L2.49951 126.279L2.6579 126.33L3.86987 122.634L3.71148 122.582ZM5.51021 120.685L5.4331 120.537C4.46862 121.04 3.82296 121.708 3.55309 122.53L3.71148 122.582L3.86986 122.634C4.10486 121.918 4.67462 121.309 5.58732 120.833L5.51021 120.685ZM9.34592 119.665L9.32713 119.499C7.69571 119.684 6.39525 120.035 5.43311 120.537L5.51021 120.685L5.58731 120.833C6.50016 120.356 7.75645 120.013 9.36472 119.83L9.34592 119.665ZM9.76774 119.621L9.75053 119.455L9.32871 119.499L9.34592 119.665L9.36314 119.831L9.78495 119.787L9.76774 119.621ZM26.5249 121.669L26.5671 121.508C20.2652 119.857 14.1894 119.043 9.75233 119.455L9.76774 119.621L9.78315 119.787C14.1646 119.38 20.1973 120.184 26.4827 121.83L26.5249 121.669ZM45.3043 129.076L45.3861 128.931C39.8647 125.821 33.0783 123.213 26.5671 121.508L26.5249 121.669L26.4827 121.83C32.9713 123.529 39.7302 126.128 45.2225 129.221L45.3043 129.076ZM45.9493 129.444L46.032 129.3L45.387 128.931L45.3043 129.076L45.2217 129.221L45.8667 129.589L45.9493 129.444ZM52.9765 134.753L53.1 134.641C51.5841 132.966 49.2114 131.148 46.0331 129.3L45.9493 129.444L45.8656 129.588C49.0279 131.427 51.3687 133.225 52.8529 134.864L52.9765 134.753Z" fill="#44E841"/>
</mask>
<g mask="url(#mask4_3273_16207)">
<circle cx="27.8444" cy="131.435" r="34.0176" transform="rotate(57.9804 27.8444 131.435)" fill="#0500FF"/>
</g>
<path fill-rule="evenodd" clip-rule="evenodd" d="M31.4491 138.642C33.6439 139.312 34.5305 138.975 34.9361 138.31L37.9564 139.33L38.1093 138.759L35.1686 137.766C35.2089 137.616 35.2405 137.46 35.2716 137.304L38.2317 138.304L38.3849 137.734L35.3655 136.714C35.3905 136.588 35.4157 136.464 35.4472 136.346L35.4566 136.349L35.6687 135.562L33.7052 134.899C33.7052 134.899 33.618 135.329 33.5948 135.314C33.5326 135.545 33.0802 135.474 32.7011 135.37L29.2604 134.208C29.2558 134.223 29.2481 134.243 29.2314 134.263L29.2474 134.203L24.4272 132.575C24.1956 132.486 23.8334 132.317 23.8759 132.155C23.8531 132.155 23.9876 131.74 23.9876 131.74L21.822 130.885L21.6228 131.628C21.6 131.712 21.5747 131.794 21.5498 131.875C21.5337 131.927 21.5177 131.979 21.5025 132.031L18.4472 131L18.2939 131.569L21.3164 132.59C21.2639 132.743 21.2192 132.893 21.18 133.041L18.1716 132.025L18.0186 132.595L21.0678 133.625C20.9876 134.644 21.5861 135.578 24.4655 136.641C26.7845 137.498 27.919 137.51 28.487 137.108C28.942 137.622 29.8428 138.152 31.449 138.641L31.4491 138.642ZM25.1321 135.638C23.0368 134.93 23.3573 133.924 23.5038 133.465C23.5169 133.423 23.5287 133.387 23.5371 133.355L27.5843 134.722C27.5739 134.761 27.5648 134.809 27.5545 134.864L27.5545 134.864C27.4624 135.355 27.2737 136.361 25.1322 135.638L25.1321 135.638ZM29.4076 135.44C29.2823 135.823 29.0093 136.657 30.9129 137.301C32.8603 137.958 33.0098 137.117 33.0828 136.707C33.091 136.66 33.0983 136.62 33.107 136.587L29.4363 135.347C29.4291 135.374 29.419 135.405 29.4076 135.44Z" fill="white"/>
<g clip-path="url(#clip4_3273_16207)">
<path d="M6.90638 128.066C5.65112 131.705 14.3515 138.007 26.3391 142.142C38.3268 146.278 49.0623 146.68 50.3176 143.042C51.5729 139.403 42.8725 133.101 30.8848 128.965C18.8972 124.83 8.16164 124.427 6.90638 128.066Z" fill="#0500FF"/>
</g>
<path d="M42.1001 140.256L33.9596 139.033L31.021 141.016L24.8986 136.888L15.9197 134.056L20.2763 132.727L17.6657 128.995L26.4806 132.302L33.8461 132.826L34.9374 136.199L42.1001 140.256Z" fill="#F4F4F7"/>
<path d="M34.3699 123.989C33.2509 123.582 32.1209 123.202 30.9932 122.843L29.7701 126.574C30.9024 126.933 32.0295 127.316 33.1468 127.72L34.3699 123.989Z" fill="#1B1B1C"/>
<path d="M39.2406 130.196C41.0245 131.006 42.7367 131.865 44.3441 132.771C51.388 136.739 54.6721 140.558 53.8457 143.076L55.0688 139.345C55.8952 136.828 52.6093 133.006 45.5672 129.04C43.9616 128.137 42.2476 127.275 40.4637 126.465L39.2406 130.196Z" fill="#1B1B1C"/>
<path fill-rule="evenodd" clip-rule="evenodd" d="M38.4614 145.183C38.4613 145.183 38.4612 145.183 38.461 145.183L38.4628 145.186L38.4614 145.183ZM37.4592 131.529C28.2611 127.373 16.9895 124.795 10.3553 125.549C2.55444 126.434 4.10449 131.589 13.8213 137.061C23.529 142.531 37.7389 146.253 45.538 145.366L45.5426 145.367C49.1101 144.963 50.7215 143.664 50.4907 141.851C50.7192 143.662 49.1074 144.959 45.541 145.364C43.5412 145.591 41.1199 145.514 38.4614 145.183L30.3832 128.772C32.8012 129.578 35.1931 130.506 37.4592 131.529Z" fill="url(#paint22_linear_3273_16207)"/>
<path fill-rule="evenodd" clip-rule="evenodd" d="M2.68638 125.909C3.264 124.576 5.06755 123.64 8.15326 123.291C17.0576 122.279 33.2602 126.524 44.3485 132.769C55.4322 139.013 57.2051 144.896 48.3008 145.907C41.3235 146.701 29.8609 144.264 19.8923 140.168L20.6011 140.32C18.2042 139.334 15.9093 138.24 13.8203 137.061L13.8185 137.058C4.10166 131.586 2.55162 126.431 10.3525 125.546C10.3531 125.546 10.3538 125.546 10.3544 125.546L10.3582 125.547C2.55732 126.431 4.10737 131.587 13.8242 137.059C23.5319 142.529 37.7418 146.251 45.5409 145.364C52.0611 144.625 52.0454 140.901 46.1932 136.503L49.0541 135.801C48.0286 135.028 46.849 134.242 45.5097 133.445L43.085 134.437L43.1192 134.458C42.7823 134.256 42.4342 134.054 42.0749 133.852C35.111 129.928 25.8374 126.905 18.2712 125.835L17.1822 123.623C15.52 123.39 13.9331 123.24 12.4473 123.177L14.123 125.442C12.9272 125.393 11.8091 125.411 10.7907 125.502L8.64825 123.249C8.48041 123.263 8.31257 123.277 8.1511 123.295C5.06923 123.645 3.26633 124.578 2.68638 125.909Z" fill="url(#paint23_linear_3273_16207)"/>
<path fill-rule="evenodd" clip-rule="evenodd" d="M44.3487 132.769C42.7413 131.864 41.0291 131.005 39.2452 130.194L40.468 126.465C29.9412 121.678 16.9883 118.699 9.37333 119.563C6.12621 119.932 4.30126 120.947 3.82681 122.394L2.60372 126.124C3.07817 124.678 4.90313 123.662 8.15025 123.294C13.5821 122.677 21.7299 124.016 29.7758 126.572L30.9982 122.843C32.126 123.201 33.2559 123.582 34.3749 123.989L33.1521 127.719C37.1236 129.157 40.9714 130.872 44.3455 132.772C51.3861 136.738 54.6721 140.559 53.8477 143.076L53.8797 142.979C54.593 140.461 51.3035 136.688 44.3487 132.769Z" fill="url(#paint24_linear_3273_16207)"/>
<path d="M2.60323 126.123L3.82632 122.393C4.30077 120.946 6.12572 119.931 9.37284 119.562C18.2772 118.551 34.4798 122.795 45.5681 129.041C52.6121 133.009 55.8962 136.829 55.0697 139.346L53.8467 143.077C54.6731 140.559 51.3872 136.737 44.345 132.771C33.2567 126.526 17.0541 122.282 8.14975 123.293C4.90263 123.661 3.07768 124.677 2.60323 126.123Z" stroke="#0500FF" stroke-width="0.333376" stroke-miterlimit="10"/>
<path d="M12.1073 136.431C23.1938 142.673 39.3983 146.921 48.3008 145.907C57.2051 144.896 55.4322 139.013 44.3485 132.769C33.2602 126.524 17.0576 122.279 8.15326 123.291C-0.74823 124.3 1.0201 130.181 12.1084 136.427L12.1073 136.431Z" stroke="#0500FF" stroke-width="0.333376" stroke-miterlimit="10"/>
<path d="M67.517 58.7227L68.266 55.0261L65.3136 57.3754L64.5646 61.0719L67.517 58.7227Z" fill="#48FF91" stroke="#0500FF" stroke-width="0.392094" stroke-linecap="round" stroke-linejoin="round"/>
<path d="M56.266 55.9878L57.0199 52.2913L65.3128 57.374L64.5638 61.0706L56.266 55.9878Z" fill="#FFCE22" stroke="#0500FF" stroke-width="0.392094" stroke-linecap="round" stroke-linejoin="round"/>
<path d="M59.9702 49.9436L57.0178 52.2929L65.3108 57.3756L68.2631 55.0264L59.9702 49.9436Z" fill="#48FF91" stroke="#0500FF" stroke-width="0.392094" stroke-linecap="round" stroke-linejoin="round"/>
<path d="M155.171 28.8858L147.45 27.4592L152.447 33.5151L160.168 34.9417L155.171 28.8858Z" fill="#48FF91" stroke="#0500FF" stroke-width="0.45" stroke-linecap="round" stroke-linejoin="round"/>
<path d="M160.351 19.6156L152.449 33.5156L160.169 34.9421L160.351 19.6156Z" fill="#FFCE22" stroke="#0500FF" stroke-width="0.45" stroke-linecap="round" stroke-linejoin="round"/>
<path d="M160.349 19.615L152.447 33.515L147.45 27.4591L160.349 19.615Z" fill="#2ECCFF" stroke="#0500FF" stroke-width="0.45" stroke-linecap="round" stroke-linejoin="round"/>
<path d="M65.6383 180.091L60.2463 180.243L64.471 183.593L69.8561 183.44L65.6383 180.091Z" fill="#2ECCFF" stroke="#0500FF" stroke-width="0.45" stroke-linecap="round" stroke-linejoin="round"/>
<path d="M65.4651 196.628L60.0801 196.774L64.4715 183.593L69.8566 183.44L65.4651 196.628Z" fill="#2ECCFF" stroke="#0500FF" stroke-width="0.45" stroke-linecap="round" stroke-linejoin="round"/>
<path d="M55.8566 193.423L60.0812 196.773L64.4727 183.591L60.248 180.242L55.8566 193.423Z" fill="#C32AC1" stroke="#0500FF" stroke-width="0.45" stroke-linecap="round" stroke-linejoin="round"/>
<mask id="mask5_3273_16207" style="mask-type:alpha" maskUnits="userSpaceOnUse" x="57" y="4" width="53" height="40">
<path fill-rule="evenodd" clip-rule="evenodd" d="M60.5466 25.2961C67.0938 15.8898 82.3055 6.91184 94.5154 5.24019C101.124 4.33545 105.5 5.75749 107.086 8.74384L108.902 11.9872C110.32 14.5219 109.683 18.2175 106.638 22.5897C100.087 31.9949 84.8778 40.9772 72.6689 42.6456C66.1379 43.5397 61.786 42.1598 60.155 39.2431L58.3483 36.0163C56.8445 33.479 57.4537 29.7369 60.5466 25.2961Z" fill="#44E841"/>
<path d="M94.5154 5.24019L94.4931 5.07709L94.5154 5.24019ZM60.5466 25.2961L60.6817 25.3902L60.6817 25.3901L60.5466 25.2961ZM107.086 8.74384L106.941 8.82107L106.943 8.82427L107.086 8.74384ZM108.902 11.9872L109.046 11.9068L109.046 11.9067L108.902 11.9872ZM106.638 22.5897L106.773 22.6838L106.638 22.5897ZM72.6689 42.6456L72.6467 42.4825L72.6466 42.4825L72.6689 42.6456ZM60.155 39.2431L60.2987 39.1627L60.2986 39.1626L60.155 39.2431ZM58.3483 36.0163L58.492 35.9359L58.4899 35.9324L58.3483 36.0163ZM94.5154 5.24019L94.4931 5.07709C88.3611 5.91662 81.4849 8.58866 75.3238 12.2259C69.1634 15.8627 63.7028 20.4734 60.4115 25.2021L60.5466 25.2961L60.6817 25.3901C63.9376 20.7125 69.3565 16.131 75.4912 12.5094C81.6252 8.88815 88.4598 6.23541 94.5377 5.4033L94.5154 5.24019ZM107.086 8.74384L107.232 8.66663C106.412 7.12411 104.879 5.99931 102.73 5.37477C100.583 4.75063 97.8118 4.62273 94.4931 5.07709L94.5154 5.24019L94.5377 5.4033C97.8275 4.95291 100.549 5.08366 102.638 5.69094C104.726 6.29782 106.174 7.37722 106.941 8.82106L107.086 8.74384ZM107.086 8.74384L106.943 8.82427L108.758 12.0676L108.902 11.9872L109.046 11.9067L107.23 8.66342L107.086 8.74384ZM108.902 11.9872L108.758 12.0675C110.129 14.5174 109.537 18.1393 106.503 22.4956L106.638 22.5897L106.773 22.6838C109.829 18.2957 110.511 14.5265 109.046 11.9068L108.902 11.9872ZM106.638 22.5897L106.503 22.4956C103.245 27.1728 97.8259 31.755 91.6915 35.3772C85.5578 38.999 78.724 41.652 72.6467 42.4825L72.6689 42.6456L72.6912 42.8087C78.8227 41.9708 85.6981 39.2985 91.8589 35.6607C98.0191 32.0233 103.48 27.4118 106.773 22.6838L106.638 22.5897ZM72.6689 42.6456L72.6466 42.4825C69.3955 42.9276 66.6991 42.8047 64.6194 42.215C62.5408 41.6256 61.0874 40.5731 60.2987 39.1627L60.155 39.2431L60.0113 39.3234C60.8536 40.8297 62.3916 41.9255 64.5295 42.5317C66.6663 43.1376 69.4113 43.2577 72.6913 42.8087L72.6689 42.6456ZM60.155 39.2431L60.2986 39.1626L58.4919 35.9359L58.3483 36.0163L58.2047 36.0967L60.0113 39.3235L60.155 39.2431ZM60.5466 25.2961L60.4115 25.202C57.3076 29.6587 56.6519 33.477 58.2067 36.1002L58.3483 36.0163L58.4899 35.9324C57.0371 33.4811 57.5999 29.8151 60.6817 25.3902L60.5466 25.2961Z" fill="#44E841"/>
</mask>
<g mask="url(#mask5_3273_16207)">
<circle cx="83.4556" cy="24.0673" r="33.4773" transform="rotate(18.6759 83.4556 24.0673)" fill="#0500FF"/>
</g>
<path fill-rule="evenodd" clip-rule="evenodd" d="M87.7107 16.4637C86.932 15.6507 84.8959 16.3807 82.513 17.607L81.7182 16.3179L79.9142 17.337L80.688 18.5921C80.2143 18.8596 79.7321 19.1374 79.2532 19.4136L78.4746 18.15L76.6719 19.1682L77.4657 20.4573C77.0773 20.6813 76.6958 20.901 76.3219 21.1124L76.3192 21.1085L73.8313 22.5132L74.3484 23.351C74.3484 23.351 75.6735 22.5876 75.6579 22.6108C76.3886 22.1983 76.7406 22.2481 76.9074 22.3686L77.8129 23.8371C77.8634 23.8087 77.9297 23.7725 78.0069 23.7349L77.8169 23.8423L79.0842 25.9001C79.1138 26.0183 79.0769 26.2541 78.5668 26.5427C78.5953 26.5386 77.2555 27.2831 77.2555 27.2831L77.4751 28.4228L79.8227 27.0967C80.0879 26.9471 80.3512 26.8 80.6117 26.6546L80.6121 26.6544C80.7806 26.5603 80.9478 26.4668 81.1136 26.3738L81.9183 27.6773L83.7201 26.6598L82.9253 25.3695C83.4223 25.0949 83.9021 24.8262 84.3694 24.562L85.1602 25.8465L86.9638 24.8277L86.162 23.5259C89.1477 21.7376 91.0656 20.2062 90.5648 18.8193C90.1627 17.7017 88.8102 17.8655 86.9778 18.6577C87.8802 17.8351 88.2824 17.0577 87.7103 16.464L87.7107 16.4637ZM86.9056 20.6768C87.4573 21.5708 84.2154 23.3753 82.7334 24.2002C82.6006 24.2741 82.482 24.3401 82.3815 24.3969L81.3171 22.6692C81.44 22.5998 81.5883 22.514 81.7563 22.4168L81.7563 22.4168C83.26 21.5465 86.3414 19.7631 86.906 20.6764L86.9056 20.6768ZM81.1273 21.7128C82.3654 21.0253 85.0641 19.5269 84.5637 18.7141C84.0516 17.8828 81.485 19.3727 80.2316 20.1003C80.0906 20.1821 79.9663 20.2543 79.8634 20.3125L80.8291 21.8792C80.914 21.8312 81.0146 21.7753 81.1273 21.7128Z" fill="white"/>
<g clip-path="url(#clip5_3273_16207)">
<path d="M87.6882 30.9226C99.5349 24.3781 106.78 14.8031 103.87 9.53636C100.961 4.26958 88.9985 5.30537 77.1519 11.8499C65.3052 18.3943 58.0602 27.9693 60.9697 33.2361C63.8793 38.5028 75.8415 37.4671 87.6882 30.9226Z" fill="#0500FF"/>
</g>
<path d="M79.2854 15.3747L85.7564 16.1876L94.9626 12.2572L90.7338 18.4605L93.6668 21.942L84.5823 24.9629L77.1887 31.045L75.803 26.7087L68.3005 26.9862L76.5287 21.2853L79.2854 15.3747Z" fill="#F4F4F7"/>
<path fill-rule="evenodd" clip-rule="evenodd" d="M101.46 23.3846C100.946 23.9118 100.41 24.4342 99.8533 24.9505L101.747 28.3331C100.645 29.356 99.4658 30.3531 98.2207 31.3168L96.3252 27.9314C88.8182 33.7372 79.001 38.3115 70.5899 39.463C63.9778 40.3682 59.5707 38.9725 57.9162 36.0214L59.8104 39.4044C61.4626 42.359 65.871 43.7568 72.4869 42.8511C84.8381 41.1633 100.221 32.086 106.871 22.5722C105.88 23.9877 104.693 25.3945 103.354 26.768L101.46 23.3846ZM107.315 8.44401L107.296 8.40974C107.334 8.47805 107.371 8.54721 107.406 8.61719C107.377 8.55889 107.346 8.50116 107.315 8.44401ZM107.739 13.5345C107.316 15.2296 106.414 17.1159 105 19.1464C104.994 19.155 104.988 19.1636 104.982 19.1723C104.988 19.1637 104.994 19.1551 105 19.1465C106.414 17.1165 107.315 15.2298 107.739 13.5345Z" fill="#1B1B1C"/>
<path d="M94.6174 4.95954C82.2488 6.6529 66.8395 15.7475 60.2072 25.276C53.5717 34.8035 58.2214 41.1564 70.59 39.463C82.9586 37.7697 98.3679 28.6751 105 19.1465C111.636 9.6191 106.986 3.26618 94.6174 4.95954ZM101.796 18.7504C95.9843 27.0978 82.4744 35.0732 71.6386 36.5574C60.8028 38.0415 56.7227 32.4719 62.5392 24.1222C68.3514 15.7748 81.8613 7.79936 92.6971 6.31524C103.533 4.83112 107.613 10.4008 101.796 18.7504Z" fill="url(#paint25_linear_3273_16207)"/>
<path d="M67.2875 36.7587C59.8179 36.3236 57.5851 31.2307 62.5403 24.1184C64.106 21.8675 66.2335 19.6478 68.7155 17.5699L67.3 17.7598C64.4463 20.1402 62.0011 22.6883 60.205 25.2711C54.5598 33.3759 57.0871 39.1812 65.5796 39.6926L67.2887 36.7554L67.2875 36.7587Z" fill="url(#paint26_linear_3273_16207)"/>
<path d="M80.7827 34.0579C79.369 34.6138 77.9534 35.099 76.5559 35.4979L76.166 38.2681C77.764 37.8114 79.3789 37.2607 80.9965 36.626L80.7827 34.0579Z" fill="white"/>
<path d="M107.294 8.40579L109.191 11.7939C110.627 14.3616 109.982 18.1052 106.897 22.5342C100.261 32.0616 84.8543 41.1606 72.4868 42.8507C65.8709 43.7564 61.4625 42.3586 59.8102 39.4039L57.9132 36.0158C59.5654 38.9704 63.9739 40.3683 70.5898 39.4626C82.9583 37.7692 98.3677 28.6746 105 19.1461C108.085 14.717 108.731 10.9702 107.294 8.40579Z" stroke="#0500FF" stroke-width="0.329245" stroke-linecap="round" stroke-linejoin="round"/>
<path d="M94.6174 4.95954C82.2488 6.6529 66.8395 15.7475 60.2072 25.276C53.5717 34.8035 58.2214 41.1564 70.59 39.463C82.9586 37.7697 98.3679 28.6751 105 19.1465C111.636 9.6191 106.986 3.26618 94.6174 4.95954Z" stroke="#0500FF" stroke-width="0.329245" stroke-linecap="round" stroke-linejoin="round"/>
<path fill-rule="evenodd" clip-rule="evenodd" d="M92.6972 6.31488C81.8614 7.799 68.3514 15.7745 62.5393 24.1219C56.7228 32.4715 60.8029 38.0411 71.6387 36.557C80.3343 35.366 90.752 29.9946 97.5317 23.6054C95.995 25.053 94.2717 26.4482 92.4246 27.7549L98.6757 6.29025C103.763 7.15701 105.703 10.6278 103.621 15.5252C106.386 9.0228 102.067 5.03149 92.6972 6.31488Z" fill="url(#paint27_linear_3273_16207)"/>
<defs>
<linearGradient id="paint0_linear_3273_16207" x1="100.955" y1="163.09" x2="145.136" y2="151.956" gradientUnits="userSpaceOnUse">
<stop stop-color="white"/>
<stop offset="1" stop-color="white" stop-opacity="0"/>
</linearGradient>
<linearGradient id="paint1_linear_3273_16207" x1="147.726" y1="151.863" x2="97.3136" y2="164.567" gradientUnits="userSpaceOnUse">
<stop stop-color="white"/>
<stop offset="1" stop-color="white" stop-opacity="0"/>
</linearGradient>
<linearGradient id="paint2_linear_3273_16207" x1="163.198" y1="78.4108" x2="165.671" y2="135.213" gradientUnits="userSpaceOnUse">
<stop offset="0.0598417" stop-color="#FFF8A3"/>
<stop offset="0.777316" stop-color="#FFAEFE"/>
</linearGradient>
<linearGradient id="paint3_linear_3273_16207" x1="151.288" y1="62.7358" x2="155.02" y2="148.451" gradientUnits="userSpaceOnUse">
<stop offset="0.0598417" stop-color="#FFF8A3"/>
<stop offset="0.777316" stop-color="#FFAEFE"/>
</linearGradient>
<linearGradient id="paint4_linear_3273_16207" x1="164.843" y1="67.6228" x2="168.448" y2="150.421" gradientUnits="userSpaceOnUse">
<stop offset="0.0598417" stop-color="#FFF8A3"/>
<stop offset="0.777316" stop-color="#FFAEFE"/>
</linearGradient>
<linearGradient id="paint5_linear_3273_16207" x1="97.7433" y1="74.7743" x2="100.216" y2="131.577" gradientUnits="userSpaceOnUse">
<stop offset="0.0598417" stop-color="#FFF8A3"/>
<stop offset="0.777316" stop-color="#FFAEFE"/>
</linearGradient>
<linearGradient id="paint6_linear_3273_16207" x1="85.8335" y1="59.0993" x2="89.5655" y2="144.814" gradientUnits="userSpaceOnUse">
<stop offset="0.0598417" stop-color="#FFF8A3"/>
<stop offset="0.777316" stop-color="#FFAEFE"/>
</linearGradient>
<linearGradient id="paint7_linear_3273_16207" x1="99.3885" y1="63.9864" x2="102.993" y2="146.784" gradientUnits="userSpaceOnUse">
<stop offset="0.0598417" stop-color="#FFF8A3"/>
<stop offset="0.777316" stop-color="#FFAEFE"/>
</linearGradient>
<linearGradient id="paint8_linear_3273_16207" x1="35.9387" y1="92.4912" x2="39.6767" y2="157.311" gradientUnits="userSpaceOnUse">
<stop offset="0.0598417" stop-color="#FFF8A3"/>
<stop offset="0.777316" stop-color="#FFAEFE"/>
</linearGradient>
<linearGradient id="paint9_linear_3273_16207" x1="48.854" y1="71.5404" x2="49.1838" y2="77.2581" gradientUnits="userSpaceOnUse">
<stop offset="0.0598417" stop-color="#FFF8A3"/>
<stop offset="0.777316" stop-color="#FFAEFE"/>
</linearGradient>
<linearGradient id="paint10_linear_3273_16207" x1="42.8932" y1="77.3659" x2="47.4775" y2="156.861" gradientUnits="userSpaceOnUse">
<stop offset="0.0598417" stop-color="#FFF8A3"/>
<stop offset="0.777316" stop-color="#FFAEFE"/>
</linearGradient>
<linearGradient id="paint11_linear_3273_16207" x1="19.2896" y1="86.9859" x2="20.6776" y2="111.055" gradientUnits="userSpaceOnUse">
<stop offset="0.0598417" stop-color="#FFF8A3"/>
<stop offset="0.777316" stop-color="#FFAEFE"/>
</linearGradient>
<linearGradient id="paint12_linear_3273_16207" x1="30.4673" y1="72.8556" x2="31.5575" y2="91.7605" gradientUnits="userSpaceOnUse">
<stop offset="0.0598417" stop-color="#FFF8A3"/>
<stop offset="0.777316" stop-color="#FFAEFE"/>
</linearGradient>
<linearGradient id="paint13_linear_3273_16207" x1="195.635" y1="59.8764" x2="153.508" y2="61.0802" gradientUnits="userSpaceOnUse">
<stop stop-color="white"/>
<stop offset="1" stop-color="white" stop-opacity="0"/>
</linearGradient>
<linearGradient id="paint14_linear_3273_16207" x1="153.826" y1="72.3831" x2="165.046" y2="72.0625" gradientUnits="userSpaceOnUse">
<stop stop-color="white"/>
<stop offset="1" stop-color="white" stop-opacity="0"/>
</linearGradient>
<linearGradient id="paint15_linear_3273_16207" x1="155.43" y1="60.4303" x2="192.351" y2="59.3753" gradientUnits="userSpaceOnUse">
<stop stop-color="white"/>
<stop offset="1" stop-color="white" stop-opacity="0"/>
</linearGradient>
<linearGradient id="paint16_linear_3273_16207" x1="114.533" y1="49.4006" x2="131.502" y2="43.1937" gradientUnits="userSpaceOnUse">
<stop stop-color="white"/>
<stop offset="1" stop-color="white" stop-opacity="0"/>
</linearGradient>
<linearGradient id="paint17_linear_3273_16207" x1="132.128" y1="43.34" x2="113.065" y2="50.313" gradientUnits="userSpaceOnUse">
<stop stop-color="white"/>
<stop offset="1" stop-color="white" stop-opacity="0"/>
</linearGradient>
<linearGradient id="paint18_linear_3273_16207" x1="112.363" y1="51.4306" x2="132.572" y2="44.0384" gradientUnits="userSpaceOnUse">
<stop stop-color="white"/>
<stop offset="1" stop-color="white" stop-opacity="0"/>
</linearGradient>
<linearGradient id="paint19_linear_3273_16207" x1="16.6855" y1="45.7599" x2="42.0578" y2="45.7599" gradientUnits="userSpaceOnUse">
<stop stop-color="white"/>
<stop offset="1" stop-color="white" stop-opacity="0"/>
</linearGradient>
<linearGradient id="paint20_linear_3273_16207" x1="43.4564" y1="44.7819" x2="14.5052" y2="44.7819" gradientUnits="userSpaceOnUse">
<stop stop-color="white"/>
<stop offset="1" stop-color="white" stop-opacity="0"/>
</linearGradient>
<linearGradient id="paint21_linear_3273_16207" x1="43.024" y1="44.7882" x2="12.8065" y2="44.7882" gradientUnits="userSpaceOnUse">
<stop stop-color="white"/>
<stop offset="1" stop-color="white" stop-opacity="0"/>
</linearGradient>
<linearGradient id="paint22_linear_3273_16207" x1="17.855" y1="119.634" x2="37.7543" y2="151.455" gradientUnits="userSpaceOnUse">
<stop stop-color="white"/>
<stop offset="1" stop-color="white" stop-opacity="0"/>
</linearGradient>
<linearGradient id="paint23_linear_3273_16207" x1="40.1231" y1="152.414" x2="17.417" y2="116.104" gradientUnits="userSpaceOnUse">
<stop stop-color="white"/>
<stop offset="1" stop-color="white" stop-opacity="0"/>
</linearGradient>
<linearGradient id="paint24_linear_3273_16207" x1="39.7064" y1="151.92" x2="16.0071" y2="114.022" gradientUnits="userSpaceOnUse">
<stop stop-color="white"/>
<stop offset="1" stop-color="white" stop-opacity="0"/>
</linearGradient>
<linearGradient id="paint25_linear_3273_16207" x1="102.567" y1="28.9574" x2="62.6418" y2="15.4623" gradientUnits="userSpaceOnUse">
<stop stop-color="white"/>
<stop offset="1" stop-color="white" stop-opacity="0"/>
</linearGradient>
<linearGradient id="paint26_linear_3273_16207" x1="59.0168" y1="26.1726" x2="69.6501" y2="29.7668" gradientUnits="userSpaceOnUse">
<stop stop-color="white"/>
<stop offset="1" stop-color="white" stop-opacity="0"/>
</linearGradient>
<linearGradient id="paint27_linear_3273_16207" x1="64.6695" y1="15.5199" x2="99.6614" y2="27.3476" gradientUnits="userSpaceOnUse">
<stop stop-color="white"/>
<stop offset="1" stop-color="white" stop-opacity="0"/>
</linearGradient>
<clipPath id="clip0_3273_16207">
<rect width="34.1769" height="56.9312" fill="white" transform="translate(89.8569 155.338) rotate(-55.2141)"/>
</clipPath>
<clipPath id="clip1_3273_16207">
<rect width="49.0116" height="21.7895" fill="white" transform="translate(149.86 71.2153) rotate(-49.2304)"/>
</clipPath>
<clipPath id="clip2_3273_16207">
<rect width="24.5278" height="3.26026" fill="white" transform="translate(132.749 54.0269) rotate(-149.487)"/>
</clipPath>
<clipPath id="clip3_3273_16207">
<rect width="9.42328" height="31.0448" fill="white" transform="translate(38.7772 31.8591) rotate(51.0527)"/>
</clipPath>
<clipPath id="clip4_3273_16207">
<rect width="13.939" height="45.9217" fill="white" transform="translate(52.5905 136.453) rotate(109.033)"/>
</clipPath>
<clipPath id="clip5_3273_16207">
<rect width="49.0116" height="21.7895" fill="white" transform="translate(55.7015 23.6997) rotate(-28.9177)"/>
</clipPath>
</defs>
</svg>
