<svg width="191" height="182" viewBox="0 0 191 182" fill="none" xmlns="http://www.w3.org/2000/svg">
<g clip-path="url(#clip0_3273_17840)">
<path d="M106.8 161.744L106.24 161.169C105.949 160.869 105.377 160.705 104.971 160.808L101.322 161.729C101.322 161.729 101.195 162.625 101.322 163.806" stroke="#2D9FFF" stroke-width="0.275473" stroke-miterlimit="10"/>
<path d="M133.005 41.1139L152.238 47.4977L159.693 42.725L148.204 29.8334L130.891 33.0888L133.005 41.1139Z" fill="#1B1B1C" stroke="#2D9FFF" stroke-width="0.275473" stroke-linecap="round" stroke-linejoin="round"/>
<path d="M41.2539 50.7487L96.5548 31.1401V166.892C57.0542 148.791 41.2539 114.099 41.2539 94.4908V50.7487Z" fill="#0500FF"/>
<path d="M151.859 50.7487L96.5585 31.1401V166.892C136.059 148.791 151.859 114.099 151.859 94.4908V50.7487Z" fill="url(#paint0_linear_3273_17840)"/>
<path d="M72.449 25.3818L62.1375 32.0805L58.7852 36.6897L71.2135 32.2259L72.449 25.3818Z" fill="#1B1B1C" stroke="#2D9FFF" stroke-width="0.275473" stroke-linecap="round" stroke-linejoin="round"/>
<path d="M43.9223 97.3062L46.6387 99.0868L45.6394 107.2L50.4242 121.463L44.7915 124.449L33.3867 112.911L43.9223 97.3062Z" fill="#1B1B1C" stroke="#2D9FFF" stroke-width="0.275473" stroke-linecap="round" stroke-linejoin="round"/>
<path d="M44.3293 116.354L43.551 100.818L45.259 95.222L43.0725 90.5493L39.1084 100.167L37.2188 117.132" fill="#1B1B1C"/>
<path d="M44.3293 116.354L43.551 100.818L45.259 95.222L43.0725 90.5493L39.1084 100.167L37.2188 117.132" stroke="#2D9FFF" stroke-width="0.275473" stroke-linecap="round" stroke-linejoin="round"/>
<path d="M32.9531 117.359L34.7732 97.3597L40.7602 86.2881L44.2731 88.9985L39.8517 103.84L41.6142 115.421L46.7381 117.359" fill="#1B1B1C"/>
<path d="M32.9531 117.359L34.7732 97.3597L40.7602 86.2881L44.2731 88.9985L39.8517 103.84L41.6142 115.421L46.7381 117.359" stroke="#2D9FFF" stroke-width="0.275473" stroke-linecap="round" stroke-linejoin="round"/>
<path d="M47.14 48.5158C44.8324 48.7217 43.0154 50.7901 43.3061 53.0856L44.3054 60.9986C44.6567 63.7847 43.6756 66.3194 44.2237 70.1715L45.5864 79.738L49.5233 95.6065C50.023 97.6173 49.0751 100.279 47.4216 101.524C46.5282 102.196 45.435 101.905 44.9929 100.879L36.9435 82.2061L35.0387 74.8684L33.6305 75.041C32.1012 75.2288 30.3327 74.2325 29.6998 72.8273L29.5453 72.4821L27.0954 72.1762C26.0355 72.043 24.8453 71.1224 24.4516 70.1291L23.849 68.6119L22.1986 68.409C21.1386 68.2788 19.9939 67.34 19.6578 66.3255L16.5174 56.8589L14.2431 44.8212L3.45312 31.8478C3.45312 31.8478 8.04409 18.4807 16.8747 13.9564C18.9037 12.9177 21.396 13.5839 22.6256 15.5069L30.5144 27.8262C31.3441 29.1253 33.2581 30.4457 34.7662 30.7667L41.1741 32.1234C42.6823 32.4414 44.9293 33.4528 46.1709 34.3674L53.7902 39.988L64.6165 41.1085L64.1744 45.5874L55.8646 47.7375L47.14 48.5188V48.5158Z" fill="#1B1B1C" stroke="#2D9FFF" stroke-width="0.275473" stroke-linecap="round" stroke-linejoin="round"/>
<path d="M43.1953 96.7134L44.0372 95.8564C44.3945 95.493 44.9124 95.5445 45.191 95.9715L47.3381 99.2512C47.3381 99.2512 47.226 99.8356 46.3327 100.671" stroke="#2D9FFF" stroke-width="0.275473" stroke-linecap="round" stroke-linejoin="round"/>
<path d="M153.578 73.1468L154.677 70.1397C154.85 69.6703 155.389 69.3735 155.877 69.4825L156.41 69.6006" stroke="#2D9FFF" stroke-width="0.275473" stroke-linecap="round" stroke-linejoin="round"/>
<path d="M35.035 74.8649L33.5117 68.1602" stroke="#2D9FFF" stroke-width="0.275473" stroke-linecap="round" stroke-linejoin="round"/>
<path d="M29.539 72.4761L27.9219 68.5786" stroke="#2D9FFF" stroke-width="0.275473" stroke-linecap="round" stroke-linejoin="round"/>
<path d="M23.8411 68.6023L22.6328 65.686" stroke="#2D9FFF" stroke-width="0.275473" stroke-linecap="round" stroke-linejoin="round"/>
<path d="M49.8831 163.551L51.7425 149.367C52.0151 147.28 51.0551 144.318 49.6075 142.792L29.357 121.406C28.5666 120.57 27.9246 118.947 27.9337 117.796L28.0609 97.6819L34.1236 80.3295C34.5112 79.2211 35.5651 78.9304 36.4676 79.6814C38.0544 81.0048 38.972 83.7333 38.5056 85.7472L35.6014 100.283L36.086 101.601C36.4373 102.554 36.7946 104.169 36.8824 105.18L37.6153 113.784C37.6153 113.784 40.6012 115.573 42.3456 119.059C42.8028 119.97 43.9142 120.337 44.8227 119.877L47.1606 118.692L42.4728 103.978C42.1851 103.075 42.6635 102.031 43.5357 101.658C44.9136 101.071 47.0213 101.328 48.2175 102.233C49.8347 103.454 51.7698 105.995 52.5238 107.875L54.8193 113.614C55.8883 116.285 58.4018 120.155 60.4066 122.217L65.9363 127.908C67.9411 129.97 69.7521 134.004 69.964 136.872L71.7901 161.656C59.8888 158.406 49.8831 163.551 49.8831 163.551Z" fill="#1B1B1C" stroke="#2D9FFF" stroke-width="0.275473" stroke-linecap="round" stroke-linejoin="round"/>
<path d="M43.7354 107.946L46.3064 107.001C46.6941 106.859 46.9878 106.405 46.9606 105.996L46.7334 102.513C46.7334 102.513 45.6947 101.683 43.6445 102.758" stroke="#2D9FFF" stroke-width="0.275473" stroke-linecap="round" stroke-linejoin="round"/>
<path d="M33.4724 98.2158C33.4724 98.2158 35.0653 98.9881 35.6013 100.278" stroke="#2D9FFF" stroke-width="0.275473" stroke-linecap="round" stroke-linejoin="round"/>
<path d="M37.613 113.785C35.9686 112.789 34.3242 112.438 34.3242 112.438" stroke="#2D9FFF" stroke-width="0.275473" stroke-linecap="round" stroke-linejoin="round"/>
<path d="M36.7695 88.3164L37.7386 89.1038" stroke="#2D9FFF" stroke-width="0.275473" stroke-linecap="round" stroke-linejoin="round"/>
<path d="M38.6797 103.017L39.8547 103.837" stroke="#2D9FFF" stroke-width="0.275473" stroke-linecap="round" stroke-linejoin="round"/>
<path d="M47.1574 118.691L47.3482 119.297C47.4724 119.69 47.4572 120.329 47.3179 120.717L46.582 122.743" fill="#1B1B1C"/>
<path d="M47.1574 118.691L47.3482 119.297C47.4724 119.69 47.4572 120.329 47.3179 120.717L46.582 122.743" stroke="#2D9FFF" stroke-width="0.275473" stroke-linecap="round" stroke-linejoin="round"/>
<path d="M44.9117 122.115L44.0547 123.475" stroke="#2D9FFF" stroke-width="0.275473" stroke-linecap="round" stroke-linejoin="round"/>
<path d="M119.401 0.151855L115.367 1.67814" stroke="#2D9FFF" stroke-width="0.275473" stroke-linecap="round" stroke-linejoin="round"/>
<path d="M129.759 18.8813L125.059 19.9837" stroke="#2D9FFF" stroke-width="0.275473" stroke-linecap="round" stroke-linejoin="round"/>
<path d="M102.2 154.665L94.4864 155.977L86.1585 151.704C85.1803 151.204 83.545 151.116 82.5184 151.51L77.873 148.521C76.8554 147.867 75.0717 147.603 73.9089 147.937L73.1397 147.234C72.0404 146.225 69.9478 145.665 68.4911 145.986L67.8673 146.123L77.988 157.754L99.2379 164.047L102.203 154.662L102.2 154.665Z" fill="#1B1B1C" stroke="#2D9FFF" stroke-width="0.275473" stroke-linecap="round" stroke-linejoin="round"/>
<path d="M92.9163 159.103L77.8896 154.382L68.2413 144.083C66.9573 142.714 64.3772 141.739 62.5087 141.92L62.3633 141.936C60.8794 142.078 60.3041 143.235 61.0914 144.504L68.0808 155.805C68.6592 156.738 69.91 157.953 70.8609 158.501L85.724 167.08C86.6749 167.628 88.3526 168.104 89.4488 168.137L111.365 168.785C112.485 168.818 114.221 168.44 115.226 167.943L122.664 164.273C125.604 162.819 130.074 163.349 132.594 165.448L141.436 172.81C141.436 172.81 139.126 163.27 143.801 159.969L152.008 154.179L132.106 145.609C128.817 144.192 123.493 144.316 120.271 145.882L102.204 154.664L92.9163 159.103Z" fill="#1B1B1C" stroke="#2D9FFF" stroke-width="0.275473" stroke-linecap="round" stroke-linejoin="round"/>
<path d="M73.9142 147.934L82.2633 154.457L95.055 158.082" fill="#1B1B1C"/>
<path d="M73.9142 147.934L82.2633 154.457L95.055 158.082" stroke="#2D9FFF" stroke-width="0.275473" stroke-linecap="round" stroke-linejoin="round"/>
<path d="M82.5157 151.512L87.5852 154.725L96.4643 157.405" fill="#1B1B1C"/>
<path d="M82.5157 151.512L87.5852 154.725L96.4643 157.405" stroke="#2D9FFF" stroke-width="0.275473" stroke-linecap="round" stroke-linejoin="round"/>
<path d="M120.267 149.545C112.844 150.384 107.448 155.55 105.249 158.028C104.401 158.985 103.408 159.845 102.339 160.544L95.9069 164.754C94.0142 165.992 93.0361 168.233 93.4176 170.462C93.5327 171.143 93.9567 171.731 94.5624 172.061C95.168 172.391 95.8948 172.421 96.5278 172.146L99.1866 170.992L113.247 166.08C114.976 165.477 116.657 165.423 116.657 165.423" fill="#1B1B1C"/>
<path d="M120.267 149.545C112.844 150.384 107.448 155.55 105.249 158.028C104.401 158.985 103.408 159.845 102.339 160.544L95.9069 164.754C94.0142 165.992 93.0361 168.233 93.4176 170.462C93.5327 171.143 93.9567 171.731 94.5624 172.061C95.168 172.391 95.8948 172.421 96.5278 172.146L99.1866 170.992L113.247 166.08C114.976 165.477 116.657 165.423 116.657 165.423" stroke="#2D9FFF" stroke-width="0.275473" stroke-linecap="round" stroke-linejoin="round"/>
<path d="M100.246 169.643L99.0654 167.26C98.8807 166.884 98.3962 166.666 97.9934 166.772L95.2618 167.496C94.8833 167.596 94.6047 167.92 94.5593 168.311C94.4654 169.165 94.4169 170.67 95.0529 171.654" stroke="#2D9FFF" stroke-width="0.275473" stroke-linecap="round" stroke-linejoin="round"/>
<path d="M121.758 149.358L122.563 149.322" stroke="#2D9FFF" stroke-width="0.275473" stroke-linecap="round" stroke-linejoin="round"/>
<path d="M77.8826 154.38C76.6743 154.128 75.7931 154.97 75.7931 154.97" stroke="#2D9FFF" stroke-width="0.275473" stroke-linecap="round" stroke-linejoin="round"/>
<path d="M92.9191 159.103L91.7774 159.667C90.4207 160.336 90.2814 161.789 90.2814 161.789" stroke="#2D9FFF" stroke-width="0.275473" stroke-linecap="round" stroke-linejoin="round"/>
<path d="M82.258 154.459C81.1344 154.168 80.4924 154.459 80.4924 154.459H82.258Z" fill="#1B1B1C"/>
<path d="M82.258 154.459C81.1344 154.168 80.4924 154.459 80.4924 154.459" stroke="#2D9FFF" stroke-width="0.275473" stroke-linecap="round" stroke-linejoin="round"/>
<path d="M152 154.18L154.989 155.467" stroke="#2D9FFF" stroke-width="0.275473" stroke-linecap="round" stroke-linejoin="round"/>
<path d="M141.43 172.809L144.164 175.086" stroke="#2D9FFF" stroke-width="0.302834" stroke-linecap="round" stroke-linejoin="round"/>
<path d="M72.0698 165.512L71.7852 161.657" stroke="#2D9FFF" stroke-width="0.275473" stroke-linecap="round" stroke-linejoin="round"/>
<path d="M49.4609 166.144L49.8788 163.552" stroke="#2D9FFF" stroke-width="0.302834" stroke-linecap="round" stroke-linejoin="round"/>
<path d="M0.152344 27.875L3.45324 31.8452" stroke="#2D9FFF" stroke-width="0.275473" stroke-linecap="round" stroke-linejoin="round"/>
<path d="M19.1523 10.0854L22.6198 15.5032" stroke="#2D9FFF" stroke-width="0.275473" stroke-linecap="round" stroke-linejoin="round"/>
<path d="M142.525 108.894L137.734 121.263L131.589 127.909C130.793 128.771 130.347 130.411 130.594 131.556C130.795 132.485 131.57 132.76 132.309 132.161L140.05 125.938L147.373 115.526L142.525 108.894Z" fill="#1B1B1C" stroke="#2D9FFF" stroke-width="0.275473" stroke-linecap="round" stroke-linejoin="round"/>
<path d="M144.782 115.067L139.935 122.771C138.7 124.734 138.231 127.101 138.231 127.101L128.771 134.43C127.42 135.477 126.881 137.615 127.572 139.18C127.767 139.624 128.286 139.818 128.727 139.616L133.372 137.468L142.418 131.01L150.489 120.295L144.782 115.067Z" fill="#1B1B1C" stroke="#2D9FFF" stroke-width="0.275473" stroke-linecap="round" stroke-linejoin="round"/>
<path d="M148.013 120.267L142.003 128.348C140.85 129.9 140.889 132.066 140.889 132.066L129.173 140.809C127.856 141.792 127.374 143.803 128.107 145.277C128.4 145.866 129.1 146.072 129.665 145.736L145.649 136.21L153.72 125.495L148.013 120.267Z" fill="#1B1B1C" stroke="#2D9FFF" stroke-width="0.275473" stroke-linecap="round" stroke-linejoin="round"/>
<path d="M150.082 124.702L146.106 132.077C145.095 133.95 145.076 136.174 145.076 136.174L131.74 143.216C130.587 143.824 129.752 145.381 129.884 146.676L129.954 147.367C130.021 148.02 130.589 148.397 131.214 148.201L147.134 143.244C147.917 143 148.972 142.274 149.481 141.633L155.882 133.544C157.78 131.145 160.209 129.758 160.895 127.038L165.647 108.196L166.691 91.4185C166.815 89.4024 168.096 86.5902 169.532 85.1689L184.124 70.7581L182.722 70.901C178.305 71.3524 173.002 68.5055 170.935 64.5783L164.78 52.8787L150.006 75.1012C148.224 77.7838 146.444 82.5969 146.052 85.7943L144.791 96.0882C144.051 102.125 142.141 103.409 141.934 108.664C141.866 110.368 142.305 112.032 143.197 113.486L150.076 124.701L150.082 124.702Z" fill="#1B1B1C" stroke="#2D9FFF" stroke-width="0.275473" stroke-linecap="round" stroke-linejoin="round"/>
<path d="M151.443 123.366C151.443 123.366 148.476 119.42 149.329 112.902" stroke="#2D9FFF" stroke-width="0.275473" stroke-linecap="round" stroke-linejoin="round"/>
<path d="M149.356 91.1814C148.687 99.4926 151.241 103.734 153.227 105.734C154.805 107.327 155.999 109.273 156.689 111.406L159.136 118.945C159.718 120.733 161.683 122.581 163.504 123.051L164.459 123.295C165.459 123.551 166.081 122.942 165.843 121.937L165.082 118.735L166.204 99.3945" fill="#1B1B1C"/>
<path d="M149.356 91.1814C148.687 99.4926 151.241 103.734 153.227 105.734C154.805 107.327 155.999 109.273 156.689 111.406L159.136 118.945C159.718 120.733 161.683 122.581 163.504 123.051L164.459 123.295C165.459 123.551 166.081 122.942 165.843 121.937L165.082 118.735L166.204 99.3945" stroke="#2D9FFF" stroke-width="0.275473" stroke-linecap="round" stroke-linejoin="round"/>
<path d="M164.702 122.475L164.26 119.042C164.191 118.503 164.576 118.091 165.117 118.126" stroke="#2D9FFF" stroke-width="0.275473" stroke-linecap="round" stroke-linejoin="round"/>
<path d="M151.132 126.408L150.086 124.702" stroke="#2D9FFF" stroke-width="0.275473" stroke-linecap="round" stroke-linejoin="round"/>
<path d="M145.082 136.173L145.546 137.584" stroke="#2D9FFF" stroke-width="0.275473" stroke-linecap="round" stroke-linejoin="round"/>
<path d="M141.117 132.8L141.581 134.208" stroke="#2D9FFF" stroke-width="0.275473" stroke-linecap="round" stroke-linejoin="round"/>
<path d="M136.527 141.456L136.819 142.342" stroke="#2D9FFF" stroke-width="0.275473" stroke-linecap="round" stroke-linejoin="round"/>
<path d="M135.141 136.473L135.432 137.363" stroke="#2D9FFF" stroke-width="0.275473" stroke-linecap="round" stroke-linejoin="round"/>
<path d="M167.121 49.3775L164.788 52.8832" stroke="#2D9FFF" stroke-width="0.275473" stroke-linecap="round" stroke-linejoin="round"/>
<path d="M187.745 67.195L184.134 70.7636" stroke="#2D9FFF" stroke-width="0.275473" stroke-linecap="round" stroke-linejoin="round"/>
<path d="M150.961 28.5076L161.154 38.9675C162.075 39.9123 162.971 41.7596 163.144 43.0709L164.452 53.0644C164.57 53.9668 163.931 54.5907 163.032 54.4544L162.248 54.3333C160.918 54.1304 159.413 52.9463 158.901 51.7047L151.685 34.2069L150.964 28.5076H150.961Z" fill="#1B1B1C" stroke="#2D9FFF" stroke-width="0.275473" stroke-linecap="round" stroke-linejoin="round"/>
<path d="M150.342 27.2893L161.007 42.4159C161.767 43.497 162.364 45.4594 162.331 46.7797L162.034 58.675L156.613 58.5388L149.27 38.0066L150.345 27.2893H150.342Z" fill="#1B1B1C" stroke="#2D9FFF" stroke-width="0.275473" stroke-linecap="round" stroke-linejoin="round"/>
<path d="M149.8 68.1628C149.652 70.3916 151.102 73.1444 153.025 74.283C154.161 74.9553 155.33 74.4526 155.618 73.1656L160.196 52.7667C160.505 51.3918 160.439 49.1569 160.048 47.8032L154.612 28.9488C153.843 26.2868 150.951 24.0671 148.18 24.0186L121.758 23.5432C119.605 23.5038 116.279 22.665 114.366 21.6747L101.598 15.0759L95.078 35.1781L104.947 37.092C109.859 38.0429 111.931 40.7018 116.964 42.1281L123.987 44.1147L137.844 38.3003L141.142 37.2101C142.481 36.7679 144.092 37.4372 144.725 38.697L150.933 51.095L149.8 68.1628Z" fill="#1B1B1C" stroke="#2D9FFF" stroke-width="0.275473" stroke-linecap="round" stroke-linejoin="round"/>
<path d="M132.769 30.1653L136.04 35.0046C136.9 36.2765 138.756 37.8058 140.167 38.4054L144.634 40.3042C148.223 41.8305 151.935 44.6165 151.172 48.7956C151.003 49.7253 149.894 51.4 148.98 51.1517L121.867 43.5112" fill="#1B1B1C"/>
<path d="M132.769 30.1653L136.04 35.0046C136.9 36.2765 138.756 37.8058 140.167 38.4054L144.634 40.3042C148.223 41.8305 151.935 44.6165 151.172 48.7956C151.003 49.7253 149.894 51.4 148.98 51.1517L121.867 43.5112" stroke="#2D9FFF" stroke-width="0.275473" stroke-linecap="round" stroke-linejoin="round"/>
<path d="M69.4268 28.7527C68.5849 29.5945 66.983 30.6242 65.8655 31.0391L56.3383 34.5943C55.2239 35.0123 53.7642 36.16 53.098 37.1472L44.0039 50.6415L47.2079 51.6954L61.8439 40.9236L84.3354 40.433L93.2114 37.7135C96.7213 36.6385 100.831 33.0196 102.342 29.6733L102.469 29.3886C103.614 26.8569 106.76 24.2677 109.465 23.6348L125.057 19.9796C120.097 21.1424 113.462 15.0827 115.373 1.67627L95.2828 9.27741L73.3818 24.7977L69.4268 28.7496V28.7527Z" fill="#1B1B1C" stroke="#2D9FFF" stroke-width="0.275473" stroke-linecap="round" stroke-linejoin="round"/>
<path d="M70.8047 28.7349L71.0379 29.4223" stroke="#2D9FFF" stroke-width="0.275473" stroke-linecap="round" stroke-linejoin="round"/>
<path d="M71.6602 27.582L72.0538 28.7328" stroke="#2D9FFF" stroke-width="0.275473" stroke-linecap="round" stroke-linejoin="round"/>
<path d="M68.6877 31.4703L67.858 32.9088C67.6581 33.254 67.2039 33.675 66.8435 33.8446L56.1322 38.9079C55.0541 39.4167 53.4976 40.5342 52.6739 41.3942L41.1722 53.335C40.3455 54.192 40.6029 55.1762 41.7416 55.5214C43.7524 56.1271 46.8049 55.6426 48.5281 54.4403L59.4574 46.821C59.4574 46.821 61.9648 46.7847 64.3663 45.8943L75.3834 41.8121L88.9928 36.8154" fill="#1B1B1C"/>
<path d="M68.6877 31.4703L67.858 32.9088C67.6581 33.254 67.2039 33.675 66.8435 33.8446L56.1322 38.9079C55.0541 39.4167 53.4976 40.5342 52.6739 41.3942L41.1722 53.335C40.3455 54.192 40.6029 55.1762 41.7416 55.5214C43.7524 56.1271 46.8049 55.6426 48.5281 54.4403L59.4574 46.821C59.4574 46.821 61.9648 46.7847 64.3663 45.8943L75.3834 41.8121L88.9928 36.8154" stroke="#2D9FFF" stroke-width="0.275473" stroke-linecap="round" stroke-linejoin="round"/>
<path d="M42.0393 54.6971L43.7261 52.3502C43.9169 52.0837 43.9744 51.6143 43.8503 51.3084L43.6322 50.7784" stroke="#2D9FFF" stroke-width="0.275473" stroke-linecap="round" stroke-linejoin="round"/>
<path d="M88.2812 25.7729L88.9959 24.8008" stroke="#2D9FFF" stroke-width="0.275473" stroke-linecap="round" stroke-linejoin="round"/>
<path d="M93.2081 37.7141L78.2753 42.2899L75.1955 42.623C73.6268 42.7926 71.7886 41.7629 71.1133 40.3366L70.8347 39.7461C70.4259 38.8769 70.8135 37.8655 71.7008 37.499L74.2416 36.4421L83.8111 30.6429C84.6954 30.1069 85.9219 28.9833 86.5366 28.1506L87.3331 27.0664" fill="#1B1B1C"/>
<path d="M93.2081 37.7141L78.2753 42.2899L75.1955 42.623C73.6268 42.7926 71.7886 41.7629 71.1133 40.3366L70.8347 39.7461C70.4259 38.8769 70.8135 37.8655 71.7008 37.499L74.2416 36.4421L83.8111 30.6429C84.6954 30.1069 85.9219 28.9833 86.5366 28.1506L87.3331 27.0664" stroke="#2D9FFF" stroke-width="0.275473" stroke-linecap="round" stroke-linejoin="round"/>
<path d="M75.8674 35.4619L77.1242 38.8052C77.2968 39.2655 77.106 39.8712 76.7002 40.1468L74.7015 41.5065C74.7015 41.5065 72.3455 41.2551 71.543 38.5448" stroke="#2D9FFF" stroke-width="0.275473" stroke-linecap="round" stroke-linejoin="round"/>
<path d="M148.968 51.1549C150.567 49.029 149.625 46.0794 149.625 46.0794L146.427 45.6222C145.712 45.5192 144.916 45.9856 144.652 46.6579L143.48 49.6559" stroke="#2D9FFF" stroke-width="0.275473" stroke-linecap="round" stroke-linejoin="round"/>
</g>
<defs>
<linearGradient id="paint0_linear_3273_17840" x1="139.569" y1="22.4674" x2="90.7002" y2="163.409" gradientUnits="userSpaceOnUse">
<stop offset="0.02112" stop-color="#0000FF"/>
<stop offset="0.0762423" stop-color="#0094FF"/>
<stop offset="0.163089" stop-color="#48FF91"/>
<stop offset="0.420049" stop-color="#0094FF"/>
<stop offset="0.682886" stop-color="#0038FF"/>
<stop offset="0.902465" stop-color="#0500FF"/>
</linearGradient>
<clipPath id="clip0_3273_17840">
<rect width="190.122" height="181.543" fill="white"/>
</clipPath>
</defs>
</svg>
