<svg width="150" height="150" viewBox="0 0 150 150" fill="none" xmlns="http://www.w3.org/2000/svg">
<g clip-path="url(#clip0_1742_19345)">
<path d="M51.8239 44.1122C56.3425 47.0152 63.7234 53.6456 68.3025 58.9196C72.8816 64.1936 72.9292 66.1157 68.4049 63.2118C63.8864 60.3087 56.503 53.6751 51.9263 48.4044C47.3472 43.1304 47.2996 41.2083 51.8239 44.1122Z" fill="url(#paint0_linear_1742_19345)"/>
<path d="M70.8978 62.245C71.262 62.7995 71.6286 63.3574 71.9928 63.912C73.9515 66.8918 73.0063 67.4936 69.1467 65.0145C63.9848 61.7018 55.5657 54.1351 50.3429 48.1168C45.5492 42.5947 45.1081 40.2943 49.0514 42.5106C49.6331 42.8372 50.2123 43.1604 50.7907 43.4894C47.3359 41.5502 47.7216 43.5671 51.9217 48.4057C56.4984 53.6764 63.8784 60.3125 68.4003 63.2131C71.7816 65.387 72.6096 64.8564 70.892 62.2441L70.8978 62.245Z" fill="#F4F4F7"/>
<path d="M72.87 66.4264L71.0128 68.4194C70.6535 68.8038 69.4125 68.373 67.2864 67.0109C62.1246 63.6981 53.7054 56.1314 48.4826 50.1132C45.4087 46.5733 44.1267 44.3546 44.6377 43.8063L46.495 41.8133C45.9806 42.364 47.266 44.5803 50.3398 48.1202C55.5626 54.1384 63.9818 61.7051 69.1436 65.0179C71.2664 66.3824 72.5074 66.8133 72.87 66.4264Z" fill="url(#paint1_linear_1742_19345)"/>
<path d="M71.9905 63.916C71.6263 63.3615 71.2596 62.8036 70.8955 62.2491C72.613 64.8614 71.785 65.3919 68.4037 63.218C66.883 62.2422 65.0353 60.8388 63.0823 59.2096L63.138 60.5024C65.3415 62.3378 67.4265 63.9157 69.1468 65.0219C73.0064 67.501 73.9492 66.8958 71.9929 63.9194L71.9905 63.916Z" fill="#FFAEFE"/>
<path d="M51.0729 52.9462C51.7738 53.6841 52.5085 54.4331 53.2615 55.1789L55.1187 53.1859C54.3658 52.4401 53.631 51.6911 52.9302 50.9531L51.0729 52.9462Z" fill="#1B1B1C"/>
<path d="M52.2787 50.2648C51.5976 49.5327 50.9472 48.8141 50.3404 48.1197C47.2666 44.5799 45.9846 42.3611 46.4956 41.8128L44.6383 43.8059C44.124 44.3566 45.4093 46.5729 48.4832 50.1128C49.0891 50.8129 49.7395 51.5315 50.4214 52.2578L52.2787 50.2648Z" fill="#1B1B1C"/>
<path d="M71.9889 63.9159C71.6247 63.3613 71.2581 62.8035 70.8939 62.2489C70.9537 62.3437 71.0145 62.4326 71.0694 62.5208C70.4988 61.6039 69.5757 60.3917 68.2973 58.9223C63.7182 53.6483 56.3406 47.0155 51.8187 44.115C51.4163 43.8566 51.055 43.6399 50.7241 43.4573C50.7488 43.4699 50.7654 43.4783 50.7868 43.4933C50.2051 43.1668 49.6258 42.8435 49.0475 42.5145C45.1042 40.2982 45.5453 42.5987 50.339 48.1207C55.5618 54.139 63.9809 61.7057 69.1428 65.0184C73.0024 67.4976 73.9451 66.8924 71.9889 63.9159Z" stroke="#0500FF" stroke-width="0.5" stroke-miterlimit="10"/>
<path d="M72.87 66.4264L71.0128 68.4194C70.6535 68.8038 69.4125 68.373 67.2864 67.0109C62.1246 63.6981 53.7054 56.1314 48.4826 50.1132C45.4087 46.5733 44.1267 44.3546 44.6377 43.8063L46.495 41.8133C45.9806 42.364 47.266 44.5803 50.3398 48.1202C55.5626 54.1384 63.9818 61.7051 69.1436 65.0179C71.2664 66.3824 72.5074 66.8133 72.87 66.4264Z" stroke="#0500FF" stroke-width="0.5" stroke-miterlimit="10"/>
<path d="M114.175 15L111.793 15.0675L113.66 16.5474L116.039 16.4798L114.175 15Z" fill="#48FF91" stroke="#0500FF" stroke-width="0.5" stroke-linecap="round" stroke-linejoin="round"/>
<path d="M114.102 22.3077L111.723 22.3722L113.663 16.548L116.042 16.4805L114.102 22.3077Z" fill="#48FF91" stroke="#0500FF" stroke-width="0.5" stroke-linecap="round" stroke-linejoin="round"/>
<path d="M109.855 20.8906L111.722 22.3705L113.663 16.5463L111.796 15.0664L109.855 20.8906Z" fill="#0500FF" stroke="#0500FF" stroke-width="0.5" stroke-linecap="round" stroke-linejoin="round"/>
<path d="M86.3789 63.5703L91.8961 68.7344L93.5325 65.2835L86.3789 63.5703Z" fill="#FFF465" stroke="#0500FF" stroke-width="0.5" stroke-linecap="round" stroke-linejoin="round"/>
<path d="M86.3789 63.5703L91.8961 68.7344L88.4267 70.3248L86.3789 63.5703Z" fill="#FFAEFE" stroke="#0500FF" stroke-width="0.5" stroke-linecap="round" stroke-linejoin="round"/>
<path d="M90.0622 66.8786L88.4258 70.3264L91.8951 68.7361L93.5315 65.2852L90.0622 66.8786Z" fill="#0500FF" stroke="#0500FF" stroke-width="0.5" stroke-linecap="round" stroke-linejoin="round"/>
<path d="M50.3089 25.5677L50.7817 23.2344L48.9181 24.7173L48.4453 27.0507L50.3089 25.5677Z" fill="#48FF91" stroke="#0500FF" stroke-width="0.5" stroke-linecap="round" stroke-linejoin="round"/>
<path d="M43.207 23.8412L43.6829 21.5078L48.9176 24.7162L48.4448 27.0495L43.207 23.8412Z" fill="#0500FF" stroke="#0500FF" stroke-width="0.5" stroke-linecap="round" stroke-linejoin="round"/>
<path d="M45.5472 20.0273L43.6836 21.5103L48.9183 24.7186L50.7819 23.2357L45.5472 20.0273Z" fill="#48FF91" stroke="#0500FF" stroke-width="0.5" stroke-linecap="round" stroke-linejoin="round"/>
<path d="M73.3057 31.0478C78.153 25.4622 87.707 23.9415 94.6328 27.6612C101.559 31.3769 103.24 38.9246 98.3926 44.5102C93.5454 50.0998 83.9913 51.6165 77.0655 47.9008C70.1397 44.1852 68.4544 36.6374 73.3057 31.0518V31.0478Z" fill="url(#paint2_linear_1742_19345)"/>
<path d="M71.7461 30.6318C77.1992 24.3489 87.9607 22.6295 95.7715 26.8174V26.8203C99.6687 28.9113 102.072 32.0682 102.83 35.4678C103.588 38.8652 102.71 42.5328 99.9912 45.665H99.9902C94.54 51.9487 83.7758 53.6675 75.9648 49.4766C72.0676 47.3855 69.6638 44.2278 68.9053 40.8281C68.1474 37.4308 69.0259 33.764 71.7461 30.6318ZM94.751 27.4385C87.7315 23.6693 78.0483 25.2008 73.1182 30.8818C70.6442 33.7303 69.8275 37.0936 70.5264 40.2256C71.2249 43.3553 73.4304 46.2278 76.9482 48.1152C83.7653 51.7726 93.0949 50.4363 98.1436 45.1484V45.1777L98.583 44.6719C101.055 41.8233 101.871 38.4601 101.173 35.3281C100.475 32.1983 98.27 29.3259 94.752 27.4385H94.751Z" fill="url(#paint3_linear_1742_19345)" stroke="#0500FF" stroke-width="0.5"/>
<path d="M102.974 41.5264C102.621 43.3408 101.801 45.1367 100.483 46.7979L100.077 47.2861C94.708 53.468 84.1938 55.2339 76.4199 51.29L76.0518 51.0977C72.471 49.1773 70.151 46.3579 69.209 43.2754C70.4133 45.9029 72.6209 48.245 75.7314 49.9131C83.73 54.2047 94.7544 52.4644 100.371 45.9883C101.588 44.5879 102.448 43.077 102.974 41.5264Z" fill="#1B1B1C" stroke="#0500FF" stroke-width="0.5"/>
<path d="M90.9734 49.125C89.9622 49.43 88.9149 49.6506 87.8516 49.7831L88.1324 51.8536C89.3483 51.7051 90.54 51.4523 91.6997 51.1072L90.9734 49.129V49.125Z" fill="#0500FF"/>
<path d="M100.265 45.7301L98.4672 44.418C98.4431 44.4461 98.419 44.4782 98.3949 44.5062C97.0026 46.1113 95.2209 47.3793 93.2227 48.2861L94.27 50.148C96.5531 49.1127 98.5875 47.6642 100.181 45.8304C100.209 45.7983 100.233 45.7662 100.261 45.7301H100.265Z" fill="#0500FF"/>
<path d="M76.9409 77.8473L138.945 77.9359C140.507 77.94 141.55 78.4384 141.975 79.2454C142.704 80.6284 142.128 81.936 141.146 83.5087L107.954 126.718L43.3707 127.219L76.9421 77.8433L76.9409 77.8473Z" fill="#1B1B1C" stroke="#0500FF" stroke-width="0.5" stroke-linecap="round" stroke-linejoin="round"/>
<mask id="mask0_1742_19345" style="mask-type:alpha" maskUnits="userSpaceOnUse" x="43" y="77" width="100" height="51">
<path d="M76.9409 77.8512L138.945 77.9398C140.507 77.9439 141.55 78.4423 141.975 79.2493C142.704 80.6323 142.128 81.9399 141.146 83.5126L107.954 126.722L43.3707 127.223L76.9421 77.8472L76.9409 77.8512Z" fill="#1B1B1C" stroke="#2ECCFF" stroke-width="0.5" stroke-linecap="round" stroke-linejoin="round"/>
</mask>
<g mask="url(#mask0_1742_19345)">
<path d="M94.141 131.352L140.152 71.3477" stroke="#2ECCFF" stroke-width="0.5"/>
<path d="M87.2347 126.055L133.246 66.0508" stroke="#2ECCFF" stroke-width="0.5"/>
<path d="M80.3246 120.758L126.336 60.7539" stroke="#2ECCFF" stroke-width="0.5"/>
<path d="M73.4223 115.462L119.434 55.457" stroke="#2ECCFF" stroke-width="0.5"/>
<path d="M66.5121 110.165L112.523 50.1602" stroke="#2ECCFF" stroke-width="0.5"/>
<path d="M67.828 85.1796L143.441 85.6289" stroke="#2ECCFF" stroke-width="0.5"/>
<path d="M61.6874 93.1874L137.301 93.6367" stroke="#2ECCFF" stroke-width="0.5"/>
<path d="M55.5468 101.195L131.16 101.645" stroke="#2ECCFF" stroke-width="0.5"/>
<path d="M49.4022 109.207L125.016 109.656" stroke="#2ECCFF" stroke-width="0.5"/>
<path d="M43.2616 117.215L118.875 117.664" stroke="#2ECCFF" stroke-width="0.5"/>
</g>
<path d="M118.26 93.5496C113.444 93.5022 111.485 94.5418 109.762 96.7408C111.482 94.5409 111.056 93.4992 106.366 93.4272C111.056 93.4992 113.289 92.4513 114.694 90.2205C113.046 92.4482 113.441 93.5014 118.257 93.5487L118.26 93.5496Z" fill="#2ECCFF" stroke="#2ECCFF" stroke-width="0.5" stroke-linecap="round" stroke-linejoin="round"/>
<path d="M107.786 97.204C106.349 89.9396 99.5326 83.9 92.5696 83.7115C85.6019 83.5231 81.117 89.2612 82.5586 96.5256C83.9955 103.79 90.8077 109.83 97.7753 110.018C104.743 110.207 109.228 104.468 107.791 97.2087L107.786 97.204Z" fill="url(#paint4_linear_1742_19345)" stroke="#0500FF" stroke-width="0.5" stroke-miterlimit="10"/>
<path d="M93.1141 85.1292C99.2196 85.2941 105.193 90.5893 106.451 96.9539C107.714 103.319 103.78 108.345 97.6744 108.18C91.5689 108.015 85.5952 102.72 84.3374 96.3556C83.0748 89.991 87.0085 84.9596 93.1141 85.1292Z" fill="url(#paint5_linear_1742_19345)"/>
<path d="M106.456 96.9544C105.957 94.4246 104.709 92.0691 103.008 90.1328L96.2852 108.054C96.7468 108.124 97.2132 108.171 97.6796 108.181C103.785 108.346 107.714 103.319 106.456 96.9544Z" fill="#48FF91"/>
<path d="M104.881 107.536L103.887 108.441C102.101 110.071 99.6466 110.999 96.7776 110.924C89.8099 110.735 82.9977 104.696 81.5608 97.4312C80.7176 93.163 81.9142 89.4224 84.4629 87.0998L85.4569 86.1953C82.9082 88.5179 81.7116 92.2584 82.5549 96.5267C83.9917 103.791 90.8039 109.831 97.7716 110.019C100.645 110.095 103.095 109.166 104.881 107.536Z" fill="#1B1B1C" stroke="#0500FF" stroke-width="0.5" stroke-miterlimit="10"/>
<path d="M90.8404 105.868C90.1149 105.382 89.427 104.831 88.7863 104.219L87.6133 105.481C88.3435 106.179 89.1302 106.805 89.9594 107.366L90.8404 105.868Z" fill="#0500FF"/>
<path d="M97.8727 110.011L97.7691 108.178C97.7361 108.178 97.7079 108.178 97.6749 108.178C95.9224 108.131 94.1793 107.66 92.554 106.859L91.918 108.504C93.7741 109.417 95.7622 109.959 97.7691 110.011C97.8068 110.011 97.8398 110.011 97.8727 110.011Z" fill="#0500FF"/>
<path d="M12.5503 64.1931L68.7661 64.2729C71.95 64.2771 75.7684 66.5858 77.2515 69.3996L96.6937 106.286C97.3653 107.56 98.3587 108.634 99.5765 109.4L102.378 111.163C103.596 111.929 104.589 113.003 105.261 114.277L107.815 119.124L106.504 124.628L40.3319 124.508C39.2038 124.414 38.1324 123.649 37.3909 122.243L9.79265 69.9205L7.20406 68.3814L9.40455 65.4645L9.40734 65.4698C10.0117 64.673 11.0871 64.1842 12.5502 64.1864L12.5503 64.1931Z" fill="#2D9FFF" stroke="#0500FF" stroke-width="0.5" stroke-linecap="round" stroke-linejoin="round"/>
<path d="M76.1294 74.3661L78.3299 71.4492" stroke="#0500FF" stroke-width="0.5" stroke-miterlimit="10"/>
<path d="M66.5628 67.1919C69.7467 67.1962 73.5652 69.5049 75.0483 72.3186L103.245 125.777C104.041 127.287 105.216 128.055 106.434 128.055L38.3962 127.948C37.268 127.854 36.1966 127.089 35.4551 125.682L7.25808 72.2238C5.77361 69.4074 7.16319 67.1079 10.3444 67.1136L66.5602 67.1933L66.5628 67.1919Z" fill="url(#paint6_linear_1742_19345)" stroke="#0500FF" stroke-width="0.5" stroke-linecap="round" stroke-linejoin="round"/>
<path d="M53.123 70.301L67.1954 70.3188C69.194 70.3203 71.6091 71.4658 72.5255 73.2045L100.496 126.117" stroke="#0500FF" stroke-width="0.5" stroke-linecap="round" stroke-linejoin="round"/>
<path d="M38.6251 126.14L10.6528 73.0819C9.72236 71.3167 10.5893 70.2458 12.2617 70.2462L24.7019 70.2628" stroke="#0500FF" stroke-width="0.5" stroke-linecap="round" stroke-linejoin="round"/>
<path d="M106.513 118.117C105.519 118.115 104.707 119.574 104.705 121.373C104.704 123.171 105.507 124.631 106.505 124.633C107.504 124.636 108.312 123.176 108.313 121.377C108.315 120.505 108.125 119.713 107.816 119.126C107.488 118.505 107.026 118.118 106.513 118.117Z" fill="#48FF91" stroke="#0500FF" stroke-width="0.5" stroke-linecap="round" stroke-linejoin="round"/>
<path d="M106.893 120.45C106.758 120.195 106.612 120.115 106.509 120.116L106.51 120.115C106.412 120.115 106.269 120.19 106.137 120.428C106.009 120.657 105.923 120.992 105.922 121.375C105.922 121.759 106.008 122.094 106.135 122.324C106.267 122.563 106.409 122.639 106.508 122.639C106.606 122.639 106.749 122.563 106.881 122.325C107.009 122.095 107.096 121.761 107.096 121.378C107.097 121.008 107.015 120.682 106.893 120.45Z" fill="#1B1B1C" stroke="#0500FF" stroke-width="0.5"/>
<path d="M141.952 83.9563L109.467 126.301C108.569 127.473 107.485 128.048 106.434 128.049C106.434 128.049 104.53 128.208 103.246 125.771C101.961 123.334 100.327 120.278 100.327 120.278L101.283 118.79L104.192 124.265C105.31 126.386 107.206 126.855 108.665 124.953L141.206 82.5347C142.191 81.2492 142.413 80.0808 141.972 79.2446C141.972 79.2446 143.609 81.7974 141.955 83.9549L141.952 83.9563Z" fill="#48FF91" stroke="#0500FF" stroke-width="0.5" stroke-linecap="round" stroke-linejoin="round"/>
<path d="M29.808 69.4034L29.0548 67.1378L21.2285 64.2076L33.0955 64.2244L34.5914 69.1989L29.808 69.4034Z" fill="#1B1B1C"/>
<path d="M26.2585 70.2697C29.6424 70.2737 31.2042 69.247 30.5569 65.5992C30.2089 63.639 30.2805 61.6577 30.7774 59.7303L31.8717 55.4869C32.8197 51.809 36.7041 48.805 40.5014 48.8082C44.3 48.814 46.6317 51.8284 45.6823 55.5036L44.3525 60.6581C43.9001 62.406 44.0337 64.2554 44.7204 65.9252C46.1221 69.3246 47.567 70.2963 51.1549 70.3012L48.9435 72.4573L27.4171 72.4743L26.2545 70.2685L26.2585 70.2697Z" fill="url(#paint7_linear_1742_19345)"/>
<path d="M26.2569 70.2675C29.6407 70.2715 31.2026 69.2447 30.5553 65.597C30.2073 63.6367 30.2789 61.6554 30.7758 59.7281L31.8701 55.4846C32.818 51.8067 36.7025 48.8028 40.4998 48.806C44.2984 48.8118 46.63 51.8262 45.6807 55.5014L44.3509 60.6559C43.8985 62.4038 44.032 64.2532 44.7188 65.923C46.1205 69.3223 47.5654 70.294 51.1533 70.299" stroke="#0500FF" stroke-width="0.5" stroke-miterlimit="10"/>
<path d="M42.6853 51.8424C43.9591 53.0943 43.4664 55.6604 41.5841 57.5786C39.7018 59.4967 37.1444 60.0374 35.8706 58.7855L34.4205 57.2878L41.3172 50.445L42.6853 51.8424Z" fill="#1B1B1C" stroke="#0500FF" stroke-width="0.5" stroke-linecap="round" stroke-linejoin="round"/>
<path d="M35.7205 51.7512C37.6022 49.8341 40.1603 49.2935 41.434 50.5438C42.7077 51.794 42.2148 54.3617 40.333 56.2788C38.4513 58.1959 35.8932 58.7365 34.6195 57.4862C33.3458 56.2359 33.8387 53.6683 35.7205 51.7512Z" fill="#48FF91" stroke="#0500FF" stroke-width="0.5" stroke-linecap="round" stroke-linejoin="round"/>
<path d="M51.292 101.67C51.895 102.815 53.4425 103.749 54.7365 103.752L80.5108 103.789C81.8034 103.79 82.3673 102.858 81.7643 101.714L69.751 78.9025C69.148 77.7585 67.6005 76.8239 66.3065 76.8207L40.5322 76.7839C39.2396 76.7834 38.6757 77.7149 39.2787 78.859L51.292 101.67Z" fill="#1B1B1C" stroke="#0500FF" stroke-width="0.5" stroke-linecap="round" stroke-linejoin="round"/>
<path d="M58.1036 85.4533L57.466 85.4528C57.382 85.4526 57.3163 85.475 57.2705 85.5142L54.2815 88.0266C54.3273 87.9873 54.3931 87.9649 54.477 87.9651L55.1147 87.9656C55.1973 87.9664 55.2643 87.9435 55.3101 87.9042L58.2991 85.3919C58.2533 85.4311 58.1875 85.4535 58.1036 85.4533Z" fill="#1B1B1C" stroke="#2ECCFF" stroke-width="0.5" stroke-linecap="round" stroke-linejoin="round"/>
<path d="M70.609 87.5594C70.7346 87.7997 71.0367 87.9959 71.281 87.9959L73.4328 86.1878L71.9571 83.3653L69.4983 85.4327L70.6103 87.5589L70.609 87.5594Z" fill="#1B1B1C" stroke="#2ECCFF" stroke-width="0.5" stroke-linecap="round" stroke-linejoin="round"/>
<path d="M58.0644 82.4551L57.4256 82.4533C57.343 82.4526 57.2772 82.475 57.2314 82.5142L54.2425 85.0266C54.2883 84.9873 54.3552 84.9662 54.4367 84.9656L55.0755 84.9674C55.1581 84.9681 55.2238 84.9457 55.2696 84.9065L58.2586 82.3941C58.2128 82.4334 58.147 82.4558 58.0644 82.4551Z" fill="#1B1B1C" stroke="#2ECCFF" stroke-width="0.5" stroke-linecap="round" stroke-linejoin="round"/>
<path d="M71.9745 98.9219L72.3026 99.5484C72.386 99.7076 72.3709 99.846 72.2807 99.9223L75.2696 97.4099C75.3598 97.3337 75.3738 97.194 75.2916 97.0361L74.9634 96.4095C74.88 96.2504 74.894 96.1107 74.9854 96.0357L71.9964 98.548C71.9062 98.6243 71.8922 98.764 71.9745 98.9219Z" fill="#1B1B1C" stroke="#2ECCFF" stroke-width="0.5" stroke-linecap="round" stroke-linejoin="round"/>
<path d="M74.2479 97.4258L74.576 98.0523C74.6594 98.2115 74.6454 98.3512 74.5541 98.4262L77.5431 95.9138C77.6333 95.8376 77.6472 95.6979 77.565 95.54L77.2369 94.9134C77.1535 94.7543 77.1686 94.6159 77.2588 94.5396L74.2698 97.0519C74.1796 97.1282 74.1656 97.2679 74.2479 97.4258Z" fill="#1B1B1C" stroke="#2ECCFF" stroke-width="0.5" stroke-linecap="round" stroke-linejoin="round"/>
<path d="M60.335 80.9641L58.1678 80.9611C58.0852 80.9604 58.0194 80.9828 57.9736 81.0221L54.9847 83.5344C55.0305 83.4951 55.0962 83.4727 55.1788 83.4734L57.346 83.4765C57.4286 83.4772 57.4944 83.4548 57.5402 83.4155L60.5292 80.9032C60.4833 80.9424 60.4165 80.9635 60.335 80.9641Z" fill="#1B1B1C" stroke="#2ECCFF" stroke-width="0.5" stroke-linecap="round" stroke-linejoin="round"/>
<path d="M74.2059 94.4305L75.3179 96.5567C75.4013 96.7158 75.386 96.856 75.2958 96.9323L77.9067 94.7365L76.5348 92.1139L74.2269 94.0536C74.1366 94.1298 74.1227 94.2695 74.2049 94.4274L74.2059 94.4305Z" fill="#1B1B1C" stroke="#2ECCFF" stroke-width="0.5" stroke-linecap="round" stroke-linejoin="round"/>
<path d="M57.5504 82.1984L57.5511 82.1992L62.7728 82.207C62.8528 82.207 63.0158 82.2865 63.0938 82.4355L63.4212 83.0606C63.5943 83.3918 64.0367 83.707 64.445 83.7075L64.4458 83.7083L66.6111 83.7112L66.6119 83.7109C66.6925 83.711 66.8545 83.7901 66.9322 83.9386L67.2611 84.5653C67.4348 84.8976 67.878 85.2104 68.285 85.2111L68.2857 85.2119L68.9252 85.2137C69.0051 85.2137 69.1689 85.2929 69.2469 85.4419L70.3586 87.5676C70.5308 87.8982 70.9731 88.2124 71.381 88.2129L71.3817 88.2137L72.0204 88.2158L72.0212 88.2155C72.1017 88.2155 72.2638 88.2945 72.3414 88.4432L75.0241 93.5693C75.0994 93.7134 75.0204 93.7715 74.9567 93.7715L74.3204 93.7696L74.3212 93.7693C73.8939 93.7662 73.7781 94.1025 73.9538 94.4388L75.0655 96.5645C75.1219 96.6724 75.0927 96.7319 75.0475 96.755L75.0005 96.7669L74.3618 96.7648L74.3626 96.7645C73.9355 96.7622 73.8183 97.0973 73.9945 97.4343L74.3226 98.0602C74.3969 98.2028 74.3196 98.2613 74.2553 98.2613L72.0908 98.2581L72.0916 98.2578C71.718 98.2551 71.5824 98.5118 71.6721 98.8011L71.725 98.9269L72.0524 99.5531C72.1081 99.6598 72.079 99.7199 72.0329 99.7431L71.9843 99.7545L66.7634 99.7464L66.6897 99.7316C66.6203 99.7072 66.5356 99.6532 66.4756 99.5714L66.4424 99.5191L66.115 98.8928C65.9427 98.562 65.4993 98.2471 65.0911 98.2471L62.9242 98.2436L62.9234 98.2439C62.8427 98.2436 62.6807 98.1646 62.6031 98.0163L62.2751 97.3892L62.2736 97.3887C62.1007 97.0585 61.6594 96.7444 61.2519 96.7443L61.2527 96.744L60.6132 96.7422L60.6124 96.7425C60.5323 96.7422 60.3705 96.6641 60.2915 96.514L59.179 94.3874L59.1783 94.3866C59.0147 94.0774 58.6164 93.7811 58.2306 93.7452L58.1536 93.7412L57.5156 93.741C57.4355 93.7408 57.2718 93.6607 57.1939 93.5117L54.5113 88.3856C54.4373 88.2438 54.515 88.1847 54.5809 88.1847L55.2181 88.1852L55.2174 88.1843C55.6435 88.1861 55.7605 87.8527 55.5846 87.516L54.4722 85.3895C54.3975 85.2463 54.4738 85.1877 54.5373 85.187L54.538 85.1878L55.1744 85.1886L55.1751 85.1894C55.6024 85.1926 55.7174 84.8565 55.5417 84.5203L55.2143 83.8941C55.1407 83.7525 55.2161 83.6931 55.2801 83.6925L55.2808 83.6933L57.4485 83.6964C57.8192 83.697 57.9545 83.4412 57.8649 83.152L57.812 83.0262L57.4854 82.4008C57.4105 82.2576 57.4869 82.199 57.5504 82.1984Z" fill="#48FF91" stroke="#2ECCFF" stroke-width="0.5"/>
<path d="M70.5016 82.0424L70.1734 81.4158C70.0478 81.1756 69.7457 80.9794 69.5014 80.9794L67.3355 80.9759C67.0912 80.9759 66.788 80.7784 66.6624 80.5381L66.3343 79.9115C66.2087 79.6712 65.9054 79.4737 65.6611 79.4737L60.4412 79.465C60.3586 79.4643 60.2929 79.4867 60.2471 79.526L57.2581 82.0383C57.3039 81.999 57.3696 81.9766 57.4523 81.9773L62.6735 81.9856C62.9178 81.9856 63.2223 82.1826 63.3466 82.4234L63.6747 83.0499C63.8003 83.2902 64.1036 83.4877 64.3479 83.4877L66.5138 83.4912C66.7581 83.4912 67.0613 83.6887 67.1858 83.9277L67.5139 84.5543C67.6395 84.7946 67.9416 84.9907 68.1883 84.9916L68.8271 84.9934C69.0714 84.9934 69.3747 85.1909 69.5003 85.4312L70.6123 87.5573C70.7379 87.7976 71.04 87.9938 71.2843 87.9938L71.9231 87.9956C72.1674 87.9956 72.4706 88.1931 72.5951 88.4321L75.2772 93.5583C75.3606 93.7175 75.3454 93.8577 75.2552 93.9339L76.8069 92.6292L71.4969 82.4775L71.1774 82.4775C70.9331 82.4775 70.6286 82.2805 70.503 82.0402L70.5016 82.0424Z" fill="#1B1B1C" stroke="#2ECCFF" stroke-width="0.5" stroke-linecap="round" stroke-linejoin="round"/>
<path d="M75.2729 93.5608C75.3563 93.7199 75.3411 93.8601 75.2509 93.9364L76.8026 92.6316L73.9905 87.2563L72.5909 88.4328L75.2731 93.559L75.2729 93.5608Z" fill="#1B1B1C" stroke="#2ECCFF" stroke-width="0.5" stroke-linecap="round" stroke-linejoin="round"/>
<path d="M66.6631 80.537L66.335 79.9104L63.346 82.4227L63.6741 83.0493C63.7997 83.2896 64.103 83.4871 64.3473 83.4871L67.3362 80.9748C67.0919 80.9747 66.7887 80.7773 66.6631 80.537Z" fill="#1B1B1C" stroke="#2ECCFF" stroke-width="0.5" stroke-linecap="round" stroke-linejoin="round"/>
<path d="M70.499 82.0409L70.1709 81.4143L67.1819 83.9266L67.5101 84.5532C67.6356 84.7935 67.9378 84.9897 68.1845 84.9905L71.1735 82.4782C70.9292 82.4782 70.6246 82.2812 70.499 82.0409Z" fill="#1B1B1C" stroke="#2ECCFF" stroke-width="0.5" stroke-linecap="round" stroke-linejoin="round"/>
<path d="M59.8404 86.899C59.7663 86.7568 59.8428 86.6974 59.9069 86.6971L60.5456 86.6992L60.5471 86.6998C60.6278 86.7001 60.7891 86.7784 60.8666 86.9266L61.4236 87.9901L62.2072 89.49L62.7641 90.5535C62.8206 90.6615 62.7905 90.7212 62.7453 90.7443L62.6983 90.7562L62.0596 90.7541L62.0588 90.7544C61.9788 90.7543 61.815 90.6742 61.7371 90.5251L61.1802 89.4616L60.3966 87.9618L59.8404 86.899Z" fill="#1B1B1C" stroke="#2ECCFF" stroke-width="0.5"/>
<path d="M64.4874 86.7052L65.1246 86.7057L65.1239 86.7048C65.1982 86.7064 65.3295 86.7677 65.4125 86.8807L65.4457 86.933L66.0018 87.9968L66.7862 89.4964L67.3423 90.5602C67.4175 90.7035 67.3403 90.7623 67.275 90.7624L66.6369 90.7622C66.5569 90.7621 66.3939 90.6826 66.316 90.5338L66.3153 90.533L65.759 89.4702L64.9755 87.9704L64.4185 86.9069C64.3443 86.7649 64.4215 86.7052 64.4874 86.7052Z" fill="#1B1B1C" stroke="#2ECCFF" stroke-width="0.5"/>
<path d="M61.4491 92.8951C61.374 92.7513 61.4513 92.6926 61.515 92.6923L62.1536 92.6944L62.1607 92.694C62.2424 92.6976 62.4 92.7757 62.4763 92.9212L62.9096 93.7505L62.099 93.7492L62.0975 93.7486C62.0274 93.7484 61.8934 93.6878 61.8089 93.5728L61.7765 93.5202L61.4491 92.8951Z" fill="#1B1B1C" stroke="#2ECCFF" stroke-width="0.5"/>
<path d="M64.9081 94.2012L66.3792 94.2042L66.3823 94.2052L66.44 94.2055L67.9658 94.2077L67.9651 94.2069L69.2504 94.2093L69.6987 95.0653C69.7543 95.1719 69.7252 95.2321 69.6792 95.2553L69.6306 95.2667L68.5476 95.2643L67.0218 95.2621L65.4929 95.2588L64.4099 95.2564L64.4091 95.2567C64.3285 95.2566 64.1665 95.1776 64.0889 95.0291L63.6541 94.1992L64.9081 94.2012Z" fill="#1B1B1C" stroke="#2ECCFF" stroke-width="0.5"/>
<path d="M69.153 92.7079L69.1523 92.7071L69.6105 92.7087L69.6127 92.7111L69.7923 92.7108C69.8723 92.7108 70.0361 92.7909 70.114 92.9401L70.4415 93.5652C70.5164 93.7089 70.4386 93.767 70.3749 93.7671L70.3757 93.7668L69.5324 93.7645L69.0864 92.9098C69.0112 92.7658 69.0893 92.7079 69.153 92.7079Z" fill="#1B1B1C" stroke="#2ECCFF" stroke-width="0.5"/>
<path d="M52.0281 100.506C52.6312 101.65 54.1787 102.585 55.4726 102.588L81.247 102.625C81.5382 102.624 81.7909 102.575 82.0038 102.49C82.055 103.25 81.4948 103.79 80.5136 103.788L54.7392 103.751C53.4466 103.75 51.8977 102.813 51.2947 101.669L39.2814 78.8577C38.8155 77.9737 39.0503 77.2157 39.7795 76.9195C39.794 77.1595 39.8707 77.4209 40.0162 77.697L52.0295 100.508L52.0281 100.506Z" fill="url(#paint8_linear_1742_19345)" stroke="#0500FF" stroke-width="0.5" stroke-linecap="round" stroke-linejoin="round"/>
<mask id="mask1_1742_19345" style="mask-type:alpha" maskUnits="userSpaceOnUse" x="38" y="76" width="45" height="29">
<path d="M52.0281 100.506C52.6312 101.65 54.1787 102.585 55.4726 102.588L81.247 102.625C81.5382 102.624 81.7909 102.575 82.0038 102.49C82.055 103.25 81.4948 103.79 80.5136 103.788L54.7392 103.751C53.4466 103.75 51.8977 102.813 51.2947 101.669L39.2814 78.8577C38.8155 77.9737 39.0503 77.2157 39.7795 76.9195C39.794 77.1595 39.8707 77.4209 40.0162 77.697L52.0295 100.508L52.0281 100.506Z" fill="#0500FF" stroke="#0500FF" stroke-width="0.5" stroke-linecap="round" stroke-linejoin="round"/>
</mask>
<g mask="url(#mask1_1742_19345)">
<path d="M52.7038 98.8707L51.1431 101.254C50.5806 102.113 50.7597 103.258 51.5575 103.905L55.6315 107.205C56.0498 107.544 56.5872 107.699 57.1219 107.637L80.9299 104.866C82.1631 104.722 82.9691 103.501 82.6168 102.311L82.3811 101.514C82.1466 100.722 81.4486 100.155 80.6246 100.088L54.5391 97.9728C53.8091 97.9136 53.1051 98.258 52.7038 98.8707Z" fill="#0500FF"/>
</g>
<path d="M39.9466 107.043L42.2285 107.048C43.1171 107.048 44.1806 107.695 44.5933 108.478L46.345 111.801L49.6577 111.805C50.5463 111.805 51.6084 112.449 52.0225 113.235L53.5056 116.049C53.7294 116.473 53.7161 116.854 53.5191 117.117L52.4371 118.552L51.2019 117.47L49.3281 117.467L51.0798 120.791C51.3036 121.215 51.2903 121.595 51.0933 121.859L50.0113 123.294L48.858 122.213L47.9345 122.211C47.0459 122.211 45.9824 121.564 45.5697 120.781L43.818 117.458L40.5053 117.454C39.6167 117.454 38.5546 116.809 38.1405 116.024L37.5319 114.869L35.5593 113.578L36.6413 112.143C36.8097 111.922 37.1101 111.784 37.5181 111.786L40.8309 111.79L39.8445 109.919L37.9823 108.831L39.0643 107.396C39.2313 107.172 39.5331 107.037 39.9412 107.039L39.9466 107.043Z" fill="#1B1B1C"/>
<path d="M52.2064 117.601L50.7234 114.788C50.5425 114.444 50.2099 114.118 49.8101 113.876C49.4101 113.634 48.9664 113.492 48.5796 113.491L45.2665 113.487C45.1739 113.486 45.0893 113.435 45.0461 113.353L43.2944 110.03C43.1141 109.688 42.7813 109.361 42.3816 109.119C41.9817 108.877 41.5383 108.733 41.1506 108.733L41.1497 108.734L38.8676 108.729C38.481 108.727 38.26 108.865 38.1628 109.026C38.0657 109.186 38.0463 109.445 38.2268 109.788L39.9785 113.111C40.0192 113.189 40.0163 113.282 39.9711 113.357C39.9257 113.432 39.8442 113.478 39.7566 113.478L36.444 113.474C36.056 113.474 35.8345 113.611 35.7374 113.771C35.6407 113.931 35.6212 114.19 35.8018 114.532L37.2849 117.346C37.4659 117.689 37.798 118.016 38.1973 118.258C38.5468 118.47 38.9303 118.605 39.2804 118.635L39.4287 118.642L42.7417 118.647C42.8344 118.647 42.9198 118.698 42.963 118.78L44.7147 122.103C44.895 122.445 45.2269 122.772 45.6267 123.015C46.0265 123.257 46.4699 123.4 46.8576 123.4L46.8585 123.4L49.1406 123.404C49.5272 123.406 49.7482 123.268 49.8454 123.108C49.9426 122.948 49.9628 122.688 49.7823 122.345L48.0306 119.022C47.9899 118.945 47.992 118.852 48.0371 118.777C48.0825 118.702 48.1641 118.656 48.2517 118.656L51.5642 118.66C51.9524 118.659 52.1737 118.522 52.2708 118.362C52.3676 118.203 52.3871 117.944 52.2064 117.601Z" fill="#1B1B1C" stroke="#0500FF" stroke-width="0.5" stroke-linecap="round" stroke-linejoin="round"/>
<path d="M125.842 84.1701C119.888 84.7363 111.176 81.7049 106.395 77.408C101.61 73.1101 102.562 69.1657 108.515 68.6034C114.469 68.0371 123.181 71.0685 127.962 75.3655C132.747 79.6633 131.795 83.6077 125.842 84.1701Z" fill="#1B1B1C"/>
<path d="M105.055 77.0621C110.516 81.9692 120.452 85.4208 127.246 84.7765C134.04 84.1322 135.122 79.6312 129.664 74.7288C124.203 69.8216 114.268 66.3701 107.474 67.0144C100.68 67.6586 99.5976 72.1597 105.055 77.0621ZM108.514 68.6019C114.468 68.0357 123.18 71.0671 127.961 75.364C132.746 79.6619 131.794 83.6063 125.841 84.1686C119.887 84.7349 111.175 81.7035 106.394 77.4065C101.609 73.1087 102.561 69.1643 108.514 68.6019Z" fill="#0500FF"/>
<path d="M129.704 77.236C132.35 80.7513 130.91 83.6894 125.839 84.167C124.233 84.3195 122.431 84.2077 120.554 83.8836L121.176 84.444C123.326 84.818 125.402 84.947 127.24 84.774C133.019 84.225 134.665 80.8857 131.665 76.8831L129.696 77.2343L129.704 77.236Z" fill="#FFAEFE"/>
<path d="M123.365 72.2114C124.152 72.6344 124.904 73.086 125.615 73.5607L127.007 72.6838C126.194 72.141 125.334 71.6243 124.434 71.1393L123.365 72.2114Z" fill="#FFAEFE"/>
<path d="M101.783 70.0633L102.582 67.9241C103.19 66.3035 105.112 65.1723 108.274 64.8721C115.068 64.2279 125.006 67.6841 130.464 72.5866C133.386 75.2117 134.433 77.717 133.737 79.5822L132.938 81.7214C133.634 79.8561 132.587 77.3508 129.665 74.7257C124.204 69.8185 114.269 66.367 107.475 67.0112C104.317 67.3123 102.391 68.4426 101.783 70.0633Z" fill="#FFAEFE" stroke="#0500FF" stroke-width="0.5" stroke-linecap="round" stroke-linejoin="round"/>
<path d="M107.473 67.0136C108.493 66.9152 109.584 66.9145 110.718 66.9928L111.517 64.8537C110.383 64.7754 109.291 64.7761 108.272 64.8745C105.114 65.1755 103.188 66.3058 102.58 67.9265L101.781 70.0656C102.389 68.4449 104.311 67.3137 107.473 67.0136Z" fill="#1B1B1C"/>
<path d="M115.509 65.4294C114.604 65.2363 113.706 65.0855 112.83 64.9804L112.031 67.1195C112.907 67.2246 113.805 67.3755 114.71 67.5686L115.509 65.4294Z" fill="#1B1B1C"/>
<path d="M105.055 77.0621C110.516 81.9692 120.452 85.4208 127.246 84.7765C134.04 84.1322 135.122 79.6312 129.664 74.7288C124.203 69.8216 114.268 66.3701 107.474 67.0144C100.68 67.6586 99.5976 72.1597 105.055 77.0621Z" stroke="#0500FF" stroke-width="0.5" stroke-linecap="round" stroke-linejoin="round"/>
<path d="M119.32 91.9023L115.504 92.0067L118.494 94.38L122.311 94.2756L119.32 91.9023Z" fill="#48FF91" stroke="#0500FF" stroke-width="0.5" stroke-linecap="round" stroke-linejoin="round"/>
<path d="M120.845 86.9688L118.496 94.3803L122.312 94.2759L120.845 86.9688Z" fill="#FFF465" stroke="#0500FF" stroke-width="0.5" stroke-linecap="round" stroke-linejoin="round"/>
<path d="M120.843 86.9688L118.494 94.3803L115.504 92.007L120.843 86.9688Z" fill="#FFAEFE" stroke="#0500FF" stroke-width="0.5" stroke-linecap="round" stroke-linejoin="round"/>
<path d="M114.769 37.2355C117.897 32.0752 125.594 26.8421 131.953 25.5542C138.315 24.2662 140.938 27.4112 137.811 32.5715C134.683 37.7318 126.985 42.9649 120.627 44.2529C114.264 45.5408 111.641 42.3958 114.769 37.2355Z" fill="#2D9FFF"/>
<path d="M133.042 24.6802C125.78 26.1479 117 32.1169 113.432 38.0089C109.863 43.9009 112.854 47.4866 120.115 46.019C127.376 44.5513 136.157 38.5823 139.725 32.6903C143.294 26.7983 140.303 23.2126 133.042 24.6802ZM137.813 32.5747C134.685 37.7351 126.987 42.9681 120.629 44.2561C114.266 45.544 111.643 42.399 114.771 37.2387C117.899 32.0784 125.596 26.8453 131.955 25.5574C138.318 24.2695 140.94 27.4144 137.813 32.5747Z" fill="#FFF465"/>
<path d="M118.057 44.5367C113.616 44.5624 112.105 41.6314 114.771 37.2327C115.614 35.8421 116.791 34.4472 118.181 33.125L117.351 33.2919C115.751 34.8066 114.399 36.4112 113.432 38.0072C110.394 43.0177 112.11 46.3595 117.159 46.3424L118.057 44.541V44.5367Z" fill="#1B1B1C"/>
<path d="M140.671 26.2422L141.92 28.1762C142.866 29.6439 142.626 31.8818 140.966 34.6245C137.397 40.5165 128.617 46.4855 121.356 47.9532C117.471 48.7405 114.809 48.0773 113.718 46.3914L112.469 44.4574C113.56 46.1432 116.221 46.8064 120.107 46.0191C127.368 44.5515 136.148 38.5825 139.717 32.6905C141.377 29.952 141.616 27.7098 140.671 26.2422Z" fill="#FFF465" stroke="#0500FF" stroke-width="0.5" stroke-linecap="round" stroke-linejoin="round"/>
<path d="M123.367 45.095C122.263 45.4886 121.168 45.801 120.107 46.0149C116.221 46.8022 113.56 46.139 112.469 44.4531L113.718 46.3872C114.809 48.0731 117.471 48.7363 121.356 47.949C122.541 47.7093 123.769 47.3456 125.006 46.8878L123.363 45.095H123.367Z" fill="#1B1B1C"/>
<path d="M127.644 45.77C128.547 45.3378 129.446 44.8586 130.327 44.3451L128.859 42.5352C127.974 43.0443 127.075 43.515 126.168 43.9386L127.64 45.77H127.644Z" fill="#1B1B1C"/>
<path d="M133.042 24.6802C125.78 26.1479 117 32.1169 113.432 38.0089C109.863 43.9009 112.854 47.4866 120.115 46.019C127.376 44.5513 136.157 38.5823 139.725 32.6903C143.294 26.7983 140.303 23.2126 133.042 24.6802Z" stroke="#0500FF" stroke-width="0.5" stroke-linecap="round" stroke-linejoin="round"/>
<path d="M131.954 25.554C125.595 26.8419 117.893 32.0707 114.77 37.2353C113.516 39.302 113.191 41.0435 113.653 42.31L138.946 27.5479C138.278 25.6182 135.801 24.7752 131.954 25.554Z" fill="#1B1B1C"/>
</g>
<defs>
<linearGradient id="paint0_linear_1742_19345" x1="58.6149" y1="54.0303" x2="63.1843" y2="52.6821" gradientUnits="userSpaceOnUse">
<stop stop-color="#FFAEFE"/>
<stop offset="1" stop-color="#FFF465"/>
</linearGradient>
<linearGradient id="paint1_linear_1742_19345" x1="59.978" y1="57.8205" x2="66.9593" y2="64.2136" gradientUnits="userSpaceOnUse">
<stop stop-color="#FFAEFE"/>
<stop offset="1" stop-color="#FFF465"/>
</linearGradient>
<linearGradient id="paint2_linear_1742_19345" x1="80.1783" y1="43.0158" x2="97.0813" y2="27.372" gradientUnits="userSpaceOnUse">
<stop stop-color="#0500FF"/>
<stop offset="0.14" stop-color="#0604FF"/>
<stop offset="0.3" stop-color="#0912FF"/>
<stop offset="0.47" stop-color="#0F29FF"/>
<stop offset="0.65" stop-color="#174AFF"/>
<stop offset="0.84" stop-color="#2273FF"/>
<stop offset="1" stop-color="#2D9FFF"/>
</linearGradient>
<linearGradient id="paint3_linear_1742_19345" x1="79.2241" y1="35.6046" x2="91.0391" y2="40.2149" gradientUnits="userSpaceOnUse">
<stop stop-color="#47FD92"/>
<stop offset="0.22" stop-color="#3EDBB9"/>
<stop offset="0.42" stop-color="#36C1D7"/>
<stop offset="0.63" stop-color="#31AEED"/>
<stop offset="0.82" stop-color="#2EA2FA"/>
<stop offset="1" stop-color="#2D9FFF"/>
</linearGradient>
<linearGradient id="paint4_linear_1742_19345" x1="96.3431" y1="91.7699" x2="94.2533" y2="100.887" gradientUnits="userSpaceOnUse">
<stop stop-color="#47FD92"/>
<stop offset="0.22" stop-color="#3EDBB9"/>
<stop offset="0.42" stop-color="#36C1D7"/>
<stop offset="0.63" stop-color="#31AEED"/>
<stop offset="0.82" stop-color="#2EA2FA"/>
<stop offset="1" stop-color="#2D9FFF"/>
</linearGradient>
<linearGradient id="paint5_linear_1742_19345" x1="89.0824" y1="95.7886" x2="107.916" y2="98.369" gradientUnits="userSpaceOnUse">
<stop stop-color="#0500FF"/>
<stop offset="0.14" stop-color="#0604FF"/>
<stop offset="0.3" stop-color="#0912FF"/>
<stop offset="0.47" stop-color="#0F29FF"/>
<stop offset="0.65" stop-color="#174AFF"/>
<stop offset="0.84" stop-color="#2273FF"/>
<stop offset="1" stop-color="#2D9FFF"/>
</linearGradient>
<linearGradient id="paint6_linear_1742_19345" x1="96.6069" y1="116.211" x2="28.6959" y2="112.897" gradientUnits="userSpaceOnUse">
<stop offset="0.0598417" stop-color="#FFF465"/>
<stop offset="0.777316" stop-color="#48FF91"/>
</linearGradient>
<linearGradient id="paint7_linear_1742_19345" x1="46.1582" y1="50.5538" x2="37.4145" y2="73.968" gradientUnits="userSpaceOnUse">
<stop offset="0.0598417" stop-color="#FFF465"/>
<stop offset="0.777316" stop-color="#48FF91"/>
</linearGradient>
<linearGradient id="paint8_linear_1742_19345" x1="72.3005" y1="84.0805" x2="48.6066" y2="96.5691" gradientUnits="userSpaceOnUse">
<stop offset="0.0598417" stop-color="#FFF465"/>
<stop offset="0.777316" stop-color="#48FF91"/>
</linearGradient>
<clipPath id="clip0_1742_19345">
<rect width="150" height="150" fill="white"/>
</clipPath>
</defs>
</svg>
