<svg width="150" height="150" viewBox="0 0 150 150" fill="none" xmlns="http://www.w3.org/2000/svg">
<path d="M89.2965 138.793C88.2317 140.816 85.5724 141.93 83.3828 141.27L11.9776 119.755C9.79066 119.095 8.87203 116.903 9.9342 114.88L59.2453 21.2138C60.3101 19.1912 62.9694 18.0768 65.159 18.7371L136.564 40.2518C138.751 40.9121 139.67 43.1043 138.608 45.1268L89.2965 138.793Z" fill="#1B1B1C" stroke="#0500FF" stroke-width="0.347966" stroke-linecap="round" stroke-linejoin="round"/>
<path d="M99.9497 118.562H10.1719C10.5973 119.103 11.2053 119.528 11.9778 119.76L83.383 141.275C85.57 141.935 88.2319 140.818 89.2967 138.798L99.9497 118.565V118.562Z" fill="url(#paint0_linear_1742_18845)" stroke="#2ECCFF" stroke-width="0.347966" stroke-miterlimit="10"/>
<path d="M98.5052 121.301L89.3945 118.555L115.552 68.8711L124.663 71.6139" stroke="#2ECCFF" stroke-width="0.347966" stroke-linecap="round" stroke-linejoin="round"/>
<path d="M96.276 125.535L73.1172 118.556L104.679 58.6055L127.841 65.5839" stroke="#2ECCFF" stroke-width="0.347966" stroke-linecap="round" stroke-linejoin="round"/>
<path d="M94.0457 129.769L56.8359 118.558L93.803 48.3398L131.015 59.5513" stroke="#2ECCFF" stroke-width="0.347966" stroke-linecap="round" stroke-linejoin="round"/>
<path d="M91.8218 133.999L40.5586 118.555L82.933 38.0703L134.194 53.5148" stroke="#2ECCFF" stroke-width="0.347966" stroke-linecap="round" stroke-linejoin="round"/>
<path d="M89.5927 138.233L24.2812 118.556L72.0578 27.8047L137.369 47.4822" stroke="#2ECCFF" stroke-width="0.347966" stroke-linecap="round" stroke-linejoin="round"/>
<path d="M122.63 75.5211L62.457 18.7383" stroke="#2ECCFF" stroke-width="0.347966" stroke-linecap="round" stroke-linejoin="round"/>
<path d="M21.2227 93.4375L105.583 107.851" stroke="#2ECCFF" stroke-width="0.347966" stroke-linecap="round" stroke-linejoin="round"/>
<path d="M111.265 97.0619L34.5547 68.1172" stroke="#2ECCFF" stroke-width="0.347966" stroke-linecap="round" stroke-linejoin="round"/>
<path d="M125.829 69.389L88.1133 25.6523" stroke="#2ECCFF" stroke-width="0.347966" stroke-linecap="round" stroke-linejoin="round"/>
<path d="M130.908 59.7409L114.281 33.5391" stroke="#2ECCFF" stroke-width="0.347966" stroke-linecap="round" stroke-linejoin="round"/>
<path d="M47.8828 42.8008L116.955 86.2791" stroke="#2ECCFF" stroke-width="0.347966" stroke-linecap="round" stroke-linejoin="round"/>
<path d="M93.8296 130.168L62.6719 135.03" stroke="#2ECCFF" stroke-width="0.347966" stroke-linecap="round" stroke-linejoin="round"/>
<path d="M36.7344 127.212L97.5049 123.211" stroke="#2ECCFF" stroke-width="0.347966" stroke-linecap="round" stroke-linejoin="round"/>
<path d="M113.08 54.7213L113.574 54.5039L113.357 54.0094L112.862 54.2268L113.08 54.7213Z" fill="#2D9FFF"/>
<path d="M42.9949 89.3937L43.6328 89.1133L43.3524 88.4754L42.7145 88.7558L42.9949 89.3937Z" fill="#2D9FFF"/>
<path d="M67.0627 64.471L67.3633 64.6445L67.5368 64.3439L67.2362 64.1704L67.0627 64.471Z" fill="#2D9FFF"/>
<path d="M81.1831 66.9906L81.4023 67.1172L81.5289 66.898L81.3097 66.7714L81.1831 66.9906Z" fill="#2D9FFF"/>
<path d="M96.3823 81.514L96.6016 81.6406L96.7281 81.4214L96.5089 81.2948L96.3823 81.514Z" fill="#2D9FFF"/>
<path d="M76.0269 63.1156L76.2461 63.2422L76.3727 63.023L76.1534 62.8964L76.0269 63.1156Z" fill="#2D9FFF"/>
<path d="M87.2027 82.4125L87.4219 82.5391L87.5484 82.3198L87.3292 82.1933L87.2027 82.4125Z" fill="#2D9FFF"/>
<path d="M91.769 84.2406L91.9883 84.3672L92.1149 84.148L91.8956 84.0214L91.769 84.2406Z" fill="#2D9FFF"/>
<path d="M73.301 53.3108L73.6016 53.4844L73.7751 53.1838L73.4745 53.0102L73.301 53.3108Z" fill="#2D9FFF"/>
<path d="M78.562 50.8617L78.7812 50.9883L78.9078 50.7691L78.6886 50.6425L78.562 50.8617Z" fill="#2D9FFF"/>
<path d="M66.7847 43.9516L67.0039 44.0781L67.1305 43.8589L66.9113 43.7323L66.7847 43.9516Z" fill="#2D9FFF"/>
<path d="M77.0972 59.2562L77.3164 59.3828L77.443 59.1636L77.2237 59.037L77.0972 59.2562Z" fill="#2D9FFF"/>
<path d="M61.1089 50.1312L61.3281 50.2578L61.4547 50.0386L61.2355 49.912L61.1089 50.1312Z" fill="#2D9FFF"/>
<path d="M59.0659 105.916L59.2852 106.043L59.4117 105.824L59.1925 105.697L59.0659 105.916Z" fill="#2D9FFF"/>
<path d="M98.3628 92.3539L98.582 92.4805L98.7086 92.2612L98.4894 92.1347L98.3628 92.3539Z" fill="#2D9FFF"/>
<path d="M68.9019 107.522L69.1211 107.648L69.2477 107.429L69.0284 107.303L68.9019 107.522Z" fill="#2D9FFF"/>
<path d="M112.515 51.0727L112.734 51.1992L112.861 50.98L112.642 50.8534L112.515 51.0727Z" fill="#2D9FFF"/>
<path d="M110.765 74.6351L110.984 74.7617L111.111 74.5425L110.892 74.4159L110.765 74.6351Z" fill="#2D9FFF"/>
<path d="M72.3282 76.5836L72.7656 76.7148L72.8969 76.2774L72.4594 76.1462L72.3282 76.5836Z" fill="#2D9FFF"/>
<path d="M61.6446 112.63L62.082 112.762L62.2133 112.324L61.7758 112.193L61.6446 112.63Z" fill="#2D9FFF"/>
<path d="M106.805 92.1539L107.242 92.2852L107.373 91.8477L106.936 91.7165L106.805 92.1539Z" fill="#2D9FFF"/>
<path d="M78.6172 60.9078L79.0547 61.0391L79.1859 60.6016L78.7485 60.4704L78.6172 60.9078Z" fill="#2D9FFF"/>
<path d="M97.379 83.3219L97.8164 83.4531L97.9476 83.0157L97.5102 82.8844L97.379 83.3219Z" fill="#2D9FFF"/>
<path d="M81.7462 68.7906L82.1836 68.9219L82.3148 68.4844L81.8774 68.3532L81.7462 68.7906Z" fill="#2D9FFF"/>
<path d="M80.9493 85.8141L81.3867 85.9453L81.518 85.5079L81.0805 85.3766L80.9493 85.8141Z" fill="#2D9FFF"/>
<path d="M40.0118 83.525L40.4492 83.6562L40.5805 83.2188L40.143 83.0876L40.0118 83.525Z" fill="#2D9FFF"/>
<path d="M114.363 89.7438L114.801 89.875L114.932 89.4376L114.495 89.3063L114.363 89.7438Z" fill="#2D9FFF"/>
<path d="M112.93 82.7789L113.367 82.9102L113.498 82.4727L113.061 82.3415L112.93 82.7789Z" fill="#2D9FFF"/>
<path d="M98.0273 53.0352L111.274 65.3975C111.528 65.6324 112.016 65.8255 112.363 65.8255H117.525C117.971 65.8255 118.587 66.0917 118.895 66.4153L124.367 72.1985" stroke="#48FF91" stroke-width="0.347966" stroke-linecap="round" stroke-linejoin="round"/>
<path d="M102.779 42.7656H86.3164V59.2279H102.779V42.7656Z" fill="#F4F4F7"/>
<path d="M86.3164 59.2279L92.7442 63.8784L92.7573 48.7367L86.3164 42.7656V59.2279Z" fill="#48FF91" stroke="#0500FF" stroke-width="0.347966" stroke-linecap="round" stroke-linejoin="round"/>
<path d="M86.3164 42.7656H102.779L107.938 48.7367H92.7573L86.3164 42.7656Z" fill="#48FF91" stroke="#0500FF" stroke-width="0.347966" stroke-linecap="round" stroke-linejoin="round"/>
<path d="M104.885 53.8634C103.478 49.7426 99.3836 46.0002 95.7404 45.5044C92.0972 45.0059 90.2834 47.9419 91.6927 52.0626C93.0993 56.1808 97.194 59.9232 100.837 60.4217C104.48 60.9175 106.294 57.9842 104.885 53.8634Z" fill="url(#paint1_linear_1742_18845)"/>
<path d="M99.9129 47.8627C98.7333 47.0094 97.4598 46.43 96.2436 46.263C93.0519 45.8271 91.4626 48.4003 92.6944 52.0096C92.8771 52.5472 93.1146 53.077 93.3938 53.5911L99.9129 47.8601V47.8627Z" fill="#0500FF"/>
<path d="M104.132 59.6131L103.321 60.3281C102.54 61.0145 101.416 61.3251 100.027 61.1345C96.3839 60.6361 92.2892 56.8963 90.8826 52.7755C90.0136 50.2284 90.3737 48.1328 91.6368 47.0237L92.4484 46.3086C91.1853 47.4203 90.8252 49.5134 91.6942 52.0605C93.1009 56.1786 97.1956 59.921 100.839 60.4195C102.23 60.61 103.355 60.2994 104.132 59.6131Z" fill="#48FF91"/>
<path d="M95.9601 58.0664L95.1484 58.7815C96.6777 60.0446 98.395 60.9163 100.023 61.1381C101.414 61.3286 102.539 61.018 103.317 60.3317L104.129 59.6166C103.348 60.303 102.223 60.6135 100.835 60.423C99.2066 60.2012 97.4894 59.3295 95.9601 58.0664Z" fill="#0500FF"/>
<path d="M94.2093 56.3461C93.8988 55.986 93.6091 55.6128 93.3351 55.2266L92.5234 55.9416C92.7949 56.3279 93.0871 56.7037 93.3977 57.0612L94.2093 56.3461Z" fill="#0500FF"/>
<path d="M104.132 59.6131L103.321 60.3281C102.54 61.0145 101.416 61.3251 100.027 61.1345C96.3839 60.6361 92.2892 56.8963 90.8826 52.7755C90.0136 50.2284 90.3737 48.1328 91.6368 47.0237L92.4484 46.3086C91.1853 47.4203 90.8252 49.5134 91.6942 52.0605C93.1009 56.1786 97.1956 59.921 100.839 60.4195C102.23 60.61 103.355 60.2994 104.132 59.6131Z" stroke="#0500FF" stroke-width="0.347966" stroke-linecap="round" stroke-linejoin="round"/>
<path d="M104.885 53.8634C103.478 49.7426 99.3836 46.0002 95.7404 45.5044C92.0972 45.0059 90.2834 47.9419 91.6927 52.0626C93.0993 56.1808 97.194 59.9232 100.837 60.4217C104.48 60.9175 106.294 57.9842 104.885 53.8634Z" stroke="#0500FF" stroke-width="0.347966" stroke-linecap="round" stroke-linejoin="round"/>
<path d="M107.926 63.881L102.78 59.2305H86.3047L92.7455 63.881H107.926Z" fill="#2D9FFF" stroke="#0500FF" stroke-width="0.347966" stroke-linecap="round" stroke-linejoin="round"/>
<path d="M102.781 59.2279L107.928 63.8784L107.941 48.7367L102.781 42.7656V59.2279Z" fill="#0500FF" stroke="#0500FF" stroke-width="0.347966" stroke-linecap="round" stroke-linejoin="round"/>
<path d="M101.672 74.7305L107.972 78.8773C108.376 79.1435 108.708 79.7594 108.708 80.2449V81.0904C108.708 81.5758 109.047 82.1813 109.459 82.4344L116.623 86.8371" stroke="#48FF91" stroke-width="0.347966" stroke-linecap="round" stroke-linejoin="round"/>
<path d="M104.398 77.8079L106.891 79.3973V72.6641L104.398 70.8008V77.8079Z" fill="#0500FF" stroke="#0500FF" stroke-width="0.347966" stroke-linecap="round" stroke-linejoin="round"/>
<path d="M97.3945 77.8086L100.158 79.3979H106.891L104.399 77.8086H97.3945Z" fill="#2D9FFF" stroke="#0500FF" stroke-width="0.347966" stroke-linecap="round" stroke-linejoin="round"/>
<path d="M104.399 70.8008H97.3945V77.8053H104.399V70.8008Z" fill="#48FF91" stroke="#0500FF" stroke-width="0.347966" stroke-linecap="round" stroke-linejoin="round"/>
<path d="M111.805 95.9976L91.0772 87.4425C90.3204 87.1398 89.6993 86.2238 89.6993 85.4095V77.1549C89.6993 76.3381 89.1095 75.3594 88.3866 74.981L57.8709 58.8867M107.766 104.939L64.3435 96.3857C63.1988 96.1602 62.3736 95.1565 62.3736 93.9899V90.6772C62.3736 89.5962 61.6628 88.6439 60.6264 88.3363L48.5234 84.7445" stroke="#48FF91" stroke-width="0.347966" stroke-linecap="round" stroke-linejoin="round"/>
<path d="M80.9438 45.4808C80.9438 44.5932 80.4096 43.3768 79.7575 42.7769L41.1353 7.29141C40.0642 6.30791 39.1875 6.69145 39.1875 8.14616V55.8802C39.1875 57.0335 39.9957 58.4581 40.9846 59.0498L79.5576 79.8017C80.3192 80.2565 80.941 79.9031 80.941 79.0182V45.4781L80.9438 45.4808Z" fill="#2D9FFF"/>
<path d="M52.6011 18.3906L39.8711 39.6326V56.3494C39.8711 56.9959 40.3231 57.7932 40.8765 58.1246L42.9668 59.3766L60.0746 25.2587L52.6011 18.3906Z" fill="#0500FF"/>
<path d="M40.3359 51.4102L80.9389 77.5291" stroke="#0500FF" stroke-width="0.365274" stroke-linecap="round" stroke-linejoin="round"/>
<path d="M65.2461 35.3828V35.9307" stroke="#0500FF" stroke-width="0.365274" stroke-linecap="round" stroke-linejoin="round"/>
<path d="M65.2461 38.0664V65.8181" stroke="#0500FF" stroke-width="0.365274" stroke-linecap="round" stroke-linejoin="round" stroke-dasharray="0.73 2.19"/>
<path d="M64.9482 33.9515C65.0923 33.9218 65.2854 33.9968 65.4852 34.2333C65.6799 34.4639 65.8491 34.8163 65.936 35.236C66.0228 35.6557 66.0073 36.0463 65.9201 36.3353C65.8306 36.6319 65.6833 36.778 65.5392 36.808C65.3951 36.8378 65.2011 36.7623 65.0011 36.5254C64.8065 36.2947 64.6371 35.9423 64.5503 35.5227C64.4635 35.103 64.479 34.7124 64.5662 34.4235C64.6558 34.1267 64.8041 33.9813 64.9482 33.9515Z" fill="#48FF91" stroke="#48FF91" stroke-width="0.365274"/>
<path d="M39.8711 44.6426C43.9695 47.3766 43.3777 34.8377 46.1118 37.0239C48.8459 39.21 48.4349 53.6036 51.9662 56.1542C55.4975 58.7047 56.2235 47.0534 59.3411 46.4561C62.4587 45.8589 62.571 32.9255 65.3654 35.2021C68.1597 37.4786 67.8556 57.1157 70.4336 59.5238C73.0115 61.9319 74.2141 54.0584 76.151 55.6967C78.0879 57.3349 77.4605 60.3868 79.3727 61.9319L80.9425 63.2003" stroke="#48FF91" stroke-width="0.365274" stroke-linecap="round" stroke-linejoin="round"/>
<path d="M51.5825 75.3555H28.1562V98.7817H51.5825V75.3555Z" fill="#1B1B1C"/>
<path d="M16.1797 68.6367L28.1558 75.3561H51.582L41.8196 68.6367H16.1797Z" fill="#FFAEFE" stroke="#0500FF" stroke-width="0.348877" stroke-linecap="round" stroke-linejoin="round"/>
<path d="M16.1797 94.2766L28.1558 96.362V75.3561L16.1797 68.6367V94.2766Z" fill="#FFAEFE" stroke="#0500FF" stroke-width="0.348877" stroke-linecap="round" stroke-linejoin="round"/>
<path d="M36.6956 96.649C43.2433 96.649 48.5513 91.341 48.5513 84.7932C48.5513 78.2455 43.2433 72.9375 36.6956 72.9375C30.1478 72.9375 24.8398 78.2455 24.8398 84.7932C24.8398 91.341 30.1478 96.649 36.6956 96.649Z" fill="url(#paint2_radial_1742_18845)" stroke="#0500FF" stroke-width="0.348877" stroke-linecap="round" stroke-linejoin="round"/>
<path d="M45.9439 92.2125C44.8136 93.615 39.7636 91.4249 34.6638 87.3169C29.5641 83.2088 26.3457 78.7423 27.4761 77.3398" stroke="#0500FF" stroke-width="0.348877" stroke-linecap="round" stroke-linejoin="round"/>
<path d="M48.2781 86.6831C47.3047 87.892 42.9586 86.0054 38.5679 82.4704C34.1773 78.9354 31.409 75.0891 32.3824 73.8828" stroke="#0500FF" stroke-width="0.348877" stroke-linecap="round" stroke-linejoin="round"/>
<path d="M41.0632 95.6441C40.0899 96.8529 35.7437 94.9664 31.3531 91.4314C26.9625 87.8964 24.1941 84.05 25.1675 82.8438" stroke="#0500FF" stroke-width="0.348877" stroke-linecap="round" stroke-linejoin="round"/>
<path d="M44.1174 78.9609C43.8767 81.3446 42.8144 84.3642 41.022 87.3575C37.6597 92.978 33.0022 96.3769 30.6211 94.9509" stroke="#0500FF" stroke-width="0.348877" stroke-linecap="round" stroke-linejoin="round"/>
<path d="M29.1083 93.8799C28.7367 93.5712 31.84 89.2433 36.037 84.2169C38.3579 81.4354 40.5297 79.023 42.0682 77.4766" stroke="#0500FF" stroke-width="0.348877" stroke-linecap="round" stroke-linejoin="round"/>
<path d="M27.7015 92.4942C25.4356 89.8488 27.6309 84.2493 32.605 79.9895C35.1823 77.7837 37.9978 76.3682 40.4286 75.8867" stroke="#0500FF" stroke-width="0.348877" stroke-linecap="round" stroke-linejoin="round"/>
<path d="M45.9618 79.7891C46.6395 82.1518 46.6264 84.9019 45.7656 87.6336C43.8005 93.8794 38.1513 97.6656 33.1484 96.093" stroke="#0500FF" stroke-width="0.348877" stroke-linecap="round" stroke-linejoin="round"/>
<path d="M26.6935 91.1252C23.6478 86.3212 25.6626 79.5835 31.194 76.0773C33.7845 74.4341 36.6889 73.793 39.3578 74.0703" stroke="#0500FF" stroke-width="0.348877" stroke-linecap="round" stroke-linejoin="round"/>
<path d="M48.2829 86.6779C47.3069 87.8894 42.9582 86.0029 38.5702 82.4679C34.1795 78.9329 31.4112 75.0865 32.3872 73.875" stroke="#0500FF" stroke-width="0.348877" stroke-linecap="round" stroke-linejoin="round"/>
<path d="M47.0061 79.7446C47.4702 79.1684 46.1532 77.3374 44.0644 75.655C41.9756 73.9725 39.906 73.0758 39.4419 73.652C38.9778 74.2282 40.2949 76.0592 42.3837 77.7416C44.4725 79.4241 46.542 80.3208 47.0061 79.7446Z" stroke="#0500FF" stroke-width="0.348877" stroke-linecap="round" stroke-linejoin="round"/>
<path d="M41.8203 94.2766L51.6934 96.5991V73.1729L41.8203 68.6367V94.2766Z" fill="#0500FF" stroke="#0500FF" stroke-width="0.348877" stroke-linecap="round" stroke-linejoin="round"/>
<path d="M16.1797 94.2773L28.2074 96.5998H51.6336L41.8196 94.2773H16.1797Z" fill="#2D9FFF" stroke="#0500FF" stroke-width="0.348877" stroke-linecap="round" stroke-linejoin="round"/>
<path d="M41.8196 68.6367H16.1797V94.2766H41.8196V68.6367Z" stroke="#0500FF" stroke-width="0.348877" stroke-linecap="round" stroke-linejoin="round"/>
<path d="M16.6055 81.4531H41.8188L51.5839 87.0683" stroke="#F4F4F7" stroke-width="0.348877" stroke-linecap="round" stroke-linejoin="round"/>
<path d="M28.9975 88.0693C32.6507 88.0693 35.6122 85.1078 35.6122 81.4546C35.6122 77.8014 32.6507 74.8398 28.9975 74.8398C25.3443 74.8398 22.3828 77.8014 22.3828 81.4546C22.3828 85.1078 25.3443 88.0693 28.9975 88.0693Z" fill="#F4F4F7" stroke="#F4F4F7" stroke-width="0.348877" stroke-linecap="round" stroke-linejoin="round"/>
<path d="M39.3672 128.686L71.0312 126.167C71.8454 126.102 72.5083 125.382 72.5083 124.567V114.011C72.5083 113.194 73.1738 112.57 73.988 112.62L102.132 114.392" stroke="#48FF91" stroke-width="0.347966" stroke-linecap="round" stroke-linejoin="round"/>
<path d="M91.8891 109.172H79.1953V121.866H91.8891V109.172Z" fill="#2D9FFF" stroke="#0500FF" stroke-width="0.347966" stroke-linecap="round" stroke-linejoin="round"/>
<path d="M84.1099 115.93H82.6328V118.276H84.1099V115.93Z" fill="#0500FF"/>
<path d="M86.2662 112.754H84.7891V118.279H86.2662V112.754Z" fill="#0500FF"/>
<path d="M88.442 114.375H86.9648V118.282H88.442V114.375Z" fill="#0500FF"/>
<path d="M96.3389 109.811L91.8867 109.172V121.866L96.3389 121.756V109.811Z" fill="#0500FF" stroke="#0500FF" stroke-width="0.347966" stroke-linecap="round" stroke-linejoin="round"/>
<path d="M139.799 43.2096H139.804L138.351 41.4141H138.348C139.152 42.411 139.308 43.8046 138.612 45.1277L89.3005 138.794C88.2358 140.817 85.5764 141.931 83.3869 141.271L11.9817 119.756C11.2275 119.529 10.6272 119.117 10.2044 118.592H10.1992L11.6528 120.39H11.6581C12.0808 120.909 12.6811 121.322 13.4353 121.549L84.8405 143.064C87.0275 143.724 89.6894 142.607 90.7542 140.587L140.065 46.9206C140.762 45.5975 140.605 44.2013 139.802 43.2096H139.799Z" fill="#F4F4F7"/>
<path d="M88.4888 142.703C89.0838 142.416 89.624 142.024 90.0651 141.547L88.6114 139.754C88.1704 140.231 87.6302 140.623 87.0352 140.91L88.4888 142.703Z" fill="#FFAEFE"/>
<path d="M129.072 67.7964L137.679 51.4516L136.826 48.5156L128.219 64.8631L129.072 67.7964Z" fill="#FFAEFE"/>
<path d="M127.092 69.2815C126.885 69.6704 126.945 70.2706 127.222 70.6125L127.444 70.8865L131.76 62.6867L131.539 62.4127C131.262 62.0708 130.868 62.1099 130.662 62.4988L127.092 69.2815Z" stroke="#0500FF" stroke-width="0.347966" stroke-linecap="round" stroke-linejoin="round"/>
<path d="M86.2719 141.215C85.3298 141.51 84.3146 141.554 83.3829 141.272L11.9778 119.758C11.2235 119.531 10.6233 119.118 10.2005 118.594H10.1953L11.6489 120.392H11.6542C12.0769 120.911 12.6772 121.324 13.4314 121.551L84.8366 143.065C85.7683 143.345 86.7834 143.303 87.7256 143.008L86.2719 141.215Z" fill="#1B1B1C"/>
<path d="M139.799 43.2096H139.804L138.351 41.4141H138.348C139.152 42.411 139.308 43.8046 138.612 45.1277L89.3005 138.794C88.2358 140.817 85.5764 141.931 83.3869 141.271L11.9817 119.756C11.2275 119.529 10.6272 119.117 10.2044 118.592H10.1992L11.6528 120.39H11.6581C12.0808 120.909 12.6811 121.322 13.4353 121.549L84.8405 143.064C87.0275 143.724 89.6894 142.607 90.7542 140.587L140.065 46.9206C140.762 45.5975 140.605 44.2013 139.802 43.2096H139.799Z" stroke="#0500FF" stroke-width="0.347966" stroke-linecap="round" stroke-linejoin="round"/>
<path d="M59.8113 115.352H35.4102V139.753H59.8113V115.352Z" fill="#48FF91"/>
<path d="M45.8204 115.352H35.4102V139.753L45.8204 138.202V115.352Z" fill="#48FF91" stroke="#0500FF" stroke-width="0.347966" stroke-linecap="round" stroke-linejoin="round"/>
<path d="M35.4102 139.753L45.8204 138.203H68.6844L59.8113 139.753H35.4102Z" fill="#48FF91" stroke="#0500FF" stroke-width="0.347966" stroke-linecap="round" stroke-linejoin="round"/>
<path d="M56.0735 135.656C59.8055 134.351 62.5796 132.576 62.2717 131.692L57.1148 116.949L43.6016 121.675L48.7584 136.418C49.0664 137.303 52.3442 136.961 56.0735 135.656Z" fill="url(#paint3_linear_1742_18845)" stroke="#0500FF" stroke-width="0.347966" stroke-linecap="round" stroke-linejoin="round"/>
<path d="M46.1013 120.801L44.418 121.391L49.841 136.898C50.3316 136.934 50.9606 136.898 51.6913 136.788L46.1013 120.801Z" fill="#0500FF"/>
<path d="M60.5484 126.777C60.8564 127.662 58.0822 129.434 54.3503 130.742C50.6183 132.046 47.3431 132.388 47.0352 131.504" stroke="#0500FF" stroke-width="0.347966" stroke-linecap="round" stroke-linejoin="round"/>
<path d="M58.8258 121.863C59.1337 122.748 56.3595 124.52 52.6276 125.827C48.8957 127.132 45.6204 127.474 45.3125 126.59" stroke="#0500FF" stroke-width="0.347966" stroke-linecap="round" stroke-linejoin="round"/>
<path d="M50.9185 120.9C54.6503 119.595 57.4252 117.821 57.1163 116.938C56.8074 116.055 53.5318 116.397 49.8 117.703C46.0682 119.008 43.2933 120.782 43.6022 121.665C43.9111 122.548 47.1867 122.206 50.9185 120.9Z" fill="#48FF91" stroke="#0500FF" stroke-width="0.347966" stroke-linecap="round" stroke-linejoin="round"/>
<path d="M50.9168 120.912C54.6488 119.607 57.4229 117.832 57.115 116.948C56.9166 116.384 55.51 116.319 53.5475 116.687L50.2227 121.144C50.4523 121.071 50.6846 120.993 50.9168 120.909V120.912Z" fill="#0500FF"/>
<path d="M68.6856 115.558L59.8125 115.352V139.753L68.6856 138.202V115.558Z" fill="#0500FF" stroke="#0500FF" stroke-width="0.347966" stroke-linecap="round" stroke-linejoin="round"/>
<defs>
<linearGradient id="paint0_linear_1742_18845" x1="55.0595" y1="145.667" x2="55.0595" y2="118.659" gradientUnits="userSpaceOnUse">
<stop stop-color="#0500FF"/>
<stop offset="0.34" stop-color="#1540FF"/>
<stop offset="0.64" stop-color="#2273FF"/>
<stop offset="0.87" stop-color="#2A93FF"/>
<stop offset="1" stop-color="#2D9FFF"/>
</linearGradient>
<linearGradient id="paint1_linear_1742_18845" x1="93.6865" y1="53.1744" x2="101.103" y2="52.8325" gradientUnits="userSpaceOnUse">
<stop stop-color="#47FD92"/>
<stop offset="0.22" stop-color="#3EDBB9"/>
<stop offset="0.42" stop-color="#36C1D7"/>
<stop offset="0.63" stop-color="#31AEED"/>
<stop offset="0.82" stop-color="#2EA2FA"/>
<stop offset="1" stop-color="#2D9FFF"/>
</linearGradient>
<radialGradient id="paint2_radial_1742_18845" cx="0" cy="0" r="1" gradientUnits="userSpaceOnUse" gradientTransform="translate(33.8226 82.004) scale(11.8584 11.8583)">
<stop offset="0.62" stop-color="#FFAEFE"/>
<stop offset="0.68" stop-color="#FFB0F8"/>
<stop offset="0.74" stop-color="#FFB7E9"/>
<stop offset="0.81" stop-color="#FFC2D0"/>
<stop offset="0.88" stop-color="#FFD2AD"/>
<stop offset="0.96" stop-color="#FFE781"/>
<stop offset="1" stop-color="#FFF465"/>
</radialGradient>
<linearGradient id="paint3_linear_1742_18845" x1="58.498" y1="124.609" x2="52.827" y2="127.328" gradientUnits="userSpaceOnUse">
<stop stop-color="#47FD92"/>
<stop offset="0.22" stop-color="#3EDBB9"/>
<stop offset="0.42" stop-color="#36C1D7"/>
<stop offset="0.63" stop-color="#31AEED"/>
<stop offset="0.82" stop-color="#2EA2FA"/>
<stop offset="1" stop-color="#2D9FFF"/>
</linearGradient>
</defs>
</svg>
