<svg width="335" height="298" viewBox="0 0 335 298" fill="none" xmlns="http://www.w3.org/2000/svg">
<mask id="mask0_2816_35410" style="mask-type:alpha" maskUnits="userSpaceOnUse" x="150" y="103" width="183" height="194">
<path fill-rule="evenodd" clip-rule="evenodd" d="M154.598 235.062C167.556 190.358 214.406 136.033 259.209 113.723C283.618 101.568 302.392 101.425 312.328 111.043L323.329 120.976C332.079 128.885 334.435 143.931 328.405 164.713C315.434 209.418 268.597 263.757 223.794 286.053C199.829 297.986 181.291 298.337 171.223 289.236L159.685 278.819C165.638 284.188 174.544 286.259 185.777 284.594C158.005 288.712 144.465 269.988 154.598 235.062ZM186.405 284.497C194.03 283.282 202.705 280.368 212.24 275.62C212.419 275.531 212.599 275.441 212.778 275.35C212.601 275.439 212.424 275.528 212.246 275.616C202.708 280.366 194.031 283.282 186.405 284.497Z" fill="#44E841"/>
<path d="M259.209 113.723L258.911 113.124L259.209 113.723ZM154.598 235.062L155.241 235.249L155.241 235.248L154.598 235.062ZM312.328 111.043L311.863 111.524C311.868 111.529 311.874 111.534 311.88 111.539L312.328 111.043ZM323.329 120.976L323.777 120.48L323.777 120.48L323.329 120.976ZM328.405 164.713L329.047 164.9L329.047 164.9L328.405 164.713ZM223.794 286.053L223.497 285.454L223.496 285.455L223.794 286.053ZM171.223 289.236L171.671 288.74L171.671 288.74L171.223 289.236ZM159.685 278.819L160.133 278.323C159.859 278.075 159.436 278.097 159.189 278.371C158.942 278.645 158.963 279.068 159.237 279.315L159.685 278.819ZM185.777 284.594L185.875 285.255C186.241 285.201 186.493 284.861 186.439 284.496C186.385 284.13 186.045 283.878 185.679 283.932L185.777 284.594ZM186.405 284.497L186.299 283.837C185.935 283.895 185.686 284.238 185.744 284.602C185.803 284.967 186.145 285.216 186.51 285.157L186.405 284.497ZM212.24 275.62L212.538 276.218H212.538L212.24 275.62ZM212.778 275.35L213.079 275.947C213.409 275.781 213.542 275.379 213.376 275.049C213.21 274.72 212.808 274.587 212.478 274.753L212.778 275.35ZM212.246 275.616L212.544 276.215H212.544L212.246 275.616ZM259.209 113.723L258.911 113.124C236.41 124.329 213.429 143.552 194.455 165.558C175.483 187.562 160.47 212.403 153.956 234.876L154.598 235.062L155.241 235.248C161.684 213.017 176.575 188.343 195.468 166.431C214.359 144.521 237.205 125.427 259.507 114.321L259.209 113.723ZM312.328 111.043L312.793 110.563C307.66 105.594 300.287 103.192 291.17 103.55C282.059 103.908 271.169 107.02 258.911 113.124L259.209 113.723L259.507 114.321C271.658 108.27 282.36 105.234 291.222 104.886C300.079 104.538 307.06 106.874 311.863 111.524L312.328 111.043ZM312.328 111.043L311.88 111.539L322.881 121.472L323.329 120.976L323.777 120.48L312.776 110.547L312.328 111.043ZM323.329 120.976L322.88 121.472C331.338 129.116 333.771 143.821 327.763 164.527L328.405 164.713L329.047 164.9C335.099 144.042 332.82 128.654 323.777 120.48L323.329 120.976ZM328.405 164.713L327.763 164.527C321.312 186.758 306.421 211.436 287.53 233.35C268.641 255.261 245.799 274.356 223.497 285.454L223.794 286.053L224.092 286.652C246.593 275.454 269.571 256.231 288.543 234.223C307.513 212.217 322.526 187.373 329.047 164.9L328.405 164.713ZM223.794 286.053L223.496 285.455C211.567 291.395 201.033 294.429 192.264 294.865C183.501 295.3 176.54 293.141 171.671 288.74L171.223 289.236L170.774 289.732C175.974 294.432 183.317 296.648 192.331 296.2C201.34 295.753 212.057 292.645 224.092 286.651L223.794 286.053ZM171.223 289.236L171.671 288.74L160.134 278.323L159.685 278.819L159.237 279.315L170.775 289.732L171.223 289.236ZM159.685 278.819L159.238 279.315C165.387 284.862 174.521 286.938 185.875 285.255L185.777 284.594L185.679 283.932C174.567 285.58 165.888 283.513 160.133 278.323L159.685 278.819ZM154.598 235.062L153.956 234.876C148.868 252.414 149.666 266.063 155.414 274.836C161.196 283.661 171.833 287.337 185.875 285.255L185.777 284.594L185.679 283.932C171.949 285.968 161.93 282.342 156.532 274.103C151.1 265.812 150.196 252.636 155.241 235.249L154.598 235.062ZM186.405 284.497L186.51 285.157C194.218 283.929 202.959 280.988 212.538 276.218L212.24 275.62L211.942 275.022C202.451 279.747 193.841 282.635 186.299 283.837L186.405 284.497ZM212.24 275.62L212.538 276.218C212.718 276.128 212.899 276.038 213.079 275.947L212.778 275.35L212.478 274.753C212.299 274.843 212.12 274.933 211.942 275.022L212.24 275.62ZM212.246 275.616L212.544 276.215C212.723 276.126 212.901 276.037 213.079 275.947L212.778 275.35L212.478 274.753C212.301 274.842 212.125 274.93 211.948 275.018L212.246 275.616ZM186.405 284.497L186.51 285.157C194.219 283.929 202.962 280.987 212.544 276.215L212.246 275.616L211.948 275.018C202.454 279.746 193.842 282.635 186.299 283.837L186.405 284.497Z" fill="#44E841"/>
</mask>
<g mask="url(#mask0_2816_35410)">
<circle cx="241.133" cy="200.539" r="135.961" fill="#0500FF"/>
</g>
<ellipse cx="233.045" cy="192.861" rx="101.353" ry="44.4421" transform="rotate(-47.5936 233.045 192.861)" fill="#0500FF"/>
<path d="M212.456 174.071L256.516 137.774L269.782 149.89C275.729 155.322 275.361 176.854 253.627 211.674L253.626 211.673C220.914 236.466 199.503 238.779 193.556 233.348L180.29 221.232L212.456 174.071ZM250.284 208.616C268.451 179.51 268.759 161.511 263.788 156.971L252.7 146.843L215.87 177.184L250.284 208.616Z" fill="white"/>
<path d="M324.193 119.838C333.057 127.85 335.444 143.092 329.336 164.144C316.196 209.429 268.751 264.473 223.366 287.06C199.09 299.148 180.311 299.503 170.111 290.284L158.406 279.716C168.605 288.935 187.385 288.58 211.661 276.491C242.525 261.122 274.348 230.755 295.68 198.654L307.377 209.217C310.914 203.89 314.152 198.52 317.064 193.15L305.376 182.597C306.845 179.889 308.225 177.184 309.514 174.491L321.205 185.047C324.6 177.959 327.356 170.941 329.33 164.151C335.438 143.1 333.051 127.843 324.188 119.846L312.948 109.697C312.797 109.553 312.644 109.41 312.488 109.27L324.193 119.838Z" fill="#1B1B1C"/>
<path d="M259.225 112.503C213.84 135.103 166.381 190.133 153.255 235.419C140.116 280.705 166.267 299.1 211.652 276.5C257.037 253.9 304.496 198.87 317.622 153.584C330.762 108.298 304.61 89.9026 259.225 112.503ZM304.78 156.226C293.274 195.901 251.668 244.155 211.908 263.957C172.148 283.759 149.207 267.636 160.727 227.947C172.233 188.273 213.84 140.018 253.6 120.216C293.36 100.414 316.301 116.537 304.78 156.226Z" fill="url(#paint0_linear_2816_35410)"/>
<path d="M195.443 270.388C166.138 278.428 150.924 261.737 160.74 227.929C163.837 217.232 169.136 205.925 175.982 194.703L170.783 197.274C162.899 210.144 156.806 223.127 153.254 235.401C142.075 273.925 159.348 292.974 192.687 283.897L195.443 270.373V270.388Z" fill="url(#paint1_linear_2816_35410)"/>
<path d="M243.851 242.457C239.135 246.434 234.319 250.142 229.461 253.494L231.563 264.66C237.118 260.824 242.615 256.605 248.013 252.06L243.851 242.457Z" fill="white"/>
<path d="M312.484 109.281L324.189 119.85C333.053 127.861 335.44 143.103 329.332 164.155C316.192 209.441 268.747 264.486 223.362 287.072C199.086 299.16 180.307 299.515 170.107 290.296L158.402 279.728C168.602 288.947 187.381 288.592 211.657 276.503C257.042 253.903 304.501 198.872 317.627 153.587C323.735 132.535 321.348 117.279 312.484 109.281Z" stroke="#0500FF" stroke-width="1.33716" stroke-linecap="round" stroke-linejoin="round"/>
<path d="M259.225 112.503C213.84 135.103 166.381 190.133 153.255 235.419C140.116 280.705 166.267 299.1 211.652 276.5C257.037 253.9 304.496 198.87 317.622 153.584C330.762 108.298 304.61 89.9026 259.225 112.503Z" stroke="#0500FF" stroke-width="1.33716" stroke-linecap="round" stroke-linejoin="round"/>
<path d="M253.604 120.215C293.363 100.414 316.304 116.536 304.784 156.225C293.278 195.899 251.671 244.154 211.911 263.956C172.151 283.758 149.21 267.635 160.73 227.946C172.237 188.272 213.844 140.017 253.604 120.215ZM304.777 156.23C313.84 125.008 301.567 108.388 276.566 112.352L280.43 203.064C291.708 187.567 300.416 171.288 304.777 156.23Z" fill="url(#paint2_linear_2816_35410)"/>
<mask id="mask1_2816_35410" style="mask-type:alpha" maskUnits="userSpaceOnUse" x="19" y="27" width="221" height="190">
<path d="M62.999 40.7715C109.601 15.0458 177.948 28.2552 215.669 70.2988H215.683C232.219 88.7312 240.112 109.644 239.832 129.486C239.769 136.723 238.62 143.819 236.407 150.605L233.702 159.365C228.273 176.959 215.749 192.53 196.527 203.133C149.912 228.859 81.5643 215.649 43.8574 173.619C21.6894 148.912 15.0455 119.752 22.7939 94.6914L24.8027 88.1865C29.5701 69.1123 42.4591 52.107 62.999 40.7715ZM22.7383 103.427C22.1093 123.634 29.9868 145.038 46.873 163.858C80.1636 200.966 137.337 215.618 182.353 200.828C162.707 207.28 140.748 208.123 119.468 203.942C119.334 203.916 119.201 203.891 119.067 203.864C118.799 203.811 118.531 203.756 118.264 203.701C117.198 203.483 116.135 203.254 115.074 203.011V203.006C89.1955 197.051 64.6415 183.648 46.8838 163.854C30.341 145.416 22.4416 124.499 22.7178 104.654C22.7213 104.245 22.7278 103.835 22.7383 103.427ZM202.086 191.915C202.164 191.869 202.242 191.822 202.32 191.775C202.242 191.822 202.164 191.869 202.086 191.915ZM206.413 189.183C206.446 189.161 206.478 189.138 206.511 189.116C206.478 189.138 206.446 189.161 206.413 189.183ZM207.165 188.67C207.25 188.612 207.334 188.553 207.418 188.495C207.334 188.553 207.25 188.612 207.165 188.67ZM207.979 188.105C208.09 188.027 208.201 187.947 208.312 187.868C208.201 187.947 208.09 188.027 207.979 188.105ZM210.19 186.493C210.291 186.418 210.391 186.342 210.49 186.267C210.391 186.342 210.291 186.418 210.19 186.493ZM210.99 185.883C211.117 185.785 211.243 185.687 211.369 185.589C211.243 185.687 211.117 185.785 210.99 185.883ZM211.814 185.239C211.938 185.141 212.061 185.042 212.185 184.943C212.061 185.042 211.938 185.141 211.814 185.239ZM213.764 183.646C213.908 183.523 214.054 183.402 214.197 183.279C214.054 183.402 213.909 183.523 213.764 183.646ZM214.665 182.875C214.761 182.792 214.856 182.709 214.951 182.626C214.856 182.709 214.761 182.792 214.665 182.875ZM215.489 182.15C215.568 182.08 215.646 182.01 215.725 181.939C215.646 182.01 215.568 182.08 215.489 182.15ZM216.177 181.529C216.283 181.432 216.389 181.335 216.494 181.237C216.389 181.335 216.283 181.432 216.177 181.529ZM219.572 178.237C219.614 178.194 219.656 178.151 219.697 178.108C219.656 178.151 219.614 178.194 219.572 178.237ZM22.752 102.994C22.7485 103.088 22.7453 103.182 22.7422 103.276C22.7448 103.182 22.749 103.088 22.752 102.994Z" fill="#44E841"/>
</mask>
<g mask="url(#mask1_2816_35410)">
<ellipse cx="123.37" cy="121.309" rx="140.514" ry="139.829" fill="#0500FF"/>
</g>
<ellipse cx="126.845" cy="113.149" rx="96.4453" ry="75.8834" transform="rotate(5.48466 126.845 113.149)" fill="#0500FF"/>
<path d="M183.598 84.605L180.666 115.142C179.351 128.831 161.731 151.581 122.282 160.545L131.381 65.777L183.598 84.605ZM122.28 160.541C85.2571 144.234 72.2873 118.547 73.6012 104.858L76.5333 74.3218L131.38 65.7729L122.28 160.541ZM123.025 152.84C156.001 145.347 170.73 126.33 171.829 114.887L174.28 89.3621L130.631 73.623L123.025 152.84Z" fill="white"/>
<path d="M155.438 206.386C149.721 206.82 143.932 206.86 138.13 206.519L138.104 193.565C143.198 193.861 148.281 193.82 153.3 193.434L155.438 206.386ZM63.1016 40.1943C109.812 14.2823 178.318 27.5873 216.127 69.9355H216.141C253.794 112.112 246.741 167.18 200.499 193.214L192.848 181.798C233.204 158.948 239.308 110.752 206.365 73.8652C173.247 36.768 113.177 25.0905 72.251 47.8027C31.3112 70.5153 24.9656 119.018 58.0977 156.115C73.7144 173.609 95.3325 185.447 118.11 190.69L115.386 203.234C89.4158 197.246 64.7705 183.739 46.9521 163.78C9.14364 121.432 16.3777 66.1066 63.1016 40.1943ZM187.992 184.344C187.859 184.408 187.726 184.473 187.593 184.536C187.726 184.472 187.859 184.408 187.992 184.344ZM189.101 183.798C188.922 183.887 188.743 183.976 188.563 184.064C188.743 183.976 188.922 183.887 189.101 183.798ZM190.179 183.248C189.992 183.345 189.805 183.441 189.617 183.536C189.805 183.44 189.992 183.345 190.179 183.248ZM192.213 182.158C191.635 182.479 191.051 182.79 190.466 183.097C191.047 182.792 191.626 182.482 192.199 182.164C192.23 182.147 192.26 182.128 192.291 182.111C192.265 182.126 192.24 182.143 192.213 182.158Z" fill="url(#paint3_linear_2816_35410)"/>
<path d="M22.3633 98.752C20.3198 120.601 28.162 144.142 46.4463 164.62C84.1382 206.839 152.212 220.374 199.208 195.095L200.313 194.49C214.729 186.5 225.429 175.708 232.233 163.355C226.275 179.285 214.316 193.322 196.629 203.126H196.628C150.207 228.87 82.0454 215.659 44.4443 173.541C23.5435 150.132 16.5404 122.79 22.3633 98.752Z" fill="#1B1B1C" stroke="#0500FF" stroke-width="1.3674"/>
<path fill-rule="evenodd" clip-rule="evenodd" d="M51.7267 64.4531C30.3944 89.6801 31.704 126.529 58.1333 156.122C91.238 193.206 151.308 204.883 192.234 182.171C230.308 161.061 238.461 117.622 212.777 81.8154L51.7267 64.4531Z" fill="url(#paint4_linear_2816_35410)"/>
<path d="M157.314 32.5024C215.943 50.0261 251.853 102.154 237.929 148.742C224.004 195.329 165.378 219.2 106.749 201.677C48.1199 184.153 12.2097 132.026 26.1338 85.4384C40.0583 38.8511 98.6842 14.9787 157.314 32.5024Z" stroke="#0500FF" stroke-width="1.3674"/>
<defs>
<linearGradient id="paint0_linear_2816_35410" x1="321.018" y1="194.495" x2="149.859" y2="194.495" gradientUnits="userSpaceOnUse">
<stop stop-color="white"/>
<stop offset="1" stop-color="white" stop-opacity="0"/>
</linearGradient>
<linearGradient id="paint1_linear_2816_35410" x1="149.855" y1="240.414" x2="195.44" y2="240.414" gradientUnits="userSpaceOnUse">
<stop stop-color="white"/>
<stop offset="1" stop-color="white" stop-opacity="0"/>
</linearGradient>
<linearGradient id="paint2_linear_2816_35410" x1="157.739" y1="192.08" x2="307.75" y2="192.08" gradientUnits="userSpaceOnUse">
<stop stop-color="white"/>
<stop offset="1" stop-color="white" stop-opacity="0"/>
</linearGradient>
<linearGradient id="paint3_linear_2816_35410" x1="22.7015" y1="116.848" x2="240.34" y2="116.848" gradientUnits="userSpaceOnUse">
<stop stop-color="white"/>
<stop offset="1" stop-color="white" stop-opacity="0"/>
</linearGradient>
<linearGradient id="paint4_linear_2816_35410" x1="227.62" y1="129.106" x2="36.9023" y2="129.106" gradientUnits="userSpaceOnUse">
<stop stop-color="white"/>
<stop offset="1" stop-color="white" stop-opacity="0"/>
</linearGradient>
</defs>
</svg>
