<svg width="205" height="288" viewBox="0 0 205 288" fill="none" xmlns="http://www.w3.org/2000/svg">
<g clip-path="url(#clip0_24_32256)">
<path d="M0 90.0294L102.22 56.6562V287.693C29.205 256.886 0 197.844 0 164.47V90.0248V90.0294Z" fill="#0500FF"/>
<path d="M204.442 90.0294L102.223 56.6562V287.693C175.237 256.886 204.442 197.844 204.442 164.475V90.0294Z" fill="url(#paint0_linear_24_32256)"/>
<path d="M40.2507 1.14453H54.5139V9.1347C59.1899 1.95232 64.5674 1.14453 72.4422 1.14453V15.2693H68.8556C59.4207 15.2693 54.9017 19.7098 54.9017 28.5031V43.5141H40.2461V1.14453H40.2507Z" fill="#0500FF"/>
<path d="M120.047 43.5095H105.391V39.4706C102.193 43.1864 97.8306 44.7974 92.453 44.7974C82.2426 44.7974 76.4727 38.7459 76.4727 27.6076V1.14453H91.1282V24.3073C91.1282 29.5509 93.6993 32.6159 98.0614 32.6159C102.423 32.6159 105.391 29.6294 105.391 24.5473V1.14453H120.047V43.5141V43.5095Z" fill="#0500FF"/>
<path d="M123.629 30.4289H137.352C137.98 33.4939 140.08 34.7817 145.144 34.7817C149.275 34.7817 151.694 33.817 151.694 32.0399C151.694 30.6643 150.521 29.7781 147.175 29.0534L136.106 26.5515C128.702 24.8621 124.958 20.5831 124.958 13.7192C124.958 4.67664 131.582 -0.00390625 144.442 -0.00390625C157.302 -0.00390625 163.617 4.55663 164.711 14.3239H151.071C150.84 11.7436 148.186 10.165 143.824 10.165C140.32 10.165 138.058 11.2913 138.058 12.9899C138.058 14.4393 139.535 15.5702 142.503 16.3042L154.117 19.1291C161.752 20.9801 165.422 24.8575 165.422 31.1536C165.422 39.8731 157.861 45.0383 145.005 45.0383C132.15 45.0383 123.647 39.4715 123.647 30.4289H123.634H123.629Z" fill="#0500FF"/>
<path d="M204.443 14.3184V1.14453H168.277V14.3276H179.069V43.5095H193.646V14.3184H204.443Z" fill="#0500FF"/>
<path d="M36.1736 14.3184V1.14453H0.0078125V14.3276H10.7999V43.5095H25.377V14.3184H36.169H36.1736Z" fill="#0500FF"/>
</g>
<defs>
<linearGradient id="paint0_linear_24_32256" x1="177.504" y1="40.5513" x2="99.6562" y2="284.401" gradientUnits="userSpaceOnUse">
<stop offset="0.02" stop-color="#0000FF"/>
<stop offset="0.08" stop-color="#0094FF"/>
<stop offset="0.16" stop-color="#48FF91"/>
<stop offset="0.42" stop-color="#0094FF"/>
<stop offset="0.68" stop-color="#0038FF"/>
<stop offset="0.9" stop-color="#0500FF"/>
</linearGradient>
<clipPath id="clip0_24_32256">
<rect width="204.444" height="287.692" fill="white"/>
</clipPath>
</defs>
</svg>
