<svg width="179" height="132" viewBox="0 0 179 132" fill="none" xmlns="http://www.w3.org/2000/svg">
<g clip-path="url(#clip0_3588_1023)">
<path d="M140.823 8.50763L140.441 9.50225C140.058 10.4904 139.3 11.3392 138.234 11.8381C135.944 12.9073 133.099 11.9645 131.878 9.73228C131.227 8.54327 131.168 7.22791 131.606 6.09722L131.988 5.1026C131.554 6.23329 131.609 7.54865 132.26 8.73766C133.482 10.9699 136.326 11.9094 138.617 10.8435C139.686 10.3446 140.444 9.49901 140.823 8.50763Z" fill="#48FF8E" stroke="#2ECCFF" stroke-width="0.36475" stroke-linecap="round" stroke-linejoin="round"/>
<path d="M140.824 8.50419C141.705 6.21675 140.442 3.60054 138.003 2.66073C135.563 1.72092 132.871 2.81339 131.99 5.10083C131.109 7.38827 132.372 10.0045 134.811 10.9443C137.251 11.8841 139.943 10.7916 140.824 8.50419Z" fill="#1B1B1C" stroke="#2ECCFF" stroke-width="0.36475" stroke-linecap="round" stroke-linejoin="round"/>
<path d="M134.246 16.4991L134.628 15.5045C134.291 16.376 134.333 17.3933 134.832 18.3036L134.45 19.2983C133.951 18.3846 133.909 17.3706 134.246 16.4991Z" fill="#48FF8E" stroke="#2ECCFF" stroke-width="0.36475" stroke-linecap="round" stroke-linejoin="round"/>
<path d="M142.48 10.8352C144.236 10.0155 146.439 10.7477 147.375 12.4583L149.034 15.4876L136.496 21.3354L134.837 18.3062C133.901 16.5956 134.571 14.5253 136.327 13.7057L142.48 10.8352Z" fill="#1B1B1C" stroke="#2ECCFF" stroke-width="0.36475" stroke-linecap="round" stroke-linejoin="round"/>
<path d="M149.033 15.4835L148.647 16.4813L136.109 22.3259L136.495 21.3313L149.033 15.4835Z" fill="#48FF8E" stroke="#2ECCFF" stroke-width="0.36475" stroke-linecap="round" stroke-linejoin="round"/>
<path d="M136.494 21.3305L136.109 22.3252L134.453 19.2959L134.835 18.3013L136.494 21.3305Z" fill="#48FF8E" stroke="#2ECCFF" stroke-width="0.36475" stroke-linecap="round" stroke-linejoin="round"/>
<path d="M174.686 81.1078L173.112 80.732C173.724 78.1693 168.489 72.8333 151.966 65.5438C136.949 58.9184 116.428 52.3481 94.1901 47.0445C71.9521 41.7409 50.6763 38.3489 34.2829 37.4871C16.247 36.5378 9.17124 38.9385 8.55892 41.5012L6.98438 41.1254C8.28678 35.6598 22.597 35.2484 34.3672 35.8672C50.8545 36.7322 72.234 40.1437 94.5659 45.4667C116.898 50.7897 137.516 57.3924 152.62 64.0599C163.405 68.8192 175.992 75.639 174.686 81.1078Z" fill="#48FF91"/>
<path d="M6.98438 41.1254C8.28678 35.6598 22.597 35.2484 34.3672 35.8672C50.8545 36.7322 72.234 40.1437 94.566 45.4667C116.898 50.7897 137.516 57.3924 152.62 64.0599C163.405 68.8192 175.992 75.639 174.686 81.1078" stroke="#0500FF" stroke-width="0.2918" stroke-miterlimit="10"/>
<path d="M173.119 80.7331C173.731 78.1704 168.496 72.8345 151.973 65.5449C136.956 58.9195 116.436 52.3492 94.1976 47.0457C71.9596 41.7421 50.6838 38.35 34.2904 37.4882C16.2545 36.539 9.17873 38.9397 8.56641 41.5024" stroke="#0500FF" stroke-width="0.2918" stroke-miterlimit="10"/>
<path d="M9.23314 88.9324C5.64668 78.416 10.8628 65.6415 23.9159 52.9642C36.8168 40.4358 55.8539 29.4691 77.5184 22.0824C99.2737 14.6665 121.107 11.728 139.003 13.8144C156.981 15.9105 168.848 22.8308 172.415 33.2986L170.883 33.8202C167.527 23.9744 156.139 17.443 138.816 15.4213C121.152 13.3608 99.5718 16.2734 78.0401 23.6148C56.5958 30.9238 37.7758 41.7609 25.0434 54.124C12.4632 66.3413 7.39294 78.5132 10.7656 88.4076L9.23314 88.9292V88.9324Z" fill="#48FF91"/>
<path d="M170.878 33.823C167.521 23.9772 156.133 17.4458 138.81 15.4242C121.147 13.3636 99.5664 16.2762 78.0347 23.6176C56.5904 30.9266 37.7704 41.7637 25.038 54.1268C12.4578 66.3441 7.38755 78.5161 10.7602 88.4104" stroke="#0500FF" stroke-width="0.2918" stroke-miterlimit="10"/>
<path d="M9.23314 88.9326C5.64668 78.4162 10.8628 65.6416 23.9159 52.9643C36.8168 40.436 55.8539 29.4692 77.5185 22.0825C99.2737 14.6666 121.107 11.7281 139.003 13.8145C156.981 15.9107 168.848 22.8309 172.415 33.2987" stroke="#0500FF" stroke-width="0.2918" stroke-miterlimit="10"/>
<path d="M90.8518 131.223C127.044 131.223 156.383 101.884 156.383 65.6916C156.383 29.4996 127.044 0.160156 90.8518 0.160156C54.6598 0.160156 25.3203 29.4996 25.3203 65.6916C25.3203 101.884 54.6598 131.223 90.8518 131.223Z" fill="#2D9FFF"/>
<path d="M90.8518 131.223C127.044 131.223 156.383 101.884 156.383 65.6916C156.383 29.4996 127.044 0.160156 90.8518 0.160156C54.6598 0.160156 25.3203 29.4996 25.3203 65.6916C25.3203 101.884 54.6598 131.223 90.8518 131.223Z" fill="url(#paint0_radial_3588_1023)"/>
<path d="M108.157 2.48285L106.495 2.04872C105.517 1.81545 104.205 1.54007 103.22 1.32948C102.361 1.17073 101.214 0.986063 100.356 0.843512C100.012 0.791675 99.6624 0.762517 99.3125 0.759277C100.777 0.973104 102.193 1.24525 103.534 1.57247C105.339 2.04224 105.637 2.14591 107.292 2.72908C109.673 3.03362 111.964 3.60706 114.148 4.43969C111.97 3.62002 111.682 3.53255 108.157 2.47961V2.48285Z" stroke="#0500FF" stroke-width="0.36475" stroke-linecap="round" stroke-linejoin="round"/>
<path d="M95.0522 0.293945C97.5922 0.494813 97.6408 0.498053 98.9399 0.660043L100.352 0.851191C100.009 0.799354 99.6592 0.770196 99.3093 0.766956C97.8449 0.553129 96.3319 0.397619 94.793 0.300425C94.8804 0.293945 94.9647 0.290706 95.0489 0.300425" stroke="#0500FF" stroke-width="0.36475" stroke-linecap="round" stroke-linejoin="round"/>
<path d="M85.0898 0.409133C85.8512 0.354056 86.8653 0.276301 87.6298 0.234183C88.3718 0.208265 89.3631 0.172627 90.1083 0.159668C90.1213 0.159668 90.1342 0.162908 90.1439 0.172627C88.5888 0.188826 87.0337 0.266581 85.511 0.399413C85.3685 0.392934 85.2292 0.399413 85.0898 0.409133Z" stroke="#0500FF" stroke-width="0.36475" stroke-linecap="round" stroke-linejoin="round"/>
<path d="M79.625 1.12415C81.4717 0.834731 82.8594 0.639263 83.7881 0.537749L85.0873 0.411397C85.2266 0.398437 85.3659 0.395198 85.5085 0.401677C83.9858 0.534509 82.4922 0.725657 81.0537 0.978362C80.571 0.994561 80.0948 1.04316 79.6282 1.12739" stroke="#0500FF" stroke-width="0.36475" stroke-linecap="round" stroke-linejoin="round"/>
<path d="M73.0034 2.63436L74.8566 2.13867C76.9451 1.6527 78.5305 1.31469 79.6126 1.12462H79.6191C80.0888 1.04038 80.5651 0.991785 81.0446 0.975586C79.6061 1.22505 78.2227 1.53283 76.9235 1.90217C76.2723 2.08684 75.6406 2.28447 75.0347 2.49829C74.4289 2.71212 73.8652 2.93243 73.3371 3.16245C70.6027 3.55771 67.9849 4.26722 65.5 5.27156C65.8791 5.10633 66.2743 4.94434 66.6825 4.78235L69.1448 3.85901C70.9429 3.26937 71.4742 3.08794 73.0001 2.63436H73.0034Z" stroke="#0500FF" stroke-width="0.36475" stroke-linecap="round" stroke-linejoin="round"/>
<path d="M123.786 13.8735C120.552 12.0268 117.144 10.4263 113.587 9.10449C113.477 9.67146 113.208 10.2384 112.78 10.7892C112.352 11.34 111.769 11.881 111.027 12.3961C114.183 14.2331 117.209 16.326 120.079 18.6425C122.95 20.9557 125.662 23.4925 128.189 26.2171C129.559 25.2614 130.641 24.2668 131.428 23.2462C132.216 22.2257 132.715 21.1825 132.919 20.1295C130.071 17.8196 127.016 15.7234 123.782 13.8767L123.786 13.8735Z" stroke="#0500FF" stroke-width="0.36475" stroke-linecap="round" stroke-linejoin="round"/>
<path d="M120.072 18.6389C117.202 16.3257 114.176 14.2328 111.02 12.3926C110.278 12.9077 109.381 13.4002 108.325 13.8634C107.797 14.0935 107.226 14.317 106.621 14.5308C106.015 14.7447 105.386 14.9423 104.738 15.1237C106.912 17.3884 108.999 19.8895 110.975 22.5915C112.951 25.2935 114.821 28.1963 116.564 31.2612C117.762 30.921 118.925 30.5549 120.043 30.1629C121.167 29.7676 122.217 29.3562 123.195 28.9285C125.146 28.0765 126.808 27.1628 128.178 26.2103C125.651 23.4857 122.936 20.9521 120.069 18.6357L120.072 18.6389Z" stroke="#0500FF" stroke-width="0.36475" stroke-linecap="round" stroke-linejoin="round"/>
<path d="M110.988 22.5942C109.012 19.8922 106.925 17.3911 104.752 15.1265C103.452 15.4926 102.069 15.8036 100.631 16.053C99.192 16.3025 97.6985 16.4969 96.1758 16.6297C97.0117 19.1276 97.8119 21.8555 98.57 24.7714C99.3281 27.6872 100.047 30.7909 100.715 34.0437C103.533 33.7974 106.297 33.4411 108.957 32.9778C111.617 32.5145 114.173 31.9443 116.58 31.2639C114.837 28.1991 112.968 25.2962 110.991 22.5942H110.988Z" stroke="#0500FF" stroke-width="0.36475" stroke-linecap="round" stroke-linejoin="round"/>
<path d="M98.5717 24.7725C97.8136 21.8567 97.0134 19.1287 96.1775 16.6309C94.6548 16.7637 93.0997 16.8414 91.5446 16.8576C89.9895 16.8738 88.4279 16.835 86.8923 16.7378C86.2767 19.2551 85.6838 21.996 85.1233 24.928C84.5628 27.86 84.0315 30.9767 83.5391 34.2457C86.3804 34.4271 89.267 34.5016 92.1472 34.4692C95.0274 34.4368 97.8979 34.2975 100.716 34.048C100.049 30.7953 99.3299 27.6915 98.5717 24.7757V24.7725Z" stroke="#0500FF" stroke-width="0.36475" stroke-linecap="round" stroke-linejoin="round"/>
<path d="M82.372 16.2688C80.9077 16.0549 79.4919 15.7828 78.1506 15.4556C76.1678 17.772 74.2693 20.325 72.468 23.0723C70.6666 25.8229 68.9625 28.7679 67.375 31.8749C69.8534 32.484 72.4744 32.9829 75.1829 33.3782C77.8914 33.7734 80.6906 34.0617 83.5351 34.2432C84.0276 30.9775 84.5589 27.8575 85.1194 24.9255C85.6799 21.9935 86.2728 19.2494 86.8883 16.7353C85.3527 16.6381 83.8364 16.4826 82.372 16.2688Z" stroke="#0500FF" stroke-width="0.36475" stroke-linecap="round" stroke-linejoin="round"/>
<path d="M74.3856 14.2971C73.2225 13.8532 72.2181 13.377 71.3758 12.8716C68.3336 14.7831 65.4178 16.9505 62.6543 19.3317C59.8907 21.713 57.2762 24.3146 54.8398 27.0976C56.3982 28.0274 58.2546 28.9118 60.4058 29.7315C62.5571 30.5512 64.8962 31.2639 67.3779 31.873C68.9654 28.7661 70.6695 25.8211 72.4708 23.0705C74.2722 20.3199 76.1739 17.7702 78.1535 15.4537C76.8122 15.1265 75.5487 14.7409 74.3856 14.2971Z" stroke="#0500FF" stroke-width="0.36475" stroke-linecap="round" stroke-linejoin="round"/>
<path d="M69.3195 11.2974C68.7946 10.7531 68.4318 10.1926 68.2244 9.62891C64.693 11.035 61.3042 12.7132 58.0936 14.6344C54.8829 16.5556 51.8472 18.7198 49.0156 21.0978C49.3979 22.1443 50.0718 23.181 51.0405 24.1853C52.0092 25.1929 53.2727 26.1681 54.8343 27.1012C57.2706 24.3182 59.8819 21.7166 62.6487 19.3354C65.4123 16.9541 68.3281 14.7867 71.3703 12.8752C70.5279 12.373 69.8443 11.8449 69.3195 11.3006V11.2974Z" stroke="#0500FF" stroke-width="0.36475" stroke-linecap="round" stroke-linejoin="round"/>
<path d="M68.085 7.92298C68.1952 7.35601 68.4641 6.78905 68.8917 6.23828C65.464 7.11303 62.1756 8.28584 59.0589 9.72431C55.9422 11.1628 52.9973 12.8734 50.2499 14.8238C49.4594 15.8443 48.9605 16.8875 48.7564 17.9404C48.5523 18.9934 48.6365 20.0496 49.0188 21.096C51.8471 18.718 54.8828 16.5538 58.0967 14.6326C61.3074 12.7114 64.6962 11.0332 68.2276 9.62711C68.0202 9.06015 67.9749 8.48994 68.085 7.91974V7.92298Z" stroke="#0500FF" stroke-width="0.36475" stroke-linecap="round" stroke-linejoin="round"/>
<path d="M65.5108 5.26945C65.0799 5.44439 64.6523 5.62582 64.2278 5.82021C62.3812 6.69496 59.9545 7.9358 58.1565 8.90774C57.4307 9.33216 56.5949 9.86024 55.7687 10.3883C55.0916 10.7998 54.4274 11.2274 53.7762 11.6713C53.7503 11.6875 53.7212 11.7069 53.6952 11.7231C53.6304 11.7685 53.5656 11.8106 53.5009 11.856C52.1272 12.8085 51.0483 13.8063 50.2578 14.8269C53.0052 12.8733 55.9501 11.1659 59.0668 9.72741C62.1835 8.28894 65.4719 7.11613 68.8996 6.24139C69.3273 5.69062 69.9105 5.15281 70.6524 4.63444C71.3943 4.11608 72.2917 3.62687 73.3479 3.16357C70.6135 3.55883 67.9957 4.26835 65.5108 5.27269V5.26945Z" stroke="#0500FF" stroke-width="0.36475" stroke-linecap="round" stroke-linejoin="round"/>
<path d="M64.2227 5.81945L66.6881 4.78271C66.2799 4.94147 65.8847 5.1067 65.5056 5.27192C65.0747 5.44687 64.6471 5.6283 64.2227 5.82269" stroke="#0500FF" stroke-width="0.36475" stroke-linecap="round" stroke-linejoin="round"/>
<path d="M53.0892 12.1443L53.6918 11.7231C53.627 11.7685 53.5622 11.8106 53.4974 11.856C53.3613 11.9499 53.222 12.0471 53.0859 12.1443" stroke="#0500FF" stroke-width="0.36475" stroke-linecap="round" stroke-linejoin="round"/>
<path d="M42.6484 21.387C42.9497 21.0014 43.2834 20.6159 43.6528 20.2336C45.0103 18.9215 46.8148 17.1623 48.2339 15.9182C49.6756 14.7648 51.5968 13.2259 53.0903 12.1438C53.2264 12.0466 53.3625 11.9527 53.5018 11.8555C52.1281 12.808 51.0492 13.8058 50.2587 14.8264C47.5114 16.78 44.9681 18.9733 42.6517 21.3902" stroke="#0500FF" stroke-width="0.36475" stroke-linecap="round" stroke-linejoin="round"/>
<path d="M140.814 27.6817C138.41 24.9667 135.769 22.4364 132.922 20.1265C132.717 21.1762 132.222 22.2226 131.431 23.2432C130.644 24.2637 129.562 25.2583 128.191 26.2141C130.718 28.9387 133.064 31.8481 135.196 34.9129C137.328 37.9778 139.249 41.1949 140.93 44.5287C142.767 43.2489 144.219 41.9141 145.275 40.5437C146.331 39.1765 146.998 37.7737 147.274 36.3644C145.379 33.3027 143.214 30.3966 140.814 27.6817Z" stroke="#0500FF" stroke-width="0.36475" stroke-linecap="round" stroke-linejoin="round"/>
<path d="M135.201 34.9108C133.069 31.8459 130.724 28.9366 128.197 26.2119C126.826 27.1677 125.164 28.078 123.214 28.9301C122.235 29.3578 121.186 29.7692 120.062 30.1645C118.944 30.5565 117.781 30.9226 116.582 31.2628C118.325 34.3276 119.938 37.5545 121.409 40.9077C122.88 44.2608 124.202 47.7372 125.362 51.3009C126.972 50.8474 128.53 50.3549 130.027 49.8268C131.534 49.2987 132.943 48.7447 134.252 48.1713C136.87 47.0276 139.095 45.8062 140.936 44.5265C139.254 41.1895 137.333 37.9724 135.201 34.9108Z" stroke="#0500FF" stroke-width="0.36475" stroke-linecap="round" stroke-linejoin="round"/>
<path d="M121.404 40.911C119.933 37.5578 118.319 34.331 116.576 31.2661C114.172 31.9465 111.613 32.5167 108.953 32.98C106.293 33.4433 103.53 33.7996 100.711 34.0459C101.378 37.2986 102 40.7004 102.564 44.2124C103.128 47.7243 103.636 51.3432 104.08 55.0301C107.858 54.6964 111.564 54.2201 115.131 53.6013C118.698 52.9793 122.126 52.2147 125.353 51.3011C124.193 47.7373 122.871 44.261 121.4 40.9078L121.404 40.911Z" stroke="#0500FF" stroke-width="0.36475" stroke-linecap="round" stroke-linejoin="round"/>
<path d="M102.574 44.2124C102.01 40.7005 101.388 37.2987 100.721 34.0459C97.9023 34.2921 95.0286 34.4347 92.1517 34.4671C89.2715 34.4995 86.3881 34.425 83.5435 34.2435C83.0511 37.5092 82.591 40.924 82.1763 44.4457C81.7616 47.9673 81.3858 51.5959 81.0586 55.2958C84.8718 55.5387 88.7402 55.6392 92.5988 55.5938C96.4574 55.5485 100.313 55.3606 104.09 55.0301C103.646 51.34 103.138 47.7211 102.574 44.2124Z" stroke="#0500FF" stroke-width="0.36475" stroke-linecap="round" stroke-linejoin="round"/>
<path d="M75.1866 33.3792C72.4781 32.984 69.8571 32.4818 67.3786 31.876C65.7911 34.9829 64.3203 38.2487 62.9822 41.6343C61.6442 45.0199 60.439 48.5286 59.3828 52.1215C62.7068 52.9347 66.2188 53.6086 69.8539 54.1367C73.4857 54.6647 77.2406 55.0535 81.0538 55.2965C81.3811 51.5999 81.7569 47.9681 82.1716 44.4464C82.5863 40.9247 83.0463 37.51 83.5388 34.2443C80.6975 34.0628 77.895 33.7745 75.1866 33.3792Z" stroke="#0500FF" stroke-width="0.36475" stroke-linecap="round" stroke-linejoin="round"/>
<path d="M60.4008 29.7365C58.2496 28.9168 56.3932 28.0324 54.8349 27.1025C52.3985 29.8855 50.1404 32.8532 48.0864 35.9666C46.0323 39.0801 44.1824 42.3426 42.5625 45.7184C44.6522 46.9658 47.1403 48.1515 50.027 49.2498C52.9137 50.3481 56.0498 51.3071 59.3738 52.1203C60.43 48.5306 61.6352 45.0219 62.9732 41.633C64.3113 38.2475 65.7822 34.9817 67.3697 31.8748C64.8912 31.2657 62.5488 30.5529 60.3976 29.7333L60.4008 29.7365Z" stroke="#0500FF" stroke-width="0.36475" stroke-linecap="round" stroke-linejoin="round"/>
<path d="M51.0424 24.1867C50.0737 23.1791 49.3998 22.1456 49.0175 21.0991C46.1892 23.4771 43.5649 26.0657 41.1804 28.8358C38.7959 31.609 36.6447 34.5605 34.7656 37.6675C35.2775 39.0703 36.1814 40.4602 37.4806 41.8079C38.7797 43.1589 40.4742 44.4678 42.5671 45.7151C44.187 42.3393 46.0369 39.0768 48.0909 35.9633C50.145 32.8499 52.4031 29.8822 54.8394 27.0992C53.2811 26.1694 52.0176 25.191 51.0456 24.1834L51.0424 24.1867Z" stroke="#0500FF" stroke-width="0.36475" stroke-linecap="round" stroke-linejoin="round"/>
<path d="M48.7577 17.94C48.9619 16.8903 49.4608 15.8438 50.2513 14.8233C47.5039 16.7769 44.9607 18.9702 42.6442 21.3871C42.9423 21.0016 43.2792 20.6161 43.6486 20.2338C42.965 20.9498 42.1745 21.8472 41.4228 22.709C41.1183 23.0492 40.817 23.3926 40.5222 23.7425C40.412 23.8656 40.3051 23.9887 40.2014 24.1053L39.9034 24.4812C39.5697 24.8894 39.2392 25.3008 38.9185 25.7188C37.9433 26.9952 36.7478 28.7771 35.8245 30.0925C35.1052 31.194 34.6387 32.3118 34.4184 33.436C34.143 34.8453 34.2596 36.2643 34.7715 37.6671C36.6539 34.5602 38.8018 31.6055 41.1863 28.8354C43.5708 26.0622 46.1951 23.4736 49.0234 21.0988C48.6411 20.0523 48.5569 18.9929 48.761 17.9432L48.7577 17.94Z" stroke="#0500FF" stroke-width="0.36475" stroke-linecap="round" stroke-linejoin="round"/>
<path d="M152.117 45.9967C150.792 42.6467 149.165 39.4264 147.273 36.3647C146.998 37.7741 146.334 39.1769 145.274 40.5441C144.218 41.9113 142.77 43.2493 140.93 44.529C142.611 47.866 144.053 51.3197 145.229 54.8608C146.405 58.4019 147.315 62.0272 147.931 65.7044C150.027 64.2465 151.676 62.7238 152.881 61.1654C154.087 59.6071 154.845 58.0099 155.159 56.4029C154.466 52.8262 153.442 49.3499 152.117 45.9999V45.9967Z" stroke="#0500FF" stroke-width="0.36475" stroke-linecap="round" stroke-linejoin="round"/>
<path d="M145.232 54.861C144.056 51.3199 142.615 47.8631 140.933 44.5293C139.096 45.809 136.867 47.0304 134.249 48.1741C132.937 48.7475 131.528 49.2983 130.025 49.8296C128.525 50.3577 126.966 50.8469 125.359 51.3037C126.519 54.8675 127.514 58.5188 128.324 62.2186C129.134 65.9185 129.762 69.6669 130.187 73.4251C132.02 72.9067 133.796 72.3462 135.506 71.7469C137.224 71.1443 138.827 70.5125 140.324 69.8613C143.308 68.5589 145.845 67.1658 147.941 65.7079C147.325 62.0307 146.415 58.4054 145.239 54.8643L145.232 54.861Z" stroke="#0500FF" stroke-width="0.36475" stroke-linecap="round" stroke-linejoin="round"/>
<path d="M128.319 62.2162C127.509 58.5163 126.514 54.8651 125.355 51.3013C122.131 52.2117 118.7 52.9795 115.133 53.6015C111.566 54.2236 107.86 54.6998 104.082 55.0303C104.526 58.7204 104.908 62.4753 105.219 66.2627C105.53 70.05 105.773 73.8665 105.935 77.67C110.241 77.291 114.466 76.7467 118.532 76.0404C122.597 75.3309 126.505 74.4594 130.179 73.4194C129.754 69.6612 129.126 65.9128 128.316 62.2129L128.319 62.2162Z" stroke="#0500FF" stroke-width="0.36475" stroke-linecap="round" stroke-linejoin="round"/>
<path d="M105.213 66.2656C104.902 62.4783 104.519 58.7201 104.075 55.0332C100.298 55.3669 96.4424 55.5548 92.5838 55.5969C88.7252 55.639 84.8536 55.5419 81.0436 55.2989C80.7164 58.9955 80.4346 62.7634 80.2045 66.5539C79.9745 70.3477 79.7996 74.1675 79.6797 77.9775C84.0243 78.2561 88.4336 78.3695 92.8333 78.3177C97.2329 78.2658 101.623 78.052 105.932 77.6729C105.77 73.8662 105.527 70.0529 105.216 66.2656H105.213Z" stroke="#0500FF" stroke-width="0.36475" stroke-linecap="round" stroke-linejoin="round"/>
<path d="M69.8499 54.1387C66.2149 53.6106 62.7062 52.9367 59.3789 52.1235C58.3227 55.7132 57.4188 59.3904 56.6834 63.1065C55.9447 66.8258 55.3777 70.5872 54.9922 74.3583C58.7795 75.2881 62.7839 76.0527 66.9244 76.6553C71.0648 77.2579 75.3446 77.6985 79.6892 77.9772C79.8091 74.1671 79.984 70.3474 80.214 66.5536C80.4441 62.7598 80.7227 58.9952 81.0531 55.2985C77.2431 55.0556 73.4882 54.67 69.8532 54.1387H69.8499Z" stroke="#0500FF" stroke-width="0.36475" stroke-linecap="round" stroke-linejoin="round"/>
<path d="M50.0353 49.2496C47.1487 48.1514 44.6637 46.9656 42.5708 45.7183C40.9509 49.0941 39.5643 52.5834 38.4304 56.1537C37.2997 59.7207 36.4249 63.3687 35.832 67.0588C38.2165 68.4811 41.0514 69.8321 44.3398 71.0859C47.6282 72.3397 51.2049 73.4283 54.9922 74.3581C55.3778 70.587 55.948 66.8256 56.6834 63.1063C57.4221 59.387 58.326 55.7131 59.3789 52.1234C56.0549 51.3102 52.9155 50.3512 50.0321 49.2529L50.0353 49.2496Z" stroke="#0500FF" stroke-width="0.36475" stroke-linecap="round" stroke-linejoin="round"/>
<path d="M37.4876 41.8065C36.1885 40.4555 35.2846 39.0688 34.7727 37.666C32.8903 40.773 31.2769 44.029 29.9648 47.4113C28.6494 50.7905 27.6354 54.2927 26.9453 57.8824C27.5285 59.4828 28.5587 61.0639 30.0393 62.6028C31.5199 64.1417 33.4508 65.6352 35.8353 67.0575C36.4282 63.3674 37.303 59.7194 38.4337 56.1523C39.5643 52.5821 40.9542 49.0928 42.5741 45.7169C40.4844 44.4696 38.7868 43.1575 37.4876 41.8097V41.8065Z" stroke="#0500FF" stroke-width="0.36475" stroke-linecap="round" stroke-linejoin="round"/>
<path d="M35.4805 30.6528L35.8206 30.0923C35.7008 30.277 35.5874 30.4649 35.4805 30.6528Z" stroke="#0500FF" stroke-width="0.36475" stroke-linecap="round" stroke-linejoin="round"/>
<path d="M34.4165 33.4353C34.5979 32.5022 34.9575 31.5724 35.4824 30.6523L33.8528 33.3381C32.6346 35.6221 31.154 38.7453 30.0914 41.1071L29.1907 43.4592C28.9607 44.1752 28.7242 44.956 28.4844 45.7692C27.6809 48.1343 27.0265 50.5673 26.5405 53.0588C26.5405 53.0588 26.5405 53.0588 26.5405 53.062C26.2263 54.6689 26.3591 56.2856 26.9423 57.8861C27.6291 54.2931 28.6464 50.7941 29.9618 47.415C31.2771 44.0359 32.8905 40.7767 34.7696 37.6697C34.2577 36.2669 34.1411 34.8478 34.4165 33.4385V33.4353Z" stroke="#0500FF" stroke-width="0.36475" stroke-linecap="round" stroke-linejoin="round"/>
<path d="M26.5352 53.0864L26.5419 53.0562C26.5419 53.0562 26.5419 53.0562 26.5419 53.0595C26.5419 53.0696 26.5419 53.0763 26.5385 53.0864" stroke="#0500FF" stroke-width="0.36475" stroke-linecap="round" stroke-linejoin="round"/>
<path d="M155.162 56.3989C154.851 58.0059 154.089 59.6031 152.884 61.1614C151.679 62.7198 150.027 64.2425 147.934 65.7004C148.549 69.3776 148.873 73.1066 148.873 76.8518C148.873 80.597 148.556 84.2029 147.94 87.6436C150.036 86.1857 151.685 84.663 152.89 83.1046C154.092 81.5495 154.851 79.962 155.165 78.3615L155.191 78.232C155.868 74.7265 156.221 71.1076 156.221 67.4013C156.221 63.6561 155.858 59.9789 155.162 56.4022V56.3989Z" stroke="#0500FF" stroke-width="0.36475" stroke-linecap="round" stroke-linejoin="round"/>
<path d="M147.934 65.7031C145.838 67.161 143.298 68.5542 140.317 69.8566C138.823 70.5078 137.217 71.1395 135.499 71.7421C133.792 72.3415 132.013 72.902 130.18 73.4203C130.604 77.1817 130.828 80.9529 130.828 84.6981C130.828 88.4433 130.607 92.0038 130.186 95.3635C132.02 94.8451 133.795 94.2847 135.506 93.6853C137.223 93.0827 138.827 92.4509 140.324 91.7997C143.307 90.4973 145.844 89.1042 147.94 87.6463C148.556 84.2056 148.873 80.5997 148.873 76.8578C148.873 73.1126 148.549 69.3835 147.934 65.7064V65.7031Z" stroke="#0500FF" stroke-width="0.36475" stroke-linecap="round" stroke-linejoin="round"/>
<path d="M130.185 73.4199C126.511 74.4599 122.6 75.3314 118.538 76.0409C114.472 76.7504 110.25 77.2915 105.941 77.6705C106.103 81.4773 106.191 85.2711 106.191 89.0196C106.191 92.7648 106.107 96.3026 105.948 99.6137C110.254 99.2347 114.478 98.6904 118.544 97.9841C122.61 97.2746 126.517 96.4031 130.191 95.3631C130.612 92.0067 130.833 88.4461 130.833 84.7009C130.833 80.9557 130.609 77.1813 130.185 73.4232V73.4199Z" stroke="#0500FF" stroke-width="0.36475" stroke-linecap="round" stroke-linejoin="round"/>
<path d="M105.941 77.6704C101.636 78.0495 97.2425 78.2633 92.8428 78.3151C88.4432 78.367 84.0338 78.2503 79.6892 77.975C79.5694 81.785 79.5078 85.582 79.5078 89.3272C79.5078 93.0724 79.5726 96.6103 79.6925 99.9181C84.0371 100.197 88.4464 100.31 92.8461 100.258C97.2457 100.206 101.636 99.9926 105.945 99.6136C106.107 96.3025 106.191 92.7646 106.188 89.0194C106.188 85.2742 106.1 81.4772 105.938 77.6704H105.941Z" stroke="#0500FF" stroke-width="0.36475" stroke-linecap="round" stroke-linejoin="round"/>
<path d="M79.5043 89.329C79.5043 85.5838 79.5659 81.7835 79.6858 77.9768C75.3412 77.7014 71.0614 77.2608 66.9209 76.6549C62.7805 76.0523 58.7793 75.2845 54.9887 74.3579C54.6032 78.129 54.4023 81.9066 54.4023 85.6519C54.4023 89.3971 54.6065 92.9544 54.992 96.3011C58.7826 97.2309 62.7837 97.9955 66.9242 98.5981C71.0646 99.2007 75.3444 99.6413 79.689 99.9199C79.5691 96.6121 79.5043 93.0775 79.5043 89.3323V89.329Z" stroke="#0500FF" stroke-width="0.36475" stroke-linecap="round" stroke-linejoin="round"/>
<path d="M54.408 85.6499C54.408 81.9047 54.6089 78.127 54.9945 74.3559C51.2039 73.4261 47.6304 72.3375 44.342 71.0837C41.0536 69.8299 38.2188 68.4789 35.8343 67.0566C35.2414 70.75 34.9336 74.4855 34.9336 78.2307C34.9336 81.9759 35.2446 85.5753 35.8375 88.9998C38.222 90.4221 41.0568 91.7731 44.3452 93.0269C47.6336 94.2807 51.2104 95.3693 54.9977 96.2991C54.6089 92.9524 54.408 89.3951 54.408 85.6499Z" stroke="#0500FF" stroke-width="0.36475" stroke-linecap="round" stroke-linejoin="round"/>
<path d="M34.9342 78.2335C34.9342 74.4883 35.242 70.7495 35.8349 67.0594C33.4504 65.6371 31.5195 64.1436 30.0389 62.6047C28.5583 61.0658 27.5281 59.4847 26.9449 57.8843C26.2581 61.4772 25.8984 65.1609 25.8984 68.9061C25.8984 72.6513 26.2613 76.2993 26.9481 79.8242C27.5313 81.4247 28.5616 83.0057 30.0421 84.5446C31.5227 86.0835 33.4537 87.5771 35.8381 88.9993C35.2453 85.5749 34.9342 81.9754 34.9342 78.2302V78.2335Z" stroke="#0500FF" stroke-width="0.36475" stroke-linecap="round" stroke-linejoin="round"/>
<path d="M25.897 68.9096C25.897 65.1644 26.2534 61.4775 26.9435 57.8846C26.3603 56.2841 26.2275 54.6674 26.5417 53.0605C26.5417 53.0702 26.5385 53.0767 26.5352 53.0864L26.3085 54.311C25.6087 58.4645 25.5989 58.7366 25.3203 65.7314C25.3883 68.3329 25.6508 71.7963 25.8905 74.3881L26.5482 78.4055C26.6422 78.8817 26.775 79.3547 26.9467 79.8277C26.2566 76.3028 25.897 72.6548 25.897 68.9096Z" stroke="#0500FF" stroke-width="0.36475" stroke-linecap="round" stroke-linejoin="round"/>
<path d="M151.619 90.3164C150.738 92.2667 149.617 94.9007 148.58 96.7765C147.777 98.1437 146.747 99.9937 145.888 101.325C145.71 101.601 145.512 101.876 145.302 102.148C144.245 103.519 142.794 104.853 140.957 106.133C142.638 103.441 144.08 100.541 145.253 97.4504C146.426 94.3596 147.333 91.0842 147.949 87.6435C150.041 86.1856 151.694 84.6629 152.899 83.1046C153.936 81.7633 154.642 80.3896 155.018 79.0095C154.454 81.3907 153.754 84.3487 153.009 86.5517L151.619 90.3164ZM151.619 90.3164C151.522 90.5529 151.415 90.7894 151.298 91.0259" stroke="#0500FF" stroke-width="0.36475" stroke-linecap="round" stroke-linejoin="round"/>
<path d="M155.012 79.0086C155.07 78.7916 155.122 78.5777 155.164 78.3607C155.115 78.5712 155.064 78.7883 155.012 79.0086Z" stroke="#0500FF" stroke-width="0.36475" stroke-linecap="round" stroke-linejoin="round"/>
<path d="M140.323 91.8011C138.829 92.4523 137.222 93.084 135.505 93.6866C133.798 94.286 132.019 94.8465 130.185 95.3649C129.764 98.7213 129.139 101.877 128.329 104.806C127.519 107.734 126.528 110.443 125.371 112.905C126.981 112.452 128.54 111.959 130.036 111.431C131.543 110.903 132.952 110.349 134.261 109.776C136.879 108.632 139.105 107.41 140.945 106.131C142.626 103.442 144.065 100.539 145.241 97.4481C146.414 94.3573 147.324 91.0818 147.936 87.6412C145.84 89.0991 143.3 90.4922 140.32 91.7946L140.323 91.8011Z" stroke="#0500FF" stroke-width="0.36475" stroke-linecap="round" stroke-linejoin="round"/>
<path d="M118.537 97.9848C114.472 98.6943 110.25 99.2353 105.941 99.6144C105.779 102.925 105.539 106.013 105.232 108.854C104.921 111.696 104.542 114.297 104.098 116.633C107.875 116.299 111.582 115.823 115.149 115.204C118.716 114.586 122.143 113.818 125.37 112.904C126.527 110.442 127.521 107.733 128.328 104.805C129.138 101.876 129.763 98.7202 130.185 95.3638C126.507 96.4037 122.6 97.2753 118.537 97.9848Z" stroke="#0500FF" stroke-width="0.36475" stroke-linecap="round" stroke-linejoin="round"/>
<path d="M92.845 100.256C88.4453 100.308 84.036 100.191 79.6914 99.9156C79.8113 103.223 79.9927 106.304 80.2227 109.143C80.4528 111.981 80.7346 114.569 81.0651 116.899C84.8783 117.142 88.7467 117.242 92.6053 117.197C96.4671 117.151 100.319 116.963 104.097 116.633C104.541 114.294 104.92 111.695 105.231 108.854C105.542 106.013 105.778 102.925 105.94 99.6143C101.635 99.9933 97.2414 100.207 92.8418 100.259L92.845 100.256Z" stroke="#0500FF" stroke-width="0.36475" stroke-linecap="round" stroke-linejoin="round"/>
<path d="M80.2283 109.143C79.9983 106.305 79.8201 103.224 79.697 99.9157C75.3524 99.6404 71.0727 99.1997 66.9322 98.5939C62.7917 97.9913 58.7906 97.2235 55 96.2969C55.3888 99.6436 55.959 102.783 56.6977 105.696C57.4363 108.608 58.3435 111.291 59.3997 113.724C62.7237 114.537 66.2356 115.211 69.8707 115.739C73.5025 116.267 77.2574 116.656 81.0707 116.899C80.7402 114.569 80.4584 111.978 80.2283 109.143Z" stroke="#0500FF" stroke-width="0.36475" stroke-linecap="round" stroke-linejoin="round"/>
<path d="M56.6977 105.696C55.959 102.783 55.3856 99.6473 55 96.2973C51.2095 95.3675 47.636 94.2789 44.3476 93.0251C41.0592 91.7713 38.2243 90.4203 35.8398 88.998C36.4327 92.4258 37.3107 95.6785 38.4446 98.7401C39.5786 101.802 40.9685 104.669 42.5884 107.319C44.678 108.566 47.1662 109.752 50.0529 110.851C52.9395 111.949 56.0756 112.908 59.3997 113.721C58.3435 111.285 57.4364 108.602 56.6977 105.693V105.696Z" stroke="#0500FF" stroke-width="0.36475" stroke-linecap="round" stroke-linejoin="round"/>
<path d="M29.2227 88.0627V88.0586V88.0627Z" stroke="#0500FF" stroke-width="0.36475" stroke-linecap="round" stroke-linejoin="round"/>
<path d="M38.4363 98.7443C37.3023 95.6827 36.4244 92.4267 35.8315 89.0022C33.447 87.5799 31.5161 86.0864 30.0355 84.5475C28.5549 83.0085 27.5246 81.4275 26.9415 79.8271C26.7698 79.354 26.6369 78.8778 26.543 78.4048C26.9933 80.5204 27.7547 83.3066 28.3184 85.3963C28.3281 85.4287 29.0927 87.7322 30.1003 90.3564C30.7741 91.9893 31.8076 94.1049 32.556 95.7053C33.4729 97.4354 34.8304 99.6741 35.8347 101.356C36.2883 102.049 36.8423 102.739 37.4935 103.416C38.7927 104.767 40.4871 106.076 42.58 107.323C40.9601 104.673 39.5702 101.806 38.4363 98.7443Z" stroke="#0500FF" stroke-width="0.36475" stroke-linecap="round" stroke-linejoin="round"/>
<path d="M43.4469 110.97C41.9274 109.26 39.9252 106.956 38.5062 105.158L35.8398 101.354C36.2934 102.048 36.8474 102.738 37.4986 103.415C39.2481 106.13 41.2374 108.657 43.4437 110.97" stroke="#0500FF" stroke-width="0.36475" stroke-linecap="round" stroke-linejoin="round"/>
<path d="M140.951 106.135C139.27 108.824 137.352 111.306 135.22 113.551C133.036 115.828 132.871 115.958 128.598 119.292C130.461 117.908 132.871 115.964 134.65 114.471C135.725 113.538 137.041 112.164 138.061 111.176C139.432 109.712 141.155 107.667 142.448 106.135L142.765 105.727C143.656 104.573 144.499 103.378 145.296 102.15C144.239 103.517 142.791 104.855 140.951 106.135Z" stroke="#0500FF" stroke-width="0.36475" stroke-linecap="round" stroke-linejoin="round"/>
<path d="M132.655 16.9708C132.272 15.9243 131.595 14.8876 130.627 13.8833C127.934 11.9945 125.044 10.3551 121.989 8.98793C118.934 7.62074 115.711 6.52569 112.348 5.73193C112.873 6.27622 113.239 6.83671 113.446 7.40043C113.653 7.9674 113.702 8.5376 113.589 9.10781C117.143 10.4296 120.554 12.0301 123.787 13.8768C127.021 15.7235 130.076 17.8164 132.924 20.1296C133.128 19.0799 133.04 18.0205 132.658 16.974L132.655 16.9708Z" stroke="#0500FF" stroke-width="0.36475" stroke-linecap="round" stroke-linejoin="round"/>
<path d="M140.5 23.9345C140.954 25.1786 141.061 26.4324 140.818 27.683C138.417 24.968 135.774 22.4377 132.926 20.1277C133.13 19.078 133.042 18.0186 132.66 16.9722C135.492 19.0683 138.116 21.401 140.5 23.9377" stroke="#0500FF" stroke-width="0.36475" stroke-linecap="round" stroke-linejoin="round"/>
<path d="M138.091 20.2685C139.244 21.4639 140.044 22.6918 140.501 23.9359C138.114 21.3992 135.489 19.0697 132.661 16.9703C132.279 15.9239 131.602 14.8872 130.633 13.8828C133.325 15.7716 135.823 17.9099 138.094 20.2685" stroke="#0500FF" stroke-width="0.36475" stroke-linecap="round" stroke-linejoin="round"/>
<path d="M138.261 20.4501C139.23 21.5387 140.555 22.9577 141.481 24.0787C142.829 25.8476 144.614 28.2192 145.861 30.0594C146.309 30.743 146.658 31.4363 146.914 32.1296C145.032 29.2105 142.881 26.4664 140.496 23.9297C140.043 22.6856 139.239 21.4577 138.086 20.2622C138.144 20.3238 138.203 20.3853 138.261 20.4469" stroke="#0500FF" stroke-width="0.36475" stroke-linecap="round" stroke-linejoin="round"/>
<path d="M146.921 32.1335C147.433 33.5364 147.553 34.9554 147.278 36.3647C145.382 33.3031 143.218 30.397 140.818 27.682C141.06 26.4347 140.954 25.1777 140.5 23.9336C142.888 26.4704 145.036 29.2112 146.918 32.1335" stroke="#0500FF" stroke-width="0.36475" stroke-linecap="round" stroke-linejoin="round"/>
<path d="M146.209 30.6387C146.099 30.4443 145.982 30.2532 145.859 30.062L146.209 30.6387Z" stroke="#0500FF" stroke-width="0.36475" stroke-linecap="round" stroke-linejoin="round"/>
<path d="M155.153 53.0165C154.469 50.1071 153.4 46.2647 152.496 43.4169L152.418 43.2064C152.198 42.6005 151.965 41.9979 151.725 41.4018C151.683 41.2884 151.641 41.1782 151.595 41.0648C151.531 40.9126 151.463 40.7603 151.391 40.6048C150.786 39.1696 150.121 37.7667 149.399 36.3963C148.858 35.3012 148.317 34.2353 147.831 33.3023L146.211 30.6392C146.493 31.1348 146.729 31.6338 146.911 32.1327C147.423 33.5355 147.542 34.9546 147.267 36.3639C149.162 39.4255 150.786 42.6459 152.111 45.9958C153.436 49.3458 154.459 52.8221 155.153 56.3988C155.373 55.2714 155.37 54.1407 155.15 53.0132L155.153 53.0165Z" stroke="#0500FF" stroke-width="0.36475" stroke-linecap="round" stroke-linejoin="round"/>
<path d="M155.39 54.2685C156.3 61.0138 156.355 61.4188 156.384 65.6856C156.384 66.2558 156.329 66.8292 156.219 67.3994C156.219 63.6542 155.856 59.977 155.159 56.4003C155.38 55.2729 155.377 54.1422 155.156 53.0147L155.39 54.2685Z" stroke="#0500FF" stroke-width="0.36475" stroke-linecap="round" stroke-linejoin="round"/>
<path d="M156.383 65.6873C156.263 68.6712 155.981 72.6464 155.638 75.6108L155.188 78.2286C155.865 74.7231 156.218 71.1043 156.218 67.3979C156.328 66.8277 156.383 66.2575 156.383 65.6841" stroke="#0500FF" stroke-width="0.36475" stroke-linecap="round" stroke-linejoin="round"/>
<path d="M94.8006 0.295063C94.8881 0.288584 94.9723 0.285344 95.0566 0.295063H95.0468C93.806 0.214068 93.7606 0.214068 91.3308 0.162231H90.1094C90.1094 0.162231 90.1353 0.168711 90.145 0.175191C91.7001 0.158992 93.2617 0.197869 94.7974 0.295063H94.8006Z" stroke="#0500FF" stroke-width="0.36475" stroke-linecap="round" stroke-linejoin="round"/>
<path d="M113.447 7.39669C113.24 6.82972 112.874 6.27248 112.349 5.72819C111.824 5.1839 111.141 4.65582 110.295 4.15365C109.453 3.65148 108.452 3.17523 107.292 2.73137C105.688 2.15145 105.315 2.05426 103.534 1.57477C102.192 1.24755 100.78 0.975402 99.3121 0.761575C97.8477 0.547748 96.3347 0.392238 94.7958 0.295044C93.0107 0.181651 90.1435 0.175171 90.1435 0.175171C88.5884 0.19137 87.0333 0.269125 85.5106 0.401957C83.9879 0.534789 82.4943 0.729177 81.0558 0.978642C79.6174 1.22811 78.234 1.53589 76.9348 1.90522C76.2836 2.08989 75.6518 2.28752 75.046 2.50135C74.4402 2.71518 73.8764 2.93548 73.3483 3.16551C72.2922 3.62556 71.3947 4.11801 70.6528 4.63638C69.9109 5.15475 69.3278 5.68931 68.9001 6.24332C68.4724 6.79409 68.2035 7.36105 68.0934 7.92802C67.9832 8.49498 68.0286 9.06843 68.2359 9.63539C68.4433 10.2024 68.8061 10.7596 69.331 11.3039C69.8558 11.8482 70.5394 12.3763 71.3818 12.8784C72.2241 13.3806 73.2285 13.8601 74.3916 14.3039C75.5547 14.7478 76.8214 15.1333 78.1595 15.4606C79.4975 15.7878 80.9165 16.0599 82.3809 16.2737C83.8453 16.4876 85.3583 16.6431 86.8972 16.7403C88.4329 16.8375 89.9944 16.8796 91.5496 16.8602C93.1047 16.844 94.6598 16.7662 96.1825 16.6334C97.7052 16.5005 99.1987 16.3061 100.637 16.0567C102.076 15.8072 103.459 15.4962 104.758 15.1301C105.406 14.9454 106.035 14.7478 106.641 14.5372C107.246 14.3234 107.817 14.0998 108.345 13.8698C109.401 13.4098 110.298 12.9173 111.04 12.3989C111.782 11.8838 112.365 11.346 112.793 10.792C113.221 10.2412 113.486 9.67427 113.6 9.10731C113.713 8.54034 113.661 7.96689 113.457 7.39993L113.447 7.39669Z" stroke="#0500FF" stroke-width="0.36475" stroke-linecap="round" stroke-linejoin="round"/>
<path d="M127.996 11.7055L124.539 9.48301L123.535 8.89337C120.891 7.38362 119.608 6.7713 116.958 5.61469C117.039 5.65357 117.123 5.69569 117.207 5.73456C116.838 5.56285 116.391 5.36523 115.753 5.08984C116.187 5.27775 116.585 5.44946 116.958 5.61145C116.482 5.38466 115.993 5.17408 115.173 4.83714L114.152 4.43864C111.969 3.60601 109.678 3.03257 107.297 2.72803C108.457 3.16864 109.458 3.64813 110.3 4.1503C111.143 4.65247 111.829 5.18056 112.354 5.72484C115.717 6.52184 118.941 7.61365 121.996 8.98085C125.051 10.348 127.941 11.9874 130.633 13.8762C129.917 13.131 129.039 12.4053 127.999 11.699L127.996 11.7055Z" stroke="#0500FF" stroke-width="0.36475" stroke-linecap="round" stroke-linejoin="round"/>
<path d="M133.455 15.8982C134.845 17.1747 136.708 18.8691 138.036 20.2104C138.056 20.2298 138.072 20.246 138.091 20.2654C135.82 17.9069 133.322 15.7686 130.63 13.8798C129.914 13.1346 129.036 12.4089 127.996 11.7026C129.658 12.9273 131.897 14.5407 133.455 15.8949" stroke="#0500FF" stroke-width="0.36475" stroke-linecap="round" stroke-linejoin="round"/>
<path d="M138.261 20.4521C138.203 20.3906 138.145 20.329 138.086 20.2675C138.07 20.248 138.051 20.2318 138.031 20.2124L138.261 20.4521Z" stroke="#0500FF" stroke-width="0.36475" stroke-linecap="round" stroke-linejoin="round"/>
<path d="M134.266 109.779C132.954 110.352 131.544 110.903 130.041 111.434C128.541 111.962 126.983 112.452 125.376 112.908C124.219 115.371 122.897 117.59 121.43 119.547C119.962 121.504 118.348 123.198 116.605 124.607C117.804 124.267 118.967 123.901 120.085 123.509C121.209 123.114 122.259 122.702 123.237 122.275C125.609 121.189 125.981 120.959 128.055 119.673L128.599 119.294C131.049 117.561 131.366 117.259 135.221 113.553C137.353 111.308 139.271 108.829 140.953 106.137C139.116 107.417 136.887 108.638 134.269 109.782L134.266 109.779Z" stroke="#0500FF" stroke-width="0.36475" stroke-linecap="round" stroke-linejoin="round"/>
<path d="M104.095 116.636C103.651 118.975 103.146 121.052 102.582 122.85C102.226 124.159 101.818 125.568 101.254 127.324C107.28 126.861 114.19 125.289 116.594 124.609C118.334 123.2 119.951 121.505 121.418 119.549C122.886 117.592 124.208 115.372 125.365 112.91C118.081 114.967 110.536 116.072 104.092 116.639L104.095 116.636Z" stroke="#0500FF" stroke-width="0.36475" stroke-linecap="round" stroke-linejoin="round"/>
<path d="M92.6066 117.201C92.6066 117.201 92.6066 117.217 92.6066 117.223C92.6066 117.217 92.6066 117.207 92.6066 117.201ZM92.6066 117.201C88.7447 117.246 84.8764 117.146 81.0664 116.903C81.3969 119.232 81.7727 121.299 82.1906 123.084C82.6086 124.869 83.0686 126.376 83.5611 127.584C86.4024 127.766 89.289 127.84 92.1692 127.808C95.0494 127.84 98.4188 127.503 101.26 127.322C101.927 125.388 102.588 122.848 102.588 122.848C103.152 121.05 103.658 118.973 104.101 116.634C100.324 116.967 96.4717 117.155 92.6098 117.198L92.6066 117.201Z" stroke="#0500FF" stroke-width="0.36475" stroke-linecap="round" stroke-linejoin="round"/>
<path d="M82.1898 123.085C81.7718 121.299 81.396 119.232 81.0656 116.903C77.2556 116.66 73.5006 116.275 69.8656 115.743C66.2305 115.215 62.7218 114.541 59.3945 113.728C60.4507 116.164 61.6592 118.351 62.9972 120.272C64.3385 122.194 65.8093 123.849 67.3968 125.216C69.8753 125.825 72.4963 126.324 75.2048 126.72C77.9132 127.115 80.7124 127.403 83.557 127.585C83.0613 126.376 82.6045 124.87 82.1865 123.085H82.1898Z" stroke="#0500FF" stroke-width="0.36475" stroke-linecap="round" stroke-linejoin="round"/>
<path d="M63.0038 120.272C61.6626 118.351 60.4574 116.161 59.4012 113.727C56.0771 112.914 52.9378 111.955 50.0543 110.857C47.1677 109.759 44.6828 108.573 42.5898 107.326C44.2097 109.976 46.0629 112.409 48.1169 114.605C50.171 116.799 52.4324 118.756 54.8687 120.447C56.427 121.377 58.2834 122.261 60.4347 123.081C62.5859 123.9 64.925 124.613 67.4067 125.222C65.8192 123.855 64.3451 122.199 63.0071 120.278L63.0038 120.272Z" stroke="#0500FF" stroke-width="0.36475" stroke-linecap="round" stroke-linejoin="round"/>
<path d="M48.1058 114.602C46.0517 112.409 44.1986 109.976 42.5787 107.322C40.489 106.075 38.7913 104.763 37.4922 103.415C39.2417 106.13 41.2309 108.657 43.4372 110.97L43.6478 111.191C43.8001 111.346 43.9588 111.505 44.1241 111.66L46.1068 113.611C48.7699 116.066 49.0453 116.267 53.6264 119.659C54.0119 119.925 54.4234 120.187 54.8543 120.443C52.418 118.752 50.1566 116.795 48.1025 114.602H48.1058Z" stroke="#0500FF" stroke-width="0.36475" stroke-linecap="round" stroke-linejoin="round"/>
<path d="M57.0054 121.832L55.5249 120.912L53.6328 119.652C54.0183 119.918 54.4298 120.18 54.8607 120.436L57.0054 121.829" stroke="#0500FF" stroke-width="0.36475" stroke-linecap="round" stroke-linejoin="round"/>
<path d="M86.0629 131.055C85.0068 130.281 84.0543 128.797 83.5586 127.589C80.7173 127.407 77.9148 127.119 75.2064 126.723C72.4979 126.328 69.8769 125.826 67.3984 125.22C68.9859 126.587 71.3996 128.049 73.2009 128.823" stroke="#0500FF" stroke-width="0.36475" stroke-linecap="round" stroke-linejoin="round"/>
<path d="M116.605 124.607C113.54 126.774 108.551 128.809 108.551 128.809" stroke="#0500FF" stroke-width="0.36475" stroke-linecap="round" stroke-linejoin="round"/>
<path d="M101.256 127.321C100.469 129.459 99.4453 130.486 99.4453 130.486" stroke="#0500FF" stroke-width="0.36475" stroke-linecap="round" stroke-linejoin="round"/>
<path d="M89.1566 122.751C88.8099 122.265 88.0583 121.737 87.4849 121.575L78.2417 118.993L77.9274 117.658C77.7914 117.078 77.273 116.333 76.7773 116.002L66.5104 109.153L62.9725 107.912C62.4088 107.715 61.6183 107.196 61.2133 106.759L60.5977 106.092C60.1928 105.654 59.3796 105.363 58.7899 105.447L58.3461 105.508C57.7564 105.593 56.9433 106.017 56.5383 106.454C56.1365 106.892 55.3946 106.989 54.8925 106.672L51.3319 104.42C50.8297 104.102 50.279 103.377 50.1073 102.81L48.9701 99.0548L46.0381 95.0212L47.6418 90.6669C47.7973 90.2457 47.6094 89.7144 47.2238 89.4812L46.1644 88.8429C45.8404 88.6485 45.4484 88.5999 45.0888 88.7133L42.186 90.181C42.4581 90.7738 41.0779 87.8839 41.0779 87.8839L40.8998 83.0664L40.8512 81.7121C40.8317 81.2294 41.0553 80.5166 41.3404 80.1311L42.0078 79.2337C42.2961 78.8449 42.9181 78.6051 43.3912 78.6959L45.7109 79.1494C46.1839 79.2434 46.7573 79.6678 46.9809 80.0955L49.4172 84.7478C49.6407 85.1755 50.1623 85.318 50.5706 85.0653L50.6872 84.994C51.0986 84.7413 51.4356 84.1387 51.4323 83.656V81.2164C51.4323 80.7337 51.7758 80.1505 52.2002 79.9173L55.7186 77.9993L58.2813 72.9452L60.3062 72.4268C60.7727 72.307 61.4239 71.9182 61.7479 71.5586L62.6712 70.5413C62.9952 70.1849 63.627 70.0423 64.0741 70.2238L65.3376 70.7389L69.2577 69.6892C69.7243 69.5629 69.8992 69.1255 69.6498 68.7108L67.6119 65.3738C67.3592 64.9623 66.7598 64.5865 66.2804 64.5412L64.479 64.3662L64.8354 63.9094C65.1335 63.5303 65.7685 63.2776 66.2447 63.3489L70.9748 64.0584C71.4511 64.1297 72.0828 63.8738 72.3712 63.4882L73.9846 61.3532C74.2762 60.9677 74.2956 60.3229 74.0267 59.9212L71.7751 56.5324C71.5094 56.1306 71.2502 55.4082 71.2016 54.9287L70.9262 52.2008C70.8776 51.7213 70.531 51.0798 70.1519 50.7785L66.0601 47.4966C65.6842 47.1953 65.2242 47.3119 65.0363 47.759L61.9163 55.2138C61.7706 55.5604 61.4109 56.0302 61.1129 56.2602L58.926 57.9482C58.6279 58.1782 58.3882 58.0583 58.3914 57.6825L58.4206 54.1284C58.4206 53.7526 58.2359 53.2019 58.0059 52.907L54.4421 48.3389C54.2121 48.0441 54.2218 47.5646 54.4648 47.2795L56.143 45.3032C56.386 45.0181 56.8817 44.7071 57.2478 44.6131L63.5039 43.0256C64.5406 42.7632 65.7814 41.7621 66.2609 40.8031L67.1486 39.0212C67.2523 38.8139 67.1486 38.6519 66.9186 38.6584L64.7188 38.7135C64.4888 38.7199 64.317 38.5353 64.3332 38.3085L64.6248 34.6799C64.6572 34.2814 64.3656 34.0352 63.9801 34.1356C63.7566 34.1939 63.4844 34.4045 63.3743 34.6054L62.0848 36.9737C61.9747 37.1746 61.7349 37.2264 61.5535 37.0871L57.2413 33.8149C57.0566 33.6756 57.0048 33.4002 57.1247 33.2026L57.7597 32.1464L56.8039 28.129C56.7521 27.9055 56.5286 27.6657 56.3082 27.5977L54.6786 27.0826C54.319 26.9692 54.1019 26.5772 54.1927 26.2143L55.8514 19.495C55.9421 19.1289 55.7704 18.6461 55.4724 18.4193L54.7629 17.8783C54.4648 17.6515 53.9821 17.6612 53.6937 17.901L50.2887 20.7326C50.0004 20.9723 49.4787 21.2833 49.1288 21.4226L46.5791 22.4367L41.8717 26.6808C41.5931 26.9335 41.2982 27.439 41.2173 27.8051L41.0844 28.4141C41.0034 28.7802 41.2075 28.9357 41.538 28.7576L45.0953 26.8299C45.4258 26.6517 45.6299 26.804 45.5521 27.1733L44.1979 33.4877L39.1827 42.6336L38.3209 48.8573L32.5508 59.2571L33.1015 75.9291C33.1177 76.4118 33.3186 77.1537 33.5486 77.5781L34.4396 79.2272L34.4331 75.8092C34.4331 74.9863 34.9288 74.7692 35.5346 75.32L36.0465 80.4194L36.6524 86.4487L40.1481 92.2544C40.4851 92.8117 41.2691 93.411 41.8976 93.5892C42.6978 93.8128 43.6601 94.6 44.0391 95.3387L47.415 101.922C47.7131 102.502 48.3545 103.325 48.8437 103.756L54.6786 108.875C55.1678 109.302 55.4789 110.18 55.3687 110.822L54.7888 114.256C54.6786 114.897 54.9767 115.788 55.4497 116.235L60.8116 121.325L69.9025 126.875L74.5937 128.459L75.7114 129.473C77.448 129.885 79.2072 130.225 80.9955 130.497L81.7828 128.793L86.1825 128.103L89.513 125.125C89.9568 124.727 90.0378 124.004 89.6912 123.519L89.1501 122.757L89.1566 122.751Z" stroke="#48FF91" stroke-width="0.36475" stroke-linecap="round" stroke-linejoin="round"/>
<path d="M147.517 91.6787L143.121 81.9237L142.943 81.5252C142.535 80.618 141.41 80.0673 140.442 80.3005L136.408 81.2725C135.88 81.3988 135.482 81.0619 135.517 80.5208L135.802 76.4387L133.726 71.9354C133.512 71.4688 132.925 70.9958 132.423 70.8857C131.976 70.7852 131.464 71.0477 131.286 71.4688L128.331 78.3696C127.713 79.8146 126.015 81.4798 124.56 82.0727L115.502 85.7596C114.951 85.9832 114.241 86.5825 113.93 87.0912L111.416 91.1863L108.102 96.5903C107.341 97.8344 106.602 100.037 106.463 101.492L105.782 108.633C105.734 109.161 106.045 109.844 106.476 110.152L111.063 113.424C111.494 113.732 112.252 113.832 112.751 113.645L121.013 110.534C121.57 110.324 122.506 110.24 123.093 110.346L125.448 110.777C126.034 110.884 126.336 111.425 126.115 111.979L125.438 113.7C125.218 114.254 125.066 115.196 125.098 115.789L125.156 116.923C125.189 117.519 124.881 118.362 124.473 118.799L120.899 122.629L119.344 124.718C134.257 117.506 146.017 104.81 152.014 89.2489L148.988 91.9833C148.467 92.4563 147.803 92.317 147.514 91.6755L147.517 91.6787Z" stroke="#48FF91" stroke-width="0.36475" stroke-linecap="round" stroke-linejoin="round"/>
<path d="M70.3527 48.1854C70.9715 49.0602 71.9078 49.0116 72.4359 48.0785L75.2772 43.0471C75.4651 42.7166 75.4942 42.1561 75.3452 41.8062L74.4769 39.7684C74.3182 39.3991 74.4024 38.8418 74.6584 38.5308L74.8204 38.3364C75.0795 38.0286 75.2059 37.4552 75.1055 37.0664L73.8419 32.2229C73.7415 31.8341 73.3754 31.3449 73.0288 31.1376L72.4132 30.7682C72.0665 30.5609 71.506 30.5674 71.1659 30.7812L68.1917 32.6635C67.5276 33.0847 67.5017 33.8104 68.1334 34.2769L70.0741 35.7122C70.4693 36.0038 70.7965 36.6452 70.803 37.1345L70.8322 39.6777C70.8386 40.1669 70.4596 40.6918 69.9898 40.8408L69.3192 41.0514C68.8526 41.2004 68.2727 41.6702 68.0297 42.0978L67.5859 42.8851C67.3461 43.3128 67.3785 43.9899 67.6636 44.3916L70.3494 48.1887L70.3527 48.1854Z" stroke="#48FF91" stroke-width="0.36475" stroke-linecap="round" stroke-linejoin="round"/>
<path d="M60.2041 31.1837L61.7009 32.1977C62.135 32.4926 62.7506 32.3921 63.0713 31.9807L66.2755 27.8532C66.5671 27.4774 66.4829 26.9525 66.0908 26.6836L64.5811 25.6533L65.2096 23.9362L64.9148 23.2494C64.7658 22.8995 64.364 22.757 64.0271 22.9287L61.5486 24.2019C61.0821 24.4417 60.7452 25.0637 60.797 25.5853L61.0141 27.7949L59.8801 29.8197C59.6242 30.2765 59.77 30.8889 60.2041 31.1837Z" stroke="#48FF91" stroke-width="0.36475" stroke-linecap="round" stroke-linejoin="round"/>
<path d="M70.3618 26.8555L72.6329 28.5629C72.9537 28.8026 73.5109 28.8642 73.877 28.6989L74.2885 28.511C74.6513 28.3458 75.1729 27.97 75.4418 27.6752L76.1546 26.9008C76.4267 26.606 76.9321 26.2043 77.2788 26.0067L83.7552 22.3522C84.1018 22.1545 84.1893 21.7366 83.9431 21.4191L83.5964 20.972C83.3502 20.6545 82.8253 20.3726 82.4268 20.3402L79.0736 20.0746C78.6751 20.0422 78.173 20.2949 77.9591 20.6318L76.1222 23.5412C75.9084 23.8781 75.4386 24.309 75.053 24.4127L70.2905 25.7248C69.905 25.8317 69.6458 26.3112 70.3618 26.849V26.8555Z" stroke="#48FF91" stroke-width="0.36475" stroke-linecap="round" stroke-linejoin="round"/>
<path d="M79.3534 26.8435C79.0294 27.08 78.7702 27.5983 78.7735 28.0001L78.7864 28.9688C78.7929 29.3673 79.1007 29.8111 79.4765 29.9504L80.497 30.3327C81.0413 30.5368 81.4755 31.1751 81.4625 31.755L81.32 39.1806C81.3135 39.5403 81.1158 40.0619 80.8793 40.334L79.5543 41.8729C79.3178 42.1451 79.1428 42.6634 79.1622 43.0263L79.632 51.4271C79.6515 51.7867 79.9009 52.2662 80.1828 52.4897L82.726 54.4984C83.0079 54.722 83.3416 54.628 83.4647 54.2878L86.1311 46.9108C86.2542 46.5706 86.5846 46.1106 86.8697 45.887L93.8612 40.3502C94.3148 39.9906 94.48 39.2713 94.2273 38.7497L93.1226 36.4754C92.9638 36.1514 93.0416 35.6719 93.291 35.4127L93.9681 34.7097C94.2176 34.4505 94.4379 33.9419 94.4574 33.5823L94.8882 25.2333C94.9077 24.8348 94.6388 24.3488 94.2889 24.1577L91.4411 22.6026C91.0912 22.4114 90.4789 22.3013 90.0836 22.3628L85.036 23.1242C84.6407 23.1825 84.0511 23.4255 83.7304 23.662L79.3534 26.8467V26.8435Z" stroke="#48FF91" stroke-width="0.36475" stroke-linecap="round" stroke-linejoin="round"/>
<path d="M97.2516 45.8118L95.0874 46.7286L94.4881 46.518C94.1479 46.3982 93.7494 46.5699 93.6036 46.9003L93.3477 47.477L94.7472 49.5796C94.9481 49.8809 95.4049 50.1077 95.7645 50.0883L98.0518 49.9522C98.4115 49.9295 98.7549 49.6218 98.8164 49.2654L99.189 47.0332L98.2981 46.045C98.0551 45.7761 97.5853 45.6724 97.2549 45.815L97.2516 45.8118Z" stroke="#48FF91" stroke-width="0.36475" stroke-linecap="round" stroke-linejoin="round"/>
<path d="M107.178 50.6987L109.087 52.2862C109.365 52.5162 109.44 52.9601 109.252 53.2678L108.882 53.8802L109.365 56.5044C109.472 57.0908 109.997 57.35 110.528 57.0811L112.378 56.1448C112.91 55.8759 113.253 55.1793 113.136 54.5929L113.023 54.0162C112.91 53.4331 112.472 52.6069 112.054 52.1825L109.398 49.4935C109.145 49.2375 108.86 48.7418 108.763 48.3952L108.584 47.7472C108.49 47.4006 108.131 47.028 107.784 46.9178L107.045 46.6878C106.702 46.5809 106.44 46.7882 106.462 47.1479L106.624 49.6198C106.647 49.9794 106.893 50.4622 107.172 50.6954L107.178 50.6987Z" stroke="#48FF91" stroke-width="0.36475" stroke-linecap="round" stroke-linejoin="round"/>
<path d="M107.192 55.7877C107.496 55.5933 107.72 55.143 107.687 54.7834L107.512 52.8136C107.48 52.454 107.185 52.0393 106.858 51.8902L106.757 51.8449C106.43 51.6958 105.999 51.8222 105.805 52.1235L104.895 53.536L105.183 56.3709C105.219 56.7305 105.5 56.8666 105.802 56.6722L107.192 55.7877Z" stroke="#48FF91" stroke-width="0.36475" stroke-linecap="round" stroke-linejoin="round"/>
<path d="M123.954 9.13129L116.191 6.73383L112.297 6.52325C111.655 6.48761 111.448 6.87962 111.834 7.39151L114.448 10.8549C114.698 11.1853 114.905 11.7976 114.911 12.2123L114.921 13.4629C114.921 13.816 115.112 14.3279 115.339 14.5968L117.296 16.9295L117.681 17.801L120.053 19.6574C120.84 20.2762 120.707 20.5289 119.752 20.2276L118.258 19.7514C117.921 19.6444 117.652 19.8453 117.659 20.1985L117.681 21.2773L120.652 23.7687C120.837 23.9242 120.892 24.2223 120.772 24.4329L120.468 24.9739C120.341 25.1975 120.29 25.583 120.354 25.8325L120.733 27.3131C120.798 27.5625 120.646 27.8152 120.396 27.8735L120.17 27.9286C119.745 28.0291 119.658 28.3595 119.975 28.6608L120.426 29.0852C120.743 29.3865 121.067 29.9827 121.148 30.4135L121.42 31.9136C121.527 32.5 121.129 33.041 120.539 33.1188L119.787 33.216L118.086 32.1922C117.652 31.9298 117.701 31.6317 118.2 31.5248L119.467 31.2591L119.632 30.9546C119.842 30.5691 119.71 30.0636 119.34 29.8304L117.63 28.745L112.2 28.8779C111.947 28.8844 111.688 29.0885 111.623 29.3315L110.622 33.0475C110.509 33.4687 110.68 34.0551 111.004 34.3499C111.15 34.4795 111.299 34.7452 111.341 34.9331L111.876 37.418L110.528 41.1924C110.382 41.6038 110.447 42.2453 110.677 42.6179L112.427 45.4559C112.657 45.8285 113.178 46.0067 113.586 45.848L114.283 45.5823C114.691 45.4268 115.278 45.5531 115.585 45.8642L117.753 48.051L118.66 47.3091L118.556 43.8814C118.543 43.444 118.297 42.8155 118.012 42.485L116.126 40.3111L115.747 35.6005C115.712 35.1728 116.013 34.9493 116.411 35.0983L116.765 35.2311L118.527 39.7831C118.686 40.1913 119.169 40.58 119.599 40.6481L119.998 40.7096C120.429 40.7777 120.798 41.1924 120.818 41.6297L120.831 41.9084L121.828 43.1557C122.101 43.4991 122.023 43.9689 121.653 44.2021C121.362 44.3868 121.18 44.8145 121.258 45.1514L121.828 47.7335C121.903 48.0705 121.699 48.4495 121.378 48.5759L118.417 49.726C118.018 49.8815 117.487 49.726 117.238 49.3761L116.8 48.7703C116.551 48.4236 116.33 48.4884 116.314 48.9161L116.172 52.3211L114.766 56.1117C114.558 56.6689 114.037 57.4659 113.609 57.8773L111.38 60.0189C110.949 60.4303 111.011 61.0297 111.516 61.3472L111.999 61.6517C112.504 61.9692 113.065 62.6917 113.249 63.2587L113.771 64.8656C113.956 65.4326 113.645 66.0546 113.081 66.2522L110.259 67.2307C109.695 67.425 109.281 68.073 109.333 68.6659L109.802 73.9597C109.854 74.5526 110.347 75.2297 110.894 75.463L113 76.3572C113.547 76.5904 114.338 76.4317 114.753 76.004L117.059 73.639L116.807 70.4348C116.781 70.0914 116.91 69.5698 117.095 69.2782L120.607 63.7738H121.621C121.977 63.777 122.512 63.9455 122.807 64.1464L126.96 66.9812L127.945 68.4845C128.14 68.7825 128.337 68.7372 128.386 68.384L128.681 66.1356C128.726 65.7825 128.502 65.3613 128.185 65.2025L123.52 62.8731C123.212 62.7176 122.985 62.3126 123.017 61.966L123.082 61.2824C123.131 60.764 123.533 60.5696 123.973 60.845L127.492 63.0578C127.793 63.2489 128.221 63.6345 128.441 63.9163L131.862 68.3095L132.63 68.1184C132.977 68.0309 133.161 67.6842 133.041 67.3505L132.128 64.7749C132.008 64.4379 132.108 63.9487 132.351 63.6863L132.986 63.0027L133.991 65.0082C134.149 65.3289 134.541 65.7242 134.856 65.8894L136.589 66.7998C136.906 66.965 137.376 66.9002 137.635 66.6572L139.272 65.1183C139.531 64.8753 139.842 64.9498 139.958 65.2868L141.099 68.5525C141.215 68.8894 141.215 69.4402 141.099 69.7771L140.328 71.9802C140.159 72.4629 140.24 73.2178 140.512 73.6519L141.322 74.9479C141.449 75.1487 141.721 75.2265 141.935 75.1196L142.32 74.9284C142.534 74.8215 142.806 74.9057 142.923 75.1163L145.845 80.3292L148.11 84.366L148.194 86.6889C148.207 87.0453 148.508 87.3369 148.868 87.3401C149.38 87.3401 149.927 86.9416 150.083 86.4524L153.983 74.2254L153.99 73.0429L154.006 70.3959C154.006 69.9327 153.783 69.2523 153.504 68.8797L152.292 67.2728C152.014 66.9034 151.664 66.9585 151.518 67.3991L150.86 69.3786C150.714 69.8193 150.374 69.8679 150.109 69.492L148.132 66.6993C147.863 66.3203 148.022 65.9769 148.485 65.9315L152.146 65.5816C152.607 65.5362 153.161 65.1637 153.374 64.7522L153.974 63.5956C154.188 63.1841 154.505 63.1971 154.68 63.628L156.323 67.6518L156.358 67.7425C156.361 67.6292 156.365 67.5158 156.368 67.3991C156.384 66.8257 156.394 66.2522 156.394 65.6756C156.394 41.5617 143.367 20.4933 123.967 9.11509L123.954 9.13129Z" stroke="#48FF91" stroke-width="0.36475" stroke-linecap="round" stroke-linejoin="round"/>
<path d="M49.6373 91.3567C49.9807 91.0198 50.5121 90.9615 50.9203 91.2174L54.1633 93.2488L57.5651 96.3752C57.8081 96.5987 57.7368 96.7899 57.4064 96.7931L56.01 96.8158C55.8415 96.8158 55.605 96.7251 55.4852 96.6085L51.4516 92.7434L49.6244 92.238C49.3166 92.1537 49.2161 91.765 49.4462 91.5414C49.511 91.4798 49.5758 91.4151 49.6406 91.3535L49.6373 91.3567Z" stroke="#48FF91" stroke-width="0.36475" stroke-linecap="round" stroke-linejoin="round"/>
<path d="M59.8065 98.015C59.5052 97.8789 59.0484 97.9404 58.7957 98.1575L58.4944 98.4134C58.2417 98.6273 58.2676 98.9448 58.5495 99.1197L60.2536 100.156C60.5387 100.328 61.0376 100.438 61.3681 100.396L63.6651 100.114C63.9956 100.075 64.0182 99.9297 63.7137 99.7904L59.8033 98.015H59.8065Z" stroke="#48FF91" stroke-width="0.36475" stroke-linecap="round" stroke-linejoin="round"/>
<path d="M90.8518 131.223C127.044 131.223 156.383 101.884 156.383 65.6916C156.383 29.4996 127.044 0.160156 90.8518 0.160156C54.6598 0.160156 25.3203 29.4996 25.3203 65.6916C25.3203 101.884 54.6598 131.223 90.8518 131.223Z" stroke="#0500FF" stroke-width="0.36475" stroke-linecap="round" stroke-linejoin="round"/>
<path d="M174.685 81.1526L173.11 80.7768C172.498 83.3394 165.419 85.7369 147.386 84.7844C130.996 83.9194 109.72 80.5176 87.4825 75.2075C65.2445 69.9007 44.7268 63.3239 29.7103 56.6921C13.1874 49.396 7.95832 44.0601 8.57064 41.4974L6.99609 41.1216C5.69045 46.5871 18.2738 53.4134 29.0591 58.1727C44.1631 64.8434 64.778 71.4526 87.1099 76.7821C109.442 82.1116 130.818 85.5295 147.305 86.3978C159.079 87.0199 173.386 86.6149 174.691 81.1493L174.685 81.1526Z" fill="#48FF91"/>
<path d="M6.98438 41.1254C5.67873 46.591 18.2621 53.4172 29.0474 58.1765C44.1514 64.8473 64.7662 71.4564 87.0982 76.7859C109.43 82.1154 130.806 85.5334 147.294 86.4017C159.067 87.0237 173.374 86.6187 174.68 81.1532" stroke="#0500FF" stroke-width="0.36475" stroke-miterlimit="10"/>
<path d="M173.111 80.7773C172.498 83.34 165.419 85.7375 147.387 84.785C130.996 83.92 109.721 80.5182 87.4827 75.2081C65.2447 69.9013 44.727 63.3245 29.7105 56.6927C13.1875 49.3966 7.9585 44.0607 8.57082 41.498" stroke="#0500FF" stroke-width="0.36475" stroke-miterlimit="10"/>
<path d="M9.23438 88.9332C12.8208 99.4496 24.7498 106.38 42.8279 108.443C60.6954 110.481 82.4669 107.539 104.131 100.153C125.887 92.7368 144.969 81.7247 157.864 69.1445C170.816 56.5061 175.987 43.7769 172.417 33.3091L170.884 33.8307C174.241 43.6764 169.216 55.8063 156.733 67.9847C144.007 80.4028 125.142 91.2821 103.61 98.6203C82.1655 105.929 60.6468 108.848 43.0125 106.833C25.5921 104.844 14.1394 98.3028 10.7668 88.4084L9.23438 88.93V88.9332Z" fill="#48FF91"/>
<path d="M170.883 33.8296C174.24 43.6753 169.215 55.8052 156.732 67.9836C144.006 80.4017 125.14 91.281 103.609 98.6191C82.1644 105.928 60.6456 108.847 43.0114 106.832C25.591 104.843 14.1383 98.3016 10.7656 88.4073" stroke="#0500FF" stroke-width="0.36475" stroke-miterlimit="10"/>
<path d="M9.23438 88.9332C12.8208 99.4496 24.7498 106.38 42.8279 108.443C60.6954 110.481 82.4668 107.539 104.131 100.153C125.887 92.7368 144.969 81.7247 157.864 69.1445C170.816 56.5061 175.987 43.7769 172.417 33.3091" stroke="#0500FF" stroke-width="0.36475" stroke-miterlimit="10"/>
<path d="M78.707 108.731L81.5807 106.036L83.5408 111.171L80.6671 113.866L78.707 108.731Z" fill="#48FF8E" stroke="#0500FF" stroke-width="0.36475" stroke-linecap="round" stroke-linejoin="round"/>
<path d="M71.9662 103.375C74.5678 103.42 77.6002 105.831 78.7083 108.73L80.6683 113.865L62.0913 113.541L60.1312 108.406C59.0232 105.507 60.2479 103.171 62.8494 103.216L71.9662 103.375Z" fill="#1B1B1C" stroke="#0500FF" stroke-width="0.36475" stroke-linecap="round" stroke-linejoin="round"/>
<path d="M74.8342 100.676L65.7174 100.518C64.7973 100.501 64.0457 100.783 63.5143 101.286L60.6406 103.984C61.1752 103.482 61.9236 103.2 62.8437 103.216L71.9605 103.375C74.5621 103.421 77.5945 105.831 78.7025 108.731L81.5762 106.032C80.4682 103.132 77.4358 100.722 74.8342 100.676Z" fill="#48FF8E" stroke="#0500FF" stroke-width="0.36475" stroke-linecap="round" stroke-linejoin="round"/>
<path d="M74.8342 100.676L65.7174 100.518C64.7973 100.501 64.0457 100.783 63.5143 101.286L60.6406 103.984C61.1752 103.482 61.9236 103.2 62.8437 103.216L71.9605 103.375L74.8342 100.676Z" fill="#0500FF" stroke="#0500FF" stroke-width="0.36475" stroke-linecap="round" stroke-linejoin="round"/>
<path d="M72.8842 91.4396C71.4425 87.6587 67.5223 84.5453 64.1302 84.4869C62.925 84.4675 61.9498 84.8336 61.2565 85.4848L58.3828 88.1836C59.0761 87.5324 60.0513 87.1663 61.2565 87.1857C64.6486 87.244 68.5687 90.3575 70.0105 94.1383C70.9403 96.5779 70.6131 98.7 69.3528 99.8857L72.2265 97.187C73.4868 96.0044 73.814 93.8824 72.8842 91.4396Z" fill="#48FF8E" stroke="#0500FF" stroke-width="0.36475" stroke-linecap="round" stroke-linejoin="round"/>
<path d="M70.5144 97.4015L73.3881 94.7027C73.4724 93.9446 73.3914 93.0926 73.1354 92.1887L70.2617 94.8874C70.5177 95.7946 70.5987 96.6434 70.5144 97.4015Z" fill="#0500FF" stroke="#0500FF" stroke-width="0.36475" stroke-linecap="round" stroke-linejoin="round"/>
<path d="M61.2574 87.1841C64.6495 87.2424 68.5697 90.3559 70.0114 94.1367C71.4531 97.9176 69.8753 100.937 66.4832 100.879C63.0912 100.82 59.171 97.7037 57.7293 93.9229C56.2876 90.142 57.8654 87.1225 61.2574 87.1841Z" fill="#1B1B1C" stroke="#0500FF" stroke-width="0.36475" stroke-linecap="round" stroke-linejoin="round"/>
<path d="M26.6211 44.9982L29.0509 43.8092C29.5952 43.5436 30.2529 43.5047 30.9106 43.7541L28.4807 44.9432C27.8231 44.6905 27.1654 44.7293 26.6211 44.9982Z" fill="#48FF8E" stroke="#0500FF" stroke-width="0.36475" stroke-linecap="round" stroke-linejoin="round"/>
<path d="M50.9157 75.9322L53.3455 74.7432L52.0464 80.9215L49.6133 82.1105L50.9157 75.9322Z" fill="#0500FF" stroke="#0500FF" stroke-width="0.36475" stroke-linecap="round" stroke-linejoin="round"/>
<path d="M51.5368 72.9888L53.9699 71.7998L53.3478 74.7415L50.918 75.9306L51.5368 72.9888Z" fill="#0500FF" stroke="#0500FF" stroke-width="0.36475" stroke-linecap="round" stroke-linejoin="round"/>
<path d="M54.7127 57.8995L57.1426 56.7104L53.9643 71.8014L51.5312 72.9905L54.7127 57.8995Z" fill="#0500FF" stroke="#0500FF" stroke-width="0.36475" stroke-linecap="round" stroke-linejoin="round"/>
<path d="M52.7436 54.2311C54.1399 54.7656 55.0276 56.4147 54.7134 57.8985L51.5351 72.9895L50.9163 75.9312L49.6139 82.1096L45.1009 73.7055L24.1102 65.674C22.7139 65.1395 21.8294 63.4872 22.1404 62.0066L25.3705 46.6694C25.6848 45.1855 27.0811 44.4112 28.4775 44.9425L52.7436 54.2311Z" fill="#48FF8E" stroke="#0500FF" stroke-width="0.36475" stroke-linecap="round" stroke-linejoin="round"/>
<path d="M29.457 53.519L49.1874 61.071" stroke="#0500FF" stroke-width="0.36475" stroke-linecap="round" stroke-linejoin="round"/>
<path d="M28.9648 55.8491L38.046 59.3254" stroke="#0500FF" stroke-width="0.36475" stroke-linecap="round" stroke-linejoin="round"/>
<path d="M39.7188 59.9639L48.7967 63.4369" stroke="#0500FF" stroke-width="0.36475" stroke-linecap="round" stroke-linejoin="round"/>
<path d="M28.4766 58.1772L41.8019 63.2767" stroke="#0500FF" stroke-width="0.36475" stroke-linecap="round" stroke-linejoin="round"/>
<path d="M55.1725 53.0429L30.9064 43.7544L28.4766 44.9434L52.7427 54.2319C54.139 54.7665 55.0267 56.4155 54.7125 57.8994L57.1423 56.7104C57.4566 55.2265 56.5689 53.5775 55.1725 53.0429Z" fill="#48FF8E" stroke="#0500FF" stroke-width="0.36475" stroke-linecap="round" stroke-linejoin="round"/>
<path d="M56.9377 54.812L54.5078 56.001C54.6374 56.312 54.7249 56.6393 54.7573 56.9762L57.1871 55.7872C57.1547 55.4535 57.0673 55.123 56.9377 54.812Z" fill="#0500FF" stroke="#0500FF" stroke-width="0.36475" stroke-linecap="round" stroke-linejoin="round"/>
<path d="M9.96536 48.4576C11.191 48.4576 12.1846 47.464 12.1846 46.2383C12.1846 45.0126 11.191 44.019 9.96536 44.019C8.73969 44.019 7.74609 45.0126 7.74609 46.2383C7.74609 47.464 8.73969 48.4576 9.96536 48.4576Z" fill="#2D9FFF"/>
<path d="M9.96888 44.019C9.35656 44.019 8.80255 44.2685 8.40082 44.6702C8.01204 45.059 8.40082 46.0731 9.26909 46.9413C10.1374 47.8096 11.1514 48.1952 11.5402 47.8096C11.9419 47.4079 12.1914 46.8539 12.1914 46.2415C12.1914 45.0169 11.1968 44.0223 9.97212 44.0223L9.96888 44.019Z" fill="#48FF91"/>
<path d="M9.96536 48.4576C11.191 48.4576 12.1846 47.464 12.1846 46.2383C12.1846 45.0126 11.191 44.019 9.96536 44.019C8.73969 44.019 7.74609 45.0126 7.74609 46.2383C7.74609 47.464 8.73969 48.4576 9.96536 48.4576Z" stroke="#0500FF" stroke-width="0.2918" stroke-miterlimit="10"/>
<path d="M136.063 86.8946C137.289 86.8946 138.282 85.901 138.282 84.6753C138.282 83.4497 137.289 82.4561 136.063 82.4561C134.837 82.4561 133.844 83.4497 133.844 84.6753C133.844 85.901 134.837 86.8946 136.063 86.8946Z" fill="#2D9FFF"/>
<path d="M136.067 82.4561C135.454 82.4561 134.9 82.7055 134.498 83.1073C134.11 83.496 134.498 84.5101 135.367 85.3784C136.235 86.2466 137.249 86.6322 137.638 86.2466C138.04 85.8449 138.289 85.2909 138.289 84.6786C138.289 83.4539 137.294 82.4593 136.07 82.4593L136.067 82.4561Z" fill="#48FF91"/>
<path d="M136.063 86.8946C137.289 86.8946 138.282 85.901 138.282 84.6753C138.282 83.4497 137.289 82.4561 136.063 82.4561C134.837 82.4561 133.844 83.4497 133.844 84.6753C133.844 85.901 134.837 86.8946 136.063 86.8946Z" stroke="#0500FF" stroke-width="0.2918" stroke-miterlimit="10"/>
<path d="M64.1568 71.9947C65.3824 71.9947 66.376 71.0011 66.376 69.7754C66.376 68.5497 65.3824 67.5562 64.1568 67.5562C62.9311 67.5562 61.9375 68.5497 61.9375 69.7754C61.9375 71.0011 62.9311 71.9947 64.1568 71.9947Z" fill="#2D9FFF"/>
<path d="M64.1603 67.5562C63.548 67.5562 62.994 67.8056 62.5922 68.2074C62.2034 68.5961 62.5922 69.6102 63.4605 70.4785C64.3288 71.3467 65.3428 71.7323 65.7316 71.3467C66.1333 70.945 66.3828 70.391 66.3828 69.7787C66.3828 68.554 65.3882 67.5594 64.1635 67.5594L64.1603 67.5562Z" fill="#48FF91"/>
<path d="M64.1568 71.9947C65.3824 71.9947 66.376 71.0011 66.376 69.7754C66.376 68.5497 65.3824 67.5562 64.1568 67.5562C62.9311 67.5562 61.9375 68.5497 61.9375 69.7754C61.9375 71.0011 62.9311 71.9947 64.1568 71.9947Z" stroke="#0500FF" stroke-width="0.2918" stroke-miterlimit="10"/>
<path d="M148.368 18.2061C149.593 18.2061 150.587 17.2125 150.587 15.9868C150.587 14.7612 149.593 13.7676 148.368 13.7676C147.142 13.7676 146.148 14.7612 146.148 15.9868C146.148 17.2125 147.142 18.2061 148.368 18.2061Z" fill="#2D9FFF"/>
<path d="M148.371 13.7676C147.759 13.7676 147.205 14.017 146.803 14.4188C146.414 14.8076 146.803 15.8216 147.671 16.6899C148.54 17.5581 149.554 17.9437 149.943 17.5581C150.344 17.1564 150.594 16.6024 150.594 15.9901C150.594 14.7654 149.599 13.7708 148.374 13.7708L148.371 13.7676Z" fill="#48FF91"/>
<path d="M148.368 18.2061C149.593 18.2061 150.587 17.2125 150.587 15.9868C150.587 14.7612 149.593 13.7676 148.368 13.7676C147.142 13.7676 146.148 14.7612 146.148 15.9868C146.148 17.2125 147.142 18.2061 148.368 18.2061Z" stroke="#0500FF" stroke-width="0.2918" stroke-miterlimit="10"/>
<path d="M55.145 110.319C56.3707 110.319 57.3643 109.326 57.3643 108.1C57.3643 106.874 56.3707 105.881 55.145 105.881C53.9194 105.881 52.9258 106.874 52.9258 108.1C52.9258 109.326 53.9194 110.319 55.145 110.319Z" fill="#2D9FFF"/>
<path d="M55.1486 105.881C54.5362 105.881 53.9822 106.13 53.5805 106.532C53.1917 106.921 53.5805 107.935 54.4488 108.803C55.317 109.671 56.3311 110.057 56.7199 109.671C57.1216 109.27 57.3711 108.716 57.3711 108.103C57.3711 106.879 56.3765 105.884 55.1518 105.884L55.1486 105.881Z" fill="#48FF91"/>
<path d="M55.145 110.319C56.3707 110.319 57.3643 109.326 57.3643 108.1C57.3643 106.874 56.3707 105.881 55.145 105.881C53.9194 105.881 52.9258 106.874 52.9258 108.1C52.9258 109.326 53.9194 110.319 55.145 110.319Z" stroke="#0500FF" stroke-width="0.2918" stroke-miterlimit="10"/>
<path d="M158.934 33.9741L161.412 35.3737L158.963 41.646L156.484 40.2464L158.934 33.9741Z" fill="#48FF8E" stroke="#0500FF" stroke-width="0.36475" stroke-linecap="round" stroke-linejoin="round"/>
<path d="M172.461 13.9905C172.376 13.6859 172.208 13.4721 171.994 13.3522L169.516 11.9526C169.733 12.0757 169.898 12.2896 169.982 12.5909L172.464 21.3837L174.942 22.7833L172.461 13.9905Z" fill="#48FF8E" stroke="#0500FF" stroke-width="0.36475" stroke-linecap="round" stroke-linejoin="round"/>
<path d="M171.387 24.1235L173.866 25.5231L161.412 35.3721L158.934 33.9725L171.387 24.1235Z" fill="#0500FF" stroke="#0500FF" stroke-width="0.36475" stroke-linecap="round" stroke-linejoin="round"/>
<path d="M168.646 11.9C169.258 11.7024 169.799 11.9486 169.981 12.5901L172.462 21.3829C172.702 22.235 172.219 23.4661 171.393 24.1206L158.939 33.9696L156.49 40.2418L155.492 36.7007L155.016 35.0128L152.573 26.3593C152.333 25.5072 152.816 24.2761 153.642 23.6216L168.04 12.2337C168.244 12.0717 168.448 11.9616 168.649 11.8968L168.646 11.9Z" fill="#48FF8E" stroke="#0500FF" stroke-width="0.36475" stroke-linecap="round" stroke-linejoin="round"/>
<path d="M156.648 26.6534L168.386 17.3682" stroke="#0500FF" stroke-width="0.36475" stroke-linecap="round" stroke-linejoin="round"/>
<path d="M157.09 28.4403L165.008 22.1777" stroke="#0500FF" stroke-width="0.36475" stroke-linecap="round" stroke-linejoin="round"/>
<path d="M152.629 26.5835L155.01 35.0167L155.483 36.7014L156.484 40.2457L158.934 33.9735L162.656 31.0317L152.629 26.5835Z" fill="#2D9FFF"/>
<path d="M172.456 21.383L174.934 22.7826C175.174 23.6347 174.691 24.8658 173.865 25.5202L171.387 24.1206C172.216 23.4629 172.696 22.2318 172.456 21.383Z" fill="#48FF8E" stroke="#0500FF" stroke-width="0.36475" stroke-linecap="round" stroke-linejoin="round"/>
<path d="M174.494 24.8194C174.653 24.5731 174.782 24.3042 174.867 24.0353L172.388 22.6357C172.301 22.9079 172.174 23.1735 172.016 23.4198L174.494 24.8194Z" fill="#0500FF" stroke="#0500FF" stroke-width="0.36475" stroke-linecap="round" stroke-linejoin="round"/>
<path d="M168.646 11.9C169.258 11.7024 169.799 11.9486 169.981 12.5901L172.462 21.3829C172.702 22.235 172.219 23.4661 171.393 24.1206L158.939 33.9696L156.49 40.2418L155.492 36.7007L155.016 35.0128L152.573 26.3593C152.333 25.5072 152.816 24.2761 153.642 23.6216L168.04 12.2337C168.244 12.0717 168.448 11.9616 168.649 11.8968L168.646 11.9Z" stroke="#0500FF" stroke-width="0.36475" stroke-linecap="round" stroke-linejoin="round"/>
<path d="M174.725 51.9905C178.114 53.2897 178.674 56.5781 175.982 59.3319C173.29 62.0858 168.355 63.265 164.97 61.9626C161.584 60.6635 161.02 57.3751 163.716 54.6213C166.411 51.8674 171.339 50.6881 174.728 51.9873L174.725 51.9905Z" fill="#48FF8E"/>
<path d="M177.548 54.7305L178.646 58.4951C179.061 59.9109 178.562 61.5859 177.081 63.0989C174.386 65.8527 169.455 67.032 166.069 65.7296C164.543 65.1432 163.591 64.1551 163.251 62.992L162.152 59.2273C162.493 60.3904 163.445 61.3785 164.971 61.9649C168.36 63.2641 173.291 62.0881 175.983 59.3342C177.464 57.8212 177.959 56.1495 177.548 54.7305Z" fill="#48FF8E" stroke="#0500FF" stroke-width="0.36475" stroke-linecap="round" stroke-linejoin="round"/>
<path d="M169.957 67.583L171.056 71.3477C171.376 72.4395 170.994 73.7322 169.86 74.892L168.762 71.1274C169.899 69.9675 170.278 68.6748 169.957 67.583Z" fill="#48FF8E" stroke="#0500FF" stroke-width="0.36475" stroke-linecap="round" stroke-linejoin="round"/>
<path d="M167.79 65.4755C170.389 66.4734 170.826 69.0166 168.759 71.129L165.098 74.8709L146.547 67.7499L150.208 64.0079C152.275 61.8955 156.091 60.9819 158.69 61.9798L167.794 65.4723L167.79 65.4755Z" fill="#48FF8E"/>
<path d="M168.759 71.1284L169.857 74.8931L166.196 78.635L165.098 74.8704L168.759 71.1284Z" fill="#48FF8E" stroke="#0500FF" stroke-width="0.36475" stroke-linecap="round" stroke-linejoin="round"/>
<path d="M165.098 74.8692L166.196 78.6338L147.645 71.5128L146.547 67.7481L165.098 74.8692Z" fill="#1B1B1C" stroke="#0500FF" stroke-width="0.36475" stroke-linecap="round" stroke-linejoin="round"/>
<path d="M158.69 61.9835C156.091 60.9856 152.275 61.8993 150.208 64.0116L146.547 67.7536L147.166 67.9901L159.639 62.3496L158.69 61.9835Z" fill="#2D9FFF"/>
<path d="M174.728 51.9903C171.342 50.6911 166.411 51.8672 163.716 54.6242C161.639 56.7463 161.497 59.1859 163.091 60.7863L177.394 54.3197C176.967 53.338 176.069 52.5086 174.725 51.9935L174.728 51.9903Z" fill="#2D9FFF"/>
<path d="M174.725 51.9905C178.114 53.2897 178.674 56.5781 175.982 59.3319C173.29 62.0858 168.355 63.265 164.97 61.9626C161.584 60.6635 161.02 57.3751 163.716 54.6213C166.411 51.8674 171.339 50.6881 174.728 51.9873L174.725 51.9905Z" stroke="#0500FF" stroke-width="0.36475" stroke-linecap="round" stroke-linejoin="round"/>
<path d="M167.79 65.4755C170.389 66.4734 170.826 69.0166 168.759 71.129L165.098 74.8709L146.547 67.7499L150.208 64.0079C152.275 61.8955 156.091 60.9819 158.69 61.9798L167.794 65.4723L167.79 65.4755Z" stroke="#0500FF" stroke-width="0.36475" stroke-linecap="round" stroke-linejoin="round"/>
<path d="M14.1444 64.346C16.2859 63.3481 17.0797 64.2877 15.9198 66.4454C14.76 68.6031 12.0871 71.1625 9.94564 72.1604C7.80413 73.1582 7.01037 72.2187 8.17022 70.0578C9.33007 67.9001 12.0029 65.3438 14.1412 64.346H14.1444Z" fill="#48FF8E" stroke="#0500FF" stroke-width="0.36475" stroke-linecap="round" stroke-linejoin="round"/>
<path d="M16.2433 64.1812L18.7282 66.7374C19.0846 67.1035 19.0069 67.894 18.4107 69.002C17.2509 71.1597 14.5781 73.7191 12.4365 74.717C11.3998 75.1997 10.6773 75.2289 10.3404 74.8822L7.85547 72.326C8.19241 72.6727 8.91164 72.6435 9.95162 72.1608C12.0931 71.1629 14.766 68.6035 15.9258 66.4458C16.5219 65.3345 16.5997 64.5472 16.2433 64.1812Z" fill="#48FF8E"/>
<path d="M13.1135 69.9114C12.08 70.8704 10.9557 71.6901 9.94493 72.1599C9.71814 72.2635 9.51079 72.3445 9.31641 72.4061L11.8013 74.9623C11.9957 74.9007 12.2031 74.8197 12.4299 74.7161C13.4407 74.2463 14.5649 73.4266 15.5984 72.4676L13.1135 69.9114Z" fill="#1B1B1C"/>
<path d="M16.2433 64.1812L18.7282 66.7374C19.0846 67.1035 19.0069 67.894 18.4107 69.002C17.2509 71.1597 14.5781 73.7191 12.4365 74.717C11.3998 75.1997 10.6773 75.2289 10.3404 74.8822L7.85547 72.326C8.19241 72.6727 8.91164 72.6435 9.95162 72.1608C12.0931 71.1629 14.766 68.6035 15.9258 66.4458C16.5219 65.3345 16.5997 64.5472 16.2433 64.1812Z" stroke="#0500FF" stroke-width="0.36475" stroke-linecap="round" stroke-linejoin="round"/>
<path d="M12.082 72.1988C13.7245 71.4342 14.3401 72.1599 13.4492 73.8154L11.8746 76.7475L0.15625 82.213L1.73079 79.281C2.6185 77.6254 4.68873 75.6459 6.33131 74.8813L12.082 72.1988Z" fill="#48FF8E"/>
<path d="M16.1814 74.6324L13.6964 72.0762C13.9718 72.358 13.9135 72.9671 13.4534 73.8192L11.8789 76.7512L14.3638 79.3074L15.9384 76.3754C16.3952 75.5233 16.4535 74.9175 16.1814 74.6324Z" fill="#48FF8E" stroke="#0500FF" stroke-width="0.36475" stroke-linecap="round" stroke-linejoin="round"/>
<path d="M11.8746 76.7496L14.3595 79.3058L2.64118 84.7713L0.15625 82.2151L11.8746 76.7496Z" fill="#1B1B1C" stroke="#0500FF" stroke-width="0.36475" stroke-linecap="round" stroke-linejoin="round"/>
<path d="M3.49973 76.9942C2.77077 77.7296 2.13253 78.5364 1.73079 79.2815L0.15625 82.2135L7.18014 78.9381L3.49649 76.9974L3.49973 76.9942Z" fill="#2D9FFF"/>
<path d="M12.082 72.1988C13.7245 71.4342 14.3401 72.1599 13.4492 73.8154L11.8746 76.7475L0.15625 82.213L1.73079 79.281C2.6185 77.6254 4.68873 75.6459 6.33131 74.8813L12.082 72.1988Z" stroke="#0500FF" stroke-width="0.36475" stroke-linecap="round" stroke-linejoin="round"/>
</g>
<defs>
<radialGradient id="paint0_radial_3588_1023" cx="0" cy="0" r="1" gradientUnits="userSpaceOnUse" gradientTransform="translate(66.3751 48.0801) scale(95.3733)">
<stop offset="0.6" stop-color="#0500FF" stop-opacity="0"/>
<stop offset="0.61" stop-color="#0500FF" stop-opacity="0.05"/>
<stop offset="0.64" stop-color="#0500FF" stop-opacity="0.17"/>
<stop offset="0.68" stop-color="#0500FF" stop-opacity="0.37"/>
<stop offset="0.73" stop-color="#0500FF" stop-opacity="0.64"/>
<stop offset="0.78" stop-color="#0500FF"/>
<stop offset="0.8" stop-color="#0500FF" stop-opacity="0.96"/>
<stop offset="0.83" stop-color="#0500FF" stop-opacity="0.84"/>
<stop offset="0.88" stop-color="#0500FF" stop-opacity="0.65"/>
<stop offset="0.93" stop-color="#0500FF" stop-opacity="0.38"/>
<stop offset="0.99" stop-color="#0500FF" stop-opacity="0.05"/>
<stop offset="1" stop-color="#0500FF" stop-opacity="0"/>
</radialGradient>
<clipPath id="clip0_3588_1023">
<rect width="178.938" height="131.39" fill="white"/>
</clipPath>
</defs>
</svg>
