<svg width="200" height="200" viewBox="0 0 200 200" fill="none" xmlns="http://www.w3.org/2000/svg">
<g clip-path="url(#clip0_3273_17520)">
<path d="M134.873 131.309L142.725 75.7497C143.333 71.4282 141.02 65.7179 137.579 63.062L92.0458 27.8872L82.1303 185.241L71.1523 190.232C71.1523 190.232 126.623 189.646 134.867 131.309H134.873Z" fill="#48FF91" stroke="#0500FF" stroke-width="0.454194" stroke-miterlimit="10"/>
<path d="M82.1367 185.243C82.1367 185.243 140.291 183.434 148.535 125.102L156.387 69.5431C156.996 65.2217 154.683 59.5114 151.241 56.8554L105.708 21.6807L100.629 92.9265C96.7057 147.905 82.1367 185.248 82.1367 185.248V185.243Z" fill="url(#paint0_linear_3273_17520)"/>
<path d="M97.1385 124.028C96.7623 126.468 96.375 128.847 95.9766 131.171L148.127 127.685C148.271 126.839 148.409 125.976 148.531 125.101L149.865 115.656L97.133 124.034L97.1385 124.028Z" fill="#2D9FFF"/>
<path d="M95.2892 135.033C89.6066 166.091 82.1367 185.236 82.1367 185.236C82.1367 185.236 133.491 183.632 146.521 135.033H95.2892Z" fill="#2D9FFF"/>
<path d="M103.965 180.573C116.846 175.925 132.372 166.657 141.568 148.226L137.219 148.043C127.697 164.627 112.624 172.467 100.977 176.158L103.97 180.573H103.965Z" fill="#48FF91"/>
<path d="M82.1391 185.242C82.1391 185.242 96.7137 147.899 100.631 92.9204L105.711 21.6746L37.3421 15.3501C32.0081 14.8576 27.7419 18.9965 27.7087 25.9462L27.4542 81.0295C27.172 142.454 82.1336 185.242 82.1336 185.242" fill="#48FF91"/>
<path d="M82.1391 185.242C82.1391 185.242 96.7137 147.899 100.631 92.9204L105.711 21.6746L37.3421 15.3501C32.0081 14.8576 27.7419 18.9965 27.7087 25.9462L27.4542 81.0295C27.172 142.454 82.1336 185.242 82.1336 185.242" stroke="#0500FF" stroke-width="0.454194" stroke-miterlimit="10"/>
<path d="M32.1118 81.7056L32.3331 34.0977L27.6741 34.3522L27.4583 81.0305C27.4362 85.3132 27.6963 89.5019 28.1777 93.591L32.7426 93.021C32.322 89.3304 32.0952 85.5567 32.1118 81.7056Z" fill="#F4F4F7"/>
<path d="M27.4588 81.0281L27.7134 25.9448C27.7355 20.9206 29.9765 17.3738 33.23 15.9739L33.2189 15.9628L16.4145 23.1948L16.4256 23.2058C13.1112 24.6334 10.7761 28.1747 11.0307 33.149L13.7973 87.2419C16.9291 148.556 71.1603 190.232 71.1603 190.232L82.1382 185.241C82.1382 185.241 27.1766 142.452 27.4588 81.0281Z" fill="#2D9FFF"/>
<path d="M82.1367 185.243C82.1367 185.243 140.291 183.434 148.535 125.102L156.387 69.5431C156.996 65.2217 154.683 59.5114 151.241 56.8554L105.708 21.6807L100.629 92.9265C96.7057 147.905 82.1367 185.248 82.1367 185.248V185.243Z" stroke="#0500FF" stroke-width="0.454194" stroke-miterlimit="10"/>
<path d="M27.7748 24.7068C27.891 23.2792 28.1898 21.9844 28.6546 20.8501L11.7782 28.1374C11.3411 29.2606 11.0755 30.5333 11.0312 31.9387L27.7748 24.7068Z" fill="#F4F4F7"/>
<path d="M34.5969 119.9C33.4349 116.768 32.378 113.548 31.4595 110.245L18.9766 115.634C20.0002 118.899 21.1456 122.08 22.3906 125.173L34.5969 119.9Z" fill="#1B1B1C"/>
<path d="M71.1588 190.228L82.1367 185.237C82.1367 185.237 51.5379 161.411 36.1223 123.801L24.0156 129.03C40.5711 166.711 71.1643 190.228 71.1643 190.228H71.1588Z" fill="#1B1B1C"/>
<path d="M27.4588 81.0281L27.7134 25.9448C27.7355 20.9206 29.9765 17.3738 33.23 15.9739L33.2189 15.9628L16.4145 23.1948L16.4256 23.2058C13.1112 24.6334 10.7761 28.1747 11.0307 33.149L13.7973 87.2419C16.9291 148.556 71.1603 190.232 71.1603 190.232L82.1382 185.241C82.1382 185.241 27.1766 142.452 27.4588 81.0281Z" stroke="#0500FF" stroke-width="0.454194" stroke-miterlimit="10"/>
<path d="M84.1758 179.438C84.1758 179.438 137.771 177.607 145.495 122.977L152.943 70.2787C153.513 66.2339 151.986 62.1117 148.76 59.6272L105.385 26.1235" stroke="#0500FF" stroke-width="0.454194" stroke-miterlimit="10"/>
<path d="M105.392 26.1236L37.7929 19.8655C32.7964 19.4007 32.3759 23.6115 32.3482 30.1186L32.1103 81.7049C31.8447 139.228 84.1835 179.433 84.1835 179.433" stroke="#0500FF" stroke-width="0.454194" stroke-miterlimit="10"/>
<path d="M186.75 83.4804L183.109 84.8083C184.321 84.3657 185.14 82.9879 185.129 81.0789L188.77 79.751C188.775 81.6599 187.962 83.0432 186.75 83.4804Z" fill="#48FF91" stroke="#0500FF" stroke-width="0.454194" stroke-miterlimit="10"/>
<path d="M90.1792 11.2369L181.046 42.5273L184.687 41.1994L93.82 9.90894C93.1284 9.67101 92.481 9.67654 91.9221 9.88127L88.2812 11.2092C88.8456 11.0045 89.493 10.999 90.1792 11.2369Z" fill="#48FF91" stroke="#0500FF" stroke-width="0.454194" stroke-miterlimit="10"/>
<path d="M185.004 48.9403L188.645 47.6123L188.772 79.7438L185.131 81.0718L185.004 48.9403Z" fill="#48FF91" stroke="#0500FF" stroke-width="0.454194" stroke-miterlimit="10"/>
<path d="M181.047 42.5194L184.688 41.1914C186.862 41.9384 188.633 44.8101 188.644 47.6044L185.003 48.9324C184.992 46.1381 183.221 43.2664 181.047 42.5194Z" fill="#48FF91" stroke="#0500FF" stroke-width="0.454194" stroke-miterlimit="10"/>
<path d="M140.827 43.7192C141.026 43.7856 141.225 43.9461 141.403 44.1895C141.801 44.7484 141.906 45.523 141.629 45.9325C140.633 47.4154 139.892 49.2248 139.427 51.3053C139.377 51.5266 139.278 51.676 139.145 51.7645C139.007 51.853 138.841 51.8696 138.664 51.8088C138.564 51.7756 138.453 51.7147 138.348 51.6262C137.883 51.2333 137.607 50.4642 137.734 49.8943C138.254 47.5925 139.079 45.5839 140.18 43.9295C140.335 43.7026 140.573 43.6417 140.822 43.7247L140.827 43.7192Z" fill="#1B1B1C"/>
<path d="M137.935 53.7652C137.979 53.7818 138.024 53.7984 138.068 53.826C138.549 54.0916 138.92 54.8276 138.892 55.4584C138.71 59.5751 139.44 64.0349 140.978 68.3397L139.08 67.6868C137.636 63.2547 136.956 58.7119 137.144 54.4956C137.172 53.9201 137.515 53.6213 137.935 53.7652Z" fill="#1B1B1C"/>
<path d="M157.403 36.943C157.47 36.9651 157.536 36.9983 157.603 37.0426C160.607 38.9903 163.435 41.6628 166.007 44.9828C166.417 45.514 166.55 46.2997 166.295 46.7368C166.245 46.8253 166.185 46.8917 166.107 46.9415C165.974 47.0301 165.803 47.0411 165.631 46.9803C165.46 46.9194 165.26 46.7755 165.089 46.5542C162.732 43.5054 160.131 41.0486 157.37 39.2559C156.889 38.946 156.551 38.199 156.618 37.5848C156.667 37.0537 157.005 36.7991 157.403 36.9375V36.943Z" fill="#1B1B1C"/>
<path d="M152.725 34.6191C153.007 34.7187 153.295 34.8239 153.577 34.9345C154.058 35.1227 154.473 35.8143 154.501 36.4783C154.518 36.8712 154.39 37.1644 154.186 37.2972C154.053 37.3802 153.887 37.4023 153.704 37.3415C153.693 37.3415 153.682 37.3359 153.671 37.3304C153.416 37.2308 153.162 37.1367 152.902 37.0482C151.12 36.434 149.377 36.1574 147.706 36.2348C147.629 36.2348 147.551 36.2238 147.474 36.2016C147.092 36.0688 146.716 35.5985 146.572 35.0286C146.395 34.3425 146.622 33.767 147.075 33.7449C148.89 33.6619 150.777 33.9607 152.714 34.6247L152.725 34.6191Z" fill="#1B1B1C"/>
<path d="M155.172 45.6854C155.211 45.6965 155.244 45.7131 155.283 45.7352C159.245 47.7936 162.968 51.9878 165.503 57.2443L167.965 62.357C168.95 64.4043 169.868 66.518 170.682 68.6483C170.914 69.2625 170.837 69.8712 170.505 70.087L170.405 70.1368C170.283 70.181 170.151 70.1755 170.023 70.1368C169.702 70.0261 169.382 69.6775 169.199 69.2017C168.424 67.1876 167.561 65.179 166.626 63.2424L164.164 58.1297C161.945 53.5315 158.691 49.8685 155.222 48.0647C154.741 47.8157 154.359 47.0909 154.375 46.4545C154.392 45.868 154.735 45.5471 155.167 45.6965L155.172 45.6854Z" fill="#1B1B1C"/>
<path d="M151.422 44.4695C151.842 44.6134 152.246 45.1667 152.357 45.7864C152.445 46.2789 152.324 46.6828 152.069 46.8433C151.975 46.9097 151.859 46.9318 151.726 46.9152C150.542 46.7713 149.413 46.882 148.378 47.2527C148.262 47.297 148.129 47.2915 148.002 47.2472C147.681 47.1365 147.355 46.7824 147.178 46.3066C146.923 45.6315 147.05 44.9675 147.46 44.8181C148.65 44.3921 149.939 44.2593 151.289 44.4308C151.333 44.4363 151.377 44.4474 151.427 44.464L151.422 44.4695Z" fill="#1B1B1C"/>
<path d="M154.534 60.426C155.403 60.7248 156.299 61.5935 156.902 62.844L159.37 67.9567C160.588 70.4798 161.595 73.086 162.397 75.7143L160.532 75.0724C159.841 72.9532 159.005 70.8616 158.026 68.8309L155.563 63.7182C155.348 63.2645 155.021 62.9547 154.711 62.844C154.518 62.7776 154.329 62.7887 154.169 62.8938C153.748 63.1649 153.693 63.9783 154.042 64.7087L156.266 69.3234C157.052 70.9446 157.732 72.6157 158.313 74.3033L156.393 73.6449C155.956 72.4773 155.469 71.3264 154.927 70.2032L152.703 65.5885C151.729 63.5688 151.884 61.3113 153.046 60.5588C153.488 60.271 154.008 60.2378 154.545 60.426H154.534Z" fill="#1B1B1C"/>
<path d="M153.099 39.788C158.709 41.7191 164.486 47.3243 168.37 55.3806L170.833 60.4933C171.143 61.1352 171.093 61.8545 170.722 62.0924C170.584 62.1865 170.412 62.192 170.246 62.1367C169.97 62.0427 169.682 61.766 169.494 61.3621L167.031 56.2549C163.529 48.9953 158.328 43.949 153.27 42.206C150.172 41.1381 147.128 41.3152 144.566 42.9862C144.34 43.1301 144.118 43.2905 143.897 43.4565C143.753 43.5727 143.57 43.5893 143.382 43.5285C143.122 43.4399 142.851 43.1854 142.658 42.8202C142.326 42.1894 142.348 41.459 142.702 41.1768C142.94 40.9887 143.189 40.8116 143.438 40.6512C146.282 38.7975 149.657 38.6039 153.099 39.788Z" fill="#1B1B1C"/>
<path d="M154.179 55.2686C156.238 55.9769 158.351 58.0297 159.773 60.9789L162.236 66.0916C163.956 69.6495 165.323 73.3457 166.325 77.0696L164.499 76.4388C163.586 73.2295 162.374 70.0368 160.891 66.9659L158.429 61.8532C157.388 59.7008 155.845 58.2013 154.345 57.6811C153.427 57.3657 152.525 57.4155 151.761 57.9135C149.758 59.2194 149.498 63.1037 151.175 66.5786L153.399 71.1933C153.67 71.7466 153.919 72.311 154.157 72.8754L152.099 72.1671L152.054 72.0675L149.83 67.4528C147.534 62.6942 147.899 57.3657 150.638 55.5785C151.678 54.9035 152.918 54.8315 154.174 55.2631L154.179 55.2686Z" fill="#1B1B1C"/>
<path d="M153.817 50.1071C157.059 51.2248 160.396 54.4563 162.637 59.1097L165.099 64.2169C167.312 68.8039 169.022 73.5957 170.195 78.3985L168.391 77.7788C167.29 73.4795 165.735 69.2023 163.754 65.0967L161.292 59.9839C159.433 56.1328 156.666 53.4492 153.983 52.5252C152.334 51.9608 150.718 52.0493 149.357 52.9401C145.771 55.2696 145.301 62.2304 148.3 68.4443L149.694 71.3437L147.581 70.6133L146.955 69.3185C143.337 61.8154 143.907 53.416 148.228 50.6051C149.871 49.5372 151.819 49.421 153.811 50.1071H153.817Z" fill="#1B1B1C"/>
<path d="M144.969 46.6978C145.201 46.7808 145.445 46.9911 145.633 47.3065C145.993 47.9096 146.026 48.6677 145.705 48.9997C143.763 50.9861 142.662 54.223 142.601 58.124C142.54 61.8866 143.47 66.0088 145.207 69.7991L143.182 69.1019C141.61 65.1899 140.786 61.0566 140.847 57.2497C140.919 52.7955 142.18 49.0882 144.399 46.814C144.554 46.6591 144.759 46.6259 144.969 46.6978Z" fill="#1B1B1C"/>
<path d="M143.914 34.4367C144.235 34.5474 144.561 34.9015 144.744 35.3774C144.998 36.0525 144.871 36.7164 144.462 36.8658C143.659 37.1536 142.885 37.5354 142.165 38.0057C138.259 40.551 135.802 45.5585 135.243 52.1044C134.845 56.791 135.453 61.9092 136.964 66.9611L135.116 66.3248C133.661 61.1125 133.091 55.8559 133.5 51.0254C134.103 43.893 136.781 38.4428 141.037 35.6707C141.828 35.1561 142.669 34.7411 143.538 34.4257C143.654 34.3869 143.787 34.3925 143.914 34.4367Z" fill="#1B1B1C"/>
<path d="M171.734 73.1665C172.088 73.2882 172.448 73.7087 172.608 74.2455C173.156 76.0604 173.637 77.9029 174.047 79.7289L172.243 79.1092C171.883 77.5709 171.479 76.0327 171.02 74.5055C170.815 73.8194 171.004 73.2108 171.441 73.1388C171.535 73.1222 171.634 73.1388 171.734 73.1665Z" fill="#1B1B1C"/>
<path d="M184.683 41.1922C186.857 41.9392 188.633 44.8165 188.645 47.6107L188.772 79.7422C188.783 82.5365 187.029 84.1909 184.849 83.4439L93.982 52.1535C91.8075 51.4065 90.0368 48.5348 90.0258 45.7405L89.8985 13.609C89.8874 10.8147 91.6415 9.15478 93.816 9.9073L184.683 41.1977V41.1922Z" stroke="#0500FF" stroke-width="0.454194" stroke-miterlimit="10"/>
<path d="M184.853 83.4439L93.9862 52.1535C91.8117 51.4065 90.041 48.5348 90.03 45.7405L89.9027 13.609C89.8972 11.7001 90.7105 10.3168 91.9223 9.87964L88.2815 11.2076C87.0697 11.6503 86.2508 13.028 86.2618 14.937L86.3891 47.0685C86.4002 49.8628 88.1708 52.7345 90.3453 53.4815L181.212 84.7719C181.904 85.0098 182.551 85.0043 183.11 84.7996L186.751 83.4716C186.186 83.6763 185.539 83.6819 184.853 83.4439Z" fill="#2D9FFF"/>
<path d="M184.898 95.6219C187.072 96.3689 188.848 99.2461 188.859 102.04L188.987 134.177C188.998 136.972 187.244 138.626 185.064 137.879L94.1969 106.589C92.0223 105.842 90.2517 102.97 90.2406 100.176L90.1133 68.0387C90.1023 65.2444 91.8563 63.5845 94.0309 64.337L184.898 95.6274V95.6219Z" fill="url(#paint1_linear_3273_17520)"/>
<path d="M184.898 95.6227L159.612 86.9189L144.141 123.787L185.07 137.88C187.244 138.627 189.004 136.973 188.993 134.178L188.866 102.047C188.855 99.2525 187.078 96.3808 184.904 95.6283L184.898 95.6227Z" fill="#F4F4F7"/>
<path d="M185.068 137.879L94.2011 106.588C92.0265 105.841 90.2559 102.97 90.2448 100.175L90.1175 68.0438C90.112 66.1349 90.9254 64.7516 92.1372 64.3145L88.4963 65.6424C87.2845 66.0851 86.4656 67.4629 86.4767 69.3718L86.6039 101.503C86.615 104.298 88.3856 107.169 90.5602 107.916L181.427 139.207C182.119 139.445 182.766 139.439 183.325 139.234L186.966 137.906C186.401 138.111 185.754 138.117 185.068 137.879Z" fill="#FFAEFE"/>
<path d="M88.2573 106.167L91.8982 104.839C91.2895 104.07 90.8137 103.135 90.5315 102.139L86.8906 103.467C87.1728 104.463 87.6542 105.398 88.2573 106.167Z" fill="#1B1B1C"/>
<path d="M181.429 139.203C182.121 139.441 182.768 139.436 183.327 139.231L186.968 137.903C186.404 138.108 185.756 138.113 185.07 137.875L94.2034 106.59L90.5625 107.918L181.429 139.209V139.203Z" fill="#1B1B1C"/>
<path d="M185.068 137.879L94.2011 106.588C92.0265 105.841 90.2559 102.97 90.2448 100.175L90.1175 68.0438C90.112 66.1349 90.9254 64.7516 92.1372 64.3145L88.4963 65.6424C87.2845 66.0851 86.4656 67.4629 86.4767 69.3718L86.6039 101.503C86.615 104.298 88.3856 107.169 90.5602 107.916L181.427 139.207C182.119 139.445 182.766 139.439 183.325 139.234L186.966 137.906C186.401 138.111 185.754 138.117 185.068 137.879Z" stroke="#0500FF" stroke-width="0.454194" stroke-miterlimit="10"/>
<path d="M107.851 84.8217L107.862 87.9369L109.954 87.0959L110.983 89.7131L108.892 90.5486L110.994 92.8283L109.987 94.7428L107.885 92.4631L107.896 95.5728L105.859 94.8756L105.848 91.7604L103.751 92.6014L102.722 89.9842L104.819 89.1487L102.711 86.869L103.724 84.9545L105.826 87.2342L105.815 84.1245L107.851 84.8217Z" fill="#1B1B1C"/>
<path d="M121.76 89.6124L121.776 92.7221L123.862 91.8865L124.892 94.4982L122.8 95.3393L124.908 97.6134L123.901 99.5279L121.793 97.2538L121.804 100.363L119.768 99.6607L119.757 96.5511L117.665 97.3866L116.636 94.7749L118.733 93.9338L116.625 91.6542L117.632 89.7452L119.74 92.0193L119.724 88.9097L121.76 89.6124Z" fill="#1B1B1C"/>
<path d="M154 114.812L154.011 117.595L143.238 113.882L143.227 111.104L154 114.812Z" fill="#1B1B1C"/>
<path d="M135.668 94.3991L135.679 97.5144L137.77 96.6733L138.8 99.2905L136.703 100.126L138.816 102.406L137.809 104.32L135.696 102.041L135.712 105.15L133.676 104.453L133.659 101.338L131.568 102.179L130.539 99.5617L132.641 98.7261L130.527 96.4464L131.54 94.5319L133.643 96.8116L133.632 93.702L135.668 94.3991Z" fill="#1B1B1C"/>
<path d="M184.898 95.6219C187.072 96.3689 188.848 99.2461 188.859 102.04L188.987 134.177C188.998 136.972 187.244 138.626 185.064 137.879L94.1969 106.589C92.0223 105.842 90.2517 102.97 90.2406 100.176L90.1133 68.0387C90.1023 65.2444 91.8563 63.5845 94.0309 64.337L184.898 95.6274V95.6219Z" stroke="#0500FF" stroke-width="0.454194" stroke-miterlimit="10"/>
<path d="M88.0464 51.738L91.6873 50.4101C91.0786 49.6409 90.6027 48.7058 90.3206 47.7098L86.6797 49.0378C86.9619 50.0338 87.4433 50.9689 88.0464 51.738Z" fill="#1B1B1C"/>
<path d="M181.214 84.7716C181.906 85.0095 182.553 85.0039 183.112 84.7992L186.753 83.4712C186.189 83.676 185.541 83.6815 184.855 83.4436L93.9885 52.1587L90.3477 53.4867L181.214 84.7771V84.7716Z" fill="#1B1B1C"/>
<path d="M184.853 83.4439L93.9862 52.1535C91.8117 51.4065 90.041 48.5348 90.03 45.7405L89.9027 13.609C89.8972 11.7001 90.7105 10.3168 91.9223 9.87964L88.2815 11.2076C87.0697 11.6503 86.2508 13.028 86.2618 14.937L86.3891 47.0685C86.4002 49.8628 88.1708 52.7345 90.3453 53.4815L181.212 84.7719C181.904 85.0099 182.551 85.0043 183.11 84.7996L186.751 83.4716C186.186 83.6763 185.539 83.6819 184.853 83.4439Z" stroke="#0500FF" stroke-width="0.454194" stroke-miterlimit="10"/>
</g>
<defs>
<linearGradient id="paint0_linear_3273_17520" x1="147.18" y1="115.53" x2="79.3922" y2="100.164" gradientUnits="userSpaceOnUse">
<stop stop-color="#48FF91"/>
<stop offset="1" stop-color="#2D9FFF"/>
</linearGradient>
<linearGradient id="paint1_linear_3273_17520" x1="90.1133" y1="101.105" x2="188.992" y2="101.105" gradientUnits="userSpaceOnUse">
<stop stop-color="#FFAEFE"/>
<stop offset="1" stop-color="#FFF465"/>
</linearGradient>
<clipPath id="clip0_3273_17520">
<rect width="178.53" height="181.103" fill="white" transform="translate(10.7344 9.44873)"/>
</clipPath>
</defs>
</svg>
