<svg width="168" height="180" viewBox="0 0 168 180" fill="none" xmlns="http://www.w3.org/2000/svg">
<g clip-path="url(#clip0_3273_16811)">
<path d="M121.391 176.45L126.394 176.869C129.867 177.16 133.262 174.069 134.37 169.294L129.366 168.875C128.259 173.65 124.864 176.74 121.391 176.45Z" fill="url(#paint0_linear_3273_16811)"/>
<mask id="mask0_3273_16811" style="mask-type:luminance" maskUnits="userSpaceOnUse" x="121" y="168" width="14" height="9">
<path d="M121.391 176.45L126.394 176.87C129.867 177.16 133.262 174.07 134.37 169.295L129.366 168.875C128.259 173.651 124.864 176.741 121.391 176.45Z" fill="white"/>
</mask>
<g mask="url(#mask0_3273_16811)">
<path d="M121.391 176.449L126.394 176.869C129.767 177.152 133.064 174.246 134.267 169.71L129.263 169.29C128.06 173.826 124.761 176.733 121.391 176.449Z" fill="url(#paint1_linear_3273_16811)"/>
<path d="M129.266 169.291L134.269 169.71C134.306 169.574 134.339 169.434 134.372 169.294L129.369 168.875C129.336 169.015 129.302 169.151 129.266 169.291Z" fill="url(#paint2_linear_3273_16811)"/>
</g>
<path d="M114.325 0.941569C114.325 0.941569 114.314 0.93789 114.306 0.934211C114.24 0.912138 114.178 0.893743 114.111 0.87167C114.06 0.856955 114.008 0.83856 113.961 0.823845C113.891 0.801772 113.821 0.787056 113.747 0.768662C113.699 0.757625 113.652 0.742909 113.604 0.731873C113.523 0.713479 113.438 0.698763 113.357 0.687726C113.32 0.680369 113.284 0.673011 113.247 0.669332C113.129 0.650938 113.008 0.636222 112.89 0.628864L107.887 0.209473C108.004 0.220509 108.126 0.235225 108.244 0.24994C108.284 0.257298 108.325 0.264656 108.369 0.272014C108.446 0.286729 108.523 0.297766 108.6 0.31616C108.648 0.327197 108.696 0.341912 108.744 0.352949C108.814 0.371343 108.887 0.386059 108.957 0.408132C109.009 0.422847 109.06 0.441242 109.108 0.455957C109.178 0.478031 109.248 0.500104 109.321 0.525856L156.724 17.7798L161.727 18.1992L114.325 0.941569Z" fill="url(#paint3_linear_3273_16811)"/>
<path d="M129.367 168.876L134.37 169.299L166.561 30.6345L161.557 30.2114L129.367 168.876Z" fill="url(#paint4_linear_3273_16811)"/>
<path d="M156.566 51.7512L162.5 48.1607L166.569 30.6345L161.566 30.2114L156.566 51.7512Z" fill="#FFAEFE"/>
<path d="M161.568 30.2103L166.571 30.6297C167.833 25.2034 165.663 19.6225 161.733 18.1914L156.73 17.772C160.659 19.2031 162.83 24.784 161.568 30.2103Z" fill="url(#paint5_linear_3273_16811)"/>
<mask id="mask1_3273_16811" style="mask-type:luminance" maskUnits="userSpaceOnUse" x="156" y="17" width="11" height="14">
<path d="M161.58 30.2118L166.583 30.6312C167.845 25.2048 165.674 19.624 161.745 18.1929L156.742 17.7735C160.671 19.2046 162.842 24.7854 161.58 30.2118Z" fill="white"/>
</mask>
<g mask="url(#mask1_3273_16811)">
<path d="M161.582 30.211L166.585 30.6304C166.751 29.9167 166.857 29.1993 166.909 28.4893L161.906 28.0699C161.854 28.7799 161.747 29.4973 161.582 30.211Z" fill="url(#paint6_linear_3273_16811)"/>
<path d="M161.907 28.073L166.91 28.4924C166.973 27.6426 166.95 26.8038 166.858 25.9907L161.855 25.5714C161.947 26.3844 161.966 27.2232 161.907 28.073Z" fill="url(#paint7_linear_3273_16811)"/>
<path d="M161.859 25.5703L166.862 25.9897C166.722 24.7683 166.421 23.6095 165.976 22.5684L160.972 22.149C161.418 23.1901 161.723 24.349 161.859 25.5703Z" fill="#FFAEFE"/>
<path d="M160.963 22.1494L165.966 22.5688C165.495 21.4725 164.866 20.5087 164.108 19.7398L159.105 19.3204C159.867 20.0893 160.496 21.0531 160.963 22.1494Z" fill="url(#paint8_linear_3273_16811)"/>
<path d="M159.107 19.3196L164.111 19.739C163.423 19.0474 162.628 18.5139 161.745 18.1939L156.742 17.7745C157.625 18.0945 158.42 18.628 159.107 19.3196Z" fill="url(#paint9_linear_3273_16811)"/>
</g>
<path d="M155.946 60.9715C155.479 62.9765 157.447 63.326 157.955 61.1408L160.95 48.2463C161.421 46.2229 159.371 46.2156 158.941 48.0771L155.946 60.9715Z" stroke="#0500FF" stroke-width="0.417456" stroke-miterlimit="10"/>
<path d="M166.767 29.5848C166.778 29.5149 166.786 29.4487 166.797 29.3788C166.812 29.2721 166.826 29.1691 166.837 29.0624C166.845 28.9888 166.852 28.9152 166.859 28.8417C166.87 28.7423 166.878 28.643 166.885 28.54C166.885 28.5216 166.885 28.5069 166.889 28.4885C166.889 28.448 166.889 28.4039 166.896 28.3634C166.903 28.2236 166.911 28.0875 166.915 27.9477C166.915 27.8815 166.918 27.8153 166.918 27.749C166.918 27.6129 166.918 27.4805 166.918 27.3444C166.918 27.2855 166.918 27.2266 166.918 27.1641C166.915 26.9765 166.907 26.7925 166.892 26.6086C166.892 26.6086 166.892 26.6012 166.892 26.5976C166.881 26.4099 166.863 26.2223 166.841 26.0384C166.841 26.02 166.841 26.0016 166.837 25.9869C166.837 25.9648 166.83 25.9427 166.826 25.9206C166.793 25.6447 166.753 25.3725 166.705 25.1076C166.701 25.0819 166.694 25.0598 166.69 25.034C166.639 24.7581 166.58 24.4822 166.51 24.2173C166.51 24.21 166.506 24.1989 166.502 24.1916C166.433 23.9193 166.352 23.6545 166.263 23.3969C166.26 23.3859 166.256 23.3749 166.252 23.3601C166.164 23.1063 166.068 22.8598 165.965 22.617C165.958 22.6023 165.954 22.5839 165.947 22.5692C165.947 22.5618 165.94 22.5545 165.936 22.5471C165.826 22.297 165.712 22.0505 165.586 21.815C165.575 21.7929 165.564 21.7745 165.553 21.7525C165.428 21.517 165.292 21.2926 165.152 21.0719C165.138 21.0535 165.127 21.0314 165.116 21.013C164.972 20.796 164.821 20.59 164.663 20.3913C164.648 20.3729 164.634 20.3545 164.619 20.3361C164.461 20.1411 164.295 19.9535 164.122 19.7769C164.111 19.7659 164.1 19.7512 164.093 19.7401C164.085 19.7328 164.078 19.7291 164.074 19.7217C163.924 19.5709 163.765 19.4274 163.604 19.2913C163.578 19.2692 163.548 19.2435 163.519 19.2214C163.357 19.089 163.191 18.9676 163.022 18.8535C162.993 18.8351 162.963 18.8131 162.934 18.7947C162.761 18.6806 162.581 18.5776 162.397 18.482C162.375 18.4709 162.349 18.4599 162.327 18.4488C162.132 18.3532 161.933 18.2649 161.727 18.1913L114.329 0.94108C114.329 0.94108 114.318 0.937402 114.31 0.933723C114.244 0.91165 114.182 0.893255 114.115 0.871182C114.064 0.856466 114.012 0.838072 113.964 0.823357C113.895 0.801283 113.825 0.786568 113.751 0.768173C113.703 0.757137 113.655 0.742421 113.608 0.731385C113.527 0.71299 113.442 0.698275 113.361 0.687238C113.324 0.67988 113.288 0.672523 113.251 0.668844C113.133 0.650449 113.012 0.635734 112.894 0.628376L107.891 0.208984C108.008 0.220021 108.13 0.234737 108.247 0.249452C108.288 0.25681 108.328 0.264168 108.373 0.271525C108.45 0.286241 108.527 0.297277 108.604 0.315672C108.652 0.326708 108.7 0.341424 108.748 0.35246C108.818 0.370855 108.891 0.38557 108.961 0.407644C109.013 0.422359 109.064 0.440754 109.112 0.455469C109.182 0.477542 109.252 0.499615 109.325 0.525368L156.728 17.7793C156.934 17.8529 157.132 17.9412 157.327 18.0368C157.349 18.0478 157.375 18.0589 157.397 18.0699C157.581 18.1656 157.758 18.2686 157.934 18.3826C157.964 18.401 157.993 18.4194 158.023 18.4415C158.192 18.5555 158.357 18.6769 158.519 18.8094C158.549 18.8314 158.574 18.8535 158.604 18.8793C158.766 19.0154 158.924 19.1589 159.075 19.3097C159.093 19.3281 159.108 19.3465 159.126 19.3612C159.299 19.5378 159.465 19.7254 159.623 19.9204C159.638 19.9388 159.652 19.9572 159.667 19.9756C159.825 20.1742 159.976 20.3803 160.12 20.5973C160.134 20.6157 160.145 20.6378 160.156 20.6562C160.3 20.8732 160.432 21.1013 160.557 21.3368C160.568 21.3588 160.579 21.3772 160.591 21.3993C160.716 21.6348 160.833 21.8812 160.94 22.1314C160.951 22.1535 160.958 22.1792 160.969 22.2013C161.072 22.4441 161.168 22.6906 161.256 22.9444C161.26 22.9555 161.264 22.9665 161.267 22.9812C161.356 23.2424 161.437 23.5073 161.507 23.7795C161.507 23.7869 161.51 23.7943 161.514 23.8053C161.584 24.0738 161.643 24.3461 161.694 24.622C161.698 24.6478 161.705 24.6698 161.709 24.6956C161.757 24.9641 161.797 25.2364 161.83 25.5086C161.834 25.5491 161.841 25.5859 161.845 25.6263C161.867 25.8103 161.882 25.9979 161.897 26.1855C161.897 26.1892 161.897 26.1966 161.897 26.2002C161.908 26.3842 161.915 26.5681 161.922 26.7521C161.922 26.8109 161.922 26.8698 161.922 26.9323C161.922 27.0648 161.922 27.2009 161.922 27.337C161.922 27.4032 161.922 27.4694 161.919 27.5357C161.915 27.6755 161.908 27.8116 161.9 27.9514C161.9 28.0102 161.893 28.0691 161.889 28.128C161.882 28.2273 161.871 28.3266 161.863 28.426C161.856 28.4995 161.849 28.5731 161.841 28.6504C161.83 28.7534 161.816 28.8601 161.801 28.9631C161.79 29.033 161.782 29.1029 161.771 29.1728C161.753 29.2905 161.731 29.4045 161.713 29.5223C161.702 29.5811 161.694 29.6363 161.683 29.6952C161.65 29.8681 161.613 30.0447 161.573 30.2176L129.383 168.882C129.331 169.102 129.269 169.32 129.21 169.533C129.169 169.669 129.132 169.801 129.088 169.934C129.04 170.081 128.993 170.221 128.941 170.364C128.893 170.493 128.849 170.622 128.798 170.747C128.742 170.887 128.684 171.019 128.625 171.155C128.57 171.277 128.518 171.398 128.459 171.516C128.397 171.645 128.33 171.773 128.264 171.898C128.205 172.012 128.143 172.126 128.08 172.237C128.01 172.358 127.937 172.476 127.863 172.594C127.797 172.7 127.731 172.807 127.661 172.91C127.584 173.024 127.506 173.135 127.425 173.241C127.356 173.341 127.282 173.436 127.208 173.532C127.127 173.639 127.039 173.738 126.955 173.837C126.877 173.925 126.804 174.017 126.723 174.102C126.634 174.198 126.543 174.29 126.451 174.378C126.37 174.459 126.289 174.54 126.208 174.617C126.112 174.705 126.016 174.783 125.921 174.864C125.836 174.933 125.755 175.007 125.667 175.073C125.568 175.151 125.465 175.22 125.362 175.29C125.273 175.349 125.189 175.415 125.1 175.471C124.997 175.537 124.887 175.596 124.78 175.655C124.692 175.706 124.604 175.758 124.515 175.802C124.405 175.857 124.295 175.905 124.181 175.953C124.092 175.993 124.004 176.033 123.912 176.07C123.798 176.114 123.68 176.148 123.563 176.188C123.474 176.217 123.386 176.251 123.298 176.273C123.173 176.306 123.048 176.328 122.923 176.354C122.838 176.368 122.757 176.394 122.672 176.405C122.533 176.427 122.393 176.434 122.253 176.445C122.179 176.449 122.109 176.464 122.04 176.464C121.826 176.471 121.613 176.464 121.399 176.449L126.403 176.869C126.616 176.887 126.829 176.891 127.043 176.883C127.116 176.883 127.186 176.869 127.256 176.865C127.396 176.854 127.536 176.846 127.676 176.824C127.76 176.813 127.845 176.791 127.926 176.773C128.051 176.747 128.176 176.725 128.301 176.692C128.389 176.67 128.478 176.637 128.566 176.607C128.684 176.571 128.801 176.534 128.915 176.49C129.007 176.457 129.096 176.412 129.184 176.372C129.294 176.324 129.408 176.276 129.519 176.221C129.607 176.177 129.695 176.122 129.784 176.074C129.89 176.015 129.997 175.956 130.104 175.89C130.192 175.835 130.277 175.772 130.365 175.71C130.468 175.64 130.567 175.57 130.667 175.493C130.751 175.426 130.836 175.353 130.92 175.283C131.016 175.202 131.115 175.121 131.207 175.036C131.288 174.959 131.369 174.878 131.45 174.797C131.542 174.705 131.634 174.617 131.722 174.521C131.8 174.437 131.877 174.345 131.95 174.257C132.035 174.157 132.123 174.054 132.204 173.951C132.278 173.856 132.348 173.76 132.421 173.661C132.502 173.55 132.58 173.444 132.657 173.326C132.727 173.223 132.793 173.116 132.855 173.009C132.929 172.892 133.003 172.774 133.073 172.649C133.135 172.539 133.194 172.424 133.256 172.31C133.323 172.185 133.389 172.057 133.451 171.928C133.507 171.81 133.562 171.689 133.613 171.567C133.672 171.435 133.731 171.299 133.786 171.159C133.838 171.034 133.882 170.905 133.93 170.776C133.981 170.633 134.029 170.493 134.077 170.346C134.121 170.213 134.158 170.077 134.198 169.945C134.22 169.864 134.25 169.787 134.268 169.706C134.305 169.57 134.338 169.43 134.371 169.29L166.561 30.6259C166.602 30.453 166.639 30.2764 166.672 30.1035C166.683 30.0447 166.69 29.9895 166.701 29.9306C166.723 29.8129 166.742 29.6952 166.76 29.5811L166.767 29.5848Z" stroke="#0500FF" stroke-width="0.417456" stroke-miterlimit="10"/>
<path d="M156.725 17.7721C160.654 19.2032 162.825 24.784 161.563 30.2104L129.373 168.874C128.111 174.305 123.891 177.56 119.962 176.129L72.5601 158.875C68.6311 157.444 66.4605 151.863 67.7224 146.433L99.9162 7.77291C101.178 2.34657 105.398 -0.909235 109.327 0.521847L156.729 17.7758L156.725 17.7721Z" fill="#1B1B1C" stroke="#1B1B1C" stroke-width="0.417456" stroke-miterlimit="10"/>
<path d="M156.152 20.2554C159.088 21.326 160.71 25.4978 159.769 29.5556L127.578 168.22C126.637 172.281 123.48 174.713 120.544 173.642L73.1421 156.389C70.2063 155.318 68.584 151.15 69.5257 147.088L101.716 8.42785C102.658 4.37006 105.814 1.93464 108.75 3.00519L156.152 20.2591V20.2554Z" fill="#EFEFEF"/>
<path d="M126.041 12.5707C125.445 12.3537 124.804 12.8467 124.613 13.6707C124.422 14.4948 124.749 15.3409 125.349 15.558C125.949 15.775 126.585 15.2821 126.776 14.458C126.968 13.6339 126.64 12.7878 126.041 12.5707Z" stroke="#1B1B1C" stroke-width="0.417456" stroke-miterlimit="10"/>
<path d="M129.802 14.3102C129.269 14.1153 128.695 14.5567 128.522 15.2999C128.349 16.043 128.647 16.7972 129.18 16.9921L136.281 19.5747C136.818 19.7697 137.392 19.3282 137.565 18.5888C137.737 17.8493 137.443 17.0878 136.906 16.8928L129.806 14.3102H129.802Z" stroke="#1B1B1C" stroke-width="0.417456" stroke-miterlimit="10"/>
<path d="M142.155 67.0423C144.734 67.9804 146.154 71.6446 145.33 75.2057L122.175 174.936L71.2227 156.391L94.3775 56.6605C95.2052 53.0994 97.9754 50.9619 100.551 51.9001L142.155 67.0423Z" fill="#1B1B1C" stroke="#1B1B1C" stroke-width="0.417456" stroke-miterlimit="10"/>
<path d="M93.168 61.8662L110.551 55.5386" stroke="#0500FF" stroke-width="0.417456" stroke-miterlimit="10"/>
<path d="M88.7109 81.0736L134.712 64.331" stroke="#0500FF" stroke-width="0.417456" stroke-miterlimit="10"/>
<path d="M84.2539 100.28L144.61 78.3101" stroke="#0500FF" stroke-width="0.417456" stroke-miterlimit="10"/>
<path d="M79.7891 119.487L140.148 97.5205" stroke="#0500FF" stroke-width="0.417456" stroke-miterlimit="10"/>
<path d="M75.3281 138.696L135.687 116.729" stroke="#0500FF" stroke-width="0.417456" stroke-miterlimit="10"/>
<path d="M96.3516 148.633L131.227 135.938" stroke="#0500FF" stroke-width="0.417456" stroke-miterlimit="10"/>
<path d="M107.675 54.489L86.6094 145.228" stroke="#0500FF" stroke-width="0.417456" stroke-miterlimit="10"/>
<path d="M119.596 58.832L98.5312 149.571" stroke="#0500FF" stroke-width="0.417456" stroke-miterlimit="10"/>
<path d="M131.53 63.1729L110.465 153.912" stroke="#0500FF" stroke-width="0.417456" stroke-miterlimit="10"/>
<path d="M143.394 67.7666L122.461 157.936" stroke="#0500FF" stroke-width="0.417456" stroke-miterlimit="10"/>
<path d="M123.922 38.8791L121.95 38.1617L122.918 33.9899C123.231 32.6471 122.524 31.205 121.351 30.7782C120.177 30.3515 118.963 31.0946 118.65 32.4374L117.683 36.6092L115.711 35.8919L116.678 31.72C117.278 29.1375 119.607 27.7064 121.869 28.5304C124.132 29.3545 125.486 32.1247 124.886 34.7073L123.919 38.8791H123.922Z" fill="#0500FF"/>
<path d="M130.671 41.3319L121.444 37.9731C120.569 37.6531 119.671 38.2049 119.435 39.2056L118.071 45.0844C117.839 46.085 118.361 47.1519 119.237 47.472L128.463 50.8308C129.339 51.1509 130.237 50.599 130.472 49.5984L131.837 43.7195C132.069 42.7189 131.546 41.652 130.671 41.3319ZM125.296 44.4369L125.005 45.6841L124.358 45.4486L124.648 44.2015C124.413 43.9623 124.295 43.5871 124.38 43.2266C124.494 42.7336 124.935 42.465 125.366 42.6195C125.796 42.7741 126.054 43.3038 125.94 43.7931C125.855 44.1536 125.598 44.3928 125.296 44.4369Z" fill="#0500FF"/>
<path d="M84.0763 135.157L86.7582 89.4214L17.9375 114.471L31.4574 154.309L84.0763 135.157Z" fill="#F4F4F7" stroke="#0500FF" stroke-width="0.417456" stroke-miterlimit="10"/>
<path d="M93.7811 74.4772L100.944 133.288L129.426 143.655L139.108 101.944L137.711 90.4693L93.7811 74.4772Z" fill="#48FF91" stroke="#0500FF" stroke-width="0.417456" stroke-miterlimit="10"/>
<path d="M91.6562 75.5918L92.2964 136.271L128.114 149.309L135.843 116.012L135.586 91.5839L91.6562 75.5918Z" fill="#48FF91" stroke="#0500FF" stroke-width="0.417456" stroke-miterlimit="10"/>
<path d="M89.527 76.7065L83.6445 139.255L126.801 154.964L128.148 149.158L133.456 92.6949L89.527 76.7065Z" fill="#48FF91" stroke="#0500FF" stroke-width="0.417456" stroke-miterlimit="10"/>
<path d="M74.9922 142.235L118.925 158.227L131.334 93.8102L87.401 77.8218L74.9922 142.235Z" fill="#48FF91" stroke="#0500FF" stroke-width="0.417456" stroke-miterlimit="10"/>
<path d="M114.469 105.549L106.695 102.72" stroke="#0500FF" stroke-width="0.417456" stroke-miterlimit="10"/>
<path d="M118.453 106.997L116.359 106.236" stroke="#0500FF" stroke-width="0.417456" stroke-miterlimit="10"/>
<path d="M66.0583 145.491L109.991 161.479L112.574 99.1336L68.6409 83.1415L66.0583 145.491Z" fill="#48FF91" stroke="#0500FF" stroke-width="0.417456" stroke-miterlimit="10"/>
<path d="M54.7578 86.687L62.0015 146.965L105.935 162.957L98.6873 102.679L54.7578 86.687Z" fill="url(#paint10_linear_3273_16811)" stroke="#0500FF" stroke-width="0.417456" stroke-miterlimit="10"/>
<path d="M38.75 91.0073L55.82 149.218L99.7531 165.207L82.6831 106.999L38.75 91.0073Z" fill="url(#paint11_linear_3273_16811)" stroke="#0500FF" stroke-width="0.417456" stroke-miterlimit="10"/>
<path d="M34.1836 93.0762L47.2215 152.347L91.151 168.335L78.1167 109.065L34.1836 93.0762Z" fill="url(#paint12_linear_3273_16811)" stroke="#0500FF" stroke-width="0.417456" stroke-miterlimit="10"/>
<path d="M29.5391 94.9727L40.5573 154.773L84.4867 170.765L73.4685 110.965L29.5391 94.9727Z" fill="url(#paint13_linear_3273_16811)" stroke="#0500FF" stroke-width="0.417456" stroke-miterlimit="10"/>
<path d="M1.11719 55.7554C1.11719 55.7554 15.7885 66.6706 21.0677 87.2833L28.0208 114.411L71.9539 130.4L64.8831 102.816C59.4384 81.5774 45.0503 71.7474 45.0503 71.7474L1.11719 55.7554Z" fill="url(#paint14_linear_3273_16811)" stroke="#0500FF" stroke-width="0.417456" stroke-miterlimit="10"/>
<path d="M29.8508 76.4307L20.4219 73.002" stroke="#0500FF" stroke-width="0.417456" stroke-miterlimit="10"/>
<path d="M49.5331 83.5972L31.8672 77.1665" stroke="#0500FF" stroke-width="0.417456" stroke-miterlimit="10"/>
<path d="M37.064 82.982L23.5 78.0449" stroke="#0500FF" stroke-width="0.417456" stroke-miterlimit="10"/>
<path d="M52.6053 88.6398L38.8242 83.6255" stroke="#0500FF" stroke-width="0.417456" stroke-miterlimit="10"/>
<path d="M30.0084 85.2489L25.9727 83.7773" stroke="#0500FF" stroke-width="0.417456" stroke-miterlimit="10"/>
<path d="M46.0505 91.0835L31.7617 85.8853" stroke="#0500FF" stroke-width="0.417456" stroke-miterlimit="10"/>
<path d="M55.0864 94.3728L48.0156 91.8013" stroke="#0500FF" stroke-width="0.417456" stroke-miterlimit="10"/>
<path d="M35.4139 92.5344L27.6367 89.7017" stroke="#0500FF" stroke-width="0.417456" stroke-miterlimit="10"/>
<path d="M39.3943 93.9837L37.3047 93.2222" stroke="#0500FF" stroke-width="0.417456" stroke-miterlimit="10"/>
<path d="M25.349 64.5744L9.50781 58.8096L9.55196 58.8574C10.0118 59.2106 12.4215 61.1236 15.4786 64.5155L31.7245 70.4275C28.1376 66.4837 25.349 64.5707 25.349 64.5707V64.5744Z" fill="#0500FF" stroke="#0500FF" stroke-width="0.417456" stroke-miterlimit="10"/>
<path d="M95.1878 88.899L91.1484 87.4312" stroke="#0500FF" stroke-width="0.417456" stroke-miterlimit="10"/>
<path d="M111.226 94.7354L96.9414 89.5371" stroke="#0500FF" stroke-width="0.417456" stroke-miterlimit="10"/>
<path d="M126.361 156.859L137.71 107.966L61.1677 135.827L75.9458 175.209L126.361 156.859Z" fill="#2D9FFF" stroke="#0500FF" stroke-width="0.417456" stroke-miterlimit="10"/>
<path d="M10.1876 98.2091C8.96985 94.7215 10.8166 92.9005 14.2895 94.166L50.8134 107.458C54.2862 108.72 58.1196 112.608 59.3373 116.096L79.6925 174.476C80.9102 177.963 79.0634 179.784 75.5906 178.519L39.0667 165.227C35.5939 163.965 31.7605 160.077 30.5428 156.589L10.1876 98.2091Z" fill="#F4F4F7" stroke="#0500FF" stroke-width="0.417456" stroke-miterlimit="10"/>
<path d="M57.3744 128.799L73.0942 177.614L75.5848 178.519C79.0577 179.781 80.9008 177.963 79.6868 174.476L59.3316 116.096L54.7734 119.337L57.3744 128.795V128.799Z" fill="#0500FF"/>
<path d="M8.93389 99.1032C7.71618 95.6156 9.56298 93.7946 13.0358 95.0601L49.5597 108.352C53.0326 109.614 56.8659 113.502 58.0837 116.99L78.4389 175.37C79.6566 178.858 77.8098 180.679 74.3369 179.413L37.8131 166.121C34.3402 164.859 30.5068 160.971 29.2891 157.483L8.93389 99.1032Z" fill="#F4F4F7"/>
<path d="M74.3347 179.413C77.8075 180.675 79.6507 178.857 78.4366 175.37L74.8166 164.984L70.2695 177.934L74.3384 179.417L74.3347 179.413Z" fill="#FFAEFE"/>
<path d="M74.2501 142.169L72.7344 137.235L136.291 114.103" fill="#2D9FFF"/>
<path d="M74.2501 142.169L72.7344 137.235L136.291 114.103" stroke="#0500FF" stroke-width="0.417456" stroke-miterlimit="10"/>
<path d="M72.7344 137.236L95.1976 129.062L94.425 131.221C94.1749 131.916 93.406 132.689 92.7143 132.943L73.5584 139.914L72.7344 137.24V137.236Z" fill="#0500FF"/>
<path d="M12.2928 108.732L26.3167 148.953L41.5951 105.454L16.6376 96.3669L12.2928 108.732Z" fill="url(#paint15_linear_3273_16811)"/>
<path d="M8.93389 99.1032C7.71618 95.6156 9.56298 93.7946 13.0358 95.0601L49.5597 108.352C53.0326 109.614 56.8659 113.502 58.0837 116.99L78.4389 175.37C79.6566 178.858 77.8098 180.679 74.3369 179.413L37.8131 166.121C34.3402 164.859 30.5068 160.971 29.2891 157.483L8.93389 99.1032Z" stroke="#0500FF" stroke-width="0.417456" stroke-miterlimit="10"/>
<path d="M20.4297 120.648C19.4401 117.808 20.9411 116.325 23.7701 117.351L53.5175 128.178C56.3466 129.208 59.47 132.372 60.4596 135.216L64.2746 146.161C65.2642 149.001 63.7632 150.483 60.9341 149.457L31.1868 138.63C28.3577 137.6 25.2343 134.436 24.2447 131.592L20.4297 120.648Z" fill="#1B1B1C"/>
<path d="M33.1643 127.562L33.7934 129.24L34.794 128.875L35.8903 130.329L34.8897 130.693L36.5231 132.01L36.3465 132.996L34.7131 131.679L35.3459 133.356L34.0656 132.893L33.4365 131.215L32.4359 131.576L31.3359 130.123L32.3402 129.762L30.7031 128.445L30.8834 127.455L32.5168 128.772L31.8877 127.099L33.1643 127.562Z" fill="#F4F4F7"/>
<path d="M41.8909 130.736L42.5199 132.414L43.5169 132.05L44.6169 133.507L43.6162 133.867L45.2497 135.184L45.0731 136.174L43.4397 134.857L44.0687 136.531L42.7922 136.067L42.1631 134.39L41.1624 134.754L40.0625 133.297L41.0668 132.936L39.4297 131.619L39.61 130.63L41.2434 131.95L40.6106 130.273L41.8909 130.736Z" fill="#F4F4F7"/>
<path d="M50.6137 133.916L51.2465 135.59L52.2435 135.23L53.3435 136.683L52.3428 137.043L53.9762 138.36L53.796 139.35L52.1662 138.033L52.7953 139.711L51.5187 139.243L50.886 137.566L49.8853 137.93L48.789 136.477L49.7897 136.116L48.1562 134.796L48.3365 133.81L49.9699 135.127L49.3372 133.449L50.6137 133.916Z" fill="#F4F4F7"/>
<path d="M55.0782 162.705C57.1401 161.184 56.4653 156.77 53.5709 152.846C50.6766 148.921 46.6587 146.973 44.5968 148.494C42.5348 150.014 43.2096 154.428 46.104 158.353C48.9984 162.277 53.0162 164.226 55.0782 162.705Z" fill="#0500FF"/>
<path d="M46.8789 154.834L49.8367 157.913L52.3494 153.02" stroke="#F4F4F7" stroke-width="0.417456" stroke-miterlimit="10"/>
</g>
<defs>
<linearGradient id="paint0_linear_3273_16811" x1="127.869" y1="168.121" x2="127.626" y2="49.9405" gradientUnits="userSpaceOnUse">
<stop stop-color="#FFAEFE"/>
<stop offset="1" stop-color="#FFF465"/>
</linearGradient>
<linearGradient id="paint1_linear_3273_16811" x1="127.818" y1="168.121" x2="127.571" y2="49.9405" gradientUnits="userSpaceOnUse">
<stop stop-color="#FFAEFE"/>
<stop offset="1" stop-color="#FFF465"/>
</linearGradient>
<linearGradient id="paint2_linear_3273_16811" x1="131.815" y1="168.113" x2="131.572" y2="49.9338" gradientUnits="userSpaceOnUse">
<stop stop-color="#FFAEFE"/>
<stop offset="1" stop-color="#FFF465"/>
</linearGradient>
<linearGradient id="paint3_linear_3273_16811" x1="135.136" y1="168.106" x2="134.893" y2="49.9258" gradientUnits="userSpaceOnUse">
<stop stop-color="#FFAEFE"/>
<stop offset="1" stop-color="#FFF465"/>
</linearGradient>
<linearGradient id="paint4_linear_3273_16811" x1="148.104" y1="168.077" x2="147.861" y2="49.9008" gradientUnits="userSpaceOnUse">
<stop stop-color="#FFAEFE"/>
<stop offset="1" stop-color="#FFF465"/>
</linearGradient>
<linearGradient id="paint5_linear_3273_16811" x1="162.131" y1="168.047" x2="161.888" y2="49.8702" gradientUnits="userSpaceOnUse">
<stop stop-color="#FFAEFE"/>
<stop offset="1" stop-color="#FFF465"/>
</linearGradient>
<linearGradient id="paint6_linear_3273_16811" x1="164.532" y1="168.044" x2="164.289" y2="49.8672" gradientUnits="userSpaceOnUse">
<stop stop-color="#FFAEFE"/>
<stop offset="1" stop-color="#FFF465"/>
</linearGradient>
<linearGradient id="paint7_linear_3273_16811" x1="164.695" y1="168.047" x2="164.449" y2="49.8703" gradientUnits="userSpaceOnUse">
<stop stop-color="#FFAEFE"/>
<stop offset="1" stop-color="#FFF465"/>
</linearGradient>
<linearGradient id="paint8_linear_3273_16811" x1="162.839" y1="168.05" x2="162.596" y2="49.8734" gradientUnits="userSpaceOnUse">
<stop stop-color="#FFAEFE"/>
<stop offset="1" stop-color="#FFF465"/>
</linearGradient>
<linearGradient id="paint9_linear_3273_16811" x1="160.734" y1="168.053" x2="160.491" y2="49.8763" gradientUnits="userSpaceOnUse">
<stop stop-color="#FFAEFE"/>
<stop offset="1" stop-color="#FFF465"/>
</linearGradient>
<linearGradient id="paint10_linear_3273_16811" x1="81.5621" y1="119.83" x2="84.0085" y2="109.798" gradientUnits="userSpaceOnUse">
<stop stop-color="#48FF91"/>
<stop offset="0.16" stop-color="#46F997"/>
<stop offset="0.37" stop-color="#42EAA9"/>
<stop offset="0.62" stop-color="#3AD0C6"/>
<stop offset="0.9" stop-color="#31ADEE"/>
<stop offset="1" stop-color="#2D9FFF"/>
</linearGradient>
<linearGradient id="paint11_linear_3273_16811" x1="72.5405" y1="119.552" x2="74.9906" y2="113.191" gradientUnits="userSpaceOnUse">
<stop stop-color="#48FF91"/>
<stop offset="0.16" stop-color="#46F997"/>
<stop offset="0.37" stop-color="#42EAA9"/>
<stop offset="0.62" stop-color="#3AD0C6"/>
<stop offset="0.9" stop-color="#31ADEE"/>
<stop offset="1" stop-color="#2D9FFF"/>
</linearGradient>
<linearGradient id="paint12_linear_3273_16811" x1="65.7704" y1="122.64" x2="68.2169" y2="116.275" gradientUnits="userSpaceOnUse">
<stop stop-color="#48FF91"/>
<stop offset="0.16" stop-color="#46F997"/>
<stop offset="0.37" stop-color="#42EAA9"/>
<stop offset="0.62" stop-color="#3AD0C6"/>
<stop offset="0.9" stop-color="#31ADEE"/>
<stop offset="1" stop-color="#2D9FFF"/>
</linearGradient>
<linearGradient id="paint13_linear_3273_16811" x1="59.75" y1="125.754" x2="62.1964" y2="119.393" gradientUnits="userSpaceOnUse">
<stop stop-color="#48FF91"/>
<stop offset="0.16" stop-color="#46F997"/>
<stop offset="0.37" stop-color="#42EAA9"/>
<stop offset="0.62" stop-color="#3AD0C6"/>
<stop offset="0.9" stop-color="#31ADEE"/>
<stop offset="1" stop-color="#2D9FFF"/>
</linearGradient>
<linearGradient id="paint14_linear_3273_16811" x1="38.7374" y1="86.7205" x2="45.0981" y2="68.3702" gradientUnits="userSpaceOnUse">
<stop stop-color="#48FF91"/>
<stop offset="0.16" stop-color="#46F997"/>
<stop offset="0.37" stop-color="#42EAA9"/>
<stop offset="0.62" stop-color="#3AD0C6"/>
<stop offset="0.9" stop-color="#31ADEE"/>
<stop offset="1" stop-color="#2D9FFF"/>
</linearGradient>
<linearGradient id="paint15_linear_3273_16811" x1="31.1839" y1="101.742" x2="13.8122" y2="139.178" gradientUnits="userSpaceOnUse">
<stop stop-color="#FFAEFE"/>
<stop offset="1" stop-color="#FFF465"/>
</linearGradient>
<clipPath id="clip0_3273_16811">
<rect width="167.109" height="180" fill="white"/>
</clipPath>
</defs>
</svg>
