<svg width="150" height="150" viewBox="0 0 150 150" fill="none" xmlns="http://www.w3.org/2000/svg">
<path d="M137.943 57.7198L136.62 52.8761L77.9121 68.8908L79.2342 73.7345C79.8297 75.9194 93.4538 74.1033 109.666 69.6799C125.877 65.2566 138.535 59.9 137.939 57.7151L137.943 57.7198Z" fill="#FFA235" stroke="#0500FF" stroke-width="0.40852" stroke-miterlimit="10" stroke-linejoin="round"/>
<path d="M79.2325 73.7269C79.641 75.2297 86.2244 74.8402 95.5711 73.0085L93.0641 66.1329L90.4177 67.2759L89.2577 65.7827L77.907 68.8786L79.2291 73.7222L79.2325 73.7269Z" fill="#1B1B1C" stroke="#0500FF" stroke-width="0.40852" stroke-miterlimit="10" stroke-linejoin="round"/>
<path d="M108.345 64.819C124.556 60.3959 137.215 55.0386 136.619 52.8533C136.023 50.6679 122.397 52.4821 106.186 56.9052C89.9741 61.3284 77.3154 66.6856 77.9116 68.871C78.5079 71.0563 92.1333 69.2422 108.345 64.819Z" fill="#1B1B1C" stroke="#0500FF" stroke-width="0.40852" stroke-miterlimit="10" stroke-linejoin="round"/>
<mask id="mask0_1742_19014" style="mask-type:alpha" maskUnits="userSpaceOnUse" x="74" y="22" width="55" height="60">
<path d="M77.0245 65.0354C77.7386 64.1462 78.4574 63.2541 79.1715 62.3649C79.0521 62.5149 78.9372 62.6621 78.8277 62.8026C79.9531 61.3298 81.7339 59.4134 84.1577 57.1095C92.8568 48.8502 106.573 38.7284 114.783 34.5118C115.513 34.1395 116.167 33.825 116.762 33.5679C116.723 33.5866 116.685 33.5979 116.645 33.6166C117.694 33.1537 118.738 32.6937 119.786 32.2308C126.898 29.0933 125.77 32.9521 116.664 41.5998C106.737 51.0273 91.0939 62.5708 81.7148 67.3884C74.7005 70.9903 73.1858 69.8065 77.0207 65.0346L77.0245 65.0354Z" fill="#44E841" stroke="#44E841" stroke-width="0.408707" stroke-miterlimit="10"/>
<path d="M75.1108 69.1884L77.9706 72.8982C78.5237 73.6156 80.7185 73.0836 84.58 71.1001C93.9554 66.2816 109.603 54.7389 119.529 45.3115C125.365 39.765 127.923 36.1895 127.131 35.1649L124.275 31.4559C125.067 32.4806 122.508 36.0598 116.669 41.6017C106.743 51.0292 91.0993 62.5727 81.7202 67.3903C77.8586 69.3739 75.6638 69.9058 75.1108 69.1884Z" fill="#44E841" stroke="#44E841" stroke-width="0.408707" stroke-miterlimit="10"/>
</mask>
<g mask="url(#mask0_1742_19014)">
<circle cx="43.1987" cy="43.1987" r="43.1987" transform="matrix(-0.976627 -0.214942 -0.214942 0.976627 153.242 16.3281)" fill="#1B1B1C"/>
</g>
<path fill-rule="evenodd" clip-rule="evenodd" d="M77.8072 63.8313C78.1673 63.3836 78.5274 62.9359 78.8864 62.489C78.8458 62.5395 78.8058 62.5895 78.7666 62.6391C78.4468 63.0371 78.1261 63.4357 77.8055 63.8343C77.4451 64.2824 77.0846 64.7306 76.7253 65.178L76.7246 65.1778C76.725 65.1773 76.7254 65.1768 76.7258 65.1763C77.0855 64.7284 77.4463 64.2799 77.8072 63.8313ZM76.4204 69.5745C77.5502 69.3511 79.225 68.6871 81.4493 67.5448C90.8835 62.6962 106.629 51.0811 116.617 41.5945C125.777 32.8917 126.913 29.0087 119.756 32.1659C119.228 32.3988 118.702 32.6309 118.176 32.8631C117.649 33.0953 117.123 33.3275 116.595 33.5604C122.864 30.7952 121.869 34.2006 113.84 41.8232C105.091 50.1314 91.2841 60.3196 83.0218 64.5664C80.0305 66.1033 78.1737 66.652 77.4365 66.3329C78.1734 66.6528 80.0305 66.1044 83.0212 64.5681C85.8023 63.1374 89.2131 61.0368 92.8452 58.5591L92.5363 60.7705C88.4366 63.5594 84.5907 65.931 81.445 67.5457C79.2235 68.6865 77.5502 69.3502 76.4204 69.5745Z" fill="url(#paint0_linear_1742_19014)"/>
<path fill-rule="evenodd" clip-rule="evenodd" d="M74.803 69.3349L77.6808 73.0679C78.2373 73.7898 80.4459 73.2545 84.3316 71.2585C93.7659 66.4098 109.511 54.7948 119.5 45.3082C119.622 45.1917 119.743 45.0761 119.863 44.9614C119.743 45.0765 119.621 45.1924 119.498 45.3092C118.339 46.4107 117.102 47.5386 115.808 48.6812L112.931 44.9498C112.527 45.3066 112.118 45.6648 111.703 46.024L114.58 49.7561C113.247 50.9101 111.865 52.0728 110.443 53.2349L107.567 49.5036C98.6357 56.8107 88.3581 63.9791 81.4538 67.5254C77.5681 69.5215 75.3595 70.0568 74.803 69.3349ZM123.973 33.1909C124.435 32.3209 124.537 31.706 124.277 31.3672L124.293 31.3883C124.534 31.7305 124.426 32.3379 123.973 33.1909Z" fill="url(#paint1_linear_1742_19014)"/>
<path d="M76.7301 65.1685C77.4488 64.2738 78.172 63.376 78.8907 62.4813C78.7705 62.6323 78.6549 62.7803 78.5447 62.9217C79.6772 61.4397 81.4691 59.5113 83.9081 57.1929C92.6617 48.8818 106.464 38.6966 114.725 34.4535C115.46 34.0788 116.119 33.7623 116.717 33.5036C116.677 33.5225 116.639 33.5338 116.599 33.5527C117.655 33.0869 118.705 32.624 119.76 32.1582C126.917 29.001 125.782 32.884 116.618 41.586C106.629 51.0725 90.8878 62.6885 81.4498 67.5363C74.3916 71.1608 72.8673 69.9696 76.7264 65.1677L76.7301 65.1685Z" stroke="#0500FF" stroke-width="0.408707" stroke-miterlimit="10"/>
<path d="M74.7983 69.3457L77.6761 73.0788C78.2326 73.8007 80.4412 73.2653 84.3269 71.2693C93.7611 66.4207 109.506 54.8056 119.495 45.319C125.367 39.7377 127.942 36.1398 127.145 35.1087L124.271 31.3765C125.068 32.4076 122.493 36.0092 116.617 41.5859C106.629 51.0725 90.8871 62.6884 81.4491 67.5363C77.5634 69.5323 75.3548 70.0676 74.7983 69.3457Z" fill="#6F84E4" stroke="#0500FF" stroke-width="0.408707" stroke-miterlimit="10"/>
<path d="M114.576 49.7651C113.243 50.919 111.861 52.0818 110.439 53.2438L107.561 49.5108C108.978 48.3517 110.365 47.186 111.698 46.032L114.576 49.7651Z" fill="#1B1B1C"/>
<path d="M112.923 44.9571C114.218 43.8145 115.454 42.6866 116.613 41.5851C122.49 36.0046 125.064 32.4068 124.271 31.3765L127.145 35.1087C127.942 36.1398 125.367 39.7415 119.491 45.3182C118.332 46.4196 117.096 47.5475 115.801 48.6901L112.923 44.9571Z" fill="#1B1B1C"/>
<mask id="mask1_1742_19014" style="mask-type:alpha" maskUnits="userSpaceOnUse" x="70" y="15" width="31" height="60">
<path fill-rule="evenodd" clip-rule="evenodd" d="M92.304 15.5169L92.3612 15.3392L92.3612 15.3392L96.5294 16.6814C98.0387 17.1668 99.0862 18.8532 99.6345 21.4666C100.186 24.0938 100.248 27.7224 99.7283 32.2117L99.7283 32.2118C98.909 39.2803 96.7976 47.1716 94.0466 54.2185C91.297 61.2619 87.9011 67.4804 84.5033 71.1912C83.2639 72.545 82.1025 73.4802 81.0366 74.0104C79.9692 74.5414 78.9852 74.6718 78.1171 74.3923L78.1695 74.2297L78.1171 74.3923L73.9488 73.0501L74.006 72.8723L74.0063 72.8714L74.0066 72.8705L74.0067 72.8704C71.1965 71.9601 69.9028 66.4939 70.9405 57.5406L70.9357 57.5385C72.5713 43.4423 79.3626 26.036 86.1141 18.6676C88.5747 15.9803 90.6893 14.9977 92.304 15.5169Z" fill="#44E841"/>
<path d="M92.3612 15.3392L92.1825 15.2817L92.2386 15.1074L92.4143 15.1592L92.3612 15.3392ZM92.304 15.5169L92.4827 15.5744L92.4252 15.753L92.2466 15.6956L92.304 15.5169ZM92.3612 15.3392L92.4143 15.1591L92.4188 15.1606L92.3612 15.3392ZM96.5294 16.6814L96.472 16.8601L96.4719 16.8601L96.5294 16.6814ZM99.6345 21.4666L99.8181 21.4281L99.8181 21.4281L99.6345 21.4666ZM99.7283 32.2117L99.9147 32.2333L99.9146 32.234L99.7283 32.2117ZM99.7283 32.2118L99.5419 32.1902L99.5419 32.1894L99.7283 32.2118ZM94.0466 54.2185L93.8718 54.1503L94.0466 54.2185ZM84.5033 71.1912L84.3649 71.0645L84.3649 71.0645L84.5033 71.1912ZM81.0366 74.0104L80.953 73.8424L81.0366 74.0104ZM78.1171 74.3923L78.0596 74.571L77.8809 74.5134L77.9385 74.3348L78.1171 74.3923ZM78.1695 74.2297L77.9908 74.1722L78.3481 74.2872L78.1695 74.2297ZM78.1171 74.3923L78.2957 74.4498L78.2382 74.6285L78.0596 74.5709L78.1171 74.3923ZM73.9488 73.0501L73.8913 73.2287L73.7127 73.1712L73.7702 72.9926L73.9488 73.0501ZM74.006 72.8723L73.8274 72.8148L73.8275 72.8146L74.006 72.8723ZM74.0063 72.8714L74.1849 72.9291L74.1849 72.9291L74.0063 72.8714ZM74.0066 72.8705L73.8281 72.8128L73.8282 72.8125L74.0066 72.8705ZM74.0067 72.8704L74.0645 72.6918L74.2432 72.7497L74.1852 72.9284L74.0067 72.8704ZM70.9405 57.5406L71.014 57.3679L71.1431 57.4228L71.1269 57.5622L70.9405 57.5406ZM70.9357 57.5385L70.8622 57.7112L70.7331 57.6563L70.7493 57.5169L70.9357 57.5385ZM86.1141 18.6676L86.2525 18.7944L86.2524 18.7944L86.1141 18.6676ZM92.5398 15.3966L92.4827 15.5744L92.1254 15.4594L92.1825 15.2817L92.5398 15.3966ZM92.3082 15.5192L92.3081 15.5192L92.4143 15.1592L92.4143 15.1592L92.3082 15.5192ZM96.4719 16.8601L92.3037 15.5178L92.4188 15.1606L96.587 16.5028L96.4719 16.8601ZM99.4508 21.5052C98.9054 18.9054 97.8787 17.3125 96.472 16.8601L96.5869 16.5028C98.1988 17.0212 99.267 18.801 99.8181 21.4281L99.4508 21.5052ZM99.5419 32.1902C100.06 27.7111 99.9961 24.1048 99.4508 21.5052L99.8181 21.4281C100.375 24.0827 100.435 27.7336 99.9147 32.2333L99.5419 32.1902ZM99.5419 32.1894L99.5419 32.1894L99.9146 32.234L99.9146 32.2341L99.5419 32.1894ZM93.8718 54.1503C96.618 47.1156 98.7247 39.24 99.5419 32.1902L99.9147 32.2334C99.0932 39.3205 96.9772 47.2276 94.2214 54.2868L93.8718 54.1503ZM84.3649 71.0645C87.7399 67.3786 91.1256 61.1849 93.8718 54.1503L94.2214 54.2868C91.4684 61.3389 88.0623 67.5822 84.6417 71.3179L84.3649 71.0645ZM80.953 73.8424C81.9908 73.3261 83.1343 72.4087 84.3649 71.0645L84.6417 71.3179C83.3935 72.6814 82.2141 73.6342 81.1202 74.1785L80.953 73.8424ZM78.1746 74.2137C78.9829 74.4739 79.9151 74.3587 80.953 73.8424L81.1202 74.1785C80.0232 74.7242 78.9876 74.8697 78.0596 74.571L78.1746 74.2137ZM78.3481 74.2872L78.2957 74.4498L77.9385 74.3348L77.9908 74.1722L78.3481 74.2872ZM77.9384 74.3348L77.9908 74.1722L78.3481 74.2872L78.2957 74.4498L77.9384 74.3348ZM74.0064 72.8714L78.1746 74.2137L78.0596 74.5709L73.8913 73.2287L74.0064 72.8714ZM74.1847 72.9299L74.1275 73.1076L73.7702 72.9926L73.8274 72.8148L74.1847 72.9299ZM74.1849 72.9291L74.1846 72.9301L73.8275 72.8146L73.8278 72.8137L74.1849 72.9291ZM74.1852 72.9282L74.1849 72.9291L73.8278 72.8138L73.8281 72.8128L74.1852 72.9282ZM74.1852 72.9284L74.1851 72.9285L73.8282 72.8125L73.8282 72.8124L74.1852 72.9284ZM73.9489 73.0489C72.4416 72.5607 71.3948 70.8734 70.847 68.2601C70.2962 65.6332 70.234 62.006 70.7541 57.519L71.1269 57.5622C70.6093 62.0285 70.6751 65.6111 71.2143 68.1831C71.7564 70.7688 72.7616 72.2698 74.0645 72.6918L73.9489 73.0489ZM70.8671 57.7133L70.8622 57.7112L71.0092 57.3658L71.014 57.3679L70.8671 57.7133ZM70.7493 57.5169C71.5693 50.4501 73.6806 42.5588 76.4316 35.5119C79.1813 28.4685 82.5771 22.25 85.9757 18.5409L86.2524 18.7944C82.8996 22.4537 79.5241 28.6225 76.7813 35.6484C74.0398 42.6708 71.9378 50.5307 71.1221 57.5601L70.7493 57.5169ZM85.9756 18.5409C87.2148 17.1876 88.3765 16.2525 89.4426 15.7218C90.5102 15.1905 91.4942 15.0594 92.3615 15.3382L92.2466 15.6956C91.4991 15.4553 90.6185 15.5559 89.6099 16.0579C88.5998 16.5606 87.474 17.4604 86.2525 18.7944L85.9756 18.5409Z" fill="#44E841"/>
</mask>
<g mask="url(#mask1_1742_19014)">
<circle cx="38.2989" cy="38.2989" r="38.2989" transform="matrix(-0.37428 -0.927316 -0.927316 0.37428 135.875 67.7383)" fill="#1B1B1C"/>
</g>
<path d="M97.1253 45.5502C96.7555 46.8388 96.3543 48.1198 95.9343 49.384L91.7268 48.0291C92.1489 46.76 92.5466 45.4804 92.9178 44.1953L97.1253 45.5502Z" fill="#0BB01C"/>
<path d="M94.6926 37.0102C95.1349 34.849 95.4853 32.7208 95.7245 30.6578C96.771 21.6154 95.4659 16.0969 92.6258 15.1834L96.8332 16.5383C99.6733 17.4517 100.98 22.9738 99.932 32.0127C99.6914 34.0722 99.3423 36.2039 98.9 38.3651L94.6926 37.0102Z" fill="#0BB01C"/>
<path fill-rule="evenodd" clip-rule="evenodd" d="M73.9808 73.0145C75.6323 73.6771 77.8335 72.715 80.4102 69.9C87.2238 62.4589 94.0804 44.8922 95.73 30.6598C97.3776 16.4323 93.1928 10.9245 86.3792 18.3657C81.0401 24.1927 75.6763 36.2387 72.8096 48.0249L73.1346 47.2905C72.4469 50.1265 71.9243 52.9405 71.6157 55.6235L71.6171 55.627C70.3314 66.7152 73.0897 71.758 77.9115 68.1582C73.0929 71.7506 70.3369 66.7075 71.6222 55.6231C73.0642 43.1613 79.0779 27.7554 85.0472 21.2388C90.0485 15.7747 93.4345 18.2809 93.5502 26.5737L93.5493 26.5102L96.0827 24.3687C96.1078 25.8141 96.0438 27.4091 95.8834 29.1564L93.3749 30.7082C93.4198 30.2113 93.4558 29.7287 93.4835 29.26C93.4317 30.1311 93.3506 31.0497 93.2389 32.014C92.2046 40.9543 88.8201 51.4017 84.7873 59.0013L86.0807 61.4554C85.1926 63.1235 84.279 64.668 83.3536 66.0633L82.3999 63.0401C81.6536 64.1621 80.8972 65.1687 80.1401 66.036L80.7741 69.4752C80.6499 69.6185 80.5258 69.7619 80.4023 69.8969C77.8297 72.7074 75.6314 73.6709 73.9808 73.0145Z" fill="url(#paint2_linear_1742_19014)"/>
<path d="M74.1555 73.0766L78.363 74.4315C79.9948 74.9568 82.1272 73.9664 84.6116 71.2526C91.4251 63.8114 98.2817 46.2448 99.9314 32.0124C100.978 22.97 99.6727 17.4514 96.8326 16.538L92.6251 15.1831C95.4652 16.0966 96.7718 21.6186 95.7239 30.6575C94.0743 44.8899 87.2176 62.4565 80.4041 69.8977C77.9197 72.6115 75.7873 73.6019 74.1555 73.0766Z" stroke="#0500FF" stroke-width="0.375334" stroke-miterlimit="10"/>
<path d="M71.0619 57.5986C72.7129 43.3696 79.5681 25.7995 86.3831 18.3618C93.1967 10.9206 97.3815 16.4284 95.7339 30.6559C94.0843 44.8883 87.2277 62.4549 80.4141 69.8961C73.604 77.3359 69.4171 71.833 71.0668 57.6006L71.0619 57.5986Z" stroke="#0500FF" stroke-width="0.375334" stroke-miterlimit="10"/>
<mask id="mask2_1742_19014" style="mask-type:alpha" maskUnits="userSpaceOnUse" x="30" y="15" width="58" height="57">
<path fill-rule="evenodd" clip-rule="evenodd" d="M31.6264 45.7801C35.7325 60.5911 50.792 72.0803 65.2626 71.4491C71.6462 71.1714 76.8493 68.582 80.3192 64.5033L81.5796 63.1782C86.5004 58.008 88.4095 50.0971 85.9961 41.393C81.8917 26.5869 66.8322 15.0977 52.3583 15.7273C46.3907 15.9856 41.4543 18.2654 38.0022 21.8964L36.3268 23.6578C34.7563 25.2471 33.4785 27.1075 32.5335 29.1793C30.3737 33.8549 29.9153 39.6181 31.623 45.7784L31.6264 45.7801ZM50.3976 17.7438L50.4112 17.7428C48.3453 17.8347 46.403 18.1695 44.6034 18.7188C46.399 18.1711 48.3367 17.8369 50.3976 17.7438ZM51.5929 17.7165C51.9524 17.7168 52.3121 17.7245 52.6718 17.7393C59.0337 17.998 65.3937 20.5023 70.7783 24.5086C71.2585 24.865 71.7308 25.2332 72.1943 25.6129L72.1932 25.6144C77.7799 30.197 82.1422 36.4349 84.0751 43.4077C85.784 49.5717 85.3259 55.3379 83.1652 60.0151C83.0626 60.2402 82.9559 60.4628 82.8455 60.6828C85.2815 55.8924 85.8718 49.8683 84.0803 43.4071C80.0845 28.9929 65.7074 17.7192 51.5929 17.7165Z" fill="#44E841"/>
</mask>
<g mask="url(#mask2_1742_19014)">
<ellipse cx="60.2897" cy="44.5243" rx="38.2345" ry="38.048" transform="rotate(-153.598 60.2897 44.5243)" fill="#E84142"/>
</g>
<path fill-rule="evenodd" clip-rule="evenodd" d="M48.6898 44.0943C47.8735 45.9964 49.4335 47.7198 51.7402 49.3134L50.313 51.7772L52.1768 52.8805L53.5663 50.4815C54.0556 50.7713 54.5608 51.06 55.0628 51.3465L53.6637 53.7611L55.5258 54.8637L56.9534 52.401C57.3606 52.6333 57.7602 52.8618 58.1466 53.0903L58.1424 53.0981L60.7118 54.6203L61.6392 53.0183C61.6392 53.0183 60.2511 52.2248 60.2858 52.2179C59.5312 51.7709 59.4893 51.2726 59.5947 50.9262L61.2206 48.1193C61.1686 48.0882 61.1017 48.0462 61.0297 47.9922L61.2261 48.1083L63.505 44.1768C63.6488 44.0052 63.965 43.783 64.4927 44.0945C64.4787 44.0634 65.8469 44.8967 65.8469 44.8967L67.2548 43.3244L64.8296 41.8886C64.5561 41.7264 64.2865 41.5635 64.0199 41.4025L64.0192 41.4021L64.0182 41.4015C63.8457 41.2974 63.6745 41.1939 63.5042 41.0919L64.9471 38.5991L63.0861 37.4968L61.6573 39.9622C61.1518 39.6513 60.6591 39.3552 60.1761 39.0697L61.5986 36.616L59.7354 35.513L58.2938 38.0001C55.0777 36.2901 52.5168 35.627 50.8742 37.8334C49.5499 39.6097 50.1707 41.1199 51.7496 42.5169C50.4127 42.321 49.2854 42.7012 48.6904 44.0945L48.6898 44.0943ZM54.3831 40.3097C55.3728 38.6002 58.6873 40.6133 60.2025 41.5336L60.2025 41.5337C60.3382 41.6161 60.4594 41.6897 60.5633 41.7511L58.6502 45.0524C58.5233 44.9772 58.3674 44.8889 58.1908 44.7888C56.6105 43.893 53.3718 42.0571 54.3826 40.3095L54.3831 40.3097ZM57.4702 46.3788C56.2065 45.6081 53.4522 43.9281 52.552 45.4806C51.6315 47.0691 54.3348 48.5931 55.6551 49.3374C55.8035 49.4211 55.9344 49.4949 56.0408 49.5578L57.7756 46.5635C57.6878 46.5115 57.5851 46.4489 57.4702 46.3788Z" fill="white"/>
<ellipse cx="57.1467" cy="45.0172" rx="25.8732" ry="20.7059" transform="rotate(-148.396 57.1467 45.0172)" fill="#E84142"/>
<mask id="mask3_1742_19014" style="mask-type:alpha" maskUnits="userSpaceOnUse" x="32" y="22" width="50" height="46">
<ellipse cx="57.1467" cy="45.0172" rx="25.8732" ry="20.7059" transform="rotate(-148.396 57.1467 45.0172)" fill="white"/>
</mask>
<g mask="url(#mask3_1742_19014)">
<path d="M47.3659 38.4739C47.454 39.9045 48.5779 40.596 49.8946 40.0298L58.1868 36.4903C59.4935 35.9405 59.415 34.7641 58.0302 33.912L49.2399 28.5035C47.8351 27.6391 46.7495 28.0993 46.8477 29.5135L47.3659 38.4739Z" fill="white"/>
<path d="M48.232 49.175L48.5916 53.9793L48.7397 56.0346C48.8569 57.484 50.0281 58.2046 51.3748 57.656L76.0754 47.5004C77.422 46.9519 77.3093 45.7763 75.8453 44.8755L72.1227 42.585L69.5713 41.0151L69.1321 40.7449C67.9191 39.9986 66.0002 39.7435 64.8799 40.2055L50.0761 46.1781C48.9967 46.6202 48.1603 47.9795 48.232 49.175Z" fill="white"/>
</g>
<path fill-rule="evenodd" clip-rule="evenodd" d="M31.473 45.82C35.5638 60.716 50.6505 72.2478 65.1702 71.5843C79.6932 70.9224 88.1503 58.3137 84.0596 43.4177C82.1316 36.3966 77.7591 30.1216 72.1533 25.5196L69.9735 28.2449C68.7872 27.2724 67.5379 26.3865 66.2418 25.5976C72.9142 29.6671 78.3172 36.2996 80.4139 43.9362C84.0002 56.9865 76.5853 68.0398 63.8592 68.6217C51.1364 69.2052 37.909 59.0909 34.326 46.0421C30.7605 33.0663 38.0792 22.0581 50.6793 21.3717L50.1961 17.6648C35.7772 18.4158 27.3961 30.9837 31.4697 45.8183L31.473 45.82ZM62.7728 19.9063L61.7271 23.3213C62.9972 23.8345 64.2412 24.4399 65.4474 25.1286L67.0082 21.9684C65.6351 21.183 64.219 20.4924 62.7728 19.9063Z" fill="url(#paint3_linear_1742_19014)"/>
<path d="M82.1787 62.2385C85.3194 57.1609 86.2574 50.4759 84.2793 43.2735C80.1692 28.3062 65.0111 16.7071 50.3921 17.3766C45.9125 17.5798 42.0004 18.9158 38.8475 21.1024C42.2272 17.9415 46.8393 15.9664 52.3356 15.7172C66.7641 15.0599 81.7775 26.5273 85.8456 41.3417C88.1069 49.575 86.5052 57.0846 82.1787 62.2385Z" fill="#1B1B1C" stroke="#0500FF" stroke-width="0.372076"/>
<path fill-rule="evenodd" clip-rule="evenodd" d="M70.8733 67.0608C79.1269 63.4945 83.2678 54.3542 80.4067 43.9426C76.8254 30.8989 63.598 20.7845 50.8752 21.3681C39.0402 21.9062 31.7969 31.5086 33.7264 43.3449L70.8733 67.0608Z" fill="url(#paint4_linear_1742_19014)"/>
<path d="M41.2772 62.0725C29.1083 50.7075 26.6638 33.6583 35.6944 23.9888C44.7251 14.3195 61.9015 15.5946 74.0703 26.9594C86.2392 38.3243 88.6836 55.3736 79.6532 65.0431C70.6225 74.7126 53.4462 73.4374 41.2772 62.0725Z" stroke="#0500FF" stroke-width="0.372076"/>
<mask id="mask4_1742_19014" style="mask-type:alpha" maskUnits="userSpaceOnUse" x="13" y="33" width="63" height="45">
<path fill-rule="evenodd" clip-rule="evenodd" d="M64.9772 75.5151C52.9297 80.4455 33.7499 76.2258 22.1355 66.0896C10.523 55.9567 10.882 43.7439 22.9295 38.8136C34.9804 33.8812 54.1602 38.101 65.7693 48.2358C67.0074 49.3163 68.1094 50.4203 69.0758 51.5367C68.1086 50.4188 67.0054 49.313 65.7657 48.2308C54.1566 38.096 34.9768 33.8763 22.9259 38.8086C18.3286 40.6916 15.4321 43.6302 14.2574 47.1119L15.4785 43.4886C16.6571 40.0054 19.5524 37.0609 24.1494 35.1785C36.2002 30.2462 55.38 34.4659 66.9892 44.6007C74.1694 50.8673 76.7738 57.9297 74.8699 63.5734L73.7423 66.9188C72.6301 70.5275 69.7029 73.581 64.9772 75.5151Z" fill="#0500FF"/>
</mask>
<g mask="url(#mask4_1742_19014)">
<circle cx="46.1993" cy="55.9511" r="35.3659" transform="rotate(149.975 46.1993 55.9511)" fill="#687EE3"/>
</g>
<path fill-rule="evenodd" clip-rule="evenodd" d="M47.0382 63.394C49.5509 64.059 50.7734 63.0306 51.5076 61.4667L54.9319 62.5904L55.3179 61.3184L51.9838 60.2244C52.0853 59.8905 52.1783 59.5453 52.2703 59.2022L55.6264 60.3037L56.0124 59.0329L52.5893 57.909C52.6637 57.6307 52.7374 57.3576 52.8172 57.0939L52.8279 57.0973L53.3616 55.3439L51.1353 54.6137C51.1353 54.6137 50.8794 55.5622 50.8558 55.5373C50.6991 56.0523 50.1581 56.0594 49.7203 55.969L45.8193 54.6889C45.8082 54.7243 45.7917 54.7699 45.7639 54.8185L45.8045 54.6845L40.3397 52.8904C40.0808 52.7806 39.6861 52.5463 39.7944 52.1861C39.7658 52.1946 40.0756 51.2619 40.0756 51.2619L37.6625 50.1923L37.16 51.8474C37.1029 52.0341 37.0434 52.218 36.9846 52.3998L36.9845 52.4002L36.9842 52.401C36.9462 52.5185 36.9084 52.6352 36.8718 52.7513L33.4078 51.6152L33.0216 52.8852L36.4483 54.0101C36.3305 54.3546 36.2235 54.6906 36.1239 55.0202L32.7132 53.9003L32.3272 55.1719L35.7842 56.3068C35.3359 58.5104 35.7643 60.2967 38.9979 61.5615C41.602 62.5811 43.0154 62.2091 43.8622 61.1525C44.2548 62.0918 45.199 62.9086 47.0382 63.3936L47.0382 63.394ZM40.1737 59.1845C37.798 58.4052 38.542 56.1456 38.8821 55.1126L38.8822 55.1125C38.9126 55.02 38.9398 54.9374 38.9612 54.8666L43.5498 56.3728C43.5234 56.4594 43.4956 56.5659 43.464 56.6866L43.464 56.6866C43.1812 57.7669 42.6018 59.9808 40.1737 59.1849L40.1737 59.1845ZM45.582 57.2699C45.2947 58.1312 44.6685 60.0087 46.8267 60.7174C49.0345 61.4421 49.5087 59.5938 49.7403 58.6911C49.7663 58.5896 49.7893 58.5001 49.8113 58.4275L45.6497 57.0617C45.6315 57.1216 45.6081 57.1915 45.582 57.2699Z" fill="white"/>
<ellipse cx="44.1937" cy="57.4357" rx="15.8713" ry="26.2148" transform="rotate(108.905 44.1937 57.4357)" fill="#687EE3"/>
<path d="M35.4207 54.4317L26.7827 51.4735L39.5066 63.0225L35.4207 54.4317Z" fill="#D2D8EC"/>
<path d="M48.75 59L37.6314 55.1922L41.7173 63.783L48.75 59Z" fill="#C4C8D8"/>
<path d="M61.5547 63.3828L48.7528 58.9985L41.72 63.7815L61.5547 63.3828Z" fill="#D0D6EA"/>
<path d="M35.4234 54.4308L26.7854 51.4725L43.918 50.1484L35.4234 54.4308Z" fill="#DEE2F6"/>
<path d="M48.7527 58.9991L37.6341 55.1913L46.1286 50.9089L48.7527 58.9991Z" fill="#D2D8EC"/>
<path d="M61.5535 63.3819L48.7515 58.9976L46.1275 50.9074L61.5535 63.3819Z" fill="#DEE2F6"/>
<path fill-rule="evenodd" clip-rule="evenodd" d="M24.5347 65.8075C34.712 74.6884 51.5285 78.3895 62.083 74.0668L62.0777 74.0654C62.1172 74.0492 62.1565 74.033 62.1957 74.0167C62.1622 74.0294 62.1251 74.044 62.0835 74.061L62.0869 74.059C56.575 76.3179 46.7207 76.642 38.0999 73.3431L48.7931 42.3642C40.5717 39.6199 31.7188 39.246 25.2303 41.9008C14.6739 46.2201 14.3594 56.93 24.5347 65.8075ZM52.9775 43.9933C52.1953 43.6567 51.4315 43.3413 50.7125 43.0526C51.476 43.3458 52.2318 43.6595 52.9775 43.9933ZM68.3079 56.784C68.5665 57.2652 68.8113 57.7607 69.0415 58.2717C69.0503 58.2912 69.059 58.3105 69.0677 58.3299C68.8466 57.816 68.5934 57.3003 68.3079 56.784ZM66.3861 71.5128C65.5553 72.1947 64.7186 72.7307 64.0259 73.1309C63.9819 73.1563 63.9394 73.1808 63.8982 73.2045C64.8306 72.6969 65.6599 72.1303 66.3861 71.5128Z" fill="url(#paint5_linear_1742_19014)"/>
<path d="M42.0376 37.392L43.261 33.762C36.3389 32.5969 29.5271 32.9705 24.1405 35.175C19.5401 37.0592 16.6429 40.0004 15.4696 43.4851L14.2462 47.1151C15.4247 43.6319 18.3201 40.6873 22.917 38.805C28.3037 36.6006 35.1173 36.2303 42.0376 37.392Z" fill="#1B1B1C"/>
<path d="M50.46 39.5582C52.0457 40.11 53.6015 40.7418 55.1235 41.4467L56.347 37.8167C54.825 37.1117 53.2658 36.4819 51.6835 35.9282L50.46 39.5582Z" fill="#1B1B1C"/>
<path fill-rule="evenodd" clip-rule="evenodd" d="M65.7641 48.2343C54.1497 38.0981 34.9699 33.8784 22.9224 38.8087C10.8715 43.741 10.5158 55.9519 22.1303 66.0881C33.7394 76.2229 52.9192 80.4426 64.9701 75.5103C77.0176 70.5799 77.3766 58.3672 65.7641 48.2343ZM62.0927 74.0733C51.5382 78.396 34.7217 74.6949 24.5445 65.814C19.0296 61.0025 16.5961 55.6527 17.2045 51.0739L13.8035 48.9733C14.482 44.6869 17.5281 41.0196 22.9215 38.8113C24.6193 38.1165 26.4656 37.609 28.4036 37.2678L29.8718 40.5809C40.256 38.692 53.9973 42.4957 62.783 50.1651C72.9603 59.0461 72.6492 69.754 62.0874 74.0719L62.0927 74.0733Z" fill="url(#paint6_linear_1742_19014)"/>
<path d="M33.2118 40.1667C34.6265 40.0742 36.0797 40.0715 37.5573 40.1575L37.1069 36.8144C35.4374 36.714 33.7895 36.7129 32.1892 36.8096L33.2118 40.1667Z" fill="white"/>
<path d="M14.2435 47.1094L15.467 43.4793C16.6455 39.9961 19.5408 37.0516 24.1378 35.1692C36.1887 30.2369 55.3685 34.4566 66.9776 44.5915C74.1578 50.858 76.7622 57.9204 74.8583 63.5641L73.6348 67.1941C75.5387 61.5504 72.9363 54.4914 65.7541 48.2215C54.145 38.0867 34.9652 33.867 22.9144 38.7993C18.314 40.6835 15.4167 43.6248 14.2435 47.1094Z" stroke="#0500FF" stroke-width="0.384412" stroke-linecap="round" stroke-linejoin="round"/>
<path d="M22.124 66.085C33.7385 76.2212 52.9182 80.4409 64.9658 75.5105C77.0166 70.5782 77.3723 58.3674 65.7578 48.2312C54.1487 38.0964 34.9689 33.8766 22.9181 38.809C10.8706 43.7393 10.5115 55.9521 22.124 66.085Z" stroke="#0500FF" stroke-width="0.384412" stroke-linecap="round" stroke-linejoin="round"/>
<mask id="mask5_1742_19014" style="mask-type:alpha" maskUnits="userSpaceOnUse" x="10" y="64" width="62" height="37">
<path fill-rule="evenodd" clip-rule="evenodd" d="M66.3777 86.0709C57.1346 94.7294 38.6256 100.929 25.0438 99.9233C17.6558 99.3762 13.2461 96.8082 12.2488 93.1865L11.0471 89.3078C10.0989 86.2417 11.6384 82.3942 15.9367 78.37C25.183 69.7135 43.6908 63.5087 57.2706 64.5177C64.5355 65.0557 68.9213 67.5495 70.0122 71.0777L71.2507 75.0752C72.236 78.1505 70.7037 82.0209 66.3777 86.0709ZM71.2111 74.9558C70.0341 71.5168 65.6731 69.0935 58.5243 68.564C44.9425 67.5583 26.4334 73.7579 17.1904 82.4164C13.512 85.8601 11.8526 89.1769 12.0459 91.9816C11.8577 89.1775 13.5165 85.8663 17.1918 82.4255C26.4348 73.767 44.9439 67.5674 58.5257 68.5731C65.6705 69.1022 70.0299 71.5214 71.2111 74.9558Z" fill="#44E841"/>
<path d="M25.0438 99.9233L25.0303 100.105L25.0438 99.9233ZM66.3777 86.0709L66.2533 85.9381L66.2533 85.9382L66.3777 86.0709ZM12.2488 93.1865L12.4243 93.1382L12.4226 93.1327L12.2488 93.1865ZM11.0471 89.3078L10.8733 89.3616L10.8734 89.3617L11.0471 89.3078ZM15.9367 78.37L15.8124 78.2372L15.9367 78.37ZM57.2706 64.5177L57.2572 64.6991L57.2572 64.6991L57.2706 64.5177ZM70.0122 71.0777L69.8384 71.1314L69.8385 71.1315L70.0122 71.0777ZM71.2507 75.0752L71.077 75.129L71.0775 75.1307L71.2507 75.0752ZM71.2111 74.9558L71.0391 75.015C71.0717 75.11 71.1752 75.1605 71.2701 75.1279C71.3651 75.0953 71.4157 74.992 71.3832 74.8969L71.2111 74.9558ZM58.5243 68.564L58.5377 68.3826L58.5377 68.3826L58.5243 68.564ZM17.1904 82.4164L17.3147 82.5492L17.3148 82.5492L17.1904 82.4164ZM12.0459 91.9816L11.8644 91.9941C11.8713 92.0943 11.9581 92.1699 12.0583 92.1631C12.1585 92.1563 12.2342 92.0696 12.2274 91.9694L12.0459 91.9816ZM17.1918 82.4255L17.3161 82.5583L17.3161 82.5582L17.1918 82.4255ZM58.5257 68.5731L58.5391 68.3917L58.5257 68.5731ZM25.0303 100.105C31.8513 100.61 39.8987 99.3057 47.3955 96.7937C54.8916 94.282 61.8555 90.5564 66.502 86.2037L66.2533 85.9382C61.6568 90.244 54.7447 93.9474 47.2799 96.4487C39.816 98.9497 31.818 100.243 25.0572 99.7419L25.0303 100.105ZM12.0734 93.2348C12.5886 95.1056 13.9816 96.688 16.1632 97.8679C18.3435 99.047 21.3202 99.83 25.0303 100.105L25.0572 99.7419C21.3794 99.4695 18.4573 98.695 16.3363 97.5479C14.2168 96.4016 12.9063 94.8891 12.4242 93.1382L12.0734 93.2348ZM12.4226 93.1327L11.2209 89.254L10.8734 89.3617L12.075 93.2403L12.4226 93.1327ZM11.2209 89.2541C10.3045 86.2906 11.7784 82.5124 16.0611 78.5028L15.8124 78.2372C11.4985 82.276 9.89335 86.1928 10.8733 89.3616L11.2209 89.2541ZM16.0611 78.5028C20.6592 74.198 27.5719 70.4937 35.0364 67.9918C42.5002 65.4901 50.4974 64.1968 57.2572 64.6991L57.2841 64.3363C50.4641 63.8295 42.4174 65.1341 34.9208 67.6468C27.4249 70.1592 20.4606 73.8855 15.8124 78.2372L16.0611 78.5028ZM57.2572 64.6991C60.8736 64.9669 63.7597 65.7208 65.8716 66.8372C67.9824 67.953 69.3109 69.4253 69.8384 71.1314L70.186 71.024C69.6226 69.2019 68.2127 67.6632 66.0417 66.5156C63.8717 65.3685 60.9325 64.6065 57.2841 64.3362L57.2572 64.6991ZM69.8385 71.1315L71.077 75.129L71.4245 75.0213L70.186 71.0239L69.8385 71.1315ZM66.502 86.2038C70.8436 82.1391 72.4424 78.1985 71.424 75.0197L71.0775 75.1307C72.0295 78.1025 70.5638 81.9027 66.2533 85.9381L66.502 86.2038ZM71.3832 74.8969C70.1681 71.3464 65.7001 68.9131 58.5377 68.3826L58.5108 68.7455C65.6461 69.2739 69.9001 71.6872 71.039 75.0148L71.3832 74.8969ZM58.5377 68.3826C51.7167 67.8775 43.6693 69.1816 36.1725 71.6936C28.6765 74.2054 21.7126 77.9309 17.066 82.2836L17.3148 82.5492C21.9112 78.2434 28.8234 74.5399 36.2881 72.0386C43.752 69.5376 51.75 68.2448 58.5108 68.7455L58.5377 68.3826ZM17.066 82.2836C13.3721 85.742 11.6655 89.1086 11.8644 91.9941L12.2274 91.9691C12.0397 89.2452 13.652 85.9783 17.3147 82.5492L17.066 82.2836ZM17.0674 82.2927C13.3765 85.7482 11.6707 89.1091 11.8644 91.9938L12.2274 91.9694C12.0446 89.2459 13.6564 85.9845 17.3161 82.5583L17.0674 82.2927ZM58.5391 68.3917C51.7181 67.8866 43.6707 69.1907 36.1739 71.7027C28.6779 74.2145 21.714 77.94 17.0674 82.2927L17.3161 82.5582C21.9126 78.2525 28.8248 74.549 36.2895 72.0477C43.7534 69.5467 51.7514 68.2539 58.5122 68.7545L58.5391 68.3917ZM71.3831 74.8967C70.1637 71.3509 65.6975 68.9218 58.5391 68.3917L58.5122 68.7545C65.6435 69.2826 69.8961 71.6918 71.0391 75.015L71.3831 74.8967Z" fill="#44E841"/>
</mask>
<g mask="url(#mask5_1742_19014)">
<circle cx="41.3331" cy="82.1242" r="36.9955" transform="rotate(-149.293 41.3331 82.1242)" fill="#E6007A"/>
</g>
<path fill-rule="evenodd" clip-rule="evenodd" d="M35.7738 89.324C36.3579 90.2531 38.5023 89.9535 41.0924 89.2474L41.5891 90.6345L43.5696 90.0132L43.0859 88.6627C43.6059 88.4997 44.1364 88.3284 44.6634 88.1582L45.1499 89.5178L47.1288 88.8972L46.633 87.5102C47.0603 87.372 47.4801 87.2366 47.8905 87.1078L47.8923 87.112L50.6234 86.256L50.2999 85.3543C50.2999 85.3543 48.8421 85.8248 48.8622 85.8057C48.0602 86.0571 47.7276 85.9406 47.5908 85.7929L47.0248 84.2127C46.9694 84.2299 46.8968 84.2516 46.8134 84.2725L47.022 84.207L46.2303 81.9929C46.2269 81.8742 46.3138 81.6561 46.874 81.4799C46.8452 81.4783 48.3134 81.0287 48.3134 81.0287L48.3455 79.8968L45.7683 80.7051C45.4773 80.7962 45.1888 80.8852 44.9034 80.9733L44.903 80.9734L44.9023 80.9736C44.7176 81.0306 44.5343 81.0871 44.3525 81.1435L43.8491 79.7407L41.8712 80.3609L42.3678 81.7491C41.8235 81.9144 41.2973 82.0774 40.7843 82.2385L40.2904 80.8566L38.3104 81.4776L38.8113 82.8782C35.5117 84.0036 33.3094 85.0921 33.4983 86.5152C33.649 87.6618 35.0041 87.7696 36.9632 87.3707C35.9049 87.9804 35.3445 88.6447 35.7744 89.3238L35.7738 89.324ZM37.4702 85.4559C37.125 84.4938 40.6782 83.4031 42.3025 82.9045L42.3027 82.9044C42.448 82.8598 42.578 82.8199 42.6883 82.7853L43.3534 84.6442C43.2185 84.6865 43.0552 84.7395 42.8703 84.7996C41.2151 85.3373 37.8231 86.4392 37.4697 85.4561L37.4702 85.4559ZM43.3318 85.5954C41.9752 86.0103 39.0182 86.9147 39.3307 87.7892C39.6507 88.6836 42.4769 87.7616 43.8572 87.3112C44.0124 87.2606 44.1493 87.2159 44.2623 87.1805L43.6587 85.4946C43.5654 85.5239 43.4552 85.5576 43.3318 85.5954Z" fill="white"/>
<ellipse cx="42.2747" cy="85.3741" rx="24.7982" ry="10.7051" transform="rotate(163.113 42.2747 85.3741)" fill="#E6007A"/>
<path d="M43.5463 89.5662C40.2141 90.5778 37.7187 92.0764 37.9728 92.9133C38.2269 93.7503 41.1342 93.6088 44.4664 92.5972C47.7987 91.5857 50.294 90.0871 50.0399 89.2501C49.7858 88.4131 46.8785 88.5546 43.5463 89.5662Z" fill="white"/>
<path d="M40.0815 78.1482C36.7492 79.1598 34.2539 80.6584 34.508 81.4954C34.7621 82.3324 37.6694 82.1909 41.0016 81.1793C44.3338 80.1677 46.8292 78.6691 46.5751 77.8321C46.321 76.9951 43.4137 77.1366 40.0815 78.1482Z" fill="white"/>
<path d="M51.3186 84.9159C50.0307 86.6675 50.4508 88.0134 52.257 87.9222C54.0632 87.831 56.5714 86.3371 57.8594 84.5855C59.1473 82.834 58.7272 81.488 56.921 81.5793C55.1148 81.6705 52.6066 83.1644 51.3186 84.9159Z" fill="white"/>
<path d="M26.6858 86.1581C25.3979 87.9097 25.818 89.2556 27.6242 89.1644C29.4304 89.0731 31.9386 87.5793 33.2266 85.8277C34.5145 84.0762 34.0944 82.7302 32.2882 82.8215C30.482 82.9127 27.9737 84.4066 26.6858 86.1581Z" fill="white"/>
<path d="M49.1538 77.7042C47.6017 78.6324 48.0007 79.9848 50.045 80.7247C52.0893 81.4647 55.0048 81.3121 56.5569 80.3839C58.109 79.4556 57.71 78.1033 55.6657 77.3633C53.6214 76.6233 50.7059 76.7759 49.1538 77.7042Z" fill="white"/>
<path d="M27.9898 90.3643C26.4377 91.2926 26.8367 92.6449 28.881 93.3849C30.9253 94.1249 33.8407 93.9722 35.3928 93.044C36.9449 92.1158 36.5459 90.7634 34.5016 90.0234C32.4573 89.2835 29.5418 89.4361 27.9898 90.3643Z" fill="white"/>
<path fill-rule="evenodd" clip-rule="evenodd" d="M21.725 78.708C22.4012 78.2566 23.1009 77.8156 23.8215 77.386L22.5537 73.2939C23.981 72.4423 25.4848 71.6361 27.0525 70.8814L28.3213 74.9767C37.7726 70.4304 49.4377 67.7475 58.7944 68.4403C66.1493 68.985 70.5912 71.5086 71.6996 75.0794L70.4316 70.9866C69.3264 67.4126 64.8837 64.8864 57.5244 64.3414C43.7682 63.3193 25.0199 69.6047 15.6535 78.3737C12.2984 81.5148 10.6026 84.5496 10.4405 87.198C10.6046 84.5518 12.3016 81.5173 15.6539 78.3788C17.0593 77.0646 18.6791 75.8058 20.4583 74.6192L21.725 78.708ZM11.9387 93.4505C11.8809 93.2505 11.8334 93.0473 11.7964 92.841C11.8398 93.0811 11.8974 93.3169 11.969 93.5484L11.9387 93.4505Z" fill="#1B1B1C"/>
<path d="M24.8695 100.211C38.6278 101.23 57.3773 94.9497 66.7405 86.1788C76.1069 77.4098 72.5447 69.4724 58.7865 68.4536C45.0282 67.4348 26.2786 73.715 16.9155 82.4859C7.54907 91.2549 11.1113 99.1923 24.8695 100.211ZM20.2869 83.6521C28.4915 75.9688 44.9304 70.4607 56.9838 71.3526C69.0372 72.2444 72.1642 79.204 63.9542 86.8887C55.7496 94.5719 39.3107 100.08 27.2573 99.1882C15.2039 98.2963 12.077 91.3367 20.2869 83.6521Z" fill="url(#paint7_linear_1742_19014)"/>
<path d="M61.7307 72.1276C69.7038 74.3184 70.9439 80.3373 63.95 86.8829C61.7392 88.955 58.9285 90.8642 55.7674 92.5382L57.341 92.6591C60.9736 90.7436 64.2033 88.5529 66.7395 86.175C74.7078 78.7155 73.3135 71.8588 64.2524 69.35L61.7287 72.1309L61.7307 72.1276Z" fill="url(#paint8_linear_1742_19014)"/>
<path d="M46.5202 71.942C48.1762 71.6667 49.818 71.4685 51.4203 71.3592L52.4798 68.4549C50.6475 68.5805 48.7752 68.8037 46.8807 69.1171L46.5202 71.942Z" fill="white"/>
<path d="M11.9637 93.5632L10.6938 89.4643C9.73327 86.3583 11.2928 82.4608 15.647 78.3843C25.0134 69.6153 43.7616 63.3299 57.5179 64.352C64.8771 64.897 69.3199 67.4233 70.425 70.9973L71.695 75.0962C70.5898 71.5222 66.147 68.996 58.7878 68.4509C45.0296 67.4321 26.28 73.7123 16.9169 82.4833C12.5627 86.5597 11.0012 90.4605 11.9637 93.5632Z" stroke="#0500FF" stroke-width="0.363847" stroke-linecap="round" stroke-linejoin="round"/>
<path d="M24.8695 100.211C38.6278 101.23 57.3773 94.9497 66.7405 86.1788C76.1069 77.4098 72.5447 69.4724 58.7865 68.4536C45.0282 67.4348 26.2786 73.715 16.9155 82.4859C7.54907 91.2549 11.1113 99.1923 24.8695 100.211Z" stroke="#0500FF" stroke-width="0.363847" stroke-linecap="round" stroke-linejoin="round"/>
<path fill-rule="evenodd" clip-rule="evenodd" d="M27.2555 99.1819C39.3089 100.074 55.7478 94.5657 63.9524 86.8824C72.1623 79.1978 69.0353 72.2382 56.982 71.3463C49.5007 70.7927 40.33 72.7047 32.4874 76.072" fill="url(#paint9_linear_1742_19014)"/>
<mask id="mask6_1742_19014" style="mask-type:alpha" maskUnits="userSpaceOnUse" x="28" y="73" width="51" height="51">
<path fill-rule="evenodd" clip-rule="evenodd" d="M31.1879 113.81C31.3933 112.658 31.7263 111.42 32.1941 110.101C36.3866 98.2617 49.8471 84.3484 62.2475 79.0284C74.6515 73.7102 81.3042 78.9946 77.1064 90.8356C72.9139 102.675 59.4534 116.588 47.0529 121.908C40.2863 124.809 35.2313 124.555 32.7155 121.803L29.9284 118.969C27.7011 116.704 27.3083 112.616 29.2569 107.109C33.4547 95.2681 46.9099 81.3565 59.3103 76.0365C65.943 73.1912 70.9334 73.3783 73.4977 75.9838L76.4356 78.9709C73.8713 76.3654 68.8826 76.1748 62.2482 79.0236C49.8478 84.3436 36.3873 98.2568 32.1948 110.096C31.7263 111.417 31.393 112.657 31.1879 113.81Z" fill="#44E841"/>
</mask>
<g mask="url(#mask6_1742_19014)">
<ellipse cx="52.0683" cy="99.3697" rx="34.3158" ry="26.0943" transform="rotate(-62.8659 52.0683 99.3697)" fill="#F6921A"/>
</g>
<path fill-rule="evenodd" clip-rule="evenodd" d="M60.7941 101.044C62.6164 99.286 62.5735 98.0112 61.8973 96.9517L64.5302 94.624L63.8655 93.9274L61.302 96.1937C61.1276 96.0107 60.9408 95.8309 60.7549 95.6524L63.3355 93.3712L62.6716 92.6749L60.0392 95.0016C59.8883 94.857 59.7406 94.7146 59.6027 94.5704L59.6108 94.5631L58.6953 93.6015L56.9839 95.1149C56.9839 95.1149 57.497 95.6094 57.467 95.6201C57.7359 95.9025 57.4469 96.3276 57.1469 96.6417L54.1475 99.2935C54.1658 99.3131 54.1882 99.3402 54.2066 99.377L54.1365 99.3037L49.9341 103.018C49.718 103.186 49.3425 103.422 49.1537 103.226C49.1441 103.251 48.6712 102.719 48.6712 102.719L46.6249 104.273L47.4897 105.18C47.587 105.282 47.6811 105.386 47.7742 105.488L47.7743 105.488L47.7744 105.489C47.8347 105.555 47.8945 105.621 47.9545 105.686L45.2915 108.04L45.9548 108.737L48.5898 106.407C48.7626 106.606 48.9355 106.794 49.108 106.975L46.4851 109.293L47.1496 109.989L49.8079 107.64C51.0793 108.674 52.54 108.894 55.1662 106.759C57.2819 105.04 57.794 103.82 57.5278 102.83C58.3868 102.815 59.4612 102.33 60.7939 101.043L60.7941 101.044ZM54.171 105.102C52.3447 106.717 51.1955 105.434 50.6701 104.848C50.6231 104.795 50.581 104.748 50.5439 104.709L54.0723 101.59C54.1175 101.638 54.1756 101.693 54.2414 101.755C54.8304 102.311 56.0376 103.452 54.1713 105.102L54.171 105.102ZM55.7927 100.28C56.2288 100.772 57.1792 101.845 58.8389 100.378C60.5366 98.877 59.5236 97.9325 59.0288 97.4712C58.9732 97.4194 58.9241 97.3736 58.8862 97.3339L55.6863 100.163C55.7176 100.196 55.753 100.235 55.7927 100.28Z" fill="white"/>
<path d="M57.7914 113.888C46.4293 121.718 36.0553 122.442 34.5961 115.569C33.1369 108.697 41.1812 96.7524 52.5149 88.9471C63.8771 81.117 74.24 80.3805 75.7103 87.2658C77.1521 94.1758 69.1251 106.083 57.7914 113.888Z" fill="#F6921A"/>
<path d="M61.2858 102.692C63.9992 100.631 64.6126 98.5702 64.5085 96.5473L68.3245 93.9125L68.0434 92.4927L64.3131 95.0533C64.2332 94.6729 64.1249 94.3172 64.0562 93.9497L67.815 91.3644L67.5339 89.9446L63.718 92.5794C63.6541 92.2751 63.5617 91.9956 63.509 91.7041L63.1161 89.7518L60.6387 91.4506C60.6387 91.4506 60.8797 92.478 60.8685 92.4652C60.974 93.0482 60.4985 93.5954 60.0307 93.9786L55.6739 96.97C55.6676 97.0205 55.701 97.059 55.7058 97.1222C55.7121 97.0718 55.6787 97.0333 55.6739 96.97L49.563 101.168C49.2616 101.339 48.7619 101.57 48.6709 101.177C48.6535 101.215 48.4411 100.163 48.4411 100.163L45.6033 101.792L45.9976 103.63C46.0552 103.985 46.1413 104.315 46.1878 104.657L42.3322 107.304L42.6133 108.723L46.4292 106.089C46.4805 106.494 46.5603 106.874 46.6576 107.217L42.8702 109.827L43.1513 111.247L47.0069 108.6C47.735 110.824 49.0775 111.795 52.7764 109.487C55.7583 107.62 56.8927 105.872 57.1573 104.159C57.9768 104.527 59.2907 104.197 61.2858 102.692ZM52.6012 106.401C49.7194 108.383 49.4218 105.157 49.1968 104.206L54.3054 100.697C54.5304 101.649 55.6083 104.333 52.6012 106.401ZM59.6786 100.781C57.0474 102.59 56.8394 99.8709 56.6575 99.0845L61.2934 95.896C61.4753 96.6824 62.4351 98.8849 59.6786 100.781Z" fill="white"/>
<path d="M32.1914 110.094C32.8204 108.316 33.6606 106.495 34.6749 104.662L31.737 101.675C30.7262 103.51 29.8842 105.334 29.2535 107.107C27.3014 112.612 27.6977 116.702 29.925 118.967L32.8628 121.954C30.6355 119.689 30.2428 115.6 32.1914 110.094Z" fill="#1B1B1C"/>
<path d="M35.783 95.4592C34.758 96.8223 33.8137 98.2001 32.9607 99.5805L35.8986 102.568C36.7569 101.186 37.7012 99.8076 38.7209 98.4463L35.783 95.4592Z" fill="#1B1B1C"/>
<path d="M75.0031 92.7206C71.329 103.092 59.528 115.291 48.6648 119.952C37.8016 124.614 31.9674 119.979 35.6433 109.604C39.3173 99.2329 51.1184 87.0341 61.9816 82.3724C72.8448 77.7107 78.679 82.3457 75.0031 92.7206Z" fill="url(#paint10_linear_1742_19014)"/>
<path fill-rule="evenodd" clip-rule="evenodd" d="M69.236 77.0631C67.1897 77.284 64.8444 77.9328 62.247 79.0465C49.8465 84.3665 36.386 98.2797 32.1935 110.119C27.9957 121.96 34.6484 127.244 47.0524 121.926C59.3781 116.638 72.7512 102.86 77.029 91.0678C75.8863 94.212 74.0942 97.4937 71.8549 100.719L70.4477 101.323C65.045 109.125 56.6056 116.557 48.6671 119.963C37.8039 124.625 31.9697 119.99 35.6456 109.615C38.3294 102.039 45.3494 93.4883 53.1727 87.6121L52.2182 85.0016C53.7184 83.8732 55.2475 82.8348 56.7808 81.9003L57.1622 84.8972C58.7705 83.9162 60.3873 83.0683 61.9839 82.3832C63.5897 81.6941 65.0856 81.2081 66.4571 80.9138L66.4553 80.9129C66.4567 80.9126 66.4581 80.9123 66.4595 80.912L66.4592 80.9134C67.744 80.6378 68.9196 80.5305 69.9743 80.5819C68.9198 80.5301 67.7442 80.637 66.4595 80.912L67.4023 77.3606C68.0374 77.2256 68.649 77.1267 69.236 77.0631Z" fill="url(#paint11_linear_1742_19014)"/>
<path fill-rule="evenodd" clip-rule="evenodd" d="M32.7332 121.82L32.8668 121.956C32.336 121.416 31.9092 120.772 31.5933 120.031C31.8818 120.711 32.2635 121.309 32.7332 121.82ZM34.6732 104.663C35.0582 103.965 35.4684 103.266 35.9018 102.567L32.9691 99.5849C33.8221 98.2045 34.7664 96.8267 35.7914 95.4636L38.7256 98.447C44.8909 90.2348 53.815 82.6416 62.2488 79.0233C68.8833 76.1746 73.8719 76.3652 76.4362 78.9707L73.4983 75.9836C70.934 73.3781 65.9436 73.191 59.311 76.0363C46.9105 81.3563 33.4553 95.2678 29.2575 107.109C27.9181 110.894 27.6849 114.009 28.3934 116.322C27.6869 114.009 27.9201 110.896 29.2605 107.117C29.8912 105.344 30.7332 103.52 31.744 101.685L34.6732 104.663Z" fill="url(#paint12_linear_1742_19014)"/>
<path d="M32.8629 121.964L29.9251 118.976C27.6978 116.712 27.305 112.623 29.2536 107.117C33.4514 95.2756 46.9066 81.3641 59.307 76.0441C65.9397 73.1988 70.9301 73.3859 73.4944 75.9914L76.4323 78.9785C73.868 76.373 68.8794 76.1824 62.2449 79.0312C49.8445 84.3512 36.384 98.2644 32.1915 110.104C30.2394 115.609 30.6356 119.699 32.8629 121.964Z" stroke="#0500FF" stroke-width="0.357457" stroke-linecap="round" stroke-linejoin="round"/>
<path d="M47.0524 121.914C59.4528 116.594 72.9133 102.681 77.1058 90.8419C81.3036 79.0009 74.6509 73.7165 62.247 79.0347C49.8465 84.3547 36.386 98.268 32.1935 110.107C27.9957 121.948 34.6484 127.233 47.0524 121.914Z" stroke="#0500FF" stroke-width="0.357457" stroke-linecap="round" stroke-linejoin="round"/>
<mask id="mask7_1742_19014" style="mask-type:alpha" maskUnits="userSpaceOnUse" x="68" y="74" width="31" height="69">
<path fill-rule="evenodd" clip-rule="evenodd" d="M78.018 75.2365L77.9698 75.037L77.9697 75.0371L77.9695 75.0371L77.9677 75.0375L73.1877 76.1965C71.4562 76.6156 70.1429 78.4188 69.3124 81.3022C68.4775 84.2006 68.1077 88.2618 68.3187 93.3356L68.3187 93.3357C68.6522 101.325 70.3657 110.342 72.8658 118.467C75.3647 126.587 78.6559 133.837 82.1567 138.276C83.4337 139.896 84.6579 141.04 85.8085 141.722C86.9608 142.406 88.0526 142.633 89.0486 142.392L88.9989 142.187L89.0486 142.392L93.8285 141.233L93.8306 141.232L93.785 141.044L93.781 141.027L93.7796 141.022C97.0049 140.235 98.9074 134.216 98.4848 124.096L98.4904 124.094C97.8231 108.162 91.6521 88.0943 84.6956 79.2788C82.1597 76.063 79.8708 74.7872 78.018 75.2365Z" fill="#44E841"/>
<path d="M78.018 75.2365L77.8131 75.2861L77.8627 75.4911L78.0677 75.4414L78.018 75.2365ZM77.9698 75.037L78.1747 74.9874L78.1251 74.7826L77.9203 74.832L77.9698 75.037ZM77.9697 75.0371L78.0187 75.2422L78.0191 75.2421L77.9697 75.0371ZM77.9695 75.0371L77.9205 74.832L77.9196 74.8322L77.9695 75.0371ZM77.9677 75.0375L78.0174 75.2425L78.0175 75.2424L77.9677 75.0375ZM73.1877 76.1965L73.2373 76.4014L73.2374 76.4014L73.1877 76.1965ZM69.3124 81.3022L69.1098 81.2438L69.1098 81.2438L69.3124 81.3022ZM68.3187 93.3356L68.1079 93.3444L68.1083 93.3497L68.3187 93.3356ZM68.3187 93.3357L68.5294 93.3269L68.5291 93.3216L68.3187 93.3357ZM72.8658 118.467L73.0674 118.405L72.8658 118.467ZM82.1567 138.276L82.3223 138.146L82.3223 138.146L82.1567 138.276ZM85.8085 141.722L85.7009 141.904L85.8085 141.722ZM89.0486 142.392L89.0982 142.597L89.3032 142.547L89.2535 142.342L89.0486 142.392ZM88.9989 142.187L89.2039 142.137L88.794 142.237L88.9989 142.187ZM89.0486 142.392L88.8436 142.441L88.8933 142.646L89.0983 142.597L89.0486 142.392ZM93.8285 141.233L93.7788 141.028L93.7788 141.028L93.8285 141.233ZM93.8306 141.232L93.8803 141.437L94.0852 141.387L94.0356 141.182L93.8306 141.232ZM93.785 141.044L93.9899 140.994L93.9899 140.994L93.785 141.044ZM93.781 141.027L93.576 141.077L93.576 141.077L93.781 141.027ZM93.7796 141.022L93.7296 140.817L93.525 140.867L93.5746 141.071L93.7796 141.022ZM98.4848 124.096L98.4168 123.896L98.2675 123.947L98.2741 124.105L98.4848 124.096ZM98.4904 124.094L98.5584 124.293L98.7077 124.243L98.7011 124.085L98.4904 124.094ZM84.6956 79.2788L84.53 79.4094L84.53 79.4094L84.6956 79.2788ZM78.223 75.1869L78.1747 74.9874L77.7648 75.0867L77.8131 75.2861L78.223 75.1869ZM77.9203 74.832L77.9202 74.8321L78.0191 75.2421L78.0192 75.242L77.9203 74.832ZM77.9207 74.832L77.9205 74.832L78.0185 75.2422L78.0187 75.2422L77.9207 74.832ZM77.9196 74.8322L77.9178 74.8326L78.0175 75.2424L78.0193 75.242L77.9196 74.8322ZM77.918 74.8326L73.138 75.9916L73.2374 76.4014L78.0174 75.2425L77.918 74.8326ZM73.1381 75.9915C71.2889 76.4392 69.9446 78.3454 69.1098 81.2438L69.515 81.3605C70.3412 78.4923 71.6235 76.7921 73.2373 76.4014L73.1381 75.9915ZM69.1098 81.2438C68.2662 84.1726 67.8965 88.2589 68.108 93.3444L68.5294 93.3269C68.3189 88.2647 68.6889 84.2287 69.515 81.3605L69.1098 81.2438ZM68.1083 93.3497L68.1083 93.3498L68.5291 93.3216L68.5291 93.3215L68.1083 93.3497ZM68.108 93.3445C68.4424 101.354 70.1599 110.39 72.6643 118.529L73.0674 118.405C70.5716 110.295 68.8621 101.295 68.5294 93.3269L68.108 93.3445ZM72.6643 118.529C75.1662 126.659 78.4668 133.938 81.9911 138.407L82.3223 138.146C78.845 133.736 75.5631 126.515 73.0674 118.405L72.6643 118.529ZM81.9911 138.407C83.2772 140.038 84.52 141.203 85.7009 141.904L85.9161 141.541C84.7957 140.876 83.5902 139.754 82.3223 138.146L81.9911 138.407ZM85.7009 141.904C86.8851 142.606 88.0336 142.855 89.0982 142.597L88.9989 142.187C88.0716 142.411 87.0364 142.205 85.9161 141.541L85.7009 141.904ZM89.2535 142.342L89.2039 142.137L88.794 142.237L88.8436 142.441L89.2535 142.342ZM88.794 142.237L88.8436 142.441L89.2535 142.342L89.2039 142.137L88.794 142.237ZM89.0983 142.597L93.8782 141.438L93.7788 141.028L88.9989 142.187L89.0983 142.597ZM93.8782 141.438L93.8803 141.437L93.781 141.027L93.7788 141.028L93.8782 141.438ZM94.0356 141.182L93.9899 140.994L93.5801 141.094L93.6257 141.282L94.0356 141.182ZM93.9899 140.994L93.9859 140.977L93.576 141.077L93.5801 141.094L93.9899 140.994ZM93.9859 140.978L93.9845 140.972L93.5746 141.071L93.576 141.077L93.9859 140.978ZM93.8295 141.226C95.5595 140.805 96.8724 139.001 97.7028 136.117C98.5375 133.219 98.9073 129.159 98.6955 124.087L98.2741 124.105C98.4849 129.153 98.1147 133.163 97.2975 136.001C96.4759 138.854 95.225 140.452 93.7296 140.817L93.8295 141.226ZM98.5528 124.295L98.5584 124.293L98.4224 123.894L98.4168 123.896L98.5528 124.295ZM98.7011 124.085C98.3666 116.098 96.6531 107.08 94.153 98.9556C91.6542 90.8352 88.3629 83.5858 84.8611 79.1482L84.53 79.4094C87.9847 83.7874 91.2573 90.9795 93.7499 99.0797C96.2413 107.176 97.9469 116.158 98.2797 124.103L98.7011 124.085ZM84.8612 79.1482C83.5841 77.5288 82.3593 76.3846 81.2082 75.7019C80.0556 75.0182 78.9635 74.7902 77.9683 75.0315L78.0677 75.4414C78.9253 75.2335 79.9041 75.4187 80.993 76.0646C82.0836 76.7114 83.2711 77.813 84.53 79.4094L84.8612 79.1482Z" fill="#44E841"/>
</mask>
<g mask="url(#mask7_1742_19014)">
<circle cx="82.4895" cy="110.539" r="43.0355" transform="rotate(-63.7997 82.4895 110.539)" fill="#F0B90B"/>
</g>
<path fill-rule="evenodd" clip-rule="evenodd" d="M87.8321 102.894C87.1497 100.303 86.2834 99.6277 85.3891 99.6311L84.5451 96.0069L83.8972 96.2032L84.719 99.7318C84.5489 99.7832 84.3774 99.8473 84.2072 99.9113L83.3801 96.3593L82.7326 96.5549L83.5762 100.178C83.4382 100.23 83.3025 100.281 83.1683 100.322L83.1656 100.311L82.2718 100.58L82.8207 102.936C82.8207 102.936 83.2919 102.76 83.2909 102.792C83.5534 102.713 83.7597 103.206 83.8886 103.646L84.8502 107.775C84.8684 107.77 84.8926 107.765 84.9223 107.77L84.854 107.79L86.2007 113.575C86.2547 113.859 86.3105 114.322 86.1275 114.379C86.1416 114.401 85.6565 114.521 85.6565 114.521L86.1415 117.195L86.9846 116.94C87.0799 116.911 87.175 116.886 87.2691 116.861L87.2694 116.861C87.3302 116.845 87.3906 116.83 87.4503 116.813L88.3043 120.479L88.9515 120.284L88.1071 116.657C88.2875 116.616 88.4606 116.568 88.6283 116.517L89.4688 120.127L90.1165 119.931L89.2646 116.272C90.3042 115.73 90.849 114.565 90.1325 111.055C89.5558 108.227 88.8771 107.093 88.141 106.774C88.3646 106.008 88.3321 104.789 87.832 102.894L87.8321 102.894ZM88.7506 111.005C89.3363 113.519 88.1634 113.815 87.6272 113.95C87.5792 113.962 87.5363 113.972 87.5002 113.983L86.3694 109.127C86.4135 109.114 86.4661 109.093 86.5257 109.07C87.059 108.862 88.152 108.436 88.7508 111.005L88.7506 111.005ZM85.9594 106.877C86.4079 106.768 87.3855 106.53 86.8537 104.245C86.3096 101.909 85.4007 102.273 84.9569 102.451C84.907 102.471 84.8629 102.489 84.826 102.5L85.8517 106.905C85.8822 106.896 85.9186 106.887 85.9594 106.877Z" fill="white"/>
<ellipse cx="86.5484" cy="108.075" rx="8.06761" ry="27.0688" transform="rotate(-12.747 86.5484 108.075)" fill="#F0B90B"/>
<path d="M80.9945 96.5583L82.5417 90.5178L86.5381 95.3042L85.9715 97.5346L83.4465 94.5175L82.466 98.3276L80.9945 96.5583ZM88.0826 102.131L86.6111 100.362L85.6306 104.172L83.1056 101.155L82.539 103.385L83.4438 107.385L85.9688 110.402L87.5132 117.229L88.9847 118.999L89.5513 116.768L88.0069 109.941L88.9874 106.131L88.0826 102.131ZM90.5318 112.958L89.627 108.958L89.0604 111.189L89.9652 115.189L90.5318 112.958ZM91.5752 114.208L90.5947 118.018L91.4995 122.018L93.0466 115.978L90.5974 105.151L90.0307 107.381L91.5752 114.208ZM87.0148 98.7846L88.4863 100.554L89.3911 104.554L89.9577 102.323L89.0529 98.3236L87.5815 96.5542L87.0148 98.7846ZM88.1607 120.091L89.0655 124.091L90.5369 125.86L91.1036 123.63L90.1987 119.63L89.6321 121.861L88.1607 120.091ZM84.9883 114.212L86.4597 115.982L85.5549 111.982L84.0834 110.213L84.9883 114.212ZM83.5195 99.5753L84.991 101.345L85.5576 99.1143L84.0861 97.3449L83.5195 99.5753ZM81.4957 102.135L82.0623 99.905L80.5908 98.1357L80.0242 100.366L80.929 104.366L82.4005 106.135L81.4957 102.135ZM83.0401 108.963L81.5686 107.193L84.0179 118.02L88.0143 122.806L87.1095 118.807L84.5845 115.79L83.0401 108.963Z" fill="white"/>
<path d="M70.1286 108.482C70.4364 109.957 70.78 111.425 71.1462 112.877L75.9732 111.707C75.6052 110.249 75.2653 108.783 74.9556 107.312L70.1286 108.482Z" fill="#1B1B1C"/>
<path d="M73.5563 99.107C73.2394 96.6485 73.0226 94.2347 72.9252 91.903C72.5002 81.6833 74.4192 75.607 77.6774 74.8183L72.8504 75.9886C69.5921 76.7773 67.6713 82.8575 68.0981 93.0734C68.1974 95.4012 68.4123 97.8189 68.7292 100.277L73.5563 99.107Z" fill="#1B1B1C"/>
<path fill-rule="evenodd" clip-rule="evenodd" d="M90.1934 89.9635C90.1935 89.9637 90.1935 89.9638 90.1936 89.964L90.1955 89.9602L90.1934 89.9635ZM76.6235 103.133C78.5822 114.925 82.9841 127.161 87.8062 133.273C93.9547 141.073 98.4663 135.971 97.8771 121.876C97.2917 107.791 91.8266 90.0296 85.6762 82.2334L85.6743 82.2277C83.4972 79.4658 81.5251 78.322 79.912 78.6223C81.5241 78.3252 83.4948 79.4697 85.671 82.2294C87.247 84.2291 88.7775 86.8844 90.1934 89.9635L77.9268 109.585C77.4196 107.446 76.9811 105.282 76.6235 103.133Z" fill="url(#paint13_linear_1742_19014)"/>
<path fill-rule="evenodd" clip-rule="evenodd" d="M91.9736 141.205C90.4456 140.837 88.7107 139.511 86.8434 137.143C79.8233 128.24 73.5923 107.988 72.9206 91.9021C72.2509 75.8221 77.396 69.996 84.4161 78.8982C89.9197 85.8726 94.9363 99.8241 97.1727 113.274L96.8648 112.412C97.4009 115.647 97.7539 118.844 97.8778 121.876L97.876 121.88C98.4652 135.975 93.9536 141.077 87.805 133.277C87.7858 133.252 87.7665 133.227 87.7471 133.202C87.7658 133.226 87.7844 133.25 87.8031 133.273L87.8012 133.268C93.9497 141.068 98.4613 135.966 97.8721 121.87C97.2867 107.786 91.8217 90.0243 85.6712 82.228C80.532 75.7083 76.5377 78.2065 75.7078 87.4306L73.0474 84.8226C72.8996 86.4403 72.8396 88.233 72.8748 90.2044L75.5567 92.1501C75.5649 92.6304 75.5793 93.1222 75.6003 93.6256C76.02 103.729 78.9483 115.715 82.8386 124.565L81.1848 127.21C82.0421 129.153 82.9382 130.959 83.8598 132.6L85.1795 129.288C85.9235 130.608 86.6883 131.799 87.4653 132.834L86.4692 136.641L86.4693 136.641C86.5966 136.812 86.7238 136.983 86.851 137.144C88.7152 139.509 90.4474 140.835 91.9736 141.205Z" fill="url(#paint14_linear_1742_19014)"/>
<path fill-rule="evenodd" clip-rule="evenodd" d="M72.9219 91.9023C73.0193 94.234 73.2361 96.6478 73.553 99.1063L68.7272 100.276C69.0752 102.984 69.5472 105.74 70.1239 108.483L74.9504 107.313C75.0626 107.845 75.1788 108.378 75.2988 108.909C74.0033 103.164 73.1531 97.3014 72.9279 91.9078C72.5012 81.6942 74.421 75.6145 77.6779 74.8235L77.4766 74.8723C74.3387 75.8556 72.5056 81.8908 72.9219 91.9023ZM93.5901 141.227L88.763 142.398C86.8909 142.851 84.5833 141.565 82.0236 138.319C77.5262 132.616 73.3527 122.254 70.7573 111.314C70.8819 111.837 71.01 112.358 71.141 112.878L75.9671 111.708C78.5794 122.063 82.5682 131.718 86.8506 137.148C89.4103 140.395 91.718 141.681 93.5901 141.227Z" fill="url(#paint15_linear_1742_19014)"/>
<path d="M93.5876 141.228L88.7605 142.399C86.8884 142.852 84.5808 141.566 82.0211 138.32C75.001 129.417 68.77 109.165 68.0983 93.0791C67.6734 82.8594 69.5923 76.7831 72.8506 75.9943L77.6776 74.824C74.4194 75.6127 72.4986 81.6928 72.9254 91.9087C73.597 107.994 79.828 128.247 86.8482 137.149C89.4078 140.396 91.7155 141.682 93.5876 141.228Z" stroke="#0500FF" stroke-width="0.421753" stroke-miterlimit="10"/>
<path d="M98.3408 124.139C97.6672 108.057 91.4381 87.8006 84.4161 78.9021C77.396 69.9999 72.2509 75.826 72.9206 91.906C73.5923 107.992 79.8233 128.244 86.8434 137.147C93.8597 146.047 99.0068 140.226 98.3351 124.141L98.3408 124.139Z" stroke="#0500FF" stroke-width="0.421753" stroke-miterlimit="10"/>
<mask id="mask8_1742_19014" style="mask-type:alpha" maskUnits="userSpaceOnUse" x="74" y="57" width="62" height="66">
<path d="M131.865 99.9288C131.003 99.107 130.137 98.2828 129.276 97.4611C129.42 97.5999 129.559 97.7363 129.692 97.8667C128.325 96.4977 126.219 94.7598 123.395 92.7095C113.259 85.3606 97.6767 76.7746 88.6029 73.5409C87.7965 73.256 87.0761 73.0207 86.4255 72.8364C86.4689 72.8504 86.5096 72.8569 86.553 72.8708C85.4047 72.536 84.2614 72.2037 83.113 71.8689C75.3233 69.6007 77.021 73.438 87.6317 81.1327C99.1977 89.5215 116.969 99.3134 127.336 103.008C135.088 105.77 136.492 104.337 131.868 99.9274L131.865 99.9288Z" fill="#44E841" stroke="#44E841" stroke-width="0.426564" stroke-miterlimit="10"/>
<path d="M134.419 103.964L131.971 108.196C131.497 109.014 129.153 108.765 124.885 107.244C114.523 103.548 96.7477 93.7576 85.1817 85.3688C78.3815 80.4328 75.243 77.0854 75.9213 75.9165L78.3662 71.6865C77.688 72.8555 80.8278 76.2066 87.6304 81.1375C99.1964 89.5262 116.968 99.3182 127.334 103.013C131.602 104.534 133.946 104.783 134.419 103.964Z" fill="#44E841" stroke="#44E841" stroke-width="0.426564" stroke-miterlimit="10"/>
</mask>
<g mask="url(#mask8_1742_19014)">
<circle cx="104.096" cy="86.9802" r="45.0861" transform="rotate(-19.9823 104.096 86.9802)" fill="#2D374B"/>
</g>
<path fill-rule="evenodd" clip-rule="evenodd" d="M100.623 83.8346C100.708 84.2749 102.548 85.4881 104.913 86.916L104.739 87.3552L106.581 88.4383L106.75 88.0105C107.233 88.2949 107.729 88.5845 108.221 88.8721L108.05 89.3025L109.89 90.3846L110.065 89.9459C110.464 90.1792 110.855 90.4083 111.237 90.6328L111.237 90.6343L113.776 92.1278L113.888 91.842C113.888 91.842 112.527 91.0461 112.551 91.0558C111.806 90.6172 111.587 90.4113 111.539 90.3158L111.736 89.8153C111.685 89.785 111.618 89.7452 111.542 89.699L111.736 89.8131L112.014 89.1126C112.06 89.0978 112.219 89.1246 112.741 89.4309C112.718 89.414 114.079 90.218 114.079 90.218L114.571 90.1137L112.174 88.7044C111.904 88.5453 111.636 88.3873 111.371 88.2311L111.371 88.2309L110.86 87.9296L111.035 87.4847L109.196 86.4031L109.022 86.8424C108.518 86.5442 108.029 86.2562 107.552 85.9757L107.726 85.5386L105.885 84.4559L105.709 84.899C102.604 83.1044 100.392 81.9433 99.9572 82.2076C99.6058 82.4197 100.646 83.2186 102.379 84.3134C101.281 83.7648 100.559 83.5114 100.623 83.8349L100.623 83.8346ZM108.494 86.93L108.494 86.93L108.494 86.9301C108.628 87.0097 108.749 87.0808 108.852 87.1412L108.619 87.7295C108.493 87.6557 108.341 87.5666 108.168 87.4657C106.621 86.5626 103.451 84.7118 103.573 84.3997L103.574 84.4C103.694 84.095 106.988 86.0406 108.494 86.93ZM108.21 87.82C106.953 87.077 104.213 85.4575 104.103 85.734C103.991 86.0171 106.634 87.5587 107.924 88.3116C108.069 88.3963 108.197 88.471 108.302 88.5328L108.513 87.999C108.427 87.948 108.324 87.8876 108.21 87.82Z" fill="white"/>
<ellipse cx="107.45" cy="87.1841" rx="25.5256" ry="3.39226" transform="rotate(-149.378 107.45 87.1841)" fill="#2D374B"/>
<path d="M104.056 85.3994L101.675 84.6298L96.7081 80.1072L96.8385 79.8808L95.941 81.4391C95.932 81.4849 96.0627 81.609 96.2918 81.7721L106.022 88.5839C106.252 88.7406 106.554 88.9194 106.801 89.0444C106.835 89.0613 106.866 89.0768 106.897 89.0914L106.934 89.1094L117.278 94.2033L117.318 94.2238C117.369 94.25 117.421 94.2756 117.47 94.2989C117.668 94.392 117.809 94.4394 117.867 94.4336C117.875 94.4326 117.882 94.4307 117.887 94.4273L118.618 93.1572L112.702 91.1221C111.953 90.8732 110.479 90.0634 109.138 89.2661L107.565 88.3277L118.022 91.845L116.977 91.1134L106.361 87.612L102.206 85.1555L112.829 88.5906L109.1 85.9802L108.655 85.6683C108.464 85.5408 108.231 85.4025 108.027 85.2942L97.2204 79.9726L99.2864 80.9901L104.056 85.3994ZM104.163 83.3914L107.62 86.5492L104.891 85.6669L100.352 81.515L104.163 83.3914Z" fill="#2D374B"/>
<path d="M107.622 86.5468L104.164 83.3889L100.354 81.5126L104.893 85.6644L107.622 86.5468Z" fill="#28A0F0"/>
<path d="M96.8402 79.8789L96.7098 80.1053L101.677 84.6279L104.058 85.3975L99.2881 80.9881L97.2221 79.9707C97.0159 79.8769 96.8805 79.8382 96.8485 79.864L96.8402 79.8789Z" fill="#28A0F0"/>
<path d="M120.685 93.7095L118.021 91.8442L107.564 88.3269L109.137 89.2653C110.478 90.0626 111.952 90.8723 112.701 91.1213L118.617 93.1563L120.605 93.8441L120.685 93.7095L120.685 93.7095Z" fill="white"/>
<path d="M102.208 85.1553L106.362 87.6117L116.979 91.1131L113.843 88.9176L112.831 88.5903L102.208 85.1553Z" fill="white"/>
<path d="M94.1681 80.3999C94.1345 80.5359 94.5422 80.92 95.2425 81.4176L105.101 88.3185C105.801 88.7986 106.711 89.3375 107.47 89.7208C107.559 89.7661 117.969 94.8914 117.969 94.8914C118.112 94.9641 118.25 95.0322 118.382 95.0943C119.077 95.4209 119.536 95.5609 119.64 95.4783L120.607 93.844L118.619 93.1562L117.888 94.4264C117.883 94.4298 117.876 94.4317 117.867 94.4326C117.81 94.4385 117.67 94.3912 117.471 94.298C117.422 94.2747 106.836 89.0604 106.802 89.0434C106.555 88.9184 106.252 88.7396 106.023 88.583L96.2927 81.7711C96.0636 81.608 95.933 81.4839 95.942 81.4382L96.8666 79.8761C96.8985 79.8503 97.0152 79.8779 97.2214 79.9717L99.2874 80.9892L100.353 81.5141L104.164 83.3905L108.028 85.2933C108.232 85.4016 108.465 85.5399 108.656 85.6674L112.83 88.5897L113.843 88.9171L110.091 86.2906C109.967 86.2038 109.856 86.1266 109.766 86.0633C109.625 85.9652 109.529 85.8986 109.495 85.8753C109.227 85.692 108.831 85.4437 108.469 85.2293C108.137 85.0328 107.808 84.8493 107.493 84.6839L96.2697 79.1564C95.6161 78.8552 95.197 78.7363 95.103 78.8206L94.1681 80.3999Z" fill="#96BEDC"/>
<path d="M88.6639 73.4629C97.7946 76.7169 113.479 85.3554 123.674 92.7517C133.873 100.147 134.734 103.504 125.598 100.247C116.462 96.9909 100.778 88.3524 90.5865 80.9547C80.3848 73.5649 79.5229 70.2041 88.6639 73.4629Z" fill="url(#paint16_linear_1742_19014)"/>
<path fill-rule="evenodd" clip-rule="evenodd" d="M130.896 98.7747C130.47 98.3689 130.044 97.963 129.62 97.5577C129.659 97.5955 129.698 97.6331 129.737 97.6704C130.122 98.038 130.508 98.4059 130.894 98.7738C131.329 99.1883 131.764 99.6027 132.198 100.017L132.199 100.016C131.765 99.6029 131.331 99.1888 130.896 98.7747ZM134.311 104.418C133.355 104.761 131.14 104.364 127.637 103.116C117.21 99.3971 99.3231 89.5451 87.6846 81.1038C77.0111 73.3594 75.3027 69.4981 83.1413 71.7805C83.7192 71.9489 84.2958 72.1168 84.8723 72.2846C85.4488 72.4524 86.0252 72.6202 86.6029 72.7887C79.7375 70.7897 81.2347 74.1761 90.5896 80.9585C100.784 88.3511 116.469 96.9933 125.601 100.251C126.785 100.673 127.802 100.984 128.652 101.19C127.802 100.985 126.785 100.674 125.6 100.251C122.526 99.1535 118.709 97.4493 114.61 95.3852L115.234 97.6306C119.859 99.9523 124.164 101.877 127.641 103.115C131.139 104.362 133.353 104.759 134.311 104.418Z" fill="url(#paint17_linear_1742_19014)"/>
<path fill-rule="evenodd" clip-rule="evenodd" d="M78.3019 71.7606C78.3168 71.7062 78.3378 71.6554 78.3651 71.6081L78.3469 71.6395C78.3281 71.6777 78.3131 71.7181 78.3019 71.7606ZM75.8276 76.0789C75.5927 77.4211 78.7701 80.6875 85.2288 85.369C86.5797 86.3491 88.0139 87.346 89.5107 88.3501L91.9703 84.1C92.4374 84.4138 92.9107 84.7283 93.3894 85.0432L90.9305 89.2921C92.4682 90.3027 94.0583 91.3156 95.6889 92.3224L98.1472 88.0745C108.392 94.4063 120.011 100.409 127.641 103.129C131.936 104.66 134.294 104.91 134.771 104.087L132.307 108.345C131.83 109.168 129.472 108.918 125.177 107.387C114.75 103.668 96.8628 93.8158 85.2243 85.3745C78.7614 80.6833 75.5854 77.4182 75.8276 76.0789Z" fill="url(#paint18_linear_1742_19014)"/>
<path d="M132.198 100.013C131.332 99.1856 130.46 98.3563 129.593 97.5294C129.739 97.6691 129.879 97.8064 130.012 97.9375C128.637 96.56 126.517 94.8112 123.675 92.748C113.476 85.353 97.796 76.7131 88.6652 73.4592C87.8537 73.1726 87.1289 72.9357 86.4742 72.7503C86.5179 72.7644 86.5588 72.7709 86.6025 72.7849C85.4469 72.448 84.2965 72.1136 83.1409 71.7767C75.3023 69.4943 77.0107 73.3556 87.688 81.0986C99.3265 89.54 117.21 99.3933 127.641 103.111C135.442 105.891 136.855 104.449 132.202 100.011L132.198 100.013Z" stroke="#0500FF" stroke-width="0.426564" stroke-miterlimit="10"/>
<path d="M134.767 104.076L132.303 108.334C131.827 109.157 129.468 108.907 125.174 107.377C114.746 103.657 96.8594 93.8054 85.2209 85.364C78.3779 80.397 75.2198 77.0287 75.9023 75.8523L78.3626 71.5958C77.6801 72.7722 80.8396 76.1443 87.6849 81.1061C99.3235 89.5475 117.207 99.4008 127.638 103.119C131.932 104.649 134.291 104.9 134.767 104.076Z" stroke="#0500FF" stroke-width="0.426564" stroke-miterlimit="10"/>
<path d="M90.9234 89.2818C92.4612 90.2924 94.0512 91.3053 95.6819 92.3121L98.1459 88.0542C96.5204 87.0499 94.9253 86.0345 93.3875 85.0239L90.9234 89.2818Z" fill="#1B1B1C"/>
<path d="M91.9706 84.0859C90.4738 83.0818 89.0396 82.0849 87.6887 81.1047C80.842 76.1392 77.6839 72.7708 78.3626 71.5958L75.9023 75.8523C75.2198 77.0287 78.3793 80.4008 85.2246 85.3626C86.5755 86.3428 88.0097 87.3397 89.5065 88.3438L91.9706 84.0859Z" fill="#1B1B1C"/>
<path d="M83.2349 70.9989L83.0391 75.7509L139.102 77.9427L139.298 73.1907C139.328 72.4172 126.804 71.2973 111.323 70.6895C95.8419 70.0854 83.265 70.2217 83.2349 70.9953V70.9989Z" fill="#47FD92" stroke="#0500FF" stroke-width="0.368369" stroke-miterlimit="10"/>
<path d="M139.105 77.9426C139.137 77.168 126.612 76.0493 111.131 75.4439C95.6493 74.8384 83.0734 74.9755 83.0417 75.75C83.01 76.5245 95.5346 77.6432 111.016 78.2486C126.497 78.8541 139.073 78.7171 139.105 77.9426Z" fill="#1B1B1C" stroke="#0500FF" stroke-width="0.368369" stroke-miterlimit="10"/>
<defs>
<linearGradient id="paint0_linear_1742_19014" x1="80.919" y1="46.1197" x2="119.44" y2="54.5976" gradientUnits="userSpaceOnUse">
<stop stop-color="white"/>
<stop offset="1" stop-color="white" stop-opacity="0"/>
</linearGradient>
<linearGradient id="paint1_linear_1742_19014" x1="119.077" y1="56.2814" x2="79.5913" y2="47.5912" gradientUnits="userSpaceOnUse">
<stop stop-color="white"/>
<stop offset="1" stop-color="white" stop-opacity="0"/>
</linearGradient>
<linearGradient id="paint2_linear_1742_19014" x1="74.8801" y1="21.5729" x2="92.9258" y2="66.283" gradientUnits="userSpaceOnUse">
<stop stop-color="white"/>
<stop offset="1" stop-color="white" stop-opacity="0"/>
</linearGradient>
<linearGradient id="paint3_linear_1742_19014" x1="84.2915" y1="57.7903" x2="31.2481" y2="31.4566" gradientUnits="userSpaceOnUse">
<stop stop-color="white"/>
<stop offset="1" stop-color="white" stop-opacity="0"/>
</linearGradient>
<linearGradient id="paint4_linear_1742_19014" x1="35.8296" y1="30.0206" x2="82.3117" y2="53.097" gradientUnits="userSpaceOnUse">
<stop stop-color="white"/>
<stop offset="1" stop-color="white" stop-opacity="0"/>
</linearGradient>
<linearGradient id="paint5_linear_1742_19014" x1="62.6593" y1="47.0017" x2="24.6545" y2="68.9657" gradientUnits="userSpaceOnUse">
<stop stop-color="white"/>
<stop offset="1" stop-color="white" stop-opacity="0"/>
</linearGradient>
<linearGradient id="paint6_linear_1742_19014" x1="22.2626" y1="69.6931" x2="65.6312" y2="44.6292" gradientUnits="userSpaceOnUse">
<stop stop-color="white"/>
<stop offset="1" stop-color="white" stop-opacity="0"/>
</linearGradient>
<linearGradient id="paint7_linear_1742_19014" x1="21.8056" y1="72.4427" x2="61.8487" y2="96.2249" gradientUnits="userSpaceOnUse">
<stop stop-color="white"/>
<stop offset="1" stop-color="white" stop-opacity="0"/>
</linearGradient>
<linearGradient id="paint8_linear_1742_19014" x1="68.2314" y1="85.4743" x2="57.5666" y2="79.1403" gradientUnits="userSpaceOnUse">
<stop stop-color="white"/>
<stop offset="1" stop-color="white" stop-opacity="0"/>
</linearGradient>
<linearGradient id="paint9_linear_1742_19014" x1="60.2562" y1="94.6983" x2="31.5524" y2="77.6507" gradientUnits="userSpaceOnUse">
<stop stop-color="white"/>
<stop offset="1" stop-color="white" stop-opacity="0"/>
</linearGradient>
<linearGradient id="paint10_linear_1742_19014" x1="43.5839" y1="124.067" x2="67.0569" y2="78.2643" gradientUnits="userSpaceOnUse">
<stop stop-color="white"/>
<stop offset="1" stop-color="white" stop-opacity="0"/>
</linearGradient>
<linearGradient id="paint11_linear_1742_19014" x1="67.1897" y1="76.0144" x2="41.2561" y2="126.619" gradientUnits="userSpaceOnUse">
<stop stop-color="white"/>
<stop offset="1" stop-color="white" stop-opacity="0"/>
</linearGradient>
<linearGradient id="paint12_linear_1742_19014" x1="36.8213" y1="123.989" x2="64.0708" y2="70.8164" gradientUnits="userSpaceOnUse">
<stop stop-color="white"/>
<stop offset="1" stop-color="white" stop-opacity="0"/>
</linearGradient>
<linearGradient id="paint13_linear_1742_19014" x1="76.8532" y1="129.349" x2="97.8163" y2="86.7467" gradientUnits="userSpaceOnUse">
<stop stop-color="white"/>
<stop offset="1" stop-color="white" stop-opacity="0"/>
</linearGradient>
<linearGradient id="paint14_linear_1742_19014" x1="96.6965" y1="83.2756" x2="72.7766" y2="131.887" gradientUnits="userSpaceOnUse">
<stop stop-color="white"/>
<stop offset="1" stop-color="white" stop-opacity="0"/>
</linearGradient>
<linearGradient id="paint15_linear_1742_19014" x1="96.6093" y1="84.139" x2="71.6431" y2="134.876" gradientUnits="userSpaceOnUse">
<stop stop-color="white"/>
<stop offset="1" stop-color="white" stop-opacity="0"/>
</linearGradient>
<linearGradient id="paint16_linear_1742_19014" x1="89.6321" y1="93.2155" x2="124.62" y2="80.4933" gradientUnits="userSpaceOnUse">
<stop stop-color="white"/>
<stop offset="1" stop-color="white" stop-opacity="0"/>
</linearGradient>
<linearGradient id="paint17_linear_1742_19014" x1="125.744" y1="80.8573" x2="86.6051" y2="95.0889" gradientUnits="userSpaceOnUse">
<stop stop-color="white"/>
<stop offset="1" stop-color="white" stop-opacity="0"/>
</linearGradient>
<linearGradient id="paint18_linear_1742_19014" x1="83.6313" y1="97.9562" x2="126.827" y2="82.2493" gradientUnits="userSpaceOnUse">
<stop stop-color="white"/>
<stop offset="1" stop-color="white" stop-opacity="0"/>
</linearGradient>
</defs>
</svg>
