<svg width="150" height="150" viewBox="0 0 150 150" fill="none" xmlns="http://www.w3.org/2000/svg">
<g clip-path="url(#clip0_1742_19458)">
<path d="M75.7106 114.355V124.605C75.7106 125.068 75.0928 125.447 74.3318 125.447C73.5709 125.447 72.9531 125.071 72.9531 124.605V114.355H75.7106Z" fill="#1B1B1C" stroke="#0500FF" stroke-width="0.374398" stroke-linecap="round" stroke-linejoin="round"/>
<path d="M77.0547 113.883V119.906C77.0547 120.824 75.8332 121.568 74.3281 121.568C72.823 121.568 71.6016 120.824 71.6016 119.906V113.883H77.0547Z" fill="#FFAEFE" stroke="#0500FF" stroke-width="0.374398" stroke-linecap="round" stroke-linejoin="round"/>
<path d="M72.3672 113.883V121.063C72.721 121.287 73.1787 121.448 73.6898 121.523V113.883H72.3672Z" fill="#0500FF" stroke="#0500FF" stroke-width="0.374398" stroke-linecap="round" stroke-linejoin="round"/>
<path d="M78.4947 107.797V116.99C78.4947 118.391 76.633 119.529 74.3333 119.529C72.0364 119.529 70.1719 118.391 70.1719 116.99V107.797H78.4947Z" fill="#FFAEFE" stroke="#0500FF" stroke-width="0.374398" stroke-linecap="round" stroke-linejoin="round"/>
<path d="M73.5113 119.482V107.801H71.0234V118.536C71.6272 119.016 72.5004 119.361 73.5113 119.482Z" fill="#0500FF" stroke="#0500FF" stroke-width="0.374398" stroke-linecap="round" stroke-linejoin="round"/>
<path d="M79.7219 76.3359V113.41C79.7219 115.226 77.307 116.701 74.3277 116.701C71.3485 116.701 68.9336 115.226 68.9336 113.41V76.3359H79.7219Z" fill="#FFAEFE" stroke="#0500FF" stroke-width="0.374398" stroke-linecap="round" stroke-linejoin="round"/>
<path d="M79.2356 84.1197L78.0422 80.357H72.7632V76.3359H69.9805V115.358C70.6488 115.917 71.6765 116.367 72.7632 116.56V105.71C72.7632 95.3853 79.2356 84.1197 79.2356 84.1197Z" fill="#0500FF" stroke="#0500FF" stroke-width="0.374398" stroke-linecap="round" stroke-linejoin="round"/>
<path d="M41.8475 136.849L39.1996 142.361C39.0789 142.611 38.4246 142.546 37.7395 142.215C37.0543 141.883 36.5938 141.414 36.7145 141.164L39.3625 135.652L41.8503 136.846L41.8475 136.849Z" fill="#1B1B1C" stroke="#0500FF" stroke-width="0.374398" stroke-linecap="round" stroke-linejoin="round"/>
<path d="M44.6639 134.112L43.1082 137.352C42.8696 137.846 41.5779 137.717 40.2216 137.066C38.8654 136.414 37.9556 135.485 38.1943 134.99L39.7499 131.75L44.6639 134.112Z" fill="#FFAEFE" stroke="#0500FF" stroke-width="0.374398" stroke-linecap="round" stroke-linejoin="round"/>
<path d="M40.4342 132.082L38.5781 135.943C38.8393 136.218 39.2099 136.502 39.6508 136.763L41.6248 132.655L40.4314 132.082H40.4342Z" fill="#0500FF" stroke="#0500FF" stroke-width="0.374398" stroke-linecap="round" stroke-linejoin="round"/>
<path d="M48.6793 129.051L46.3038 133.996C45.9416 134.748 43.9676 134.554 41.8981 133.558C39.8258 132.564 38.4414 131.146 38.8037 130.39L41.1792 125.445L48.6793 129.051Z" fill="#FFAEFE" stroke="#0500FF" stroke-width="0.374398" stroke-linecap="round" stroke-linejoin="round"/>
<path d="M41.184 133.183L44.2026 126.899L41.9618 125.82L39.1875 131.594C39.6087 132.113 40.3079 132.677 41.184 133.18V133.183Z" fill="#0500FF" stroke="#0500FF" stroke-width="0.374398" stroke-linecap="round" stroke-linejoin="round"/>
<path d="M70.3705 86.7584L49.5016 130.195C49.0326 131.172 46.4745 130.92 43.7901 129.628C41.1057 128.339 39.3086 126.5 39.7775 125.523L60.6464 82.0859L70.3705 86.7584Z" fill="url(#paint0_linear_1742_19458)" stroke="#0500FF" stroke-width="0.374398" stroke-miterlimit="10"/>
<path d="M40.2109 127.024C40.6714 127.614 41.4801 128.302 42.4068 128.877L64.09 83.7476L61.5825 82.543L40.2109 127.024Z" fill="#0500FF" stroke="#0500FF" stroke-width="0.374398" stroke-linecap="round" stroke-linejoin="round"/>
<path d="M109.301 135.656L111.949 141.168C112.07 141.418 111.61 141.887 110.924 142.219C110.239 142.55 109.585 142.614 109.464 142.365L106.816 136.852L109.304 135.659L109.301 135.656Z" fill="#1B1B1C" stroke="#0500FF" stroke-width="0.374398" stroke-linecap="round" stroke-linejoin="round"/>
<path d="M108.918 131.754L110.473 134.994C110.712 135.489 109.802 136.418 108.446 137.069C107.09 137.721 105.795 137.85 105.56 137.356L104.004 134.115L108.918 131.754Z" fill="#FFAEFE" stroke="#0500FF" stroke-width="0.374398" stroke-linecap="round" stroke-linejoin="round"/>
<path d="M104.691 133.78L106.547 137.641C106.924 137.607 107.379 137.498 107.859 137.315L105.885 133.207L104.691 133.78Z" fill="#0500FF" stroke="#0500FF" stroke-width="0.374398" stroke-linecap="round" stroke-linejoin="round"/>
<path d="M107.488 125.449L109.864 130.394C110.226 131.147 108.842 132.565 106.77 133.561C104.697 134.556 102.726 134.752 102.364 134L99.9883 129.055L107.488 125.449Z" fill="#FFAEFE" stroke="#0500FF" stroke-width="0.374398" stroke-linecap="round" stroke-linejoin="round"/>
<path d="M106.025 133.886L103.006 127.602L100.766 128.68L103.54 134.453C104.208 134.45 105.084 134.256 106.028 133.886H106.025Z" fill="#0500FF" stroke="#0500FF" stroke-width="0.374398" stroke-linecap="round" stroke-linejoin="round"/>
<path d="M88.017 82.0898L108.886 125.527C109.355 126.504 107.561 128.343 104.873 129.632C102.186 130.921 99.6308 131.176 99.1619 130.199L78.293 86.7623L88.017 82.0898Z" fill="url(#paint1_linear_1742_19458)" stroke="#0500FF" stroke-width="0.374398" stroke-miterlimit="10"/>
<path d="M100.618 130.79C101.365 130.801 102.409 130.596 103.437 130.231L81.7536 85.1016L79.2461 86.3062L100.62 130.79H100.618Z" fill="#0500FF" stroke="#0500FF" stroke-width="0.374398" stroke-linecap="round" stroke-linejoin="round"/>
<path d="M88.0226 82.0883L83.8275 73.3583L77.7229 76.2898V75.9781H71.0259V76.3291L64.8399 73.3555L60.6448 82.0855C60.1759 83.0627 61.9701 84.9019 64.6574 86.1908C67.3418 87.4796 69.8999 87.7351 70.3688 86.758L72.1491 83.0514H76.5183L78.2986 86.758C78.7675 87.7351 81.3256 87.4824 84.01 86.1908C86.6944 84.9019 88.4915 83.0627 88.0226 82.0855V82.0883Z" fill="#1B1B1C" stroke="#0500FF" stroke-width="0.374398" stroke-linecap="round" stroke-linejoin="round"/>
<path d="M74.3281 77.3613C79.6288 77.3613 83.9258 75.7973 83.9258 73.8681C83.9258 71.9389 79.6288 70.375 74.3281 70.375C69.0275 70.375 64.7305 71.9389 64.7305 73.8681C64.7305 75.7973 69.0275 77.3613 74.3281 77.3613Z" fill="#1B1B1C" stroke="#0500FF" stroke-width="0.374398" stroke-linecap="round" stroke-linejoin="round"/>
<path d="M67.0938 73.8884C67.0938 75.3429 70.3342 76.5223 74.3299 76.5223C78.3257 76.5223 81.5661 75.3429 81.5661 73.8884V72.3047H67.0938V73.8884Z" fill="#0500FF" stroke="#0500FF" stroke-width="0.374398" stroke-linecap="round" stroke-linejoin="round"/>
<path d="M74.3299 74.9396C78.3263 74.9396 81.5661 73.7604 81.5661 72.3058C81.5661 70.8511 78.3263 69.6719 74.3299 69.6719C70.3335 69.6719 67.0938 70.8511 67.0938 72.3058C67.0938 73.7604 70.3335 74.9396 74.3299 74.9396Z" fill="#2D9FFF" stroke="#0500FF" stroke-width="0.374398" stroke-linecap="round" stroke-linejoin="round"/>
<path d="M80.5667 72.3063C80.5667 72.3063 80.5667 72.2922 80.5639 72.2838C80.5639 72.2305 80.5554 72.1771 80.5442 72.1266C80.1399 69.0574 77.5172 66.6875 74.3386 66.6875C71.1599 66.6875 68.5345 69.0574 68.1329 72.1266C68.1217 72.1799 68.1133 72.2305 68.1133 72.2838C68.1133 72.2922 68.1133 72.2978 68.1133 72.3063C68.1133 73.5586 70.9016 74.5723 74.3414 74.5723C77.7812 74.5723 80.5695 73.5586 80.5695 72.3063H80.5667Z" fill="#1B1B1C" stroke="#0500FF" stroke-width="0.374398" stroke-linecap="round" stroke-linejoin="round"/>
<path d="M70.6172 69.1806C70.6172 69.9275 72.2795 70.5313 74.3322 70.5313C76.3848 70.5313 78.0471 69.9247 78.0471 69.1806V55.4805H70.6172V69.1806Z" fill="#1B1B1C" stroke="#0500FF" stroke-width="0.374398" stroke-linecap="round" stroke-linejoin="round"/>
<path d="M74.3321 56.8302C76.3839 56.8302 78.0471 56.2255 78.0471 55.4795C78.0471 54.7336 76.3839 54.1289 74.3321 54.1289C72.2804 54.1289 70.6172 54.7336 70.6172 55.4795C70.6172 56.2255 72.2804 56.8302 74.3321 56.8302Z" fill="#1B1B1C" stroke="#0500FF" stroke-width="0.374398" stroke-linecap="round" stroke-linejoin="round"/>
<path d="M67.3711 56.856C67.3711 58.2544 70.488 59.3888 74.3321 59.3888C78.1762 59.3888 81.2931 58.2544 81.2931 56.856V53.5117H67.3711V56.856Z" fill="#1B1B1C" stroke="#0500FF" stroke-width="0.374398" stroke-linecap="round" stroke-linejoin="round"/>
<path d="M43.3717 71.3763C44.959 69.3911 44.6365 66.495 42.6513 64.9077C40.6661 63.3204 37.77 63.6429 36.1827 65.6281C34.5954 67.6133 34.9179 70.5094 36.9031 72.0967C38.8883 73.684 41.7844 73.3615 43.3717 71.3763Z" fill="#1B1B1C" stroke="#0500FF" stroke-width="0.374398" stroke-linecap="round" stroke-linejoin="round"/>
<path d="M36.7 58.8959L30.8901 62.8448L34.9862 68.874C35.3885 69.4636 37.0151 69.0614 38.6186 67.9714C40.222 66.8813 41.1975 65.5186 40.7976 64.9274L36.7015 58.8983L36.7 58.8959Z" fill="#48FF91" stroke="#0500FF" stroke-width="0.374397" stroke-miterlimit="10"/>
<path d="M34.5285 61.9402C36.1331 60.8498 37.1081 59.4864 36.7063 58.8951C36.3044 58.3038 34.6779 58.7085 33.0733 59.799C31.4687 60.8894 30.4937 62.2528 30.8956 62.8441C31.2974 63.4354 32.924 63.0307 34.5285 61.9402Z" fill="#48FF91" stroke="#0500FF" stroke-width="0.374398" stroke-miterlimit="10"/>
<path d="M34.2226 61.4927C35.1577 60.8572 35.7263 60.0634 35.4927 59.7197C35.2591 59.3759 34.3117 59.6124 33.3766 60.2478C32.4416 60.8833 31.873 61.6771 32.1066 62.0208C32.3402 62.3646 33.2876 62.1281 34.2226 61.4927Z" fill="#1B1B1C"/>
<path d="M38.9359 69.0184C40.4223 71.458 42.9367 72.6703 44.7117 71.8712L51.4998 68.8177L44.7642 58.0285L39.0473 62.575C37.5242 63.7875 37.4473 66.577 38.9355 69.0144L38.9359 69.0184Z" fill="#48FF91" stroke="#0500FF" stroke-width="0.374398" stroke-miterlimit="10"/>
<path d="M49.873 66.2166L40.5629 70.9136C41.1875 71.4274 41.8651 71.7894 42.5309 71.973L51.0422 68.0862L49.8726 66.2127L49.873 66.2166Z" fill="#0500FF" stroke="#0500FF" stroke-width="0.374398" stroke-miterlimit="10"/>
<path d="M45.6065 64.9486C48.2445 69.2798 52.7076 71.4318 55.8581 70.0141L61.5904 67.4357L50.7236 49.6008L45.8052 53.513C43.1 55.6642 42.9685 60.6175 45.6082 64.9464L45.6065 64.9486Z" fill="url(#paint2_linear_1742_19458)" stroke="#0500FF" stroke-width="0.374398" stroke-miterlimit="10"/>
<path d="M59.6031 64.1731L49.6992 69.1719C50.7699 69.8338 51.8816 70.2554 52.9565 70.3994L61.1237 66.6688L59.6031 64.1731Z" fill="#0500FF" stroke="#0500FF" stroke-width="0.374398" stroke-miterlimit="10"/>
<path d="M116.234 21.91C111.047 13.3985 102.073 9.40511 96.1891 12.9904C90.3052 16.5757 89.7396 26.382 94.9258 34.8934C100.112 43.4048 109.086 47.3982 114.97 43.813C120.854 40.2277 121.42 30.4214 116.234 21.91Z" fill="url(#paint3_linear_1742_19458)" stroke="#0500FF" stroke-width="0.374398" stroke-miterlimit="10"/>
<path d="M109.753 45.1208C111.096 44.9972 112.372 44.5974 113.522 43.8959C119.181 40.4466 119.727 31.0141 114.738 22.8253C109.748 14.6366 101.113 10.7956 95.4539 14.2448C94.3016 14.9485 93.3603 15.8964 92.6379 17.0337" stroke="#0500FF" stroke-width="0.374398" stroke-miterlimit="10"/>
<path d="M92.3667 17.653C93.0059 16.7906 93.7876 16.0603 94.7136 15.4956C100.152 12.1829 108.445 15.8722 113.236 23.7374C118.028 31.6025 117.505 40.665 112.07 43.9773C111.144 44.542 110.138 44.9018 109.076 45.074" stroke="#0500FF" stroke-width="0.374398" stroke-miterlimit="10"/>
<path d="M91.8958 19.0399C92.2961 18.6517 92.7372 18.3069 93.2199 18.0134C98.2114 14.9722 105.821 18.36 110.221 25.5776C114.619 32.7973 114.139 41.1138 109.15 44.1567C108.665 44.4524 108.158 44.6867 107.63 44.8614" stroke="#0500FF" stroke-width="0.374398" stroke-miterlimit="10"/>
<path d="M108.37 44.9905C109.158 44.8008 109.91 44.4932 110.612 44.0655C115.826 40.8895 116.329 32.199 111.731 24.6579C107.135 17.1146 99.1811 13.5773 93.9691 16.7549C93.2675 17.1827 92.6493 17.713 92.118 18.3236" stroke="#0500FF" stroke-width="0.374398" stroke-miterlimit="10"/>
<path d="M91.712 19.803C91.9541 19.6082 92.2097 19.4279 92.4771 19.2643C97.2441 16.36 104.515 19.5957 108.717 26.4897C112.917 33.3858 112.462 41.33 107.693 44.2365C107.424 44.4023 107.148 44.5449 106.862 44.6687" stroke="#0500FF" stroke-width="0.374398" stroke-miterlimit="10"/>
<path d="M105.827 24.0305L107.388 13.3602C103.479 11.3382 99.3811 11.0495 96.1935 12.9947C92.8914 15.0067 91.2659 18.9776 91.3886 23.5769L105.827 24.0305Z" fill="#1B1B1C"/>
<path d="M110.273 25.5533C105.834 18.2682 98.023 14.9294 92.8264 18.0959C87.6297 21.2623 87.0156 29.735 91.4546 37.0201C95.8936 44.3052 103.705 47.644 108.902 44.4775C114.098 41.3111 114.712 32.8384 110.273 25.5533Z" fill="#1B1B1C" stroke="#0500FF" stroke-width="0.374398" stroke-miterlimit="10"/>
<path d="M96.915 42.9722C96.915 42.9722 102.949 36.9179 105.522 28.3545C107.607 21.4076 104.806 19.5818 104.806 19.5818" stroke="#0500FF" stroke-width="0.374398" stroke-miterlimit="10"/>
<path d="M90.1347 34.5072C90.1347 34.5072 93.9238 30.0336 95.8794 24.2379C97.6804 18.9009 96.0529 16.9705 96.0529 16.9705" stroke="#0500FF" stroke-width="0.374398" stroke-miterlimit="10"/>
<path d="M105.664 45.591C105.664 45.591 109.634 41.7146 111.588 35.9211C113.018 31.6862 111.58 28.0525 111.58 28.0525" stroke="#0500FF" stroke-width="0.374398" stroke-miterlimit="10"/>
<path d="M89.4609 22.0312C89.4609 22.0312 98.5374 22.7704 105.518 28.352C113.374 34.6332 112.335 40.3208 112.335 40.3208" stroke="#0500FF" stroke-width="0.374398" stroke-miterlimit="10"/>
<path d="M95.5742 17.0391C98.8187 17.8644 103.275 19.4678 107.102 22.5278C108.385 23.5536 109.43 24.562 110.284 25.5357" stroke="#0500FF" stroke-width="0.374398" stroke-miterlimit="10"/>
<path d="M88.8477 30.5078C92.1171 31.3064 96.7612 32.9128 100.729 36.085C105.143 39.6149 106.751 42.9601 107.309 45.2114" stroke="#0500FF" stroke-width="0.374398" stroke-miterlimit="10"/>
<path d="M110.269 25.5455C105.83 18.2604 98.0191 14.9216 92.8225 18.0881C87.6258 21.2545 87.0117 29.7272 91.4507 37.0123C95.8897 44.2974 103.701 47.6362 108.898 44.4697C114.094 41.3032 114.708 32.8306 110.269 25.5455Z" stroke="#0500FF" stroke-width="0.374398" stroke-miterlimit="10"/>
<path d="M92.634 36.2955C87.4418 27.7757 87.7028 18.0292 93.025 13.7964L93.0206 13.7929L48.9165 48.8762C45.5563 51.5499 45.3904 57.7017 48.6689 63.0843C51.9493 68.4647 57.4935 71.1396 61.4069 69.3792L112.808 46.2672L112.803 46.2637C106.603 49.05 97.8224 44.8157 92.6318 36.2937L92.634 36.2955Z" fill="url(#paint4_linear_1742_19458)" stroke="#0500FF" stroke-width="0.374398" stroke-miterlimit="10"/>
<path d="M86.2057 50.7663C74.6352 56.6759 72.2082 55.9793 87.2491 46.3228L92.2199 43.1321L94.7875 46.3822L86.2057 50.7663Z" fill="#0500FF" stroke="#0500FF" stroke-width="0.374398" stroke-miterlimit="10"/>
<path d="M100.665 44.5893L53.6914 68.293C55.1884 69.231 56.7567 69.7876 58.2495 69.899L108.171 47.1036C105.722 46.9969 103.133 46.1205 100.665 44.5893Z" fill="#0500FF" stroke="#0500FF" stroke-width="0.374398" stroke-miterlimit="10"/>
<path d="M94.8102 10.7239C88.0583 14.8383 87.4096 26.0903 93.3622 35.858C99.3148 45.6256 109.612 50.2064 116.362 46.0943C123.114 41.98 123.763 30.7279 117.81 20.9603C111.858 11.1926 101.56 6.61179 94.8102 10.7239ZM114.977 43.8213C109.093 47.4074 100.117 43.4125 94.9319 34.902C89.7445 26.3897 90.3107 16.5852 96.1944 12.9991C102.078 9.413 111.054 13.4079 116.239 21.9184C121.426 30.4307 120.86 40.2352 114.977 43.8213Z" fill="#2D9FFF" stroke="#0500FF" stroke-width="0.374398" stroke-miterlimit="10"/>
<path d="M93.7796 11.4468L93.7752 11.4433L86.7023 17.0698C81.2998 21.4434 81.0525 31.4021 86.3645 40.1183C91.6744 48.8327 100.641 53.1802 107.003 50.3859L115.248 46.6786L115.244 46.6751C108.516 49.6979 98.9908 45.105 93.3558 35.8574C87.7231 26.6115 88.008 16.0393 93.7796 11.4468Z" fill="url(#paint5_linear_1742_19458)" stroke="#0500FF" stroke-width="0.374398" stroke-miterlimit="10"/>
<path d="M101.929 44.7623L94.457 48.5312C97.229 50.2803 100.149 51.2276 102.879 51.2172L110.828 47.5889C107.945 47.6024 104.857 46.6077 101.929 44.7623Z" fill="#0500FF" stroke="#0500FF" stroke-width="0.374398" stroke-miterlimit="10"/>
<path d="M57.3686 70.7656C59.0197 70.1647 59.615 67.6347 58.6968 65.1131C57.7786 62.5915 55.6978 61.0359 54.0439 61.6368L51.25 62.6533L54.5718 71.7821L57.3658 70.7656H57.3686Z" fill="url(#paint6_linear_1742_19458)" stroke="#0500FF" stroke-width="0.374398" stroke-miterlimit="10"/>
<path d="M54.5703 71.7838C56.2214 71.1828 56.816 68.6519 55.8984 66.1308C54.9808 63.6097 52.8985 62.0531 51.2474 62.6541C49.5963 63.255 49.0017 65.7859 49.9193 68.307C50.8369 70.8281 52.9192 72.3847 54.5703 71.7838Z" fill="#FFAEFE" stroke="#0500FF" stroke-width="0.374398" stroke-miterlimit="10"/>
<path d="M53.9884 70.1862C55.0624 69.7953 55.4493 68.1493 54.8526 66.5099C54.2559 64.8705 52.9015 63.8583 51.8275 64.2492C50.7535 64.6401 50.3665 66.2861 50.9632 67.9255C51.56 69.5649 52.9143 70.5771 53.9884 70.1862Z" fill="#0500FF" stroke="#0500FF" stroke-width="0.374398" stroke-miterlimit="10"/>
<path d="M52.9102 62.7065L54.6174 62.0859" stroke="#0500FF" stroke-width="0.374398" stroke-miterlimit="10"/>
<path d="M54.1758 63.4838L55.883 62.8633" stroke="#0500FF" stroke-width="0.374398" stroke-miterlimit="10"/>
<path d="M55.3984 65.0268L57.1085 64.4062" stroke="#0500FF" stroke-width="0.374398" stroke-miterlimit="10"/>
<path d="M56.1992 67.2182L57.9065 66.5977" stroke="#0500FF" stroke-width="0.374398" stroke-miterlimit="10"/>
<path d="M56.293 69.1234L58.0002 68.5" stroke="#0500FF" stroke-width="0.374398" stroke-miterlimit="10"/>
<path d="M55.8359 70.6323L57.5432 70.0117" stroke="#0500FF" stroke-width="0.374398" stroke-miterlimit="10"/>
</g>
<defs>
<linearGradient id="paint0_linear_1742_19458" x1="55.1456" y1="106.611" x2="67.9584" y2="108.725" gradientUnits="userSpaceOnUse">
<stop stop-color="#FFAEFE"/>
<stop offset="1" stop-color="#FFF465"/>
</linearGradient>
<linearGradient id="paint1_linear_1742_19458" x1="94.7983" y1="106.589" x2="98.4964" y2="104.742" gradientUnits="userSpaceOnUse">
<stop stop-color="#FFAEFE"/>
<stop offset="1" stop-color="#FFF465"/>
</linearGradient>
<linearGradient id="paint2_linear_1742_19458" x1="48.5467" y1="57.8585" x2="43.3345" y2="50.0382" gradientUnits="userSpaceOnUse">
<stop stop-color="#48FF91"/>
<stop offset="0.16" stop-color="#46F898"/>
<stop offset="0.39" stop-color="#41E6AC"/>
<stop offset="0.66" stop-color="#39C9CD"/>
<stop offset="0.98" stop-color="#2DA2FB"/>
<stop offset="1" stop-color="#2D9FFF"/>
</linearGradient>
<linearGradient id="paint3_linear_1742_19458" x1="105.3" y1="27.8328" x2="109.097" y2="35.603" gradientUnits="userSpaceOnUse">
<stop stop-color="#FFAEFE"/>
<stop offset="1" stop-color="#FFF465"/>
</linearGradient>
<linearGradient id="paint4_linear_1742_19458" x1="72.9449" y1="41.599" x2="67.7304" y2="33.777" gradientUnits="userSpaceOnUse">
<stop stop-color="#48FF91"/>
<stop offset="0.16" stop-color="#46F898"/>
<stop offset="0.39" stop-color="#41E6AC"/>
<stop offset="0.66" stop-color="#39C9CD"/>
<stop offset="0.98" stop-color="#2DA2FB"/>
<stop offset="1" stop-color="#2D9FFF"/>
</linearGradient>
<linearGradient id="paint5_linear_1742_19458" x1="92.0945" y1="28.8377" x2="86.8822" y2="21.0174" gradientUnits="userSpaceOnUse">
<stop stop-color="#48FF91"/>
<stop offset="0.16" stop-color="#46F898"/>
<stop offset="0.39" stop-color="#41E6AC"/>
<stop offset="0.66" stop-color="#39C9CD"/>
<stop offset="0.98" stop-color="#2DA2FB"/>
<stop offset="1" stop-color="#2D9FFF"/>
</linearGradient>
<linearGradient id="paint6_linear_1742_19458" x1="56.6694" y1="69.4627" x2="55.4535" y2="65.4472" gradientUnits="userSpaceOnUse">
<stop stop-color="#FFAEFE"/>
<stop offset="1" stop-color="#FFF465"/>
</linearGradient>
<clipPath id="clip0_1742_19458">
<rect width="100.992" height="135" fill="white" transform="translate(24.5039 7.5)"/>
</clipPath>
</defs>
</svg>
