<svg width="150" height="150" viewBox="0 0 150 150" fill="none" xmlns="http://www.w3.org/2000/svg">
<path d="M83.8888 59.8264L91.9363 58.8711C90.8709 59.8107 90.6271 61.8589 91.3859 63.4472L83.3384 64.4025C82.5796 62.8142 82.8273 60.766 83.8888 59.8264Z" fill="#1B1B1C"/>
<path fill-rule="evenodd" clip-rule="evenodd" d="M92.1074 58.7946C92.1409 58.8695 92.1218 58.9575 92.0603 59.0117C91.5718 59.4425 91.2587 60.1412 91.1632 60.9382C91.0679 61.7331 91.1919 62.6062 91.555 63.3664C91.5811 63.4209 91.5793 63.4847 91.5501 63.5377C91.5209 63.5906 91.468 63.6263 91.408 63.6334L83.3605 64.5887C83.2807 64.5982 83.2038 64.5558 83.1692 64.4833C82.7735 63.6551 82.6411 62.7099 82.7448 61.8488C82.8483 60.9898 83.1897 60.1948 83.7645 59.686C83.7931 59.6607 83.8287 59.6447 83.8667 59.6402L91.9141 58.6849C91.9956 58.6752 92.0739 58.7197 92.1074 58.7946ZM83.9705 60.0055C83.5081 60.4389 83.2103 61.12 83.1171 61.8936C83.0264 62.6466 83.1321 63.4696 83.452 64.2002L91.1118 63.2909C90.798 62.5225 90.6973 61.6736 90.7908 60.8936C90.8705 60.2287 91.0931 59.602 91.4572 59.1168L83.9705 60.0055Z" fill="#0500FF"/>
<path d="M92.4645 65.7137L91.3834 63.4492L83.3359 64.4045L84.4171 66.669C84.9596 67.8091 85.8717 68.4027 86.7366 68.2966L94.784 67.3413C93.9191 67.4435 93.0071 66.8498 92.4645 65.7137Z" fill="#48FF91"/>
<path d="M97.4067 47.8694L105.454 46.9102L91.9342 58.8693L83.8867 59.8247L97.4067 47.8694Z" fill="#1B1B1C"/>
<path fill-rule="evenodd" clip-rule="evenodd" d="M105.625 46.8335C105.659 46.9083 105.64 46.9963 105.578 47.0506L92.0584 59.0098C92.0299 59.0351 91.9942 59.051 91.9563 59.0555L83.9088 60.0109C83.8274 60.0205 83.7491 59.9762 83.7156 59.9013C83.6821 59.8265 83.7011 59.7385 83.7625 59.6842L97.2825 47.729C97.311 47.7037 97.3466 47.6877 97.3845 47.6832L105.432 46.724C105.513 46.7143 105.592 46.7586 105.625 46.8335ZM97.487 48.0487L84.4603 59.5678L91.8539 58.6901L104.88 47.1674L97.487 48.0487Z" fill="#0500FF"/>
<path d="M98.3812 47.4123L106.429 46.457C106.087 46.4963 105.753 46.6457 105.454 46.9131L97.4062 47.8684C97.705 47.6011 98.0392 47.4556 98.3812 47.4123Z" fill="#48FF91"/>
<path fill-rule="evenodd" clip-rule="evenodd" d="M106.615 46.4353C106.627 46.538 106.554 46.6311 106.451 46.6432L106.45 46.6433L106.439 46.6446C106.142 46.6811 105.848 46.8123 105.579 47.0528C105.55 47.0785 105.514 47.0947 105.476 47.0993L97.4284 48.0546C97.3471 48.0642 97.269 48.0201 97.2354 47.9455C97.2017 47.871 97.2203 47.7832 97.2812 47.7287C97.6078 47.4365 97.9772 47.2745 98.3577 47.2263L98.3591 47.2262L98.3591 47.2262L106.394 46.2723C106.399 46.2718 106.403 46.2713 106.407 46.2708C106.51 46.259 106.603 46.3326 106.615 46.4353Z" fill="#0500FF"/>
<path d="M98.4453 43.1205L106.493 42.1652C108.046 41.9804 109.685 43.0419 110.66 45.0862L102.613 46.0415C101.638 43.9972 99.9982 42.9357 98.4453 43.1205Z" fill="#48FF91"/>
<path fill-rule="evenodd" clip-rule="evenodd" d="M110.373 44.9316C109.411 43.0892 107.902 42.1864 106.515 42.3515L99.9698 43.1285C101.047 43.5285 102.039 44.4702 102.723 45.8397L110.373 44.9316ZM98.4691 43.3066C99.914 43.1356 101.49 44.1225 102.443 46.1224C102.478 46.1949 102.555 46.2373 102.635 46.2278L110.682 45.2725C110.742 45.2654 110.795 45.2298 110.824 45.1768C110.853 45.1239 110.855 45.0602 110.829 45.0056C109.833 42.9176 108.131 41.7816 106.471 41.9791C106.471 41.9791 106.471 41.9791 106.471 41.9791L98.4248 42.9343C98.4243 42.9343 98.4238 42.9344 98.4233 42.9344C98.3205 42.9467 98.2469 43.04 98.2591 43.1428C98.2714 43.2456 98.3646 43.319 98.4674 43.3068C98.468 43.3068 98.4685 43.3067 98.4691 43.3066Z" fill="#0500FF"/>
<path d="M122.832 105.889L130.88 104.93L134.555 112.631L126.508 113.59L122.832 105.889Z" fill="#48FF91"/>
<path fill-rule="evenodd" clip-rule="evenodd" d="M130.857 104.744C130.937 104.734 131.014 104.776 131.049 104.849L134.725 112.55C134.751 112.605 134.749 112.669 134.72 112.722C134.69 112.775 134.638 112.81 134.578 112.817L126.53 113.777C126.45 113.786 126.373 113.744 126.339 113.671L122.663 105.97C122.637 105.915 122.639 105.851 122.668 105.798C122.697 105.746 122.75 105.71 122.81 105.703L130.857 104.744ZM123.114 106.044L126.619 113.388L134.273 112.476L130.768 105.132L123.114 106.044Z" fill="#0500FF"/>
<path d="M126.51 113.592L134.557 112.633L118.368 126.951L110.324 127.906L126.51 113.592Z" fill="#0500FF"/>
<path fill-rule="evenodd" clip-rule="evenodd" d="M134.728 112.556C134.762 112.631 134.743 112.719 134.681 112.773L118.492 127.091C118.463 127.117 118.428 127.133 118.39 127.137L110.346 128.092C110.265 128.102 110.187 128.058 110.153 127.983C110.12 127.908 110.139 127.82 110.2 127.766L126.385 113.452C126.414 113.426 126.45 113.41 126.487 113.406L134.535 112.447C134.616 112.437 134.695 112.481 134.728 112.556ZM126.59 113.771L110.898 127.649L118.287 126.772L133.983 112.89L126.59 113.771Z" fill="#0500FF"/>
<path d="M96.6936 43.9383C98.6003 42.2517 101.25 43.1952 102.61 46.0455L124.205 91.2836C123.49 95.8479 122.869 105.389 122.833 105.893L126.509 113.594L110.32 127.912L80.5515 65.5568C79.1912 62.7066 79.6315 59.0347 81.5382 57.3481L96.6897 43.9461L96.6936 43.9383ZM101.789 51.3096L100.708 49.0451C99.9488 47.4568 98.4706 46.934 97.4091 47.8696L83.8892 59.8249C82.8238 60.7645 82.58 62.8127 83.3388 64.401L84.4199 66.6654C85.1787 68.2537 86.6529 68.7805 87.7183 67.8409L101.238 55.8857C102.3 54.9461 102.547 52.8978 101.789 51.3096Z" fill="url(#paint0_linear_1742_19270)"/>
<path d="M102.613 46.0452L110.661 45.0859L132.256 90.3241L124.208 91.2794L102.613 46.0452Z" fill="#48FF91"/>
<path fill-rule="evenodd" clip-rule="evenodd" d="M110.639 44.8998C110.718 44.8903 110.795 44.9326 110.83 45.0052L132.425 90.2433C132.451 90.2979 132.449 90.3616 132.42 90.4146C132.391 90.4675 132.338 90.5031 132.278 90.5103L124.23 91.4656C124.151 91.4751 124.074 91.4327 124.039 91.3602L102.444 46.126C102.418 46.0714 102.42 46.0077 102.449 45.9547C102.478 45.9018 102.531 45.8662 102.591 45.859L110.639 44.8998ZM102.895 46.2004L124.32 91.0774L131.974 90.1687L110.549 45.288L102.895 46.2004Z" fill="#0500FF"/>
<path d="M124.204 91.2795L132.252 90.3242C131.536 94.8885 130.915 104.43 130.88 104.933L122.832 105.888C122.863 105.385 123.489 95.8438 124.204 91.2795Z" fill="#48FF91"/>
<path fill-rule="evenodd" clip-rule="evenodd" d="M132.387 90.1941C132.427 90.2364 132.446 90.2953 132.437 90.3533C131.762 94.6567 131.171 103.403 131.078 104.783C131.072 104.863 131.069 104.918 131.067 104.946C131.06 105.036 130.991 105.109 130.902 105.119L122.854 106.075C122.799 106.081 122.744 106.063 122.703 106.025C122.663 105.986 122.641 105.932 122.645 105.877C122.676 105.376 123.302 95.8252 124.019 91.2505C124.032 91.1675 124.099 91.1033 124.182 91.0933L132.229 90.138C132.288 90.1311 132.346 90.1519 132.387 90.1941ZM124.368 91.4489C123.711 95.7384 123.135 104.136 123.034 105.676L130.703 104.765C130.703 104.763 130.703 104.761 130.703 104.759C130.794 103.416 131.367 94.9408 132.029 90.5395L124.368 91.4489Z" fill="#0500FF"/>
<path d="M128.189 113.391L124.513 105.689C124.525 105.485 124.777 101.624 125.154 97.4922L138.403 125.244L123.318 138.583L116.305 123.895L128.185 113.387L128.189 113.391Z" fill="url(#paint1_linear_1742_19270)"/>
<path fill-rule="evenodd" clip-rule="evenodd" d="M122.634 118.061C122.728 118.017 122.839 118.056 122.884 118.15L125.931 124.53C125.952 124.574 125.955 124.625 125.939 124.671L124.643 128.507L127.657 134.819C127.701 134.912 127.662 135.024 127.568 135.069C127.475 135.113 127.363 135.074 127.318 134.98L124.272 128.6C124.251 128.556 124.247 128.505 124.263 128.459L125.56 124.623L122.546 118.311C122.501 118.218 122.541 118.106 122.634 118.061Z" fill="#0500FF"/>
<path fill-rule="evenodd" clip-rule="evenodd" d="M130.323 126.606C130.379 126.619 130.426 126.656 130.451 126.708L132.425 130.844C132.469 130.938 132.43 131.049 132.336 131.094C132.243 131.139 132.131 131.099 132.086 131.006L130.216 127.086L127.963 128.929L129.873 132.928C129.918 133.021 129.878 133.133 129.785 133.178C129.691 133.222 129.579 133.183 129.535 133.089L127.561 128.957C127.524 128.879 127.545 128.786 127.612 128.731L130.163 126.644C130.208 126.607 130.267 126.594 130.323 126.606Z" fill="#0500FF"/>
<path fill-rule="evenodd" clip-rule="evenodd" d="M124.9 116.061C124.993 116.017 125.105 116.056 125.15 116.15L128.14 122.42L131.214 122.337C131.289 122.335 131.357 122.377 131.389 122.444L134.436 128.824C134.48 128.918 134.441 129.03 134.347 129.074C134.254 129.119 134.142 129.079 134.097 128.986L131.103 122.715L128.028 122.799C127.954 122.801 127.886 122.759 127.854 122.692L124.811 116.311C124.767 116.218 124.806 116.106 124.9 116.061Z" fill="#0500FF"/>
<path d="M125.156 97.4889L131.195 96.7734L144.443 124.525L138.405 125.244L125.156 97.4889Z" fill="#FFAEFE"/>
<path d="M133.278 114.5L136.805 108.524L131.195 96.7734L125.156 97.4889L133.278 114.5Z" fill="#1B1B1C"/>
<path d="M138.405 125.247L144.443 124.527L129.363 137.866L123.324 138.586L138.405 125.247Z" fill="#0500FF"/>
<path d="M138.261 127.518L141.5 127.133L131.907 135.617L128.664 136.002L138.261 127.518Z" fill="#1B1B1C"/>
<path fill-rule="evenodd" clip-rule="evenodd" d="M131.174 96.5873C131.254 96.5778 131.331 96.6201 131.366 96.6927L144.615 124.444C144.651 124.52 144.632 124.61 144.57 124.665L141.651 127.249C141.644 127.257 141.637 127.265 141.629 127.272L136.577 131.738L136.577 131.738L129.489 138.008C129.46 138.034 129.425 138.05 129.387 138.054L123.348 138.774C123.268 138.783 123.191 138.741 123.157 138.668L116.143 123.981C116.107 123.905 116.126 123.815 116.188 123.759L127.963 113.344L124.348 105.771C124.334 105.742 124.328 105.711 124.33 105.679C124.342 105.473 124.594 101.61 124.971 97.4758C124.979 97.3877 125.048 97.3172 125.136 97.3067L131.174 96.5873ZM141.355 127.014C141.361 127.006 141.369 126.998 141.376 126.991L144.215 124.478L131.085 96.9755L125.331 97.6611C124.978 101.552 124.738 105.164 124.707 105.653L128.362 113.311C128.398 113.386 128.38 113.476 128.317 113.532L116.543 123.947L123.437 138.385L129.284 137.689L136.329 131.457L136.329 131.457L141.355 127.014Z" fill="#0500FF"/>
<path fill-rule="evenodd" clip-rule="evenodd" d="M96.8376 44.0613C96.8305 44.0704 96.8226 44.0789 96.8139 44.0866L81.6624 57.4886C80.7531 58.2929 80.1806 59.5844 80.0059 61.0384C79.8315 62.4904 80.0568 64.0849 80.7207 65.476C80.7207 65.476 80.7207 65.476 80.7207 65.476L110.382 127.607L126.279 113.547L122.664 105.973C122.65 105.944 122.644 105.912 122.646 105.879C122.648 105.852 122.652 105.798 122.657 105.718C122.749 104.356 123.337 95.6558 124.011 91.312L102.441 46.1262L102.441 46.1262C101.777 44.7344 100.807 43.8281 99.794 43.4672C98.7949 43.1114 97.7357 43.2781 96.8376 44.0613ZM99.9198 43.1139C101.048 43.5157 102.083 44.5063 102.78 45.9647L124.374 91.2028C124.391 91.237 124.396 91.2752 124.39 91.3126C123.716 95.616 123.125 104.363 123.031 105.742C123.028 105.789 123.026 105.827 123.024 105.856L126.678 113.513C126.714 113.589 126.696 113.679 126.633 113.734L110.444 128.052C110.4 128.091 110.34 128.107 110.282 128.096C110.225 128.084 110.176 128.046 110.15 127.993L80.3822 65.6376L80.3822 65.6376C79.6859 64.1784 79.4512 62.5119 79.6336 60.9937C79.8157 59.4777 80.4166 58.0899 81.414 57.2077L96.5454 43.8234C96.5525 43.8142 96.5606 43.8056 96.5694 43.7978C97.5738 42.9094 98.7846 42.7097 99.9198 43.1139ZM99.2346 47.3342C99.8891 47.5669 100.481 48.1367 100.877 48.9643L100.877 48.9643L101.958 51.2287C102.353 52.057 102.486 53.0022 102.382 53.8633C102.279 54.7223 101.937 55.5173 101.363 56.0261L101.362 56.0261L87.8425 67.9814L87.8423 67.9815C87.2586 68.4963 86.5522 68.6135 85.8911 68.3777C85.2371 68.1444 84.6459 67.5736 84.2507 66.7463L84.2507 66.7462L83.1696 64.4818C83.1696 64.4818 83.1696 64.4818 83.1696 64.4818C82.774 63.6537 82.6405 62.7085 82.7438 61.8474C82.8467 60.9883 83.1882 60.1931 83.7652 59.6843L97.2849 47.7292L97.2851 47.729C97.867 47.2161 98.5734 47.0991 99.2346 47.3342ZM97.5332 48.0102C97.5332 48.0102 97.5331 48.0103 97.5331 48.0103L84.0134 59.9653L84.0132 59.9655C83.5247 60.3963 83.2116 61.095 83.1161 61.892C83.0208 62.6869 83.1448 63.56 83.508 64.3202L83.508 64.3202L84.5891 66.5846C84.5891 66.5846 84.5891 66.5846 84.5891 66.5847C84.9526 67.3456 85.478 67.8322 86.0171 68.0245C86.5492 68.2143 87.1124 68.1251 87.5941 67.7005M87.5943 67.7003L101.114 55.7453C101.114 55.7452 101.114 55.7452 101.114 55.7452C101.601 55.3144 101.914 54.6155 102.01 53.8184C102.106 53.0235 101.983 52.1504 101.619 51.3904L101.619 51.3903L100.538 49.1259C100.175 48.3652 99.6487 47.8794 99.109 47.6876C98.5761 47.4981 98.0128 47.5875 97.5332 48.0102" fill="#0500FF"/>
<path d="M100.903 50.9302L97.8839 53.5996C97.8367 53.7096 97.7856 53.8197 97.7188 53.9219C96.221 56.2414 90.3475 54.9008 86.0977 52.1528C83.5502 50.5056 81.502 48.4652 80.3304 46.4052C79.3554 44.6911 79.1313 43.1854 79.7132 42.2812C80.0434 41.7701 80.5859 41.4359 81.2779 41.259C81.8165 40.1976 82.2922 39.1086 82.7049 38.0117C80.2085 38.0471 78.18 38.8963 77.087 40.5868C75.829 42.5328 76.0138 45.1471 77.6099 47.9541C79.0252 50.4387 81.4351 52.8644 84.3954 54.779C87.9022 57.0474 91.5505 58.1992 94.5462 58.1992C97.1212 58.1992 99.2166 57.3461 100.333 55.6203C101.186 54.3033 101.336 52.6717 100.891 50.9302H100.903Z" fill="#2D9FFF"/>
<path fill-rule="evenodd" clip-rule="evenodd" d="M82.8585 37.9039C82.8941 37.9547 82.9024 38.0197 82.8806 38.0778C82.4655 39.1807 81.987 40.276 81.4452 41.3439C81.4208 41.392 81.3768 41.4273 81.3244 41.4407C80.664 41.6095 80.1684 41.9224 79.8709 42.3828C79.6125 42.7845 79.5226 43.3365 79.6236 44.0118C79.7244 44.6863 80.0138 45.4691 80.4935 46.3125L80.4935 46.3125C81.6466 48.34 83.6705 50.36 86.1996 51.9954L86.0978 52.1528L86.1997 51.9954C88.306 53.3574 90.8136 54.3692 92.9732 54.7531C94.0533 54.9451 95.0362 54.9781 95.8338 54.8263C96.6313 54.6745 97.2242 54.3423 97.5614 53.8202L97.562 53.8193C97.6196 53.7312 97.6656 53.6334 97.7117 53.5257C97.7226 53.5002 97.7391 53.4775 97.7599 53.4591L100.732 50.831C100.736 50.8256 100.739 50.8203 100.743 50.8151C100.779 50.7694 100.834 50.7427 100.892 50.7427H100.903C100.981 50.7427 101.051 50.7909 101.079 50.8638C101.089 50.8918 101.093 50.9213 101.09 50.9498C101.523 52.7036 101.368 54.3673 100.491 55.7222C99.3271 57.5206 97.158 58.3867 94.5463 58.3867C91.5064 58.3867 87.8232 57.2195 84.2937 54.9364C81.3139 53.0092 78.8803 50.563 77.4471 48.0469L77.447 48.0468C75.8318 45.2063 75.6193 42.512 76.9297 40.485L76.9297 40.485C78.0686 38.7233 80.1691 37.8601 82.7024 37.8242C82.7644 37.8234 82.8228 37.8532 82.8585 37.9039ZM100.783 51.2869L98.0395 53.7124C97.9951 53.8137 97.9434 53.9212 97.8762 54.0241C97.4644 54.6614 96.7616 55.0314 95.9039 55.1947C95.0462 55.358 94.0142 55.319 92.9076 55.1223C90.6935 54.7287 88.1395 53.6963 85.996 52.3103C83.4302 50.6511 81.3576 48.5904 80.1676 46.4979C79.6723 45.6271 79.3622 44.8 79.2527 44.0672C79.1433 43.3351 79.2323 42.6822 79.5556 42.1797L79.5558 42.1794C79.9048 41.6394 80.4632 41.29 81.1486 41.0995C81.6259 40.1523 82.0531 39.1833 82.4301 38.2066C80.1011 38.2985 78.2519 39.1306 77.2446 40.6886L77.0872 40.5868L77.2446 40.6886C76.039 42.5535 76.196 45.0879 77.773 47.8613C79.1703 50.3145 81.5566 52.7196 84.4974 54.6215L84.4974 54.6215C87.9814 56.8752 91.5949 58.0117 94.5463 58.0117C97.0847 58.0117 99.1063 57.1717 100.176 55.5184L100.176 55.5183C100.944 54.3332 101.124 52.8726 100.783 51.2869Z" fill="#0500FF"/>
<path d="M89.8729 40.5358C89.5977 41.271 89.3029 41.9983 88.9884 42.7216C88.9845 42.7334 88.9805 42.7413 88.9727 42.7531C89.7864 43.1384 90.5845 43.5747 91.3315 44.0583C92.3064 44.6912 93.25 45.4303 94.107 46.2245L96.4776 44.1291C95.4673 43.1777 94.3114 42.2656 93.0298 41.4361C92.0666 40.8149 91.0956 40.2803 90.1285 39.8242C90.0459 40.064 89.9594 40.2999 89.8729 40.5397V40.5358Z" fill="#2D9FFF"/>
<path fill-rule="evenodd" clip-rule="evenodd" d="M90.0556 39.6515C90.1047 39.6308 90.1603 39.6319 90.2084 39.6546C91.1829 40.1141 92.1612 40.6528 93.1314 41.2785L93.1317 41.2787C94.4227 42.1143 95.5875 43.0333 96.6062 43.9926C96.6445 44.0287 96.6659 44.0793 96.6651 44.132C96.6643 44.1847 96.6413 44.2346 96.6018 44.2695L94.2312 46.365C94.159 46.4287 94.0502 46.4275 93.9796 46.362C93.1302 45.5749 92.1952 44.8425 91.2296 44.2157M90.0556 39.6515C90.0065 39.6722 89.9685 39.7128 89.9512 39.7632L90.0556 39.6515ZM90.2365 40.0834C91.134 40.516 92.0344 41.0172 92.928 41.5935C94.1371 42.3761 95.2329 43.2324 96.1987 44.1253L94.1095 45.9721C93.2785 45.2145 92.3707 44.5094 91.4336 43.901L91.4334 43.9009C90.7294 43.4452 89.9813 43.0314 89.2182 42.6627C89.5088 41.9887 89.7825 41.311 90.0392 40.6264C90.0431 40.619 90.0464 40.6113 90.0493 40.6033C90.0673 40.5535 90.0853 40.5037 90.1034 40.4539C90.1479 40.3307 90.1926 40.2074 90.2365 40.0834ZM89.7054 40.4515C89.7208 40.4091 89.736 40.3669 89.7513 40.3248C89.8194 40.1365 89.8865 39.9512 89.9512 39.7632M89.7054 40.4515C89.7024 40.4575 89.6997 40.4637 89.6973 40.4701C89.4233 41.2021 89.1297 41.9264 88.8164 42.6469C88.8154 42.6492 88.8145 42.6515 88.8136 42.6539C88.7858 42.6983 88.7779 42.7525 88.792 42.8032C88.8065 42.8557 88.8432 42.8992 88.8924 42.9226C89.6997 43.3047 90.4904 43.7372 91.2296 44.2157" fill="#0500FF"/>
<path d="M66.8945 51.6744L71.1954 53.2784C74.6786 54.5797 79.3097 52.2209 83.135 46.9136L79.7658 43.9336C75.7833 50.2002 70.6686 53.0819 66.8945 51.6744Z" fill="#F4F4F7"/>
<path fill-rule="evenodd" clip-rule="evenodd" d="M79.7396 43.7479C79.794 43.7403 79.849 43.7568 79.8901 43.7931L83.2592 46.7731C83.3314 46.8369 83.3434 46.945 83.2871 47.0232C81.3623 49.6938 79.2277 51.6328 77.1243 52.7401C75.021 53.8475 72.9357 54.1287 71.13 53.4541C71.1299 53.4541 71.1299 53.4541 71.1299 53.4541L66.8313 51.851C66.8306 51.8507 66.8298 51.8504 66.8291 51.8501L66.8291 51.8501C66.732 51.8139 66.6827 51.7059 66.7189 51.6089C66.7551 51.5119 66.8631 51.4626 66.9601 51.4988C66.9601 51.4988 66.9601 51.4988 66.9601 51.4988C66.9604 51.4989 66.9607 51.499 66.961 51.4991C68.7782 52.1764 70.9399 51.8296 73.1567 50.5203C75.3732 49.2113 77.6278 46.9483 79.6076 43.833C79.637 43.7867 79.6853 43.7556 79.7396 43.7479ZM68.8739 52.2125L71.261 53.1027L71.2611 53.1028C72.9385 53.7295 74.9104 53.4819 76.9496 52.4083C78.9534 51.3534 81.0095 49.5065 82.8833 46.9412L79.8056 44.2191C77.8312 47.276 75.5826 49.5231 73.3474 50.8432C71.825 51.7424 70.3012 52.2151 68.8739 52.2125Z" fill="#0500FF"/>
<path d="M68.3496 51.0058C66.8203 48.8632 66.1441 45.7024 66.2541 42.1445C66.0536 42.3214 65.8374 42.4866 65.5897 42.6399C64.7877 43.1313 63.8442 43.4183 62.8653 43.5126C62.6452 48.3286 63.514 52.6177 65.574 55.4994C70.158 61.9153 78.9485 58.9904 85.5571 49.0519L83.1354 46.9093C78.1268 53.856 71.7423 55.751 68.3535 51.0058H68.3496Z" fill="#F4F4F7"/>
<path fill-rule="evenodd" clip-rule="evenodd" d="M66.3339 41.9748C66.4016 42.0066 66.4439 42.0756 66.4415 42.1503C66.3326 45.6723 67.0005 48.7751 68.4837 50.8709C68.4919 50.8788 68.4994 50.8874 68.5061 50.8968C69.3329 52.0546 70.336 52.7993 71.4473 53.1664C72.5594 53.5339 73.7929 53.5276 75.086 53.1616C77.6767 52.4283 80.4933 50.2532 82.9833 46.7997C83.0143 46.7567 83.062 46.7289 83.1146 46.723C83.1673 46.7171 83.22 46.7338 83.2596 46.7689L85.6813 48.9115C85.7515 48.9735 85.7651 49.0778 85.7132 49.1557C82.3953 54.1454 78.5153 57.3976 74.8644 58.5868C73.0367 59.1822 71.262 59.2615 69.6469 58.7758C68.0307 58.2898 66.5887 57.2421 65.4215 55.6084C63.3272 52.6788 62.4569 48.3413 62.678 43.5041C62.6823 43.4109 62.7544 43.335 62.8473 43.326C63.8021 43.234 64.7173 42.9545 65.4914 42.4802C65.729 42.3331 65.9367 42.1746 66.1301 42.0039C66.1861 41.9545 66.2662 41.943 66.3339 41.9748ZM65.5738 55.4995L65.574 55.4994L65.5738 55.4995C65.8193 42.7183 65.9416 42.6342 66.0575 42.547L65.6884 42.7993L65.6877 42.7998C63.9908 43.5702 64.9028 43.2807 65.6877 42.7998C63.7234 52.5882 62.853 48.4105 63.0457 43.6819L65.7265 55.3903C68.2271 57.9573 66.8513 56.9646 65.7266 55.3904C72.9792 58.8065 71.2838 58.8765 69.7549 58.4167C82.0402 53.9551 78.2582 57.087 74.7482 58.2303L85.3102 49.0839C77.8455 52.7702 80.6763 50.584 83.1657 47.1865C72.5243 53.9172 73.8354 53.9053 75.1881 53.5224C69.084 52.3412 70.1429 53.1304 71.3297 53.5225C68.2038 51.1244 68.2115 51.1332 68.2199 51.1412C66.0091 45.9614 66.6941 49.0092 68.1969 51.1147" fill="#0500FF"/>
<path d="M58.5386 42.6523C58.4404 47.1655 59.321 51.1637 61.2709 53.896C62.3088 55.3506 63.5668 56.3256 64.9664 56.8485L69.2673 58.4525C67.8678 57.9296 66.6136 56.9546 65.5718 55.5C63.5157 52.6183 62.6469 48.3292 62.8631 43.5133C61.381 43.6588 59.8163 43.3639 58.5386 42.6563V42.6523Z" fill="#F4F4F7"/>
<path fill-rule="evenodd" clip-rule="evenodd" d="M58.6588 42.5084C58.6267 42.4816 58.5856 42.4653 58.5407 42.4649C58.4379 42.4637 58.3534 42.5455 58.3512 42.6483C58.2524 47.1827 59.1357 51.2269 61.1183 54.0049C62.1754 55.4865 63.4624 56.4867 64.9008 57.0241L64.9009 57.0242L69.2011 58.6279C69.2013 58.628 69.2015 58.628 69.2017 58.6281L69.2018 58.6281C69.2988 58.6643 69.4068 58.615 69.443 58.518C69.4792 58.421 69.4299 58.3131 69.3329 58.2768C67.9724 57.7685 66.7472 56.819 65.7244 55.391C63.7025 52.5571 62.8352 48.3164 63.0504 43.5217C63.0529 43.4674 63.0316 43.4147 62.9922 43.3773C62.9527 43.3398 62.8989 43.3214 62.8448 43.3267C61.409 43.4676 59.8954 43.1846 58.6588 42.5084ZM67.1623 57.4673C66.5317 56.9658 65.948 56.3472 65.4194 55.6092L65.4192 55.6089C63.3597 52.7225 62.4845 48.4692 62.6669 43.7179C61.3184 43.8123 59.9163 43.5553 58.7209 42.9634C58.6689 47.3283 59.55 51.1619 61.4235 53.7871L61.4236 53.7871C62.4422 55.2148 63.6712 56.1644 65.0319 56.6728C65.032 56.6728 65.032 56.6728 65.032 56.6728L67.1623 57.4673Z" fill="#0500FF"/>
<path d="M67.5108 39.8854L66.8896 46.2228C66.9997 45.1181 66.5279 43.9622 65.4586 43.0187C63.3514 41.1592 59.7267 40.8368 57.3482 42.2953C56.1806 43.0148 55.5319 44.0291 55.4258 45.0984L56.0469 38.7611C56.1531 37.6917 56.7978 36.6774 57.9694 35.958C60.3478 34.4955 63.9725 34.8218 66.0798 36.6814C67.1491 37.6249 67.6169 38.7846 67.5108 39.8854Z" fill="#1B1B1C"/>
<path fill-rule="evenodd" clip-rule="evenodd" d="M62.1096 35.2607C60.6754 35.1324 59.2165 35.4113 58.0676 36.1177C56.9381 36.8114 56.3331 37.7772 56.2335 38.7794C56.2335 38.7795 56.2335 38.7794 56.2335 38.7794L55.7643 43.5674C56.1047 43.0241 56.6028 42.5344 57.2499 42.1357C58.4793 41.3818 60.0222 41.0924 61.5218 41.226C63.0214 41.3596 64.4942 41.9176 65.5827 42.8781C66.1886 43.4127 66.6139 44.0181 66.8554 44.6494L67.3241 39.8674C67.4236 38.8358 66.9875 37.7323 65.9557 36.822C64.9369 35.9229 63.5437 35.389 62.1096 35.2607ZM66.703 46.2042C66.693 46.3072 66.7682 46.3992 66.8712 46.4094C66.9742 46.4195 67.0659 46.3443 67.0762 46.2414C67.0766 46.2377 67.0769 46.2341 67.0773 46.2304L67.6974 39.9037C67.8102 38.7338 67.3107 37.5174 66.2038 36.5408C65.1154 35.5803 63.6427 35.0213 62.143 34.8872C60.6434 34.753 59.1008 35.0422 57.8713 35.7982M66.703 46.2042C66.7034 46.201 66.7037 46.1979 66.704 46.1948C66.8035 45.1629 66.3637 44.0673 65.3346 43.1593C64.3158 42.2603 62.9226 41.7273 61.4885 41.5995C60.0543 41.4717 58.5954 41.7505 57.4464 42.4551C56.3204 43.149 55.7118 44.115 55.6124 45.1169C55.6022 45.2199 55.5104 45.2952 55.4074 45.285C55.3044 45.2748 55.2291 45.1831 55.2392 45.0801L55.8603 38.7428C55.9731 37.6064 56.6578 36.5434 57.8713 35.7982" fill="#0500FF"/>
<path d="M58.4905 65.4413L37.8823 47.2313C37.2258 46.6534 36.9388 45.9418 37.0056 45.2656L36.3845 51.603C36.3176 52.2792 36.6046 52.9907 37.2611 53.5686L57.8693 71.7787L58.4905 65.4413Z" fill="#1B1B1C"/>
<path fill-rule="evenodd" clip-rule="evenodd" d="M37.024 45.079C37.127 45.0892 37.2023 45.1809 37.1922 45.2839C37.1921 45.2849 37.192 45.286 37.1919 45.287C37.1331 45.8929 37.3884 46.5467 38.0062 47.0906L58.6147 65.3008C58.6597 65.3407 58.683 65.3998 58.6771 65.4596L58.056 71.797C58.0491 71.8671 58.0035 71.9274 57.938 71.9532C57.8724 71.979 57.798 71.9658 57.7452 71.9192L37.1373 53.7094C37.1372 53.7094 37.1373 53.7094 37.1373 53.7094C36.4432 53.0983 36.1242 52.3303 36.1979 51.5847C36.1979 51.5847 36.1979 51.5847 36.1979 51.5847L36.819 45.2473C36.819 45.2474 36.819 45.2473 36.819 45.2473C36.8292 45.1443 36.921 45.0689 37.024 45.079ZM37.0721 46.5101L36.5711 51.6213C36.5111 52.228 36.7662 52.8832 37.3851 53.4279L57.7185 71.3952L58.2946 65.5184L37.7584 47.3721C37.7584 47.372 37.7585 47.3721 37.7584 47.3721C37.4597 47.1091 37.2304 46.8169 37.0721 46.5101Z" fill="#0500FF"/>
<path d="M89.8581 54.043C89.7952 54.6995 89.3982 55.3207 88.6787 55.7649L71.1016 66.5722L70.4805 72.9096L88.0576 62.1023C88.7731 61.6619 89.1701 61.0369 89.237 60.3803L89.8581 54.043Z" fill="#1B1B1C"/>
<path fill-rule="evenodd" clip-rule="evenodd" d="M89.8762 53.8564C89.9792 53.8663 90.0546 53.9579 90.0448 54.0609C90.0445 54.064 90.0442 54.0671 90.0439 54.0702L89.4236 60.3986C89.35 61.1216 88.9134 61.7957 88.1558 62.2619L70.5787 73.0693C70.518 73.1066 70.4415 73.1063 70.3811 73.0686C70.3207 73.0308 70.2869 72.9621 70.2939 72.8913L70.915 66.5539C70.9207 66.4955 70.9535 66.4432 71.0034 66.4125L88.5802 55.6054C88.5801 55.6054 88.5803 55.6053 88.5802 55.6054C89.2555 55.1883 89.612 54.6185 89.6707 54.0327C89.671 54.0301 89.6712 54.0276 89.6715 54.0251C89.6816 53.9221 89.7732 53.8464 89.8762 53.8564ZM89.5514 55.2502C89.3506 55.5022 89.0915 55.7304 88.7772 55.9245L71.2792 66.6832L70.7039 72.5521L87.9593 61.9426C87.9593 61.9426 87.9593 61.9426 87.9593 61.9426C88.6327 61.5282 88.9904 60.9514 89.0504 60.3613L89.5514 55.2502Z" fill="#0500FF"/>
<path d="M71.1079 66.5736L70.4868 72.911L57.875 71.7866L58.4961 65.4453L71.1079 66.5736Z" fill="#1B1B1C"/>
<path fill-rule="evenodd" clip-rule="evenodd" d="M58.3095 65.4231C58.3196 65.3207 58.4103 65.2455 58.5129 65.2547L71.1247 66.383C71.1745 66.3874 71.2204 66.4116 71.2523 66.4501C71.2842 66.4886 71.2994 66.5382 71.2946 66.588L70.6734 72.9254C70.6634 73.0278 70.5726 73.103 70.4701 73.0938L57.8584 71.9695C57.8085 71.965 57.7626 71.9409 57.7306 71.9024C57.6987 71.8639 57.6835 71.8142 57.6884 71.7644L58.3095 65.4231ZM58.6646 65.6447L58.08 71.6127L70.3183 72.7038L70.9029 66.7396L58.6646 65.6447Z" fill="#0500FF"/>
<path d="M88.9854 52.076L65.8572 31.6408L58.6078 30.9961L38.1884 43.5489C36.7298 44.4453 36.5962 46.0964 37.8856 47.2365L43.5979 52.2805L55.2308 62.557L58.4977 65.4426L71.1095 66.567L88.6866 55.7597C90.1452 54.8634 90.2788 53.2122 88.9893 52.0721L88.9854 52.076ZM65.5899 42.6879C63.2154 44.1465 59.5828 43.8241 57.4795 41.9646C56.3945 41.0053 55.9266 39.8298 56.0564 38.7133C56.1743 37.6637 56.8191 36.6651 57.9709 35.9575C60.3494 34.495 63.9741 34.8213 66.0813 36.6808C67.1664 37.6401 67.6342 38.8156 67.5045 39.936C67.3865 40.9857 66.7418 41.9842 65.5899 42.6919V42.6879Z" fill="url(#paint2_linear_1742_19270)"/>
<path fill-rule="evenodd" clip-rule="evenodd" d="M58.5096 30.8364C58.544 30.8152 58.5843 30.8058 58.6245 30.8093L65.8739 31.4541C65.9137 31.4576 65.9514 31.4738 65.9814 31.5003L89.0758 51.9057C89.0891 51.9126 89.1018 51.9213 89.1136 51.9316C89.795 52.5341 90.1155 53.287 90.0554 54.0226C89.9952 54.7585 89.5567 55.4451 88.7848 55.9195L71.2078 66.7267C71.1734 66.7479 71.1331 66.7574 71.0929 66.7538L58.4811 65.6294C58.4413 65.6259 58.4036 65.6096 58.3736 65.5832L55.1067 62.6976L43.4738 52.421L37.7616 47.3771C37.0801 46.7746 36.7595 46.0217 36.8196 45.286C36.8798 44.5501 37.3183 43.8635 38.0902 43.3892C38.0902 43.3892 38.0902 43.3892 38.0902 43.3892L58.5096 30.8364ZM58.6531 31.1884L38.2866 43.7086C37.5999 44.1306 37.2423 44.7179 37.1934 45.3166C37.1444 45.9157 37.4018 46.5585 38.0099 47.0961L43.722 52.1399L58.5757 65.2613L71.0643 66.3747L88.5884 55.6C89.2751 55.178 89.6327 54.5908 89.6816 53.992C89.7297 53.4038 89.4824 52.7734 88.8978 52.2418C88.8849 52.235 88.8727 52.2266 88.8613 52.2165L65.7793 31.8221L58.6531 31.1884ZM62.1112 35.2602C60.677 35.1319 59.2181 35.4107 58.0692 36.1172C56.9585 36.7995 56.3532 37.7507 56.2427 38.7343C56.1213 39.7796 56.5563 40.8981 57.6037 41.8241C58.6204 42.7229 60.0144 43.256 61.4496 43.3838C62.8849 43.5116 64.3448 43.2327 65.4918 42.5282C65.5018 42.522 65.5122 42.5169 65.523 42.5128C66.6137 41.8319 67.2087 40.8894 67.3182 39.9151C67.4397 38.8657 67.0045 37.7473 65.9572 36.8214C64.9385 35.9224 63.5453 35.3884 62.1112 35.2602ZM65.6556 42.8675C64.4333 43.6068 62.9036 43.8897 61.4164 43.7573C59.9158 43.6237 58.442 43.0658 57.3554 42.1051C56.2328 41.1126 55.7322 39.8796 55.8701 38.6919M57.8728 35.7977C59.1023 35.0417 60.645 34.7525 62.1446 34.8866C63.6443 35.0208 65.117 35.5797 66.2054 36.5402C67.3281 37.5328 67.8287 38.7659 67.6908 39.9574C67.5653 41.0729 66.8811 42.1187 65.6881 42.8516C65.6777 42.858 65.6668 42.8633 65.6556 42.8675" fill="#0500FF"/>
<path d="M38.5269 68.5426L38.177 72.0651L36.1562 70.2803L36.5061 66.7578L38.5269 68.5426Z" fill="#FFAEFE"/>
<path d="M55.2191 62.5586L29.2132 78.5474L28.8633 82.0699L54.8692 66.0811L55.2191 62.5586Z" fill="#1B1B1C"/>
<path d="M36.5052 66.7578L36.1553 70.2803L7.55859 87.8574L7.90848 84.3349L36.5052 66.7578Z" fill="#1B1B1C"/>
<path d="M25.2077 78.1891L24.8578 81.7116L23.8867 80.8545L24.2405 77.332L25.2077 78.1891Z" fill="#FFAEFE"/>
<path d="M29.2153 78.5453L28.8654 82.0678L24.8594 81.71L25.2093 78.1875L29.2153 78.5453Z" fill="#FFAEFE"/>
<path d="M41.2015 71.1726L40.8516 74.6911L48.9895 69.6905L49.3433 66.168L41.2015 71.1726Z" fill="#0500FF"/>
<path d="M33.5179 68.5938L33.168 72.1162L36.1558 70.2803L36.5057 66.7578L33.5179 68.5938Z" fill="#0500FF"/>
<path d="M7.9096 84.3356L7.5597 87.8581L5.55078 86.0811L5.90067 82.5586L7.9096 84.3356Z" fill="#FFAEFE"/>
<path d="M55.2173 62.5577L29.2114 78.5466L25.2053 78.1888L24.2382 77.3318L38.5248 68.5452L36.504 66.7604L7.90736 84.3375L5.89844 82.5605L6.51173 75.0713L48.5379 49.2344L53.2438 53.3938L51.0894 58.9134L55.2173 62.5577Z" fill="url(#paint3_linear_1742_19270)"/>
<path d="M30.7211 73.3477L24.2422 77.3301L25.2093 78.1872L29.2154 78.5449L35.71 74.5507L30.7211 73.3477Z" fill="#F4F4F7"/>
<path d="M27.1773 72.4909L15.3518 69.6367L6.51408 75.0699L6.14453 79.587L12.9576 81.2342L27.1773 72.4909Z" fill="#F4F4F7"/>
<path fill-rule="evenodd" clip-rule="evenodd" d="M37.7567 55.6926C37.8596 55.7042 37.9336 55.797 37.922 55.8999L37.462 59.9807C37.4556 60.038 37.4231 60.0892 37.3739 60.1194L15.6139 73.4978C15.5256 73.552 15.4102 73.5245 15.3559 73.4363C15.3017 73.3481 15.3292 73.2326 15.4174 73.1784L37.0996 59.8478L37.5494 55.8579C37.561 55.755 37.6538 55.681 37.7567 55.6926Z" fill="#0500FF"/>
<path d="M16.4972 74.1997C15.8878 74.5732 14.9521 74.4907 14.4135 74.015C14.1344 73.7673 14.0165 73.4646 14.0479 73.1776C14.0794 72.9063 14.2445 72.6508 14.5393 72.47C15.1487 72.0925 16.0844 72.179 16.623 72.6547C16.9021 72.9024 17.02 73.2051 16.9886 73.4921C16.9571 73.7634 16.792 74.0189 16.4972 74.1997Z" fill="#0500FF"/>
<path d="M21.0558 71.399C20.4464 71.7724 19.5107 71.6899 18.9721 71.2142C18.693 70.9665 18.5751 70.6638 18.6065 70.3768C18.638 70.1056 18.8031 69.85 19.0979 69.6692C19.7073 69.2918 20.643 69.3783 21.1816 69.8539C21.4607 70.1016 21.5786 70.4043 21.5472 70.6913C21.5157 70.9626 21.3506 71.2181 21.0558 71.399Z" fill="#0500FF"/>
<path d="M25.6183 68.5943C25.0089 68.9678 24.0732 68.8852 23.5346 68.4095C23.2555 68.1618 23.1376 67.8591 23.169 67.5721C23.2005 67.3009 23.3656 67.0453 23.6604 66.8645C24.2698 66.4871 25.2055 66.5736 25.7441 67.0493C26.0232 67.2969 26.1411 67.5996 26.1097 67.8866C26.0782 68.1579 25.9131 68.4134 25.6183 68.5943Z" fill="#0500FF"/>
<path fill-rule="evenodd" clip-rule="evenodd" d="M48.442 49.0746C48.5122 49.0314 48.6025 49.0392 48.6643 49.0939L53.3702 53.2533C53.4291 53.3053 53.4493 53.3887 53.4207 53.4619L51.3139 58.8595L55.3436 62.4172C55.3888 62.4571 55.4121 62.5163 55.4061 62.5763L55.0562 66.0988C55.0504 66.1571 55.0177 66.2093 54.9678 66.24L28.9619 82.2288C28.9275 82.2499 28.8873 82.2594 28.847 82.2558L24.841 81.8981C24.8012 81.8945 24.7636 81.8783 24.7336 81.8519L23.7626 80.9948C23.7173 80.9549 23.6941 80.8957 23.7001 80.8356L23.9848 77.9845L7.65789 88.0197C7.58758 88.0629 7.49729 88.0551 7.43548 88.0004L5.42656 86.2234C5.38145 86.1835 5.35825 86.1244 5.3642 86.0644L5.7138 82.5452L5.71409 82.542L6.32709 75.0559C6.33196 74.9964 6.3649 74.9428 6.41577 74.9115L48.442 49.0746ZM6.69309 75.1812L6.08728 82.579L5.74684 86.0061L7.57988 87.6275L24.1108 77.4669C24.1715 77.4296 24.2481 77.4299 24.3085 77.4677C24.3689 77.5056 24.4027 77.5744 24.3956 77.6453L24.0828 80.7773L24.9356 81.53L28.8185 81.8768L54.6922 65.9692L55.0235 62.6348L50.9675 59.0539C50.9085 59.0019 50.8883 58.9185 50.9169 58.8452L53.0237 53.4475L48.52 49.4668L6.69309 75.1812Z" fill="#0500FF"/>
<path d="M86.9561 20.9154C86.158 19.7949 85.1909 19.0441 84.1137 18.6431L79.8128 17.0391C80.89 17.4401 81.8532 18.1909 82.6552 19.3114C86.3074 24.4261 85.1005 35.3041 79.9661 43.615C79.8993 43.7212 79.8325 43.8273 79.7656 43.9335L83.1348 46.9134C83.5201 46.3788 83.8975 45.8127 84.267 45.219C89.4053 36.9081 90.6083 26.0301 86.9561 20.9154Z" fill="url(#paint4_linear_1742_19270)"/>
<path d="M69.0672 23.939C74.2763 15.5101 81.0618 11.6102 86.0468 13.4698L81.7459 11.8658C76.7648 10.0062 69.9793 13.9061 64.7663 22.335C60.8389 28.688 58.6845 36.1969 58.5391 42.6522C59.8168 43.3599 61.3814 43.6547 62.8636 43.5093C63.1505 37.223 65.2892 30.0444 69.0633 23.935L69.0672 23.939Z" fill="url(#paint5_linear_1742_19270)"/>
<path fill-rule="evenodd" clip-rule="evenodd" d="M64.5991 22.2537C64.6446 22.1607 64.7568 22.1221 64.8499 22.1675L66.847 23.1425C66.8946 23.1657 66.9302 23.208 66.9449 23.2589C66.9596 23.3098 66.9521 23.3645 66.9243 23.4096C65.5548 25.6244 64.4019 27.982 63.473 30.3836L65.4854 31.2897C65.5799 31.3322 65.6219 31.4432 65.5794 31.5376C65.5369 31.6321 65.4259 31.6741 65.3315 31.6316L63.1574 30.6527C63.0669 30.6119 63.0238 30.5076 63.0593 30.4148C63.9824 27.9993 65.1306 25.6244 66.4968 23.3888L64.6854 22.5045C64.5923 22.459 64.5537 22.3468 64.5991 22.2537Z" fill="#0500FF"/>
<path d="M89.7341 16.4165C84.9929 9.77644 75.7385 13.1456 69.063 23.9372C65.285 30.0465 63.1463 37.2252 62.8633 43.5114C63.8422 43.4171 64.7857 43.1301 65.5877 42.6386C65.8354 42.4853 66.0516 42.3202 66.2521 42.1433C66.4015 37.2173 68.0566 31.5286 71.0405 26.7049C76.1788 18.394 83.3024 15.8032 86.9546 20.914C90.6069 26.0287 89.3999 36.9067 84.2656 45.2176C83.896 45.8113 83.5186 46.3734 83.1334 46.9081L85.5551 49.0507C85.787 48.7047 86.015 48.347 86.2391 47.9853C92.9106 37.1937 94.4793 23.0605 89.7341 16.4204V16.4165Z" fill="#2D9FFF"/>
<path fill-rule="evenodd" clip-rule="evenodd" d="M85.4924 13.092C87.1772 13.5539 88.6793 14.6166 89.8867 16.3076C89.8924 16.3156 89.8975 16.324 89.9019 16.3327C92.3012 19.7076 93.0881 24.9458 92.4542 30.6667C91.8183 36.4063 89.7492 42.6641 86.3986 48.0839L86.3985 48.0841C86.1736 48.447 85.9444 48.8068 85.7108 49.1551C85.6807 49.2 85.6326 49.2298 85.579 49.2367C85.5253 49.2436 85.4713 49.227 85.4308 49.1911L83.0091 47.0485C82.937 46.9847 82.9249 46.8766 82.9812 46.7985C83.3639 46.2674 83.7389 45.7089 84.1062 45.1189C86.6585 40.9875 88.2348 36.217 88.7187 31.8466C89.2034 27.4696 88.5896 23.5263 86.802 21.0229C85.9111 19.7762 84.8158 19.0081 83.6003 18.6748C82.3832 18.3411 81.03 18.4391 79.6189 18.9525C76.7926 19.9808 73.7562 22.669 71.2 26.8035L71.2 26.8035C68.2328 31.6002 66.5879 37.2569 66.4395 42.149C66.438 42.2008 66.415 42.2496 66.3762 42.2839C66.1687 42.467 65.9441 42.6386 65.6864 42.7981L65.6857 42.7985C64.8559 43.307 63.8841 43.6014 62.8813 43.6981C62.8272 43.7033 62.7735 43.6848 62.7341 43.6474C62.6947 43.6099 62.6735 43.5573 62.676 43.503C62.9605 37.1841 65.1091 29.9745 68.9036 23.8386L68.9036 23.8386C72.2543 18.4218 76.2657 14.8444 80.0598 13.4638C81.959 12.7727 83.8091 12.6304 85.4924 13.092ZM69.2225 24.0358C65.5048 30.0476 63.3821 37.0997 63.0612 43.3007C63.9377 43.1894 64.7738 42.9174 65.4894 42.479C65.7023 42.3472 65.8912 42.2062 66.0673 42.0555C66.2335 37.1147 67.8969 31.4304 70.881 26.6062C73.4632 22.4298 76.5576 19.6672 79.4907 18.6001C80.9594 18.0658 82.3931 17.955 83.6994 18.3132C85.0073 18.6718 86.172 19.4963 87.1072 20.805L87.1072 20.805C88.9719 23.4164 89.5807 27.4694 89.0914 31.8879C88.6014 36.3129 87.0071 41.1368 84.4251 45.3162L84.4248 45.3167C84.0846 45.8631 83.7378 46.3831 83.3843 46.8798L85.5181 48.7676C85.7077 48.48 85.8949 48.185 86.0796 47.8867C89.4006 42.5149 91.4516 36.3104 92.0815 30.6254C92.7122 24.9339 91.9155 19.7954 89.5816 16.5295C89.5759 16.5215 89.5709 16.5132 89.5665 16.5045C88.406 14.8878 86.9788 13.8883 85.3932 13.4536C83.7992 13.0166 82.0295 13.1461 80.188 13.8162C76.5007 15.158 72.5472 18.661 69.2225 24.0358Z" fill="#0500FF"/>
<path fill-rule="evenodd" clip-rule="evenodd" d="M73.25 13.0819C76.2514 11.2672 79.2539 10.734 81.8153 11.6902C83.4311 12.2903 86.0713 13.2739 86.2901 13.3629C87.6556 13.9124 88.8781 14.8883 89.891 16.3096C89.8967 16.3176 89.9017 16.3259 89.906 16.3346C92.3054 19.7095 93.0923 24.9477 92.4584 30.6686C91.8224 36.4081 89.7534 42.666 86.4028 48.0858C86.1779 48.4488 85.9485 48.8087 85.715 49.157C85.6849 49.2019 85.6369 49.2316 85.5833 49.2385C85.5296 49.2455 85.4757 49.2289 85.4351 49.1931L83.0134 47.0545L79.6441 44.0744C79.5753 44.0135 79.5607 43.9118 79.6097 43.8341L79.8093 43.517C79.8095 43.5167 79.8096 43.5165 79.8098 43.5163C82.3619 39.3849 83.938 34.6147 84.422 30.2445C84.9067 25.8675 84.2929 21.9241 82.5053 19.4208L82.5044 19.4195C82.2617 19.0733 81.9988 18.7702 81.7215 18.4975C78.3742 18.7155 74.413 21.6114 71.2042 26.8014C68.237 31.5981 66.5921 37.2549 66.4437 42.1469C66.4421 42.1987 66.4192 42.2476 66.3803 42.2819C66.1729 42.4649 65.9482 42.6365 65.6906 42.796L65.6899 42.7965C64.8601 43.3049 63.8884 43.5993 62.8857 43.696C61.3686 43.8449 59.7655 43.5438 58.4521 42.8164C58.3912 42.7826 58.3539 42.7178 58.3555 42.6481C58.5018 36.1583 60.6664 28.617 64.6108 22.2365C67.2285 18.0038 70.2477 14.8972 73.25 13.0819ZM64.9297 22.4337C61.0424 28.7218 58.9006 36.1471 58.7332 42.5422C59.9567 43.1912 61.4404 43.461 62.8491 43.3228C63.804 43.2307 64.7195 42.9512 65.4936 42.4769C65.7065 42.3451 65.8954 42.2041 66.0715 42.0534C66.2377 37.1126 67.9011 31.4283 70.8852 26.6042C74.145 21.3317 78.2362 18.3038 81.7832 18.1182C81.835 18.1155 81.8856 18.1343 81.923 18.1703C82.2373 18.4725 82.5362 18.8117 82.811 19.2036C84.6753 21.815 85.284 25.8677 84.7947 30.2858C84.3047 34.7108 82.7104 39.5347 80.1284 43.7141L80.1275 43.7154L80.0119 43.8991L83.2617 46.7734L85.5222 48.7697C85.7118 48.482 85.899 48.1869 86.0838 47.8886C89.4048 42.5168 91.4558 36.3123 92.0857 30.6273C92.7163 24.9357 91.9197 19.7973 89.5857 16.5313C89.58 16.5233 89.575 16.515 89.5706 16.5063C88.5974 15.1479 87.435 14.2278 86.1497 13.7107L86.149 13.7103C85.9403 13.6253 83.3071 12.6442 81.6845 12.0416C79.2649 11.1384 76.3838 11.6253 73.444 13.4028C70.505 15.1798 67.5249 18.2375 64.9297 22.4337Z" fill="#0500FF"/>
<defs>
<linearGradient id="paint0_linear_1742_19270" x1="96.8443" y1="112.901" x2="111.138" y2="54.7313" gradientUnits="userSpaceOnUse">
<stop stop-color="#48FF91"/>
<stop offset="1" stop-color="#FFF465"/>
</linearGradient>
<linearGradient id="paint1_linear_1742_19270" x1="121.466" y1="118.766" x2="134.644" y2="115.377" gradientUnits="userSpaceOnUse">
<stop stop-color="#FFAEFE"/>
<stop offset="1" stop-color="#FFF465"/>
</linearGradient>
<linearGradient id="paint2_linear_1742_19270" x1="80.3942" y1="50.6102" x2="40.9708" y2="46.1463" gradientUnits="userSpaceOnUse">
<stop stop-color="#0502FF"/>
<stop offset="0.18" stop-color="#1131FF"/>
<stop offset="0.36" stop-color="#1B59FF"/>
<stop offset="0.53" stop-color="#2377FF"/>
<stop offset="0.69" stop-color="#288DFF"/>
<stop offset="0.85" stop-color="#2B9AFF"/>
<stop offset="1" stop-color="#2D9FFF"/>
</linearGradient>
<linearGradient id="paint3_linear_1742_19270" x1="7.70945" y1="64.471" x2="54.3987" y2="69.7576" gradientUnits="userSpaceOnUse">
<stop stop-color="#FFAEFE"/>
<stop offset="1" stop-color="#FFF465"/>
</linearGradient>
<linearGradient id="paint4_linear_1742_19270" x1="80.762" y1="33.9716" x2="86.1794" y2="22.7116" gradientUnits="userSpaceOnUse">
<stop stop-color="#F4F4F7"/>
<stop offset="0.15" stop-color="#F0F2F7"/>
<stop offset="0.29" stop-color="#E4EDF7"/>
<stop offset="0.43" stop-color="#D0E4F8"/>
<stop offset="0.57" stop-color="#B5D9F9"/>
<stop offset="0.71" stop-color="#91C9FA"/>
<stop offset="0.85" stop-color="#65B7FC"/>
<stop offset="0.98" stop-color="#33A1FE"/>
<stop offset="1" stop-color="#2D9FFF"/>
</linearGradient>
<linearGradient id="paint5_linear_1742_19270" x1="68.7886" y1="30.1273" x2="63.5407" y2="39.8911" gradientUnits="userSpaceOnUse">
<stop stop-color="#F4F4F7"/>
<stop offset="0.15" stop-color="#F0F2F7"/>
<stop offset="0.29" stop-color="#E4EDF7"/>
<stop offset="0.43" stop-color="#D0E4F8"/>
<stop offset="0.57" stop-color="#B5D9F9"/>
<stop offset="0.71" stop-color="#91C9FA"/>
<stop offset="0.85" stop-color="#65B7FC"/>
<stop offset="0.98" stop-color="#33A1FE"/>
<stop offset="1" stop-color="#2D9FFF"/>
</linearGradient>
</defs>
</svg>
